<svg width="84" height="32" viewBox="0 0 84 32" fill="none" xmlns="http://www.w3.org/2000/svg">
<path d="M12.155 31.444C10.305 31.444 8.66467 31.074 7.234 30.334C5.828 29.594 4.718 28.595 3.904 27.337C3.11467 26.0543 2.72 24.6237 2.72 23.045C2.72 21.269 3.21333 19.715 4.2 18.383C5.18667 17.051 6.54333 16.1013 8.27 15.534L8.196 16.459C6.88867 15.941 5.865 15.1147 5.125 13.98C4.40967 12.8207 4.052 11.575 4.052 10.243C4.052 8.837 4.39733 7.59133 5.088 6.506C5.80333 5.42067 6.76533 4.56967 7.974 3.953C9.20733 3.31167 10.601 2.991 12.155 2.991C13.709 2.991 15.0903 3.29933 16.299 3.916C17.5077 4.53267 18.4573 5.396 19.148 6.506C19.8633 7.59133 20.221 8.837 20.221 10.243C20.221 11.649 19.8387 12.907 19.074 14.017C18.334 15.127 17.3473 15.9533 16.114 16.496L16.003 15.534C17.7543 16.1013 19.1233 17.0633 20.11 18.42C21.0967 19.752 21.59 21.2937 21.59 23.045C21.59 24.6237 21.183 26.0543 20.369 27.337C19.5797 28.595 18.4697 29.594 17.039 30.334C15.633 31.074 14.005 31.444 12.155 31.444ZM12.155 28.299C13.3143 28.299 14.3257 28.077 15.189 27.633C16.0523 27.189 16.7183 26.5723 17.187 25.783C17.6803 24.969 17.927 24.044 17.927 23.008C17.927 21.9473 17.6803 21.0223 17.187 20.233C16.7183 19.419 16.0523 18.8023 15.189 18.383C14.3257 17.939 13.3143 17.717 12.155 17.717C10.9957 17.717 9.972 17.939 9.084 18.383C8.22067 18.8023 7.55467 19.419 7.086 20.233C6.61733 21.0223 6.383 21.9473 6.383 23.008C6.383 24.044 6.61733 24.969 7.086 25.783C7.55467 26.5723 8.22067 27.189 9.084 27.633C9.972 28.077 10.9957 28.299 12.155 28.299ZM12.155 14.572C12.9937 14.572 13.7337 14.387 14.375 14.017C15.041 13.647 15.5713 13.1537 15.966 12.537C16.3607 11.8957 16.558 11.1557 16.558 10.317C16.558 9.47833 16.3607 8.75066 15.966 8.134C15.5713 7.51733 15.041 7.03633 14.375 6.691C13.7337 6.321 12.9937 6.136 12.155 6.136C11.2917 6.136 10.527 6.321 9.861 6.691C9.195 7.03633 8.66467 7.51733 8.27 8.134C7.87533 8.75066 7.678 9.47833 7.678 10.317C7.678 11.1557 7.87533 11.8957 8.27 12.537C8.66467 13.1537 9.195 13.647 9.861 14.017C10.527 14.387 11.2917 14.572 12.155 14.572ZM34.8695 31.444C33.4389 31.444 32.0945 31.1973 30.8365 30.704C29.5785 30.186 28.4809 29.4583 27.5435 28.521C26.6309 27.559 25.9649 26.4367 25.5455 25.154L28.5055 23.896C29.0235 25.2527 29.8622 26.3133 31.0215 27.078C32.2055 27.818 33.4882 28.188 34.8695 28.188C36.0042 28.188 37.0032 27.9413 37.8665 27.448C38.7545 26.93 39.4452 26.227 39.9385 25.339C40.4319 24.4263 40.6785 23.415 40.6785 22.305C40.6785 21.1457 40.4195 20.122 39.9015 19.234C39.4082 18.346 38.7299 17.6553 37.8665 17.162C37.0032 16.644 36.0165 16.385 34.9065 16.385C33.7719 16.385 32.7359 16.644 31.7985 17.162C30.8612 17.68 30.1829 18.3337 29.7635 19.123L26.8405 18.494L28.9495 3.435H43.2315V6.58H30.3185L31.7245 5.174L30.0965 16.866L28.8385 16.126C29.6525 15.09 30.6022 14.35 31.6875 13.906C32.7975 13.4373 33.9939 13.203 35.2765 13.203C37.0772 13.203 38.6559 13.61 40.0125 14.424C41.3692 15.238 42.4299 16.3233 43.1945 17.68C43.9592 19.0367 44.3415 20.5783 44.3415 22.305C44.3415 24.0317 43.9222 25.5857 43.0835 26.967C42.2695 28.3483 41.1472 29.446 39.7165 30.26C38.3105 31.0493 36.6949 31.444 34.8695 31.444ZM51.8603 31L74.3563 3.435H78.4633L55.9673 31H51.8603ZM56.0043 17.421C54.6477 17.421 53.4267 17.1003 52.3413 16.459C51.256 15.793 50.3803 14.9173 49.7143 13.832C49.073 12.7467 48.7523 11.538 48.7523 10.206C48.7523 8.874 49.073 7.66533 49.7143 6.58C50.3803 5.47 51.256 4.59433 52.3413 3.953C53.4267 3.31167 54.6477 2.991 56.0043 2.991C57.3363 2.991 58.545 3.31167 59.6303 3.953C60.7157 4.59433 61.579 5.47 62.2203 6.58C62.8617 7.66533 63.1823 8.874 63.1823 10.206C63.1823 11.538 62.8617 12.7467 62.2203 13.832C61.579 14.9173 60.7157 15.793 59.6303 16.459C58.545 17.1003 57.3363 17.421 56.0043 17.421ZM55.9673 14.387C56.806 14.387 57.5213 14.1897 58.1133 13.795C58.7053 13.4003 59.174 12.8823 59.5193 12.241C59.8647 11.5997 60.0373 10.9213 60.0373 10.206C60.0373 9.466 59.8647 8.78767 59.5193 8.171C59.174 7.52967 58.7053 7.01167 58.1133 6.617C57.5213 6.19766 56.806 5.988 55.9673 5.988C55.178 5.988 54.475 6.19766 53.8583 6.617C53.2417 7.01167 52.7607 7.52967 52.4153 8.171C52.07 8.81233 51.8973 9.49067 51.8973 10.206C51.8973 10.8967 52.07 11.575 52.4153 12.241C52.7607 12.8823 53.2417 13.4003 53.8583 13.795C54.475 14.1897 55.178 14.387 55.9673 14.387ZM74.0973 31.444C72.7407 31.444 71.5197 31.1233 70.4343 30.482C69.349 29.816 68.4733 28.9403 67.8073 27.855C67.166 26.7697 66.8453 25.561 66.8453 24.229C66.8453 22.897 67.166 21.6883 67.8073 20.603C68.4733 19.493 69.349 18.6173 70.4343 17.976C71.5197 17.3347 72.7407 17.014 74.0973 17.014C75.4293 17.014 76.638 17.3347 77.7233 17.976C78.8087 18.6173 79.672 19.493 80.3133 20.603C80.9547 21.6883 81.2753 22.897 81.2753 24.229C81.2753 25.561 80.9547 26.7697 80.3133 27.855C79.672 28.9403 78.8087 29.816 77.7233 30.482C76.638 31.1233 75.4293 31.444 74.0973 31.444ZM74.0973 28.41C74.9113 28.41 75.6143 28.2127 76.2063 27.818C76.823 27.4233 77.2917 26.9053 77.6123 26.264C77.9577 25.6227 78.1303 24.9443 78.1303 24.229C78.1303 23.489 77.9577 22.8107 77.6123 22.194C77.2917 21.5527 76.823 21.0347 76.2063 20.64C75.6143 20.2207 74.9113 20.011 74.0973 20.011C73.308 20.011 72.5927 20.2207 71.9513 20.64C71.3347 21.0347 70.8537 21.5527 70.5083 22.194C70.163 22.8353 69.9903 23.5137 69.9903 24.229C69.9903 24.9197 70.163 25.598 70.5083 26.264C70.8537 26.9053 71.3347 27.4233 71.9513 27.818C72.5927 28.2127 73.308 28.41 74.0973 28.41Z" fill="#5E2FD3"/>
</svg>
