<svg width="85" height="32" viewBox="0 0 85 32" fill="none" xmlns="http://www.w3.org/2000/svg">
<path d="M3.349 31L15.448 6.58H1.943V3.435H19.259V6.58L7.271 31H3.349ZM34.2015 31.444C32.0062 31.444 30.0822 30.852 28.4295 29.668C26.8015 28.4593 25.5312 26.7943 24.6185 24.673C23.7058 22.527 23.2495 20.0357 23.2495 17.199C23.2495 14.3623 23.7058 11.8833 24.6185 9.762C25.5312 7.616 26.8015 5.951 28.4295 4.767C30.0575 3.583 31.9692 2.991 34.1645 2.991C36.3598 2.991 38.2715 3.583 39.8995 4.767C41.5275 5.951 42.7978 7.616 43.7105 9.762C44.6478 11.8833 45.1165 14.3623 45.1165 17.199C45.1165 20.0357 44.6602 22.527 43.7475 24.673C42.8348 26.819 41.5522 28.484 39.8995 29.668C38.2715 30.852 36.3722 31.444 34.2015 31.444ZM34.2015 28.077C35.6815 28.077 36.9642 27.633 38.0495 26.745C39.1348 25.8323 39.9735 24.562 40.5655 22.934C41.1822 21.306 41.4905 19.3943 41.4905 17.199C41.4905 15.0037 41.1822 13.092 40.5655 11.464C39.9735 9.836 39.1225 8.578 38.0125 7.69C36.9272 6.802 35.6445 6.358 34.1645 6.358C32.6845 6.358 31.4018 6.802 30.3165 7.69C29.2312 8.578 28.3802 9.836 27.7635 11.464C27.1715 13.092 26.8755 15.0037 26.8755 17.199C26.8755 19.3697 27.1715 21.269 27.7635 22.897C28.3802 24.525 29.2312 25.7953 30.3165 26.708C31.4265 27.6207 32.7215 28.077 34.2015 28.077ZM52.8359 31L75.3319 3.435H79.4389L56.9429 31H52.8359ZM56.9799 17.421C55.6233 17.421 54.4023 17.1003 53.3169 16.459C52.2316 15.793 51.3559 14.9173 50.6899 13.832C50.0486 12.7467 49.7279 11.538 49.7279 10.206C49.7279 8.874 50.0486 7.66533 50.6899 6.58C51.3559 5.47 52.2316 4.59433 53.3169 3.953C54.4023 3.31167 55.6233 2.991 56.9799 2.991C58.3119 2.991 59.5206 3.31167 60.6059 3.953C61.6913 4.59433 62.5546 5.47 63.1959 6.58C63.8373 7.66533 64.1579 8.874 64.1579 10.206C64.1579 11.538 63.8373 12.7467 63.1959 13.832C62.5546 14.9173 61.6913 15.793 60.6059 16.459C59.5206 17.1003 58.3119 17.421 56.9799 17.421ZM56.9429 14.387C57.7816 14.387 58.4969 14.1897 59.0889 13.795C59.6809 13.4003 60.1496 12.8823 60.4949 12.241C60.8403 11.5997 61.0129 10.9213 61.0129 10.206C61.0129 9.466 60.8403 8.78767 60.4949 8.171C60.1496 7.52967 59.6809 7.01167 59.0889 6.617C58.4969 6.19766 57.7816 5.988 56.9429 5.988C56.1536 5.988 55.4506 6.19766 54.8339 6.617C54.2173 7.01167 53.7363 7.52967 53.3909 8.171C53.0456 8.81233 52.8729 9.49067 52.8729 10.206C52.8729 10.8967 53.0456 11.575 53.3909 12.241C53.7363 12.8823 54.2173 13.4003 54.8339 13.795C55.4506 14.1897 56.1536 14.387 56.9429 14.387ZM75.0729 31.444C73.7163 31.444 72.4953 31.1233 71.4099 30.482C70.3246 29.816 69.4489 28.9403 68.7829 27.855C68.1416 26.7697 67.8209 25.561 67.8209 24.229C67.8209 22.897 68.1416 21.6883 68.7829 20.603C69.4489 19.493 70.3246 18.6173 71.4099 17.976C72.4953 17.3347 73.7163 17.014 75.0729 17.014C76.4049 17.014 77.6136 17.3347 78.6989 17.976C79.7843 18.6173 80.6476 19.493 81.2889 20.603C81.9303 21.6883 82.2509 22.897 82.2509 24.229C82.2509 25.561 81.9303 26.7697 81.2889 27.855C80.6476 28.9403 79.7843 29.816 78.6989 30.482C77.6136 31.1233 76.4049 31.444 75.0729 31.444ZM75.0729 28.41C75.8869 28.41 76.5899 28.2127 77.1819 27.818C77.7986 27.4233 78.2673 26.9053 78.5879 26.264C78.9333 25.6227 79.1059 24.9443 79.1059 24.229C79.1059 23.489 78.9333 22.8107 78.5879 22.194C78.2673 21.5527 77.7986 21.0347 77.1819 20.64C76.5899 20.2207 75.8869 20.011 75.0729 20.011C74.2836 20.011 73.5683 20.2207 72.9269 20.64C72.3103 21.0347 71.8293 21.5527 71.4839 22.194C71.1386 22.8353 70.9659 23.5137 70.9659 24.229C70.9659 24.9197 71.1386 25.598 71.4839 26.264C71.8293 26.9053 72.3103 27.4233 72.9269 27.818C73.5683 28.2127 74.2836 28.41 75.0729 28.41Z" fill="#5E2FD3"/>
</svg>
