<svg width="83" height="29" viewBox="0 0 83 29" fill="none" xmlns="http://www.w3.org/2000/svg">
<path d="M3.236 28L12.745 15.605L13.411 15.679C13.041 16.1723 12.634 16.567 12.19 16.863C11.746 17.1343 11.2527 17.3317 10.71 17.455C10.192 17.5783 9.62467 17.64 9.008 17.64C7.38 17.64 5.91233 17.27 4.605 16.53C3.32233 15.7653 2.29867 14.7293 1.534 13.422C0.794 12.09 0.424 10.573 0.424 8.871C0.424 7.169 0.818667 5.652 1.608 4.32C2.39733 2.988 3.48267 1.93967 4.864 1.175C6.24533 0.385666 7.79933 -0.00900108 9.526 -0.00900108C11.302 -0.00900108 12.8683 0.385666 14.225 1.175C15.6063 1.93967 16.6917 3.01267 17.481 4.394C18.2703 5.75067 18.665 7.317 18.665 9.093C18.665 10.055 18.554 11.0047 18.332 11.942C18.11 12.8793 17.7523 13.829 17.259 14.791C16.7903 15.753 16.1613 16.752 15.372 17.788L7.602 28H3.236ZM9.526 14.458C10.5867 14.458 11.524 14.2237 12.338 13.755C13.1767 13.2617 13.8303 12.5957 14.299 11.757C14.7677 10.8937 15.002 9.93167 15.002 8.871C15.002 7.761 14.7553 6.78667 14.262 5.948C13.7933 5.10933 13.152 4.44333 12.338 3.95C11.524 3.45667 10.5867 3.21 9.526 3.21C8.49 3.21 7.565 3.45667 6.751 3.95C5.937 4.44333 5.28333 5.10933 4.79 5.948C4.32133 6.78667 4.087 7.761 4.087 8.871C4.087 9.93167 4.32133 10.8937 4.79 11.757C5.25867 12.5957 5.9 13.2617 6.714 13.755C7.55267 14.2237 8.49 14.458 9.526 14.458ZM34.0804 28.444C31.8851 28.444 29.9611 27.852 28.3084 26.668C26.6804 25.4593 25.4101 23.7943 24.4974 21.673C23.5847 19.527 23.1284 17.0357 23.1284 14.199C23.1284 11.3623 23.5847 8.88333 24.4974 6.762C25.4101 4.616 26.6804 2.951 28.3084 1.767C29.9364 0.582999 31.8481 -0.00900108 34.0434 -0.00900108C36.2387 -0.00900108 38.1504 0.582999 39.7784 1.767C41.4064 2.951 42.6767 4.616 43.5894 6.762C44.5267 8.88333 44.9954 11.3623 44.9954 14.199C44.9954 17.0357 44.5391 19.527 43.6264 21.673C42.7137 23.819 41.4311 25.484 39.7784 26.668C38.1504 27.852 36.2511 28.444 34.0804 28.444ZM34.0804 25.077C35.5604 25.077 36.8431 24.633 37.9284 23.745C39.0137 22.8323 39.8524 21.562 40.4444 19.934C41.0611 18.306 41.3694 16.3943 41.3694 14.199C41.3694 12.0037 41.0611 10.092 40.4444 8.464C39.8524 6.836 39.0014 5.578 37.8914 4.69C36.8061 3.802 35.5234 3.358 34.0434 3.358C32.5634 3.358 31.2807 3.802 30.1954 4.69C29.1101 5.578 28.2591 6.836 27.6424 8.464C27.0504 10.092 26.7544 12.0037 26.7544 14.199C26.7544 16.3697 27.0504 18.269 27.6424 19.897C28.2591 21.525 29.1101 22.7953 30.1954 23.708C31.3054 24.6207 32.6004 25.077 34.0804 25.077ZM52.7148 28L75.2108 0.434998H79.3178L56.8218 28H52.7148ZM56.8588 14.421C55.5022 14.421 54.2812 14.1003 53.1958 13.459C52.1105 12.793 51.2348 11.9173 50.5688 10.832C49.9275 9.74667 49.6068 8.538 49.6068 7.206C49.6068 5.874 49.9275 4.66533 50.5688 3.58C51.2348 2.47 52.1105 1.59433 53.1958 0.953C54.2812 0.311666 55.5022 -0.00900108 56.8588 -0.00900108C58.1908 -0.00900108 59.3995 0.311666 60.4848 0.953C61.5702 1.59433 62.4335 2.47 63.0748 3.58C63.7162 4.66533 64.0368 5.874 64.0368 7.206C64.0368 8.538 63.7162 9.74667 63.0748 10.832C62.4335 11.9173 61.5702 12.793 60.4848 13.459C59.3995 14.1003 58.1908 14.421 56.8588 14.421ZM56.8218 11.387C57.6605 11.387 58.3758 11.1897 58.9678 10.795C59.5598 10.4003 60.0285 9.88233 60.3738 9.241C60.7192 8.59967 60.8918 7.92133 60.8918 7.206C60.8918 6.466 60.7192 5.78767 60.3738 5.171C60.0285 4.52967 59.5598 4.01167 58.9678 3.617C58.3758 3.19766 57.6605 2.988 56.8218 2.988C56.0325 2.988 55.3295 3.19766 54.7128 3.617C54.0962 4.01167 53.6152 4.52967 53.2698 5.171C52.9245 5.81233 52.7518 6.49067 52.7518 7.206C52.7518 7.89667 52.9245 8.575 53.2698 9.241C53.6152 9.88233 54.0962 10.4003 54.7128 10.795C55.3295 11.1897 56.0325 11.387 56.8218 11.387ZM74.9518 28.444C73.5952 28.444 72.3742 28.1233 71.2888 27.482C70.2035 26.816 69.3278 25.9403 68.6618 24.855C68.0205 23.7697 67.6998 22.561 67.6998 21.229C67.6998 19.897 68.0205 18.6883 68.6618 17.603C69.3278 16.493 70.2035 15.6173 71.2888 14.976C72.3742 14.3347 73.5952 14.014 74.9518 14.014C76.2838 14.014 77.4925 14.3347 78.5778 14.976C79.6632 15.6173 80.5265 16.493 81.1678 17.603C81.8092 18.6883 82.1298 19.897 82.1298 21.229C82.1298 22.561 81.8092 23.7697 81.1678 24.855C80.5265 25.9403 79.6632 26.816 78.5778 27.482C77.4925 28.1233 76.2838 28.444 74.9518 28.444ZM74.9518 25.41C75.7658 25.41 76.4688 25.2127 77.0608 24.818C77.6775 24.4233 78.1462 23.9053 78.4668 23.264C78.8122 22.6227 78.9848 21.9443 78.9848 21.229C78.9848 20.489 78.8122 19.8107 78.4668 19.194C78.1462 18.5527 77.6775 18.0347 77.0608 17.64C76.4688 17.2207 75.7658 17.011 74.9518 17.011C74.1625 17.011 73.4472 17.2207 72.8058 17.64C72.1892 18.0347 71.7082 18.5527 71.3628 19.194C71.0175 19.8353 70.8448 20.5137 70.8448 21.229C70.8448 21.9197 71.0175 22.598 71.3628 23.264C71.7082 23.9053 72.1892 24.4233 72.8058 24.818C73.4472 25.2127 74.1625 25.41 74.9518 25.41Z" fill="#5E2FD3"/>
</svg>
