<svg width="25" height="25" viewBox="0 0 25 25" fill="none" xmlns="http://www.w3.org/2000/svg">
<mask id="mask0_1013_59" style="mask-type:alpha" maskUnits="userSpaceOnUse" x="0" y="0" width="25" height="25">
<rect x="0.5" y="0.943359" width="24" height="24" fill="#D9D9D9"/>
</mask>
<g mask="url(#mask0_1013_59)">
<path d="M12.4996 22.943C11.2496 22.943 10.0788 22.7055 8.98711 22.2305C7.89544 21.7555 6.94544 21.1138 6.13711 20.3055C5.32878 19.4971 4.68711 18.5471 4.21211 17.4555C3.73711 16.3638 3.49961 15.193 3.49961 13.943C3.49961 12.693 3.73711 11.5221 4.21211 10.4305C4.68711 9.3388 5.32878 8.3888 6.13711 7.58047C6.94544 6.77214 7.89544 6.13047 8.98711 5.65547C10.0788 5.18047 11.2496 4.94297 12.4996 4.94297C13.7496 4.94297 14.9204 5.18047 16.0121 5.65547C17.1038 6.13047 18.0538 6.77214 18.8621 7.58047C19.6704 8.3888 20.3121 9.3388 20.7871 10.4305C21.2621 11.5221 21.4996 12.693 21.4996 13.943C21.4996 15.193 21.2621 16.3638 20.7871 17.4555C20.3121 18.5471 19.6704 19.4971 18.8621 20.3055C18.0538 21.1138 17.1038 21.7555 16.0121 22.2305C14.9204 22.7055 13.7496 22.943 12.4996 22.943ZM15.2996 18.143L16.6996 16.743L13.4996 13.543V8.94297H11.4996V14.343L15.2996 18.143ZM6.09961 3.29297L7.49961 4.69297L3.24961 8.94297L1.84961 7.54297L6.09961 3.29297ZM18.8996 3.29297L23.1496 7.54297L21.7496 8.94297L17.4996 4.69297L18.8996 3.29297ZM12.4996 20.943C14.4496 20.943 16.1038 20.2638 17.4621 18.9055C18.8204 17.5471 19.4996 15.893 19.4996 13.943C19.4996 11.993 18.8204 10.3388 17.4621 8.98047C16.1038 7.62214 14.4496 6.94297 12.4996 6.94297C10.5496 6.94297 8.89544 7.62214 7.53711 8.98047C6.17878 10.3388 5.49961 11.993 5.49961 13.943C5.49961 15.893 6.17878 17.5471 7.53711 18.9055C8.89544 20.2638 10.5496 20.943 12.4996 20.943Z" fill="#5E2FD3"/>
</g>
</svg>
