<svg width="25" height="25" viewBox="0 0 25 25" fill="none" xmlns="http://www.w3.org/2000/svg">
<mask id="mask0_1016_133" style="mask-type:alpha" maskUnits="userSpaceOnUse" x="0" y="0" width="25" height="25">
<rect x="0.5" y="0.943359" width="24" height="24" fill="#D9D9D9"/>
</mask>
<g mask="url(#mask0_1016_133)">
<path d="M12.5 12.9434C11.4 12.9434 10.4583 12.5517 9.675 11.7684C8.89167 10.985 8.5 10.0434 8.5 8.94336C8.5 7.84336 8.89167 6.90169 9.675 6.11836C10.4583 5.33503 11.4 4.94336 12.5 4.94336C13.6 4.94336 14.5417 5.33503 15.325 6.11836C16.1083 6.90169 16.5 7.84336 16.5 8.94336C16.5 10.0434 16.1083 10.985 15.325 11.7684C14.5417 12.5517 13.6 12.9434 12.5 12.9434ZM4.5 20.9434V18.1434C4.5 17.5767 4.64583 17.0559 4.9375 16.5809C5.22917 16.1059 5.61667 15.7434 6.1 15.4934C7.13333 14.9767 8.18333 14.5892 9.25 14.3309C10.3167 14.0725 11.4 13.9434 12.5 13.9434C13.6 13.9434 14.6833 14.0725 15.75 14.3309C16.8167 14.5892 17.8667 14.9767 18.9 15.4934C19.3833 15.7434 19.7708 16.1059 20.0625 16.5809C20.3542 17.0559 20.5 17.5767 20.5 18.1434V20.9434H4.5ZM6.5 18.9434H18.5V18.1434C18.5 17.96 18.4542 17.7934 18.3625 17.6434C18.2708 17.4934 18.15 17.3767 18 17.2934C17.1 16.8434 16.1917 16.5059 15.275 16.2809C14.3583 16.0559 13.4333 15.9434 12.5 15.9434C11.5667 15.9434 10.6417 16.0559 9.725 16.2809C8.80833 16.5059 7.9 16.8434 7 17.2934C6.85 17.3767 6.72917 17.4934 6.6375 17.6434C6.54583 17.7934 6.5 17.96 6.5 18.1434V18.9434ZM12.5 10.9434C13.05 10.9434 13.5208 10.7475 13.9125 10.3559C14.3042 9.96419 14.5 9.49336 14.5 8.94336C14.5 8.39336 14.3042 7.92253 13.9125 7.53086C13.5208 7.13919 13.05 6.94336 12.5 6.94336C11.95 6.94336 11.4792 7.13919 11.0875 7.53086C10.6958 7.92253 10.5 8.39336 10.5 8.94336C10.5 9.49336 10.6958 9.96419 11.0875 10.3559C11.4792 10.7475 11.95 10.9434 12.5 10.9434Z" fill="#5E2FD3"/>
</g>
</svg>
