<svg width="118" height="32" viewBox="0 0 118 32" fill="none" xmlns="http://www.w3.org/2000/svg">
<mask id="mask0_856_182" style="mask-type:alpha" maskUnits="userSpaceOnUse" x="0" y="4" width="24" height="24">
<rect y="4" width="24" height="24" fill="#D9D9D9"/>
</mask>
<g mask="url(#mask0_856_182)">
<path d="M19 25C18.35 25 17.7667 24.8125 17.25 24.4375C16.7333 24.0625 16.375 23.5833 16.175 23H11C9.9 23 8.95833 22.6083 8.175 21.825C7.39167 21.0417 7 20.1 7 19C7 17.9 7.39167 16.9583 8.175 16.175C8.95833 15.3917 9.9 15 11 15H13C13.55 15 14.0208 14.8042 14.4125 14.4125C14.8042 14.0208 15 13.55 15 13C15 12.45 14.8042 11.9792 14.4125 11.5875C14.0208 11.1958 13.55 11 13 11H7.825C7.60833 11.5833 7.24583 12.0625 6.7375 12.4375C6.22917 12.8125 5.65 13 5 13C4.16667 13 3.45833 12.7083 2.875 12.125C2.29167 11.5417 2 10.8333 2 10C2 9.16667 2.29167 8.45833 2.875 7.875C3.45833 7.29167 4.16667 7 5 7C5.65 7 6.22917 7.1875 6.7375 7.5625C7.24583 7.9375 7.60833 8.41667 7.825 9H13C14.1 9 15.0417 9.39167 15.825 10.175C16.6083 10.9583 17 11.9 17 13C17 14.1 16.6083 15.0417 15.825 15.825C15.0417 16.6083 14.1 17 13 17H11C10.45 17 9.97917 17.1958 9.5875 17.5875C9.19583 17.9792 9 18.45 9 19C9 19.55 9.19583 20.0208 9.5875 20.4125C9.97917 20.8042 10.45 21 11 21H16.175C16.3917 20.4167 16.7542 19.9375 17.2625 19.5625C17.7708 19.1875 18.35 19 19 19C19.8333 19 20.5417 19.2917 21.125 19.875C21.7083 20.4583 22 21.1667 22 22C22 22.8333 21.7083 23.5417 21.125 24.125C20.5417 24.7083 19.8333 25 19 25ZM5 11C5.28333 11 5.52083 10.9042 5.7125 10.7125C5.90417 10.5208 6 10.2833 6 10C6 9.71667 5.90417 9.47917 5.7125 9.2875C5.52083 9.09583 5.28333 9 5 9C4.71667 9 4.47917 9.09583 4.2875 9.2875C4.09583 9.47917 4 9.71667 4 10C4 10.2833 4.09583 10.5208 4.2875 10.7125C4.47917 10.9042 4.71667 11 5 11Z" fill="#5E2FD3"/>
</g>
<path d="M36.849 31L48.948 6.58H35.443V3.435H52.759V6.58L40.771 31H36.849ZM67.7015 31.444C65.5062 31.444 63.5822 30.852 61.9295 29.668C60.3015 28.4593 59.0312 26.7943 58.1185 24.673C57.2058 22.527 56.7495 20.0357 56.7495 17.199C56.7495 14.3623 57.2058 11.8833 58.1185 9.762C59.0312 7.616 60.3015 5.951 61.9295 4.767C63.5575 3.583 65.4692 2.991 67.6645 2.991C69.8598 2.991 71.7715 3.583 73.3995 4.767C75.0275 5.951 76.2978 7.616 77.2105 9.762C78.1478 11.8833 78.6165 14.3623 78.6165 17.199C78.6165 20.0357 78.1602 22.527 77.2475 24.673C76.3348 26.819 75.0522 28.484 73.3995 29.668C71.7715 30.852 69.8722 31.444 67.7015 31.444ZM67.7015 28.077C69.1815 28.077 70.4642 27.633 71.5495 26.745C72.6348 25.8323 73.4735 24.562 74.0655 22.934C74.6822 21.306 74.9905 19.3943 74.9905 17.199C74.9905 15.0037 74.6822 13.092 74.0655 11.464C73.4735 9.836 72.6225 8.578 71.5125 7.69C70.4272 6.802 69.1445 6.358 67.6645 6.358C66.1845 6.358 64.9018 6.802 63.8165 7.69C62.7312 8.578 61.8802 9.836 61.2635 11.464C60.6715 13.092 60.3755 15.0037 60.3755 17.199C60.3755 19.3697 60.6715 21.269 61.2635 22.897C61.8802 24.525 62.7312 25.7953 63.8165 26.708C64.9265 27.6207 66.2215 28.077 67.7015 28.077ZM86.3359 31L108.832 3.435H112.939L90.4429 31H86.3359ZM90.4799 17.421C89.1233 17.421 87.9023 17.1003 86.8169 16.459C85.7316 15.793 84.8559 14.9173 84.1899 13.832C83.5486 12.7467 83.2279 11.538 83.2279 10.206C83.2279 8.874 83.5486 7.66533 84.1899 6.58C84.8559 5.47 85.7316 4.59433 86.8169 3.953C87.9023 3.31167 89.1233 2.991 90.4799 2.991C91.8119 2.991 93.0206 3.31167 94.1059 3.953C95.1913 4.59433 96.0546 5.47 96.6959 6.58C97.3373 7.66533 97.6579 8.874 97.6579 10.206C97.6579 11.538 97.3373 12.7467 96.6959 13.832C96.0546 14.9173 95.1913 15.793 94.1059 16.459C93.0206 17.1003 91.8119 17.421 90.4799 17.421ZM90.4429 14.387C91.2816 14.387 91.9969 14.1897 92.5889 13.795C93.1809 13.4003 93.6496 12.8823 93.9949 12.241C94.3403 11.5997 94.5129 10.9213 94.5129 10.206C94.5129 9.466 94.3403 8.78767 93.9949 8.171C93.6496 7.52967 93.1809 7.01167 92.5889 6.617C91.9969 6.19766 91.2816 5.988 90.4429 5.988C89.6536 5.988 88.9506 6.19766 88.3339 6.617C87.7173 7.01167 87.2363 7.52967 86.8909 8.171C86.5456 8.81233 86.3729 9.49067 86.3729 10.206C86.3729 10.8967 86.5456 11.575 86.8909 12.241C87.2363 12.8823 87.7173 13.4003 88.3339 13.795C88.9506 14.1897 89.6536 14.387 90.4429 14.387ZM108.573 31.444C107.216 31.444 105.995 31.1233 104.91 30.482C103.825 29.816 102.949 28.9403 102.283 27.855C101.642 26.7697 101.321 25.561 101.321 24.229C101.321 22.897 101.642 21.6883 102.283 20.603C102.949 19.493 103.825 18.6173 104.91 17.976C105.995 17.3347 107.216 17.014 108.573 17.014C109.905 17.014 111.114 17.3347 112.199 17.976C113.284 18.6173 114.148 19.493 114.789 20.603C115.43 21.6883 115.751 22.897 115.751 24.229C115.751 25.561 115.43 26.7697 114.789 27.855C114.148 28.9403 113.284 29.816 112.199 30.482C111.114 31.1233 109.905 31.444 108.573 31.444ZM108.573 28.41C109.387 28.41 110.09 28.2127 110.682 27.818C111.299 27.4233 111.767 26.9053 112.088 26.264C112.433 25.6227 112.606 24.9443 112.606 24.229C112.606 23.489 112.433 22.8107 112.088 22.194C111.767 21.5527 111.299 21.0347 110.682 20.64C110.09 20.2207 109.387 20.011 108.573 20.011C107.784 20.011 107.068 20.2207 106.427 20.64C105.81 21.0347 105.329 21.5527 104.984 22.194C104.639 22.8353 104.466 23.5137 104.466 24.229C104.466 24.9197 104.639 25.598 104.984 26.264C105.329 26.9053 105.81 27.4233 106.427 27.818C107.068 28.2127 107.784 28.41 108.573 28.41Z" fill="#5E2FD3"/>
</svg>
