<svg width="116" height="32" viewBox="0 0 116 32" fill="none" xmlns="http://www.w3.org/2000/svg">
<mask id="mask0_856_222" style="mask-type:alpha" maskUnits="userSpaceOnUse" x="0" y="4" width="24" height="24">
<rect y="4" width="24" height="24" fill="#D9D9D9"/>
</mask>
<g mask="url(#mask0_856_222)">
<path d="M19 25C18.35 25 17.7667 24.8125 17.25 24.4375C16.7333 24.0625 16.375 23.5833 16.175 23H11C9.9 23 8.95833 22.6083 8.175 21.825C7.39167 21.0417 7 20.1 7 19C7 17.9 7.39167 16.9583 8.175 16.175C8.95833 15.3917 9.9 15 11 15H13C13.55 15 14.0208 14.8042 14.4125 14.4125C14.8042 14.0208 15 13.55 15 13C15 12.45 14.8042 11.9792 14.4125 11.5875C14.0208 11.1958 13.55 11 13 11H7.825C7.60833 11.5833 7.24583 12.0625 6.7375 12.4375C6.22917 12.8125 5.65 13 5 13C4.16667 13 3.45833 12.7083 2.875 12.125C2.29167 11.5417 2 10.8333 2 10C2 9.16667 2.29167 8.45833 2.875 7.875C3.45833 7.29167 4.16667 7 5 7C5.65 7 6.22917 7.1875 6.7375 7.5625C7.24583 7.9375 7.60833 8.41667 7.825 9H13C14.1 9 15.0417 9.39167 15.825 10.175C16.6083 10.9583 17 11.9 17 13C17 14.1 16.6083 15.0417 15.825 15.825C15.0417 16.6083 14.1 17 13 17H11C10.45 17 9.97917 17.1958 9.5875 17.5875C9.19583 17.9792 9 18.45 9 19C9 19.55 9.19583 20.0208 9.5875 20.4125C9.97917 20.8042 10.45 21 11 21H16.175C16.3917 20.4167 16.7542 19.9375 17.2625 19.5625C17.7708 19.1875 18.35 19 19 19C19.8333 19 20.5417 19.2917 21.125 19.875C21.7083 20.4583 22 21.1667 22 22C22 22.8333 21.7083 23.5417 21.125 24.125C20.5417 24.7083 19.8333 25 19 25ZM5 11C5.28333 11 5.52083 10.9042 5.7125 10.7125C5.90417 10.5208 6 10.2833 6 10C6 9.71667 5.90417 9.47917 5.7125 9.2875C5.52083 9.09583 5.28333 9 5 9C4.71667 9 4.47917 9.09583 4.2875 9.2875C4.09583 9.47917 4 9.71667 4 10C4 10.2833 4.09583 10.5208 4.2875 10.7125C4.47917 10.9042 4.71667 11 5 11Z" fill="#5E2FD3"/>
</g>
<path d="M35.998 31V28.484L43.62 20.233C45.1247 18.6297 46.321 17.31 47.209 16.274C48.1217 15.238 48.7877 14.313 49.207 13.499C49.6263 12.685 49.836 11.8217 49.836 10.909C49.836 9.40433 49.392 8.245 48.504 7.431C47.616 6.617 46.4443 6.21 44.989 6.21C43.509 6.21 42.251 6.64167 41.215 7.505C40.179 8.34367 39.4637 9.54 39.069 11.094L35.776 10.243C36.0967 8.763 36.6887 7.48033 37.552 6.395C38.4153 5.30967 39.4883 4.471 40.771 3.879C42.0537 3.287 43.4597 2.991 44.989 2.991C46.6663 2.991 48.134 3.324 49.392 3.99C50.6747 4.63133 51.6737 5.53167 52.389 6.691C53.129 7.85033 53.499 9.19467 53.499 10.724C53.499 11.7353 53.2893 12.722 52.87 13.684C52.4507 14.646 51.834 15.6697 51.02 16.755C50.206 17.8157 49.1453 19.049 47.838 20.455L41.03 27.855H54.091V31H35.998ZM67.2494 31.444C65.8187 31.444 64.4744 31.1973 63.2164 30.704C61.9584 30.186 60.8607 29.4583 59.9234 28.521C59.0107 27.559 58.3447 26.4367 57.9254 25.154L60.8854 23.896C61.4034 25.2527 62.2421 26.3133 63.4014 27.078C64.5854 27.818 65.8681 28.188 67.2494 28.188C68.3841 28.188 69.3831 27.9413 70.2464 27.448C71.1344 26.93 71.8251 26.227 72.3184 25.339C72.8117 24.4263 73.0584 23.415 73.0584 22.305C73.0584 21.1457 72.7994 20.122 72.2814 19.234C71.7881 18.346 71.1097 17.6553 70.2464 17.162C69.3831 16.644 68.3964 16.385 67.2864 16.385C66.1517 16.385 65.1157 16.644 64.1784 17.162C63.2411 17.68 62.5627 18.3337 62.1434 19.123L59.2204 18.494L61.3294 3.435H75.6114V6.58H62.6984L64.1044 5.174L62.4764 16.866L61.2184 16.126C62.0324 15.09 62.9821 14.35 64.0674 13.906C65.1774 13.4373 66.3737 13.203 67.6564 13.203C69.4571 13.203 71.0357 13.61 72.3924 14.424C73.7491 15.238 74.8097 16.3233 75.5744 17.68C76.3391 19.0367 76.7214 20.5783 76.7214 22.305C76.7214 24.0317 76.3021 25.5857 75.4634 26.967C74.6494 28.3483 73.5271 29.446 72.0964 30.26C70.6904 31.0493 69.0747 31.444 67.2494 31.444ZM84.2402 31L106.736 3.435H110.843L88.3472 31H84.2402ZM88.3842 17.421C87.0276 17.421 85.8066 17.1003 84.7212 16.459C83.6359 15.793 82.7602 14.9173 82.0942 13.832C81.4529 12.7467 81.1322 11.538 81.1322 10.206C81.1322 8.874 81.4529 7.66533 82.0942 6.58C82.7602 5.47 83.6359 4.59433 84.7212 3.953C85.8066 3.31167 87.0276 2.991 88.3842 2.991C89.7162 2.991 90.9249 3.31167 92.0102 3.953C93.0956 4.59433 93.9589 5.47 94.6002 6.58C95.2416 7.66533 95.5622 8.874 95.5622 10.206C95.5622 11.538 95.2416 12.7467 94.6002 13.832C93.9589 14.9173 93.0956 15.793 92.0102 16.459C90.9249 17.1003 89.7162 17.421 88.3842 17.421ZM88.3472 14.387C89.1859 14.387 89.9012 14.1897 90.4932 13.795C91.0852 13.4003 91.5539 12.8823 91.8992 12.241C92.2446 11.5997 92.4172 10.9213 92.4172 10.206C92.4172 9.466 92.2446 8.78767 91.8992 8.171C91.5539 7.52967 91.0852 7.01167 90.4932 6.617C89.9012 6.19766 89.1859 5.988 88.3472 5.988C87.5579 5.988 86.8549 6.19766 86.2382 6.617C85.6216 7.01167 85.1406 7.52967 84.7952 8.171C84.4499 8.81233 84.2772 9.49067 84.2772 10.206C84.2772 10.8967 84.4499 11.575 84.7952 12.241C85.1406 12.8823 85.6216 13.4003 86.2382 13.795C86.8549 14.1897 87.5579 14.387 88.3472 14.387ZM106.477 31.444C105.121 31.444 103.9 31.1233 102.814 30.482C101.729 29.816 100.853 28.9403 100.187 27.855C99.5459 26.7697 99.2252 25.561 99.2252 24.229C99.2252 22.897 99.5459 21.6883 100.187 20.603C100.853 19.493 101.729 18.6173 102.814 17.976C103.9 17.3347 105.121 17.014 106.477 17.014C107.809 17.014 109.018 17.3347 110.103 17.976C111.189 18.6173 112.052 19.493 112.693 20.603C113.335 21.6883 113.655 22.897 113.655 24.229C113.655 25.561 113.335 26.7697 112.693 27.855C112.052 28.9403 111.189 29.816 110.103 30.482C109.018 31.1233 107.809 31.444 106.477 31.444ZM106.477 28.41C107.291 28.41 107.994 28.2127 108.586 27.818C109.203 27.4233 109.672 26.9053 109.992 26.264C110.338 25.6227 110.51 24.9443 110.51 24.229C110.51 23.489 110.338 22.8107 109.992 22.194C109.672 21.5527 109.203 21.0347 108.586 20.64C107.994 20.2207 107.291 20.011 106.477 20.011C105.688 20.011 104.973 20.2207 104.331 20.64C103.715 21.0347 103.234 21.5527 102.888 22.194C102.543 22.8353 102.37 23.5137 102.37 24.229C102.37 24.9197 102.543 25.598 102.888 26.264C103.234 26.9053 103.715 27.4233 104.331 27.818C104.973 28.2127 105.688 28.41 106.477 28.41Z" fill="#5E2FD3"/>
</svg>
