<svg width="121" height="32" viewBox="0 0 121 32" fill="none" xmlns="http://www.w3.org/2000/svg">
<mask id="mask0_856_1180" style="mask-type:alpha" maskUnits="userSpaceOnUse" x="0" y="4" width="24" height="24">
<rect y="4" width="24" height="24" fill="#D9D9D9"/>
</mask>
<g mask="url(#mask0_856_1180)">
<path d="M19 25C18.35 25 17.7667 24.8125 17.25 24.4375C16.7333 24.0625 16.375 23.5833 16.175 23H11C9.9 23 8.95833 22.6083 8.175 21.825C7.39167 21.0417 7 20.1 7 19C7 17.9 7.39167 16.9583 8.175 16.175C8.95833 15.3917 9.9 15 11 15H13C13.55 15 14.0208 14.8042 14.4125 14.4125C14.8042 14.0208 15 13.55 15 13C15 12.45 14.8042 11.9792 14.4125 11.5875C14.0208 11.1958 13.55 11 13 11H7.825C7.60833 11.5833 7.24583 12.0625 6.7375 12.4375C6.22917 12.8125 5.65 13 5 13C4.16667 13 3.45833 12.7083 2.875 12.125C2.29167 11.5417 2 10.8333 2 10C2 9.16667 2.29167 8.45833 2.875 7.875C3.45833 7.29167 4.16667 7 5 7C5.65 7 6.22917 7.1875 6.7375 7.5625C7.24583 7.9375 7.60833 8.41667 7.825 9H13C14.1 9 15.0417 9.39167 15.825 10.175C16.6083 10.9583 17 11.9 17 13C17 14.1 16.6083 15.0417 15.825 15.825C15.0417 16.6083 14.1 17 13 17H11C10.45 17 9.97917 17.1958 9.5875 17.5875C9.19583 17.9792 9 18.45 9 19C9 19.55 9.19583 20.0208 9.5875 20.4125C9.97917 20.8042 10.45 21 11 21H16.175C16.3917 20.4167 16.7542 19.9375 17.2625 19.5625C17.7708 19.1875 18.35 19 19 19C19.8333 19 20.5417 19.2917 21.125 19.875C21.7083 20.4583 22 21.1667 22 22C22 22.8333 21.7083 23.5417 21.125 24.125C20.5417 24.7083 19.8333 25 19 25ZM5 11C5.28333 11 5.52083 10.9042 5.7125 10.7125C5.90417 10.5208 6 10.2833 6 10C6 9.71667 5.90417 9.47917 5.7125 9.2875C5.52083 9.09583 5.28333 9 5 9C4.71667 9 4.47917 9.09583 4.2875 9.2875C4.09583 9.47917 4 9.71667 4 10C4 10.2833 4.09583 10.5208 4.2875 10.7125C4.47917 10.9042 4.71667 11 5 11Z" fill="#5E2FD3"/>
</g>
<path d="M44.878 31.444C43.4227 31.444 42.066 31.185 40.808 30.667C39.55 30.149 38.4647 29.4213 37.552 28.484C36.6393 27.522 35.961 26.3873 35.517 25.08L38.588 23.822C39.106 25.2033 39.92 26.2763 41.03 27.041C42.14 27.8057 43.4227 28.188 44.878 28.188C46.0127 28.188 47.024 27.966 47.912 27.522C48.8 27.078 49.4907 26.4367 49.984 25.598C50.502 24.7593 50.761 23.748 50.761 22.564C50.761 21.3553 50.502 20.344 49.984 19.53C49.4907 18.6913 48.8 18.05 47.912 17.606C47.024 17.162 46.0003 16.94 44.841 16.94C44.471 16.94 44.064 16.9647 43.62 17.014C43.2007 17.0633 42.843 17.1373 42.547 17.236L41.77 15.571L49.133 6.58H36.923V3.435H53.24V6.469L46.21 15.127L45.988 14.165C47.6407 14.2143 49.096 14.5967 50.354 15.312C51.612 16.0273 52.5987 17.0017 53.314 18.235C54.0293 19.4437 54.387 20.862 54.387 22.49C54.387 24.1673 53.98 25.6843 53.166 27.041C52.352 28.3977 51.2297 29.4707 49.799 30.26C48.3683 31.0493 46.728 31.444 44.878 31.444ZM70.014 31.444C67.8187 31.444 65.8947 30.852 64.242 29.668C62.614 28.4593 61.3437 26.7943 60.431 24.673C59.5183 22.527 59.062 20.0357 59.062 17.199C59.062 14.3623 59.5183 11.8833 60.431 9.762C61.3437 7.616 62.614 5.951 64.242 4.767C65.87 3.583 67.7817 2.991 69.977 2.991C72.1723 2.991 74.084 3.583 75.712 4.767C77.34 5.951 78.6103 7.616 79.523 9.762C80.4603 11.8833 80.929 14.3623 80.929 17.199C80.929 20.0357 80.4727 22.527 79.56 24.673C78.6473 26.819 77.3647 28.484 75.712 29.668C74.084 30.852 72.1847 31.444 70.014 31.444ZM70.014 28.077C71.494 28.077 72.7767 27.633 73.862 26.745C74.9473 25.8323 75.786 24.562 76.378 22.934C76.9947 21.306 77.303 19.3943 77.303 17.199C77.303 15.0037 76.9947 13.092 76.378 11.464C75.786 9.836 74.935 8.578 73.825 7.69C72.7397 6.802 71.457 6.358 69.977 6.358C68.497 6.358 67.2143 6.802 66.129 7.69C65.0437 8.578 64.1927 9.836 63.576 11.464C62.984 13.092 62.688 15.0037 62.688 17.199C62.688 19.3697 62.984 21.269 63.576 22.897C64.1927 24.525 65.0437 25.7953 66.129 26.708C67.239 27.6207 68.534 28.077 70.014 28.077ZM88.6484 31L111.144 3.435H115.251L92.7554 31H88.6484ZM92.7924 17.421C91.4358 17.421 90.2148 17.1003 89.1294 16.459C88.0441 15.793 87.1684 14.9173 86.5024 13.832C85.8611 12.7467 85.5404 11.538 85.5404 10.206C85.5404 8.874 85.8611 7.66533 86.5024 6.58C87.1684 5.47 88.0441 4.59433 89.1294 3.953C90.2148 3.31167 91.4358 2.991 92.7924 2.991C94.1244 2.991 95.3331 3.31167 96.4184 3.953C97.5038 4.59433 98.3671 5.47 99.0084 6.58C99.6498 7.66533 99.9704 8.874 99.9704 10.206C99.9704 11.538 99.6498 12.7467 99.0084 13.832C98.3671 14.9173 97.5038 15.793 96.4184 16.459C95.3331 17.1003 94.1244 17.421 92.7924 17.421ZM92.7554 14.387C93.5941 14.387 94.3094 14.1897 94.9014 13.795C95.4934 13.4003 95.9621 12.8823 96.3074 12.241C96.6528 11.5997 96.8254 10.9213 96.8254 10.206C96.8254 9.466 96.6528 8.78767 96.3074 8.171C95.9621 7.52967 95.4934 7.01167 94.9014 6.617C94.3094 6.19766 93.5941 5.988 92.7554 5.988C91.9661 5.988 91.2631 6.19766 90.6464 6.617C90.0298 7.01167 89.5488 7.52967 89.2034 8.171C88.8581 8.81233 88.6854 9.49067 88.6854 10.206C88.6854 10.8967 88.8581 11.575 89.2034 12.241C89.5488 12.8823 90.0298 13.4003 90.6464 13.795C91.2631 14.1897 91.9661 14.387 92.7554 14.387ZM110.885 31.444C109.529 31.444 108.308 31.1233 107.222 30.482C106.137 29.816 105.261 28.9403 104.595 27.855C103.954 26.7697 103.633 25.561 103.633 24.229C103.633 22.897 103.954 21.6883 104.595 20.603C105.261 19.493 106.137 18.6173 107.222 17.976C108.308 17.3347 109.529 17.014 110.885 17.014C112.217 17.014 113.426 17.3347 114.511 17.976C115.597 18.6173 116.46 19.493 117.101 20.603C117.743 21.6883 118.063 22.897 118.063 24.229C118.063 25.561 117.743 26.7697 117.101 27.855C116.46 28.9403 115.597 29.816 114.511 30.482C113.426 31.1233 112.217 31.444 110.885 31.444ZM110.885 28.41C111.699 28.41 112.402 28.2127 112.994 27.818C113.611 27.4233 114.08 26.9053 114.4 26.264C114.746 25.6227 114.918 24.9443 114.918 24.229C114.918 23.489 114.746 22.8107 114.4 22.194C114.08 21.5527 113.611 21.0347 112.994 20.64C112.402 20.2207 111.699 20.011 110.885 20.011C110.096 20.011 109.381 20.2207 108.739 20.64C108.123 21.0347 107.642 21.5527 107.296 22.194C106.951 22.8353 106.778 23.5137 106.778 24.229C106.778 24.9197 106.951 25.598 107.296 26.264C107.642 26.9053 108.123 27.4233 108.739 27.818C109.381 28.2127 110.096 28.41 110.885 28.41Z" fill="#5E2FD3"/>
</svg>
