<svg width="151" height="136" viewBox="0 0 151 136" fill="none" xmlns="http://www.w3.org/2000/svg">
<g filter="url(#filter0_d_852_3212)">
<path d="M64.5679 22.59V45.1802L52.7817 39.2871C46.2993 36.1441 40.2098 33.394 39.0311 33.394C34.5131 33.394 37.6561 39.4836 46.1029 46.9482C52.1924 52.2519 54.3532 55.1985 52.5853 55.7878C51.0138 56.3771 39.424 59.5201 26.4592 62.6631C2.29751 68.5562 -2.61341 71.1099 1.11889 74.8422C2.49394 76.2172 11.9229 75.6279 32.9416 72.4849C49.4423 70.1277 63.3893 68.7526 63.9786 69.3419C64.5679 70.1277 61.2285 77.003 56.7104 84.8604C51.996 92.7179 48.0672 99.7896 47.6744 100.379C47.2815 101.165 48.2637 102.736 49.6387 103.915C51.996 105.879 53.9603 104.897 60.2463 99.3967C64.5679 95.468 68.8895 92.325 69.8717 92.325C70.8539 92.325 72.8182 98.2181 74.3897 105.486C77.7292 122.38 80.0864 127.684 84.408 127.684C89.7118 127.684 90.694 121.594 89.1225 99.0039C88.3367 87.6105 88.3367 78.5744 89.3189 78.5744C90.3011 78.5744 98.1586 81.7174 106.802 85.4497C123.892 92.9143 129.392 93.8965 129.392 89.5749C129.392 85.6462 126.249 82.896 111.123 72.4849C103.855 67.7704 97.9621 63.2524 97.9621 62.6631C97.9621 62.0738 107.98 58.7344 120.159 55.1985C141.964 48.9125 151 44.7874 151 41.2515C151 38.3049 138.624 38.8943 118.981 42.4301C109.552 44.198 101.105 45.1802 100.516 44.3945C99.9265 43.8052 101.302 38.6978 103.659 33.1976C112.498 11.786 106.998 9.82164 93.2476 29.6617C88.1403 37.3228 83.0329 42.823 82.2472 41.8408C81.4615 41.0551 79.3006 33.1976 77.3363 24.5544C73.4075 6.08935 70.8539 -0.000190735 67.1216 -0.000190735C65.1572 -0.000190735 64.5679 5.10716 64.5679 22.59Z" fill="#FFEC75"/>
<path d="M66.0679 45.1802V47.6073L63.8971 46.5219L52.1273 40.6369C52.1245 40.6355 52.1218 40.6342 52.119 40.6328C48.8886 39.0667 45.7695 37.6049 43.3184 36.5371C42.0897 36.0019 41.0466 35.5733 40.2494 35.2813C39.8497 35.1349 39.5308 35.0299 39.292 34.9633C39.09 34.9071 39.0058 34.896 39.0027 34.8941C38.7128 34.8965 38.5482 34.9349 38.4684 34.9622C38.4577 35.1459 38.513 35.6741 39.036 36.6798C40.1846 38.8886 42.9162 42.1297 47.0924 45.8208C50.1429 48.478 52.3144 50.6318 53.5002 52.2489C54.0639 53.0175 54.5699 53.8789 54.6654 54.7382C54.7187 55.2177 54.6521 55.7784 54.3122 56.2884C53.9851 56.779 53.5177 57.053 53.0881 57.2012C52.1778 57.537 48.8128 58.4869 44.1798 59.7175C39.4552 60.9725 33.306 62.5467 26.8126 64.1209C14.6931 67.0769 7.59396 69.1542 3.98557 70.9115C3.09823 71.3436 2.48405 71.7278 2.0778 72.0615C1.66714 72.3987 1.547 72.6203 1.51482 72.7084C1.49889 72.7519 1.48394 72.7973 1.53752 72.931C1.60473 73.0988 1.76967 73.3618 2.12461 73.7259C2.15966 73.7412 2.2405 73.7732 2.38826 73.8107C2.69377 73.8883 3.15529 73.9574 3.81032 73.9989C5.11648 74.0816 7.00296 74.044 9.55701 73.8616C14.6538 73.4976 22.2192 72.5716 32.7198 71.0014L32.7198 71.0014L32.7295 71C40.9954 69.8191 48.6286 68.8833 54.277 68.316C57.0981 68.0326 59.4408 67.8395 61.1255 67.7548C61.9633 67.7127 62.6678 67.6958 63.1978 67.7118C63.4583 67.7196 63.7178 67.7364 63.9466 67.7723C64.0595 67.79 64.2044 67.8183 64.3555 67.8683C64.4699 67.9061 64.7706 68.0126 65.0393 68.2813L65.1146 68.3566L65.1786 68.4419C65.4629 68.821 65.5238 69.226 65.5399 69.4526C65.5578 69.703 65.5342 69.9437 65.5026 70.1447C65.4391 70.5491 65.3076 71.0075 65.1459 71.4795C64.8181 72.4361 64.287 73.6736 63.6154 75.0914C62.2665 77.9391 60.2812 81.6595 58.0108 85.6081L58.0039 85.6202L57.9967 85.6322C55.6465 89.5491 53.4911 93.272 51.8728 96.0919C51.3788 96.9526 50.9288 97.74 50.5363 98.4269C49.8856 99.5656 49.393 100.428 49.1198 100.889C49.1501 100.974 49.2035 101.095 49.2928 101.25C49.559 101.711 50.0251 102.269 50.6068 102.769C51.0707 103.154 51.3897 103.289 51.6436 103.33C51.8922 103.37 52.2583 103.347 52.868 103.081C54.1864 102.504 56.0703 101.057 59.2479 98.2771C61.4379 96.2869 63.6354 94.4881 65.425 93.1774C66.3185 92.523 67.1323 91.9741 67.8057 91.5816C68.1408 91.3863 68.467 91.2144 68.7674 91.0869C69.0211 90.9793 69.4304 90.825 69.8717 90.825C70.7048 90.825 71.2322 91.3953 71.4207 91.6144C71.6803 91.9164 71.9057 92.2908 72.1014 92.6666C72.5001 93.4321 72.9154 94.479 73.3298 95.697C74.1642 98.1497 75.0623 101.499 75.8559 105.169L75.8587 105.182L75.8613 105.195C77.5332 113.653 78.931 119.043 80.3984 122.304C81.1284 123.927 81.8223 124.896 82.4698 125.456C83.0714 125.976 83.6786 126.184 84.408 126.184C85.4116 126.184 86.0134 125.915 86.4773 125.388C87.0138 124.779 87.5237 123.645 87.8632 121.573C88.5422 117.428 88.4141 110.435 87.6261 99.108L87.626 99.1071C87.2317 93.3897 87.0329 88.2415 87.0578 84.5067C87.0701 82.6481 87.138 81.0938 87.2745 79.9816C87.3411 79.4392 87.4334 78.9176 87.5775 78.4979C87.6469 78.2959 87.7619 78.0147 87.9632 77.7565C88.1659 77.4965 88.6126 77.0744 89.3189 77.0744C89.6855 77.0744 90.115 77.1901 90.4104 77.2747C90.7757 77.3792 91.2274 77.5271 91.7445 77.7079C92.7819 78.0705 94.1475 78.5884 95.7389 79.2175C98.9254 80.4773 103.066 82.2026 107.396 84.0726L107.402 84.0751C115.971 87.8179 121.462 89.8541 124.774 90.4563C126.472 90.765 127.267 90.6285 127.584 90.4669L127.588 90.4647C127.694 90.411 127.892 90.3104 127.892 89.5749C127.892 88.8236 127.749 88.1653 127.348 87.4298C126.926 86.6576 126.191 85.7474 124.91 84.5611C122.332 82.1716 117.868 78.9485 110.29 73.7321C106.637 71.3624 103.325 69.0388 100.915 67.2256C99.7116 66.3197 98.7159 65.5282 98.0113 64.9145C97.663 64.6112 97.3582 64.3274 97.1295 64.0807C97.0178 63.9602 96.8929 63.8152 96.7866 63.6576C96.7332 63.5784 96.6646 63.4671 96.6052 63.3313C96.5522 63.2103 96.4621 62.9716 96.4621 62.6631C96.4621 62.1324 96.7272 61.7765 96.8286 61.6521C96.9544 61.4977 97.0879 61.3887 97.1733 61.3242C97.3496 61.191 97.5501 61.0778 97.7251 60.987C98.0895 60.7977 98.5831 60.5833 99.1613 60.3524C100.33 59.8855 101.994 59.2918 104.017 58.6136C108.069 57.2546 113.639 55.5296 119.741 53.758L119.744 53.7572C130.637 50.6169 138.258 48.0387 143.137 45.8275C145.584 44.7184 147.255 43.7396 148.292 42.8824C149.087 42.2245 149.368 41.7584 149.459 41.4771C149.28 41.386 148.964 41.2695 148.455 41.1642C147.171 40.8983 145.158 40.7995 142.416 40.9087C136.971 41.1256 129.047 42.1424 119.253 43.9053C114.515 44.7935 110.008 45.4875 106.597 45.861C104.896 46.0472 103.433 46.1577 102.337 46.1676C101.796 46.1725 101.292 46.1536 100.874 46.0923C100.667 46.0619 100.429 46.014 100.199 45.929C100.018 45.8625 99.6692 45.713 99.3846 45.3803C99.1604 45.128 99.0506 44.857 98.9935 44.6703C98.9278 44.455 98.9004 44.2462 98.8885 44.0725C98.8648 43.7267 98.8917 43.3484 98.9389 42.9794C99.0347 42.2306 99.2457 41.2876 99.5368 40.2371C100.122 38.1257 101.078 35.4134 102.276 32.616C104.468 27.3048 105.734 23.2864 106.218 20.5597C106.463 19.1816 106.487 18.2461 106.394 17.6795C106.376 17.5649 106.355 17.4798 106.337 17.4179C106.21 17.4512 105.991 17.5298 105.657 17.7196C104.98 18.1055 104.083 18.8095 102.97 19.903C100.757 22.0781 97.8986 25.5853 94.4883 30.5049C91.9064 34.3768 89.3099 37.726 87.2356 40.0027C86.2071 41.1316 85.259 42.0501 84.474 42.6335C84.0969 42.9137 83.6536 43.1962 83.1898 43.3434C82.7702 43.4766 81.8114 43.6315 81.1251 42.837C80.8421 42.5262 80.6463 42.1159 80.5233 41.8425C80.3601 41.4799 80.1874 41.0296 80.0088 40.5193C79.6502 39.4946 79.2354 38.1347 78.7897 36.5503C77.897 33.376 76.8596 29.2251 75.8736 24.8868L75.8713 24.8767L75.8691 24.8666C73.9037 15.6292 72.3068 9.61648 70.7707 5.92963C70.0015 4.08369 69.2957 2.94279 68.658 2.27901C68.159 1.75957 67.7365 1.56335 67.3447 1.51355C67.3227 1.55453 67.2965 1.60777 67.2664 1.67605C67.0313 2.2094 66.7919 3.20426 66.5985 4.90797C66.2167 8.27285 66.0679 13.8374 66.0679 22.59V45.1802ZM49.0857 100.763C49.0856 100.763 49.0858 100.765 49.0864 100.769C49.0861 100.765 49.0858 100.763 49.0857 100.763ZM106.273 17.2704C106.273 17.2714 106.277 17.2794 106.288 17.2911C106.279 17.2752 106.274 17.2693 106.273 17.2704ZM67.4233 1.39127C67.4233 1.39062 67.4192 1.39445 67.4115 1.4046C67.4195 1.39699 67.4234 1.39193 67.4233 1.39127Z" stroke="black" stroke-width="3"/>
</g>
<defs>
<filter id="filter0_d_852_3212" x="0" y="0" width="151" height="135.448" filterUnits="userSpaceOnUse" color-interpolation-filters="sRGB">
<feFlood flood-opacity="0" result="BackgroundImageFix"/>
<feColorMatrix in="SourceAlpha" type="matrix" values="0 0 0 0 0 0 0 0 0 0 0 0 0 0 0 0 0 0 127 0" result="hardAlpha"/>
<feOffset dy="7.76457"/>
<feComposite in2="hardAlpha" operator="out"/>
<feColorMatrix type="matrix" values="0 0 0 0 0.745098 0 0 0 0 0.74902 0 0 0 0 0.705882 0 0 0 1 0"/>
<feBlend mode="normal" in2="BackgroundImageFix" result="effect1_dropShadow_852_3212"/>
<feBlend mode="normal" in="SourceGraphic" in2="effect1_dropShadow_852_3212" result="shape"/>
</filter>
</defs>
</svg>
