<svg width="1069" height="273" viewBox="0 0 1069 273" fill="none" xmlns="http://www.w3.org/2000/svg">
<path d="M3.744 67V1.43999H10.784V67H3.744ZM61.5408 68.056C57.1408 68.056 53.1808 67 49.6608 64.888C46.1408 62.7173 43.3541 59.784 41.3008 56.088C39.3061 52.3333 38.3088 48.1093 38.3088 43.416C38.3088 38.664 39.3061 34.44 41.3008 30.744C43.3541 27.048 46.1114 24.144 49.5728 22.032C53.0928 19.8613 57.0821 18.776 61.5408 18.776C65.5888 18.776 69.1968 19.656 72.3648 21.416C75.5328 23.176 78.0261 25.552 79.8448 28.544L78.7888 30.392V0.383997H85.3888V67H78.7888V56.44L79.8448 57.408C78.2021 60.8107 75.7381 63.4507 72.4528 65.328C69.2261 67.1467 65.5888 68.056 61.5408 68.056ZM61.8928 61.456C65.0608 61.456 67.9061 60.664 70.4288 59.08C73.0101 57.496 75.0341 55.3547 76.5008 52.656C78.0261 49.8987 78.7888 46.8187 78.7888 43.416C78.7888 40.0133 78.0261 36.9627 76.5008 34.264C75.0341 31.5067 73.0101 29.336 70.4288 27.752C67.9061 26.168 65.0608 25.376 61.8928 25.376C58.7834 25.376 55.9674 26.168 53.4448 27.752C50.9221 29.336 48.9274 31.4773 47.4608 34.176C46.0528 36.8747 45.3488 39.9547 45.3488 43.416C45.3488 46.8187 46.0528 49.8987 47.4608 52.656C48.9274 55.3547 50.8928 57.496 53.3568 59.08C55.8794 60.664 58.7248 61.456 61.8928 61.456ZM120.412 68.056C116.012 68.056 112.023 67 108.444 64.888C104.924 62.7173 102.137 59.7547 100.084 56C98.0307 52.2453 97.0041 47.992 97.0041 43.24C97.0041 38.488 98.0014 34.2933 99.9961 30.656C101.991 26.96 104.689 24.056 108.092 21.944C111.553 19.832 115.425 18.776 119.708 18.776C123.111 18.776 126.132 19.4213 128.772 20.712C131.471 21.944 133.759 23.6453 135.636 25.816C137.513 27.928 138.951 30.3333 139.948 33.032C140.945 35.672 141.444 38.4 141.444 41.216C141.444 41.8027 141.415 42.4773 141.356 43.24C141.297 43.944 141.209 44.6773 141.092 45.44H101.228V39.28H137.308L134.14 41.92C134.668 38.6933 134.287 35.8187 132.996 33.296C131.764 30.7147 129.975 28.6907 127.628 27.224C125.281 25.6987 122.641 24.936 119.708 24.936C116.775 24.936 114.047 25.6987 111.524 27.224C109.06 28.7493 107.124 30.8907 105.716 33.648C104.308 36.3467 103.751 39.5733 104.044 43.328C103.751 47.0827 104.337 50.368 105.804 53.184C107.329 55.9413 109.383 58.0827 111.964 59.608C114.604 61.1333 117.42 61.896 120.412 61.896C123.873 61.896 126.777 61.0747 129.124 59.432C131.471 57.7893 133.377 55.736 134.844 53.272L140.476 56.264C139.537 58.376 138.1 60.3413 136.164 62.16C134.228 63.92 131.911 65.3573 129.212 66.472C126.572 67.528 123.639 68.056 120.412 68.056ZM169.449 68.056C164.931 68.056 160.971 66.912 157.569 64.624C154.166 62.336 151.702 59.2267 150.177 55.296L155.721 52.656C157.07 55.5307 158.947 57.8187 161.353 59.52C163.817 61.2213 166.515 62.072 169.449 62.072C172.265 62.072 174.641 61.3973 176.577 60.048C178.513 58.64 179.481 56.8213 179.481 54.592C179.481 52.9493 179.011 51.6587 178.073 50.72C177.134 49.7227 176.049 48.96 174.817 48.432C173.585 47.904 172.499 47.5227 171.561 47.288L164.785 45.352C160.443 44.12 157.305 42.3893 155.369 40.16C153.433 37.9307 152.465 35.3493 152.465 32.416C152.465 29.6587 153.169 27.2533 154.577 25.2C155.985 23.1467 157.891 21.5627 160.297 20.448C162.702 19.3333 165.371 18.776 168.305 18.776C172.294 18.776 175.902 19.832 179.129 21.944C182.414 23.9973 184.731 26.872 186.081 30.568L180.449 33.208C179.275 30.568 177.574 28.5147 175.345 27.048C173.174 25.5227 170.739 24.76 168.041 24.76C165.401 24.76 163.289 25.4347 161.705 26.784C160.121 28.1333 159.329 29.8347 159.329 31.888C159.329 33.472 159.739 34.7333 160.561 35.672C161.382 36.6107 162.321 37.3147 163.377 37.784C164.491 38.2533 165.459 38.6053 166.281 38.84L174.113 41.128C177.926 42.2427 180.889 43.9733 183.001 46.32C185.171 48.6667 186.257 51.424 186.257 54.592C186.257 57.1733 185.523 59.4907 184.057 61.544C182.649 63.5973 180.683 65.2107 178.161 66.384C175.638 67.4987 172.734 68.056 169.449 68.056ZM197.854 67V19.832H204.454V67H197.854ZM197.854 11.12V1.43999H204.454V11.12H197.854ZM240.316 86.36C237.089 86.36 234.097 85.8613 231.34 84.864C228.641 83.8667 226.294 82.488 224.3 80.728C222.364 79.0267 220.868 77.032 219.812 74.744L225.884 71.488C226.822 73.7173 228.494 75.6533 230.9 77.296C233.305 78.9387 236.385 79.76 240.14 79.76C243.014 79.76 245.654 79.2027 248.06 78.088C250.465 76.9733 252.401 75.3307 253.868 73.16C255.334 70.9893 256.068 68.32 256.068 65.152V54.68L257.124 55.648C255.481 59.0507 253.046 61.6907 249.82 63.568C246.593 65.3867 243.073 66.296 239.26 66.296C234.86 66.296 230.9 65.24 227.38 63.128C223.86 61.016 221.073 58.1707 219.02 54.592C217.025 50.9547 216.028 46.936 216.028 42.536C216.028 38.0773 217.025 34.0587 219.02 30.48C221.073 26.9013 223.83 24.056 227.292 21.944C230.812 19.832 234.801 18.776 239.26 18.776C243.073 18.776 246.534 19.656 249.644 21.416C252.812 23.176 255.305 25.552 257.124 28.544L256.068 30.392V19.832H262.668V65.152C262.668 69.2 261.7 72.808 259.764 75.976C257.886 79.2027 255.246 81.7253 251.844 83.544C248.5 85.4213 244.657 86.36 240.316 86.36ZM239.612 59.696C242.662 59.696 245.42 58.9333 247.884 57.408C250.348 55.824 252.313 53.7413 253.78 51.16C255.305 48.52 256.068 45.6453 256.068 42.536C256.068 39.4267 255.305 36.5813 253.78 34C252.313 31.36 250.348 29.2773 247.884 27.752C245.42 26.168 242.662 25.376 239.612 25.376C236.502 25.376 233.686 26.168 231.164 27.752C228.641 29.2773 226.646 31.3307 225.18 33.912C223.772 36.4933 223.068 39.368 223.068 42.536C223.068 45.6453 223.772 48.52 225.18 51.16C226.646 53.7413 228.612 55.824 231.076 57.408C233.598 58.9333 236.444 59.696 239.612 59.696ZM276.229 67V19.832H282.829V28.984L281.333 28.632C282.506 25.5813 284.413 23.176 287.053 21.416C289.752 19.656 292.861 18.776 296.381 18.776C299.725 18.776 302.717 19.5387 305.357 21.064C308.056 22.5893 310.168 24.7013 311.693 27.4C313.277 30.04 314.069 33.032 314.069 36.376V67H307.469V38.928C307.469 36.0533 306.941 33.6187 305.885 31.624C304.888 29.6293 303.45 28.104 301.573 27.048C299.754 25.9333 297.642 25.376 295.237 25.376C292.832 25.376 290.69 25.9333 288.813 27.048C286.936 28.104 285.469 29.6587 284.413 31.712C283.357 33.7067 282.829 36.112 282.829 38.928V67H276.229ZM352.012 67L335.82 19.832H343.3L356.676 61.104H354.036L366.62 19.832H373.22L385.804 61.104H383.164L396.628 19.832H404.02L387.828 67H381.228L368.996 26.608H370.844L358.612 67H352.012ZM411.753 67V19.832H418.353V67H411.753ZM411.753 11.12V1.43999H418.353V11.12H411.753ZM449.902 67.528C445.678 67.528 442.422 66.296 440.134 63.832C437.846 61.368 436.702 57.848 436.702 53.272V26.432H427.99V19.832H430.19C432.185 19.832 433.769 19.1867 434.942 17.896C436.115 16.5467 436.702 14.8747 436.702 12.88V8.92H443.302V19.832H453.686V26.432H443.302V53.272C443.302 54.856 443.537 56.264 444.006 57.496C444.475 58.6693 445.267 59.608 446.382 60.312C447.555 61.016 449.11 61.368 451.046 61.368C451.515 61.368 452.073 61.3387 452.718 61.28C453.363 61.2213 453.921 61.1627 454.39 61.104V67C453.686 67.176 452.894 67.2933 452.014 67.352C451.134 67.4693 450.43 67.528 449.902 67.528ZM465.979 67V0.383997H472.579V28.984L471.083 28.632C472.256 25.5813 474.163 23.176 476.803 21.416C479.502 19.656 482.611 18.776 486.131 18.776C489.475 18.776 492.467 19.5387 495.107 21.064C497.806 22.5893 499.918 24.7013 501.443 27.4C503.027 30.04 503.819 33.032 503.819 36.376V67H497.219V38.928C497.219 36.0533 496.691 33.6187 495.635 31.624C494.579 29.6293 493.112 28.104 491.235 27.048C489.416 25.9333 487.334 25.376 484.987 25.376C482.64 25.376 480.528 25.9333 478.651 27.048C476.774 28.104 475.278 29.6587 474.163 31.712C473.107 33.7067 472.579 36.112 472.579 38.928V67H465.979ZM552.85 68.056C548.45 68.056 544.46 67 540.882 64.888C537.362 62.7173 534.575 59.7547 532.522 56C530.468 52.2453 529.442 47.992 529.442 43.24C529.442 38.488 530.439 34.2933 532.434 30.656C534.428 26.96 537.127 24.056 540.53 21.944C543.991 19.832 547.863 18.776 552.146 18.776C555.548 18.776 558.57 19.4213 561.21 20.712C563.908 21.944 566.196 23.6453 568.074 25.816C569.951 27.928 571.388 30.3333 572.386 33.032C573.383 35.672 573.882 38.4 573.882 41.216C573.882 41.8027 573.852 42.4773 573.794 43.24C573.735 43.944 573.647 44.6773 573.53 45.44H533.666V39.28H569.746L566.578 41.92C567.106 38.6933 566.724 35.8187 565.434 33.296C564.202 30.7147 562.412 28.6907 560.066 27.224C557.719 25.6987 555.079 24.936 552.146 24.936C549.212 24.936 546.484 25.6987 543.962 27.224C541.498 28.7493 539.562 30.8907 538.154 33.648C536.746 36.3467 536.188 39.5733 536.482 43.328C536.188 47.0827 536.775 50.368 538.242 53.184C539.767 55.9413 541.82 58.0827 544.402 59.608C547.042 61.1333 549.858 61.896 552.85 61.896C556.311 61.896 559.215 61.0747 561.562 59.432C563.908 57.7893 565.815 55.736 567.282 53.272L572.914 56.264C571.975 58.376 570.538 60.3413 568.602 62.16C566.666 63.92 564.348 65.3573 561.65 66.472C559.01 67.528 556.076 68.056 552.85 68.056ZM585.518 67V19.832H592.118V28.808L591.062 27.488C592.353 24.7307 594.26 22.5893 596.782 21.064C599.364 19.5387 602.18 18.776 605.23 18.776C608.868 18.776 612.153 19.8027 615.086 21.856C618.02 23.9093 620.102 26.5787 621.334 29.864L619.486 29.952C620.66 26.3147 622.684 23.5573 625.558 21.68C628.492 19.744 631.718 18.776 635.238 18.776C638.406 18.776 641.31 19.5387 643.95 21.064C646.649 22.5893 648.79 24.7013 650.374 27.4C652.017 30.04 652.838 33.032 652.838 36.376V67H646.238V38.928C646.238 36.0533 645.71 33.6187 644.654 31.624C643.657 29.6293 642.278 28.104 640.518 27.048C638.758 25.9333 636.734 25.376 634.446 25.376C632.217 25.376 630.193 25.9333 628.374 27.048C626.556 28.104 625.118 29.6587 624.062 31.712C623.006 33.7067 622.478 36.112 622.478 38.928V67H615.878V38.928C615.878 36.0533 615.35 33.6187 614.294 31.624C613.297 29.6293 611.918 28.104 610.158 27.048C608.398 25.9333 606.374 25.376 604.086 25.376C601.798 25.376 599.745 25.9333 597.926 27.048C596.166 28.104 594.758 29.6587 593.702 31.712C592.646 33.7067 592.118 36.112 592.118 38.928V67H585.518ZM665.44 84.6V19.832H672.04V30.392L670.984 28.544C672.861 25.552 675.355 23.176 678.464 21.416C681.632 19.656 685.24 18.776 689.288 18.776C693.747 18.776 697.707 19.8613 701.168 22.032C704.688 24.144 707.445 27.048 709.44 30.744C711.493 34.44 712.52 38.664 712.52 43.416C712.52 48.1093 711.493 52.3333 709.44 56.088C707.445 59.784 704.688 62.7173 701.168 64.888C697.707 67 693.747 68.056 689.288 68.056C685.24 68.056 681.573 67.1467 678.288 65.328C675.061 63.4507 672.627 60.8107 670.984 57.408L672.04 56.44V84.6H665.44ZM688.936 61.456C692.104 61.456 694.92 60.664 697.384 59.08C699.907 57.496 701.872 55.3547 703.28 52.656C704.747 49.8987 705.48 46.8187 705.48 43.416C705.48 39.9547 704.747 36.8747 703.28 34.176C701.872 31.4773 699.907 29.336 697.384 27.752C694.92 26.168 692.104 25.376 688.936 25.376C685.768 25.376 682.893 26.168 680.312 27.752C677.789 29.336 675.765 31.5067 674.24 34.264C672.773 36.9627 672.04 40.0133 672.04 43.416C672.04 46.8187 672.773 49.8987 674.24 52.656C675.765 55.3547 677.789 57.496 680.312 59.08C682.893 60.664 685.768 61.456 688.936 61.456ZM737.775 68.056C734.783 68.056 732.114 67.4987 729.767 66.384C727.421 65.2107 725.573 63.6267 724.223 61.632C722.874 59.6373 722.199 57.3493 722.199 54.768C722.199 52.304 722.727 50.0747 723.783 48.08C724.839 46.0267 726.482 44.296 728.711 42.888C730.941 41.48 733.786 40.4827 737.247 39.896L755.727 36.816V42.8L738.831 45.616C735.429 46.2027 732.965 47.288 731.439 48.872C729.973 50.456 729.239 52.3333 729.239 54.504C729.239 56.616 730.061 58.4053 731.703 59.872C733.405 61.3387 735.575 62.072 738.215 62.072C741.442 62.072 744.258 61.3973 746.663 60.048C749.069 58.64 750.946 56.7627 752.295 54.416C753.645 52.0693 754.319 49.4587 754.319 46.584V34.616C754.319 31.8 753.293 29.512 751.239 27.752C749.186 25.992 746.517 25.112 743.231 25.112C740.357 25.112 737.834 25.8453 735.663 27.312C733.493 28.72 731.879 30.568 730.823 32.856L724.839 29.6C725.719 27.6053 727.098 25.7867 728.975 24.144C730.911 22.5013 733.111 21.2107 735.575 20.272C738.039 19.2747 740.591 18.776 743.231 18.776C746.693 18.776 749.743 19.4507 752.383 20.8C755.082 22.1493 757.165 24.0267 758.631 26.432C760.157 28.7787 760.919 31.5067 760.919 34.616V67H754.319V57.584L755.287 58.552C754.466 60.312 753.175 61.9253 751.415 63.392C749.714 64.8 747.69 65.944 745.343 66.824C743.055 67.6453 740.533 68.056 737.775 68.056ZM791.675 67.528C787.451 67.528 784.195 66.296 781.907 63.832C779.619 61.368 778.475 57.848 778.475 53.272V26.432H769.763V19.832H771.963C773.958 19.832 775.542 19.1867 776.715 17.896C777.889 16.5467 778.475 14.8747 778.475 12.88V8.92H785.075V19.832H795.459V26.432H785.075V53.272C785.075 54.856 785.31 56.264 785.779 57.496C786.249 58.6693 787.041 59.608 788.155 60.312C789.329 61.016 790.883 61.368 792.819 61.368C793.289 61.368 793.846 61.3387 794.491 61.28C795.137 61.2213 795.694 61.1627 796.163 61.104V67C795.459 67.176 794.667 67.2933 793.787 67.352C792.907 67.4693 792.203 67.528 791.675 67.528ZM807.753 67V0.383997H814.353V28.984L812.857 28.632C814.03 25.5813 815.937 23.176 818.577 21.416C821.275 19.656 824.385 18.776 827.905 18.776C831.249 18.776 834.241 19.5387 836.881 21.064C839.579 22.5893 841.691 24.7013 843.217 27.4C844.801 30.04 845.593 33.032 845.593 36.376V67H838.993V38.928C838.993 36.0533 838.465 33.6187 837.409 31.624C836.353 29.6293 834.886 28.104 833.009 27.048C831.19 25.9333 829.107 25.376 826.761 25.376C824.414 25.376 822.302 25.9333 820.425 27.048C818.547 28.104 817.051 29.6587 815.937 31.712C814.881 33.7067 814.353 36.112 814.353 38.928V67H807.753ZM858.307 86.36C857.368 86.36 856.4 86.272 855.403 86.096C854.464 85.9787 853.525 85.744 852.587 85.392V79.232C853.173 79.2907 853.907 79.3787 854.787 79.496C855.725 79.672 856.664 79.76 857.603 79.76C860.477 79.76 862.677 79.144 864.203 77.912C865.728 76.7387 867.224 74.4507 868.691 71.048L871.683 64.008L871.507 69.816L851.531 19.832H858.659L875.027 61.104H873.178L889.459 19.832H896.763L875.203 72.984C874.264 75.272 873.061 77.4427 871.595 79.496C870.187 81.5493 868.397 83.192 866.227 84.424C864.056 85.7147 861.416 86.36 858.307 86.36ZM938.567 21.152C940.093 23.0293 941.442 24.5547 942.615 25.728C943.789 26.9013 944.375 28.0747 944.375 29.248C944.375 29.952 944.111 30.7147 943.583 31.536C943.114 32.3573 942.469 33.1493 941.647 33.912C940.885 34.616 940.005 35.232 939.007 35.76C938.069 36.2293 937.13 36.464 936.191 36.464C935.135 36.464 934.373 36.1413 933.903 35.496C933.434 34.8507 933.111 33.9707 932.935 32.856C932.818 31.6827 932.759 30.3333 932.759 28.808C932.759 27.224 932.73 25.552 932.671 23.792C931.85 25.024 931.146 26.168 930.559 27.224C929.973 28.28 929.386 29.1893 928.799 29.952C928.213 30.7147 927.597 31.3307 926.951 31.8C926.365 32.2107 925.631 32.416 924.751 32.416C923.871 32.416 922.991 32.24 922.111 31.888C921.231 31.4773 920.439 31.008 919.735 30.48C919.031 29.8933 918.445 29.248 917.975 28.544C917.565 27.84 917.359 27.1653 917.359 26.52C917.359 25.7573 917.682 25.0533 918.327 24.408C918.973 23.7627 919.823 23.176 920.879 22.648C921.935 22.12 923.138 21.592 924.487 21.064C925.837 20.536 927.215 19.9493 928.623 19.304C926.687 18.8347 925.074 18.4827 923.783 18.248C922.493 18.0133 921.437 17.72 920.615 17.368C919.794 17.016 919.207 16.5467 918.855 15.96C918.503 15.3733 918.327 14.5227 918.327 13.408C918.327 12.176 918.503 11.0907 918.855 10.152C919.207 9.15466 919.647 8.33333 920.175 7.688C920.762 6.984 921.349 6.456 921.935 6.104C922.581 5.752 923.167 5.576 923.695 5.576C924.341 5.576 924.957 5.81066 925.543 6.27999C926.189 6.74933 926.834 7.36533 927.479 8.128C928.183 8.832 928.917 9.68267 929.679 10.68C930.442 11.6773 931.263 12.704 932.143 13.76C931.967 12.9973 931.821 11.9707 931.703 10.68C931.586 9.38933 931.527 8.392 931.527 7.688C931.527 3.22933 934.021 0.999995 939.007 0.999995C941.061 0.999995 942.41 1.352 943.055 2.056C943.701 2.70133 944.023 3.43466 944.023 4.25599C944.023 5.60533 943.466 7.072 942.351 8.656C941.295 10.1813 939.917 12.2347 938.215 14.816C940.445 13.936 942.263 13.1147 943.671 12.352C945.138 11.5307 946.311 11.12 947.191 11.12C947.778 11.12 948.394 11.3253 949.039 11.736C949.685 12.1467 950.242 12.704 950.711 13.408C951.181 14.0533 951.562 14.8453 951.855 15.784C952.207 16.664 952.383 17.6027 952.383 18.6C952.383 20.4773 951.885 21.68 950.887 22.208C949.949 22.736 949.01 23 948.071 23C946.898 23 945.549 22.7947 944.023 22.384C942.498 21.9733 940.679 21.5627 938.567 21.152ZM1008.24 67.528C1004.01 67.528 1000.76 66.296 998.47 63.832C996.182 61.368 995.038 57.848 995.038 53.272V26.432H986.326V19.832H988.526C990.521 19.832 992.105 19.1867 993.278 17.896C994.451 16.5467 995.038 14.8747 995.038 12.88V8.92H1001.64V19.832H1012.02V26.432H1001.64V53.272C1001.64 54.856 1001.87 56.264 1002.34 57.496C1002.81 58.6693 1003.6 59.608 1004.72 60.312C1005.89 61.016 1007.45 61.368 1009.38 61.368C1009.85 61.368 1010.41 61.3387 1011.05 61.28C1011.7 61.2213 1012.26 61.1627 1012.73 61.104V67C1012.02 67.176 1011.23 67.2933 1010.35 67.352C1009.47 67.4693 1008.77 67.528 1008.24 67.528ZM1044.68 68.056C1040.23 68.056 1036.18 67 1032.54 64.888C1028.9 62.7173 1026 59.784 1023.83 56.088C1021.72 52.3333 1020.66 48.08 1020.66 43.328C1020.66 38.6347 1021.72 34.44 1023.83 30.744C1025.94 27.048 1028.79 24.144 1032.36 22.032C1036 19.8613 1040.11 18.776 1044.68 18.776C1049.26 18.776 1053.34 19.832 1056.92 21.944C1060.55 24.056 1063.4 26.96 1065.45 30.656C1067.56 34.352 1068.62 38.576 1068.62 43.328C1068.62 48.1387 1067.53 52.4213 1065.36 56.176C1063.19 59.872 1060.29 62.776 1056.65 64.888C1053.07 67 1049.08 68.056 1044.68 68.056ZM1044.68 61.456C1047.85 61.456 1050.7 60.664 1053.22 59.08C1055.8 57.496 1057.83 55.3253 1059.29 52.568C1060.82 49.8107 1061.58 46.7307 1061.58 43.328C1061.58 39.9253 1060.82 36.8747 1059.29 34.176C1057.83 31.4773 1055.8 29.336 1053.22 27.752C1050.7 26.168 1047.85 25.376 1044.68 25.376C1041.52 25.376 1038.64 26.168 1036.06 27.752C1033.54 29.336 1031.51 31.4773 1029.99 34.176C1028.46 36.8747 1027.7 39.9253 1027.7 43.328C1027.7 46.7307 1028.46 49.8107 1029.99 52.568C1031.51 55.3253 1033.54 57.496 1036.06 59.08C1038.64 60.664 1041.52 61.456 1044.68 61.456ZM24.336 162.056C19.7013 162.056 15.624 160.971 12.104 158.8C8.584 156.629 5.82667 153.696 3.832 150C1.83733 146.245 0.84 142.021 0.84 137.328C0.84 132.635 1.83733 128.44 3.832 124.744C5.82667 121.048 8.584 118.144 12.104 116.032C15.624 113.861 19.7013 112.776 24.336 112.776C27.2693 112.776 30.0267 113.304 32.608 114.36C35.1893 115.416 37.4773 116.853 39.472 118.672C41.4667 120.432 42.9627 122.485 43.96 124.832L37.976 127.912C36.8027 125.389 35.0133 123.336 32.608 121.752C30.2027 120.168 27.4453 119.376 24.336 119.376C21.2267 119.376 18.4107 120.168 15.888 121.752C13.424 123.277 11.4587 125.419 9.992 128.176C8.584 130.875 7.88 133.955 7.88 137.416C7.88 140.819 8.584 143.899 9.992 146.656C11.4587 149.355 13.424 151.496 15.888 153.08C18.4107 154.664 21.2267 155.456 24.336 155.456C27.4453 155.456 30.1733 154.664 32.52 153.08C34.9253 151.496 36.744 149.384 37.976 146.744L43.96 150C42.9627 152.288 41.4667 154.341 39.472 156.16C37.4773 157.979 35.1893 159.416 32.608 160.472C30.0267 161.528 27.2693 162.056 24.336 162.056ZM55.5416 161V113.832H62.1416V121.576L61.2616 120.432C62.3763 118.203 64.0483 116.443 66.2776 115.152C68.5656 113.861 71.323 113.216 74.5496 113.216H77.5416V119.816H73.4056C70.003 119.816 67.275 120.872 65.2216 122.984C63.1683 125.096 62.1416 128.088 62.1416 131.96V161H55.5416ZM98.916 162.056C95.924 162.056 93.2547 161.499 90.908 160.384C88.5613 159.211 86.7133 157.627 85.364 155.632C84.0147 153.637 83.34 151.349 83.34 148.768C83.34 146.304 83.868 144.075 84.924 142.08C85.98 140.027 87.6227 138.296 89.852 136.888C92.0813 135.48 94.9267 134.483 98.388 133.896L116.868 130.816V136.8L99.972 139.616C96.5693 140.203 94.1053 141.288 92.58 142.872C91.1133 144.456 90.38 146.333 90.38 148.504C90.38 150.616 91.2013 152.405 92.844 153.872C94.5453 155.339 96.716 156.072 99.356 156.072C102.583 156.072 105.399 155.397 107.804 154.048C110.209 152.64 112.087 150.763 113.436 148.416C114.785 146.069 115.46 143.459 115.46 140.584V128.616C115.46 125.8 114.433 123.512 112.38 121.752C110.327 119.992 107.657 119.112 104.372 119.112C101.497 119.112 98.9747 119.845 96.804 121.312C94.6333 122.72 93.02 124.568 91.964 126.856L85.98 123.6C86.86 121.605 88.2387 119.787 90.116 118.144C92.052 116.501 94.252 115.211 96.716 114.272C99.18 113.275 101.732 112.776 104.372 112.776C107.833 112.776 110.884 113.451 113.524 114.8C116.223 116.149 118.305 118.027 119.772 120.432C121.297 122.779 122.06 125.507 122.06 128.616V161H115.46V151.584L116.428 152.552C115.607 154.312 114.316 155.925 112.556 157.392C110.855 158.8 108.831 159.944 106.484 160.824C104.196 161.645 101.673 162.056 98.916 162.056ZM140.475 161V120.432H131.059V113.832H140.475V109.608C140.475 106.323 141.209 103.565 142.675 101.336C144.142 99.048 146.078 97.3173 148.483 96.144C150.889 94.9707 153.47 94.384 156.227 94.384C156.814 94.384 157.489 94.4427 158.251 94.56C159.014 94.6187 159.63 94.7067 160.099 94.824V100.808C159.689 100.691 159.131 100.632 158.427 100.632C157.723 100.573 157.225 100.544 156.931 100.544C154.115 100.544 151.769 101.219 149.891 102.568C148.014 103.917 147.075 106.264 147.075 109.608V113.832H158.603V120.432H147.075V161H140.475ZM189.082 161.528C184.858 161.528 181.602 160.296 179.314 157.832C177.026 155.368 175.882 151.848 175.882 147.272V120.432H167.17V113.832H169.37C171.364 113.832 172.948 113.187 174.122 111.896C175.295 110.547 175.882 108.875 175.882 106.88V102.92H182.482V113.832H192.866V120.432H182.482V147.272C182.482 148.856 182.716 150.264 183.186 151.496C183.655 152.669 184.447 153.608 185.562 154.312C186.735 155.016 188.29 155.368 190.226 155.368C190.695 155.368 191.252 155.339 191.898 155.28C192.543 155.221 193.1 155.163 193.57 155.104V161C192.866 161.176 192.074 161.293 191.194 161.352C190.314 161.469 189.61 161.528 189.082 161.528ZM220.112 161V113.832H226.712V122.808L225.656 121.488C226.947 118.731 228.853 116.589 231.376 115.064C233.957 113.539 236.773 112.776 239.824 112.776C243.461 112.776 246.747 113.803 249.68 115.856C252.613 117.909 254.696 120.579 255.928 123.864L254.08 123.952C255.253 120.315 257.277 117.557 260.152 115.68C263.085 113.744 266.312 112.776 269.832 112.776C273 112.776 275.904 113.539 278.544 115.064C281.243 116.589 283.384 118.701 284.968 121.4C286.611 124.04 287.432 127.032 287.432 130.376V161H280.832V132.928C280.832 130.053 280.304 127.619 279.248 125.624C278.251 123.629 276.872 122.104 275.112 121.048C273.352 119.933 271.328 119.376 269.04 119.376C266.811 119.376 264.787 119.933 262.968 121.048C261.149 122.104 259.712 123.659 258.656 125.712C257.6 127.707 257.072 130.112 257.072 132.928V161H250.472V132.928C250.472 130.053 249.944 127.619 248.888 125.624C247.891 123.629 246.512 122.104 244.752 121.048C242.992 119.933 240.968 119.376 238.68 119.376C236.392 119.376 234.339 119.933 232.52 121.048C230.76 122.104 229.352 123.659 228.296 125.712C227.24 127.707 226.712 130.112 226.712 132.928V161H220.112ZM321.506 162.056C317.106 162.056 313.116 161 309.538 158.888C306.018 156.717 303.231 153.755 301.178 150C299.124 146.245 298.098 141.992 298.098 137.24C298.098 132.488 299.095 128.293 301.09 124.656C303.084 120.96 305.783 118.056 309.186 115.944C312.647 113.832 316.519 112.776 320.802 112.776C324.204 112.776 327.226 113.421 329.866 114.712C332.564 115.944 334.852 117.645 336.73 119.816C338.607 121.928 340.044 124.333 341.042 127.032C342.039 129.672 342.538 132.4 342.538 135.216C342.538 135.803 342.508 136.477 342.45 137.24C342.391 137.944 342.303 138.677 342.186 139.44H302.322V133.28H338.402L335.234 135.92C335.762 132.693 335.38 129.819 334.09 127.296C332.858 124.715 331.068 122.691 328.722 121.224C326.375 119.699 323.735 118.936 320.802 118.936C317.868 118.936 315.14 119.699 312.618 121.224C310.154 122.749 308.218 124.891 306.81 127.648C305.402 130.347 304.844 133.573 305.138 137.328C304.844 141.083 305.431 144.368 306.898 147.184C308.423 149.941 310.476 152.083 313.058 153.608C315.698 155.133 318.514 155.896 321.506 155.896C324.967 155.896 327.871 155.075 330.218 153.432C332.564 151.789 334.471 149.736 335.938 147.272L341.57 150.264C340.631 152.376 339.194 154.341 337.258 156.16C335.322 157.92 333.004 159.357 330.306 160.472C327.666 161.528 324.732 162.056 321.506 162.056ZM366.955 162.056C363.963 162.056 361.294 161.499 358.947 160.384C356.6 159.211 354.752 157.627 353.403 155.632C352.054 153.637 351.379 151.349 351.379 148.768C351.379 146.304 351.907 144.075 352.963 142.08C354.019 140.027 355.662 138.296 357.891 136.888C360.12 135.48 362.966 134.483 366.427 133.896L384.907 130.816V136.8L368.011 139.616C364.608 140.203 362.144 141.288 360.619 142.872C359.152 144.456 358.419 146.333 358.419 148.504C358.419 150.616 359.24 152.405 360.883 153.872C362.584 155.339 364.755 156.072 367.395 156.072C370.622 156.072 373.438 155.397 375.843 154.048C378.248 152.64 380.126 150.763 381.475 148.416C382.824 146.069 383.499 143.459 383.499 140.584V128.616C383.499 125.8 382.472 123.512 380.419 121.752C378.366 119.992 375.696 119.112 372.411 119.112C369.536 119.112 367.014 119.845 364.843 121.312C362.672 122.72 361.059 124.568 360.003 126.856L354.019 123.6C354.899 121.605 356.278 119.787 358.155 118.144C360.091 116.501 362.291 115.211 364.755 114.272C367.219 113.275 369.771 112.776 372.411 112.776C375.872 112.776 378.923 113.451 381.563 114.8C384.262 116.149 386.344 118.027 387.811 120.432C389.336 122.779 390.099 125.507 390.099 128.616V161H383.499V151.584L384.467 152.552C383.646 154.312 382.355 155.925 380.595 157.392C378.894 158.8 376.87 159.944 374.523 160.824C372.235 161.645 369.712 162.056 366.955 162.056ZM403.674 161V113.832H410.274V122.984L408.778 122.632C409.952 119.581 411.858 117.176 414.498 115.416C417.197 113.656 420.306 112.776 423.826 112.776C427.17 112.776 430.162 113.539 432.802 115.064C435.501 116.589 437.613 118.701 439.138 121.4C440.722 124.04 441.514 127.032 441.514 130.376V161H434.914V132.928C434.914 130.053 434.386 127.619 433.33 125.624C432.333 123.629 430.896 122.104 429.018 121.048C427.2 119.933 425.088 119.376 422.682 119.376C420.277 119.376 418.136 119.933 416.258 121.048C414.381 122.104 412.914 123.659 411.858 125.712C410.802 127.707 410.274 130.112 410.274 132.928V161H403.674ZM454.12 161V113.832H460.72V161H454.12ZM454.12 105.12V95.44H460.72V105.12H454.12ZM474.229 161V113.832H480.829V122.984L479.333 122.632C480.506 119.581 482.413 117.176 485.053 115.416C487.752 113.656 490.861 112.776 494.381 112.776C497.725 112.776 500.717 113.539 503.357 115.064C506.056 116.589 508.168 118.701 509.693 121.4C511.277 124.04 512.069 127.032 512.069 130.376V161H505.469V132.928C505.469 130.053 504.941 127.619 503.885 125.624C502.888 123.629 501.45 122.104 499.573 121.048C497.754 119.933 495.642 119.376 493.237 119.376C490.832 119.376 488.69 119.933 486.813 121.048C484.936 122.104 483.469 123.659 482.413 125.712C481.357 127.707 480.829 130.112 480.829 132.928V161H474.229ZM547.026 180.36C543.8 180.36 540.808 179.861 538.05 178.864C535.352 177.867 533.005 176.488 531.01 174.728C529.074 173.027 527.578 171.032 526.522 168.744L532.594 165.488C533.533 167.717 535.205 169.653 537.61 171.296C540.016 172.939 543.096 173.76 546.85 173.76C549.725 173.76 552.365 173.203 554.77 172.088C557.176 170.973 559.112 169.331 560.578 167.16C562.045 164.989 562.778 162.32 562.778 159.152V148.68L563.834 149.648C562.192 153.051 559.757 155.691 556.53 157.568C553.304 159.387 549.784 160.296 545.97 160.296C541.57 160.296 537.61 159.24 534.09 157.128C530.57 155.016 527.784 152.171 525.73 148.592C523.736 144.955 522.738 140.936 522.738 136.536C522.738 132.077 523.736 128.059 525.73 124.48C527.784 120.901 530.541 118.056 534.002 115.944C537.522 113.832 541.512 112.776 545.97 112.776C549.784 112.776 553.245 113.656 556.354 115.416C559.522 117.176 562.016 119.552 563.834 122.544L562.778 124.392V113.832H569.378V159.152C569.378 163.2 568.41 166.808 566.474 169.976C564.597 173.203 561.957 175.725 558.554 177.544C555.21 179.421 551.368 180.36 547.026 180.36ZM546.322 153.696C549.373 153.696 552.13 152.933 554.594 151.408C557.058 149.824 559.024 147.741 560.49 145.16C562.016 142.52 562.778 139.645 562.778 136.536C562.778 133.427 562.016 130.581 560.49 128C559.024 125.36 557.058 123.277 554.594 121.752C552.13 120.168 549.373 119.376 546.322 119.376C543.213 119.376 540.397 120.168 537.874 121.752C535.352 123.277 533.357 125.331 531.89 127.912C530.482 130.493 529.778 133.368 529.778 136.536C529.778 139.645 530.482 142.52 531.89 145.16C533.357 147.741 535.322 149.824 537.786 151.408C540.309 152.933 543.154 153.696 546.322 153.696ZM587.78 161V120.432H578.364V113.832H587.78V109.608C587.78 106.323 588.513 103.565 589.98 101.336C591.447 99.048 593.383 97.3173 595.788 96.144C598.193 94.9707 600.775 94.384 603.532 94.384C604.119 94.384 604.793 94.4427 605.556 94.56C606.319 94.6187 606.935 94.7067 607.404 94.824V100.808C606.993 100.691 606.436 100.632 605.732 100.632C605.028 100.573 604.529 100.544 604.236 100.544C601.42 100.544 599.073 101.219 597.196 102.568C595.319 103.917 594.38 106.264 594.38 109.608V113.832H605.908V120.432H594.38V161H587.78ZM634.207 162.056C630.922 162.056 627.93 161.293 625.231 159.768C622.532 158.184 620.391 156.013 618.807 153.256C617.282 150.44 616.519 147.213 616.519 143.576V113.832H623.119V142.784C623.119 145.307 623.618 147.536 624.615 149.472C625.671 151.349 627.108 152.816 628.927 153.872C630.804 154.928 632.946 155.456 635.351 155.456C637.756 155.456 639.898 154.928 641.775 153.872C643.652 152.757 645.119 151.203 646.175 149.208C647.231 147.155 647.759 144.72 647.759 141.904V113.832H654.359V161H647.759V151.848L649.255 152.2C648.14 155.251 646.234 157.656 643.535 159.416C640.836 161.176 637.727 162.056 634.207 162.056ZM667.932 161V94.384H674.532V161H667.932ZM719.715 162.056C716.429 162.056 713.437 161.293 710.739 159.768C708.04 158.184 705.899 156.013 704.315 153.256C702.789 150.44 702.027 147.213 702.027 143.576V113.832H708.627V142.784C708.627 145.307 709.125 147.536 710.123 149.472C711.179 151.349 712.616 152.816 714.435 153.872C716.312 154.928 718.453 155.456 720.859 155.456C723.264 155.456 725.405 154.928 727.283 153.872C729.16 152.757 730.627 151.203 731.683 149.208C732.739 147.155 733.267 144.72 733.267 141.904V113.832H739.867V161H733.267V151.848L734.763 152.2C733.648 155.251 731.741 157.656 729.043 159.416C726.344 161.176 723.235 162.056 719.715 162.056ZM769.808 162.056C765.291 162.056 761.331 160.912 757.928 158.624C754.525 156.336 752.061 153.227 750.536 149.296L756.08 146.656C757.429 149.531 759.307 151.819 761.712 153.52C764.176 155.221 766.875 156.072 769.808 156.072C772.624 156.072 775 155.397 776.936 154.048C778.872 152.64 779.84 150.821 779.84 148.592C779.84 146.949 779.371 145.659 778.432 144.72C777.493 143.723 776.408 142.96 775.176 142.432C773.944 141.904 772.859 141.523 771.92 141.288L765.144 139.352C760.803 138.12 757.664 136.389 755.728 134.16C753.792 131.931 752.824 129.349 752.824 126.416C752.824 123.659 753.528 121.253 754.936 119.2C756.344 117.147 758.251 115.563 760.656 114.448C763.061 113.333 765.731 112.776 768.664 112.776C772.653 112.776 776.261 113.832 779.488 115.944C782.773 117.997 785.091 120.872 786.44 124.568L780.808 127.208C779.635 124.568 777.933 122.515 775.704 121.048C773.533 119.523 771.099 118.76 768.4 118.76C765.76 118.76 763.648 119.435 762.064 120.784C760.48 122.133 759.688 123.835 759.688 125.888C759.688 127.472 760.099 128.733 760.92 129.672C761.741 130.611 762.68 131.315 763.736 131.784C764.851 132.253 765.819 132.605 766.64 132.84L774.472 135.128C778.285 136.243 781.248 137.973 783.36 140.32C785.531 142.667 786.616 145.424 786.616 148.592C786.616 151.173 785.883 153.491 784.416 155.544C783.008 157.597 781.043 159.211 778.52 160.384C775.997 161.499 773.093 162.056 769.808 162.056ZM819.686 162.056C815.286 162.056 811.296 161 807.718 158.888C804.198 156.717 801.411 153.755 799.358 150C797.304 146.245 796.278 141.992 796.278 137.24C796.278 132.488 797.275 128.293 799.27 124.656C801.264 120.96 803.963 118.056 807.366 115.944C810.827 113.832 814.699 112.776 818.982 112.776C822.384 112.776 825.406 113.421 828.046 114.712C830.744 115.944 833.032 117.645 834.91 119.816C836.787 121.928 838.224 124.333 839.222 127.032C840.219 129.672 840.718 132.4 840.718 135.216C840.718 135.803 840.688 136.477 840.63 137.24C840.571 137.944 840.483 138.677 840.366 139.44H800.502V133.28H836.582L833.414 135.92C833.942 132.693 833.56 129.819 832.27 127.296C831.038 124.715 829.248 122.691 826.902 121.224C824.555 119.699 821.915 118.936 818.982 118.936C816.048 118.936 813.32 119.699 810.798 121.224C808.334 122.749 806.398 124.891 804.99 127.648C803.582 130.347 803.024 133.573 803.318 137.328C803.024 141.083 803.611 144.368 805.078 147.184C806.603 149.941 808.656 152.083 811.238 153.608C813.878 155.133 816.694 155.896 819.686 155.896C823.147 155.896 826.051 155.075 828.398 153.432C830.744 151.789 832.651 149.736 834.118 147.272L839.75 150.264C838.811 152.376 837.374 154.341 835.438 156.16C833.502 157.92 831.184 159.357 828.486 160.472C825.846 161.528 822.912 162.056 819.686 162.056ZM852.354 161V113.832H858.954V121.576L858.074 120.432C859.189 118.203 860.861 116.443 863.09 115.152C865.378 113.861 868.135 113.216 871.362 113.216H874.354V119.816H870.218C866.815 119.816 864.087 120.872 862.034 122.984C859.981 125.096 858.954 128.088 858.954 131.96V161H852.354ZM24.248 256.056C19.848 256.056 15.8587 255 12.28 252.888C8.76 250.717 5.97333 247.755 3.92 244C1.86667 240.245 0.84 235.992 0.84 231.24C0.84 226.488 1.83733 222.293 3.832 218.656C5.82667 214.96 8.52533 212.056 11.928 209.944C15.3893 207.832 19.2613 206.776 23.544 206.776C26.9467 206.776 29.968 207.421 32.608 208.712C35.3067 209.944 37.5947 211.645 39.472 213.816C41.3493 215.928 42.7867 218.333 43.784 221.032C44.7813 223.672 45.28 226.4 45.28 229.216C45.28 229.803 45.2507 230.477 45.192 231.24C45.1333 231.944 45.0453 232.677 44.928 233.44H5.064V227.28H41.144L37.976 229.92C38.504 226.693 38.1227 223.819 36.832 221.296C35.6 218.715 33.8107 216.691 31.464 215.224C29.1173 213.699 26.4773 212.936 23.544 212.936C20.6107 212.936 17.8827 213.699 15.36 215.224C12.896 216.749 10.96 218.891 9.552 221.648C8.144 224.347 7.58667 227.573 7.88 231.328C7.58667 235.083 8.17333 238.368 9.64 241.184C11.1653 243.941 13.2187 246.083 15.8 247.608C18.44 249.133 21.256 249.896 24.248 249.896C27.7093 249.896 30.6133 249.075 32.96 247.432C35.3067 245.789 37.2133 243.736 38.68 241.272L44.312 244.264C43.3733 246.376 41.936 248.341 40 250.16C38.064 251.92 35.7467 253.357 33.048 254.472C30.408 255.528 27.4747 256.056 24.248 256.056ZM50.2493 255L66.7933 231.416L50.3373 207.832H58.4333L73.0413 229.04H68.5533L83.0733 207.832H91.1693L74.7133 231.416L91.1693 255H83.0733L68.5533 233.792H73.0413L58.4333 255H50.2493ZM98.9401 272.6V207.832H105.54V218.392L104.484 216.544C106.361 213.552 108.855 211.176 111.964 209.416C115.132 207.656 118.74 206.776 122.788 206.776C127.247 206.776 131.207 207.861 134.668 210.032C138.188 212.144 140.945 215.048 142.94 218.744C144.993 222.44 146.02 226.664 146.02 231.416C146.02 236.109 144.993 240.333 142.94 244.088C140.945 247.784 138.188 250.717 134.668 252.888C131.207 255 127.247 256.056 122.788 256.056C118.74 256.056 115.073 255.147 111.788 253.328C108.561 251.451 106.127 248.811 104.484 245.408L105.54 244.44V272.6H98.9401ZM122.436 249.456C125.604 249.456 128.42 248.664 130.884 247.08C133.407 245.496 135.372 243.355 136.78 240.656C138.247 237.899 138.98 234.819 138.98 231.416C138.98 227.955 138.247 224.875 136.78 222.176C135.372 219.477 133.407 217.336 130.884 215.752C128.42 214.168 125.604 213.376 122.436 213.376C119.268 213.376 116.393 214.168 113.812 215.752C111.289 217.336 109.265 219.507 107.74 222.264C106.273 224.963 105.54 228.013 105.54 231.416C105.54 234.819 106.273 237.899 107.74 240.656C109.265 243.355 111.289 245.496 113.812 247.08C116.393 248.664 119.268 249.456 122.436 249.456ZM179.107 256.056C174.707 256.056 170.718 255 167.139 252.888C163.619 250.717 160.833 247.755 158.779 244C156.726 240.245 155.699 235.992 155.699 231.24C155.699 226.488 156.697 222.293 158.691 218.656C160.686 214.96 163.385 212.056 166.787 209.944C170.249 207.832 174.121 206.776 178.403 206.776C181.806 206.776 184.827 207.421 187.467 208.712C190.166 209.944 192.454 211.645 194.331 213.816C196.209 215.928 197.646 218.333 198.643 221.032C199.641 223.672 200.139 226.4 200.139 229.216C200.139 229.803 200.11 230.477 200.051 231.24C199.993 231.944 199.905 232.677 199.787 233.44H159.923V227.28H196.003L192.835 229.92C193.363 226.693 192.982 223.819 191.691 221.296C190.459 218.715 188.67 216.691 186.323 215.224C183.977 213.699 181.337 212.936 178.403 212.936C175.47 212.936 172.742 213.699 170.219 215.224C167.755 216.749 165.819 218.891 164.411 221.648C163.003 224.347 162.446 227.573 162.739 231.328C162.446 235.083 163.033 238.368 164.499 241.184C166.025 243.941 168.078 246.083 170.659 247.608C173.299 249.133 176.115 249.896 179.107 249.896C182.569 249.896 185.473 249.075 187.819 247.432C190.166 245.789 192.073 243.736 193.539 241.272L199.171 244.264C198.233 246.376 196.795 248.341 194.859 250.16C192.923 251.92 190.606 253.357 187.907 254.472C185.267 255.528 182.334 256.056 179.107 256.056ZM211.776 255V207.832H218.376V215.576L217.496 214.432C218.611 212.203 220.283 210.443 222.512 209.152C224.8 207.861 227.557 207.216 230.784 207.216H233.776V213.816H229.64C226.237 213.816 223.509 214.872 221.456 216.984C219.403 219.096 218.376 222.088 218.376 225.96V255H211.776ZM241.51 255V207.832H248.11V255H241.51ZM241.51 199.12V189.44H248.11V199.12H241.51ZM283.092 256.056C278.692 256.056 274.702 255 271.124 252.888C267.604 250.717 264.817 247.755 262.764 244C260.71 240.245 259.684 235.992 259.684 231.24C259.684 226.488 260.681 222.293 262.676 218.656C264.67 214.96 267.369 212.056 270.772 209.944C274.233 207.832 278.105 206.776 282.388 206.776C285.79 206.776 288.812 207.421 291.452 208.712C294.15 209.944 296.438 211.645 298.316 213.816C300.193 215.928 301.63 218.333 302.628 221.032C303.625 223.672 304.124 226.4 304.124 229.216C304.124 229.803 304.094 230.477 304.036 231.24C303.977 231.944 303.889 232.677 303.772 233.44H263.908V227.28H299.988L296.82 229.92C297.348 226.693 296.966 223.819 295.676 221.296C294.444 218.715 292.654 216.691 290.308 215.224C287.961 213.699 285.321 212.936 282.388 212.936C279.454 212.936 276.726 213.699 274.204 215.224C271.74 216.749 269.804 218.891 268.396 221.648C266.988 224.347 266.43 227.573 266.724 231.328C266.43 235.083 267.017 238.368 268.484 241.184C270.009 243.941 272.062 246.083 274.644 247.608C277.284 249.133 280.1 249.896 283.092 249.896C286.553 249.896 289.457 249.075 291.804 247.432C294.15 245.789 296.057 243.736 297.524 241.272L303.156 244.264C302.217 246.376 300.78 248.341 298.844 250.16C296.908 251.92 294.59 253.357 291.892 254.472C289.252 255.528 286.318 256.056 283.092 256.056ZM315.76 255V207.832H322.36V216.984L320.864 216.632C322.038 213.581 323.944 211.176 326.584 209.416C329.283 207.656 332.392 206.776 335.912 206.776C339.256 206.776 342.248 207.539 344.888 209.064C347.587 210.589 349.699 212.701 351.224 215.4C352.808 218.04 353.6 221.032 353.6 224.376V255H347V226.928C347 224.053 346.472 221.619 345.416 219.624C344.419 217.629 342.982 216.104 341.104 215.048C339.286 213.933 337.174 213.376 334.768 213.376C332.363 213.376 330.222 213.933 328.344 215.048C326.467 216.104 325 217.659 323.944 219.712C322.888 221.707 322.36 224.112 322.36 226.928V255H315.76ZM387.766 256.056C383.131 256.056 379.054 254.971 375.534 252.8C372.014 250.629 369.256 247.696 367.262 244C365.267 240.245 364.27 236.021 364.27 231.328C364.27 226.635 365.267 222.44 367.262 218.744C369.256 215.048 372.014 212.144 375.534 210.032C379.054 207.861 383.131 206.776 387.766 206.776C390.699 206.776 393.456 207.304 396.038 208.36C398.619 209.416 400.907 210.853 402.902 212.672C404.896 214.432 406.392 216.485 407.39 218.832L401.406 221.912C400.232 219.389 398.443 217.336 396.038 215.752C393.632 214.168 390.875 213.376 387.766 213.376C384.656 213.376 381.84 214.168 379.318 215.752C376.854 217.277 374.888 219.419 373.422 222.176C372.014 224.875 371.31 227.955 371.31 231.416C371.31 234.819 372.014 237.899 373.422 240.656C374.888 243.355 376.854 245.496 379.318 247.08C381.84 248.664 384.656 249.456 387.766 249.456C390.875 249.456 393.603 248.664 395.95 247.08C398.355 245.496 400.174 243.384 401.406 240.744L407.39 244C406.392 246.288 404.896 248.341 402.902 250.16C400.907 251.979 398.619 253.416 396.038 254.472C393.456 255.528 390.699 256.056 387.766 256.056ZM440.443 256.056C436.043 256.056 432.054 255 428.475 252.888C424.955 250.717 422.169 247.755 420.115 244C418.062 240.245 417.035 235.992 417.035 231.24C417.035 226.488 418.033 222.293 420.027 218.656C422.022 214.96 424.721 212.056 428.123 209.944C431.585 207.832 435.457 206.776 439.739 206.776C443.142 206.776 446.163 207.421 448.803 208.712C451.502 209.944 453.79 211.645 455.667 213.816C457.545 215.928 458.982 218.333 459.979 221.032C460.977 223.672 461.475 226.4 461.475 229.216C461.475 229.803 461.446 230.477 461.387 231.24C461.329 231.944 461.241 232.677 461.123 233.44H421.259V227.28H457.339L454.171 229.92C454.699 226.693 454.318 223.819 453.027 221.296C451.795 218.715 450.006 216.691 447.659 215.224C445.313 213.699 442.673 212.936 439.739 212.936C436.806 212.936 434.078 213.699 431.555 215.224C429.091 216.749 427.155 218.891 425.747 221.648C424.339 224.347 423.782 227.573 424.075 231.328C423.782 235.083 424.369 238.368 425.835 241.184C427.361 243.941 429.414 246.083 431.995 247.608C434.635 249.133 437.451 249.896 440.443 249.896C443.905 249.896 446.809 249.075 449.155 247.432C451.502 245.789 453.409 243.736 454.875 241.272L460.507 244.264C459.569 246.376 458.131 248.341 456.195 250.16C454.259 251.92 451.942 253.357 449.243 254.472C446.603 255.528 443.67 256.056 440.443 256.056ZM489.48 256.056C484.963 256.056 481.003 254.912 477.6 252.624C474.197 250.336 471.733 247.227 470.208 243.296L475.752 240.656C477.101 243.531 478.979 245.819 481.384 247.52C483.848 249.221 486.547 250.072 489.48 250.072C492.296 250.072 494.672 249.397 496.608 248.048C498.544 246.64 499.512 244.821 499.512 242.592C499.512 240.949 499.043 239.659 498.104 238.72C497.165 237.723 496.08 236.96 494.848 236.432C493.616 235.904 492.531 235.523 491.592 235.288L484.816 233.352C480.475 232.12 477.336 230.389 475.4 228.16C473.464 225.931 472.496 223.349 472.496 220.416C472.496 217.659 473.2 215.253 474.608 213.2C476.016 211.147 477.923 209.563 480.328 208.448C482.733 207.333 485.403 206.776 488.336 206.776C492.325 206.776 495.933 207.832 499.16 209.944C502.445 211.997 504.763 214.872 506.112 218.568L500.48 221.208C499.307 218.568 497.605 216.515 495.376 215.048C493.205 213.523 490.771 212.76 488.072 212.76C485.432 212.76 483.32 213.435 481.736 214.784C480.152 216.133 479.36 217.835 479.36 219.888C479.36 221.472 479.771 222.733 480.592 223.672C481.413 224.611 482.352 225.315 483.408 225.784C484.523 226.253 485.491 226.605 486.312 226.84L494.144 229.128C497.957 230.243 500.92 231.973 503.032 234.32C505.203 236.667 506.288 239.424 506.288 242.592C506.288 245.173 505.555 247.491 504.088 249.544C502.68 251.597 500.715 253.211 498.192 254.384C495.669 255.499 492.765 256.056 489.48 256.056Z" fill="#120B23"/>
</svg>
