<svg width="1239" height="289" viewBox="0 0 1239 289" fill="none" xmlns="http://www.w3.org/2000/svg">
<rect x="566" y="61" width="344" height="22" fill="#ADEBB3"/>
<path d="M7.744 83V17.44H14.784V83H7.744ZM65.5408 84.056C61.1408 84.056 57.1808 83 53.6608 80.888C50.1408 78.7173 47.3541 75.784 45.3008 72.088C43.3061 68.3333 42.3088 64.1093 42.3088 59.416C42.3088 54.664 43.3061 50.44 45.3008 46.744C47.3541 43.048 50.1114 40.144 53.5728 38.032C57.0928 35.8613 61.0821 34.776 65.5408 34.776C69.5888 34.776 73.1968 35.656 76.3648 37.416C79.5328 39.176 82.0261 41.552 83.8448 44.544L82.7888 46.392V16.384H89.3888V83H82.7888V72.44L83.8448 73.408C82.2021 76.8107 79.7381 79.4507 76.4528 81.328C73.2261 83.1467 69.5888 84.056 65.5408 84.056ZM65.8928 77.456C69.0608 77.456 71.9061 76.664 74.4288 75.08C77.0101 73.496 79.0341 71.3547 80.5008 68.656C82.0261 65.8987 82.7888 62.8187 82.7888 59.416C82.7888 56.0133 82.0261 52.9627 80.5008 50.264C79.0341 47.5067 77.0101 45.336 74.4288 43.752C71.9061 42.168 69.0608 41.376 65.8928 41.376C62.7834 41.376 59.9674 42.168 57.4448 43.752C54.9221 45.336 52.9274 47.4773 51.4608 50.176C50.0528 52.8747 49.3488 55.9547 49.3488 59.416C49.3488 62.8187 50.0528 65.8987 51.4608 68.656C52.9274 71.3547 54.8928 73.496 57.3568 75.08C59.8794 76.664 62.7248 77.456 65.8928 77.456ZM124.412 84.056C120.012 84.056 116.023 83 112.444 80.888C108.924 78.7173 106.137 75.7547 104.084 72C102.031 68.2453 101.004 63.992 101.004 59.24C101.004 54.488 102.001 50.2933 103.996 46.656C105.991 42.96 108.689 40.056 112.092 37.944C115.553 35.832 119.425 34.776 123.708 34.776C127.111 34.776 130.132 35.4213 132.772 36.712C135.471 37.944 137.759 39.6453 139.636 41.816C141.513 43.928 142.951 46.3333 143.948 49.032C144.945 51.672 145.444 54.4 145.444 57.216C145.444 57.8027 145.415 58.4773 145.356 59.24C145.297 59.944 145.209 60.6773 145.092 61.44H105.228V55.28H141.308L138.14 57.92C138.668 54.6933 138.287 51.8187 136.996 49.296C135.764 46.7147 133.975 44.6907 131.628 43.224C129.281 41.6987 126.641 40.936 123.708 40.936C120.775 40.936 118.047 41.6987 115.524 43.224C113.06 44.7493 111.124 46.8907 109.716 49.648C108.308 52.3467 107.751 55.5733 108.044 59.328C107.751 63.0827 108.337 66.368 109.804 69.184C111.329 71.9413 113.383 74.0827 115.964 75.608C118.604 77.1333 121.42 77.896 124.412 77.896C127.873 77.896 130.777 77.0747 133.124 75.432C135.471 73.7893 137.377 71.736 138.844 69.272L144.476 72.264C143.537 74.376 142.1 76.3413 140.164 78.16C138.228 79.92 135.911 81.3573 133.212 82.472C130.572 83.528 127.639 84.056 124.412 84.056ZM173.449 84.056C168.931 84.056 164.971 82.912 161.569 80.624C158.166 78.336 155.702 75.2267 154.177 71.296L159.721 68.656C161.07 71.5307 162.947 73.8187 165.353 75.52C167.817 77.2213 170.515 78.072 173.449 78.072C176.265 78.072 178.641 77.3973 180.577 76.048C182.513 74.64 183.481 72.8213 183.481 70.592C183.481 68.9493 183.011 67.6587 182.073 66.72C181.134 65.7227 180.049 64.96 178.817 64.432C177.585 63.904 176.499 63.5227 175.561 63.288L168.785 61.352C164.443 60.12 161.305 58.3893 159.369 56.16C157.433 53.9307 156.465 51.3493 156.465 48.416C156.465 45.6587 157.169 43.2533 158.577 41.2C159.985 39.1467 161.891 37.5627 164.297 36.448C166.702 35.3333 169.371 34.776 172.305 34.776C176.294 34.776 179.902 35.832 183.129 37.944C186.414 39.9973 188.731 42.872 190.081 46.568L184.449 49.208C183.275 46.568 181.574 44.5147 179.345 43.048C177.174 41.5227 174.739 40.76 172.041 40.76C169.401 40.76 167.289 41.4347 165.705 42.784C164.121 44.1333 163.329 45.8347 163.329 47.888C163.329 49.472 163.739 50.7333 164.561 51.672C165.382 52.6107 166.321 53.3147 167.377 53.784C168.491 54.2533 169.459 54.6053 170.281 54.84L178.113 57.128C181.926 58.2427 184.889 59.9733 187.001 62.32C189.171 64.6667 190.257 67.424 190.257 70.592C190.257 73.1733 189.523 75.4907 188.057 77.544C186.649 79.5973 184.683 81.2107 182.161 82.384C179.638 83.4987 176.734 84.056 173.449 84.056ZM201.854 83V35.832H208.454V83H201.854ZM201.854 27.12V17.44H208.454V27.12H201.854ZM244.316 102.36C241.089 102.36 238.097 101.861 235.34 100.864C232.641 99.8667 230.294 98.488 228.3 96.728C226.364 95.0267 224.868 93.032 223.812 90.744L229.884 87.488C230.822 89.7173 232.494 91.6533 234.9 93.296C237.305 94.9387 240.385 95.76 244.14 95.76C247.014 95.76 249.654 95.2027 252.06 94.088C254.465 92.9733 256.401 91.3307 257.868 89.16C259.334 86.9893 260.068 84.32 260.068 81.152V70.68L261.124 71.648C259.481 75.0507 257.046 77.6907 253.82 79.568C250.593 81.3867 247.073 82.296 243.26 82.296C238.86 82.296 234.9 81.24 231.38 79.128C227.86 77.016 225.073 74.1707 223.02 70.592C221.025 66.9547 220.028 62.936 220.028 58.536C220.028 54.0773 221.025 50.0587 223.02 46.48C225.073 42.9013 227.83 40.056 231.292 37.944C234.812 35.832 238.801 34.776 243.26 34.776C247.073 34.776 250.534 35.656 253.644 37.416C256.812 39.176 259.305 41.552 261.124 44.544L260.068 46.392V35.832H266.668V81.152C266.668 85.2 265.7 88.808 263.764 91.976C261.886 95.2027 259.246 97.7253 255.844 99.544C252.5 101.421 248.657 102.36 244.316 102.36ZM243.612 75.696C246.662 75.696 249.42 74.9333 251.884 73.408C254.348 71.824 256.313 69.7413 257.78 67.16C259.305 64.52 260.068 61.6453 260.068 58.536C260.068 55.4267 259.305 52.5813 257.78 50C256.313 47.36 254.348 45.2773 251.884 43.752C249.42 42.168 246.662 41.376 243.612 41.376C240.502 41.376 237.686 42.168 235.164 43.752C232.641 45.2773 230.646 47.3307 229.18 49.912C227.772 52.4933 227.068 55.368 227.068 58.536C227.068 61.6453 227.772 64.52 229.18 67.16C230.646 69.7413 232.612 71.824 235.076 73.408C237.598 74.9333 240.444 75.696 243.612 75.696ZM280.229 83V35.832H286.829V44.984L285.333 44.632C286.506 41.5813 288.413 39.176 291.053 37.416C293.752 35.656 296.861 34.776 300.381 34.776C303.725 34.776 306.717 35.5387 309.357 37.064C312.056 38.5893 314.168 40.7013 315.693 43.4C317.277 46.04 318.069 49.032 318.069 52.376V83H311.469V54.928C311.469 52.0533 310.941 49.6187 309.885 47.624C308.888 45.6293 307.45 44.104 305.573 43.048C303.754 41.9333 301.642 41.376 299.237 41.376C296.832 41.376 294.69 41.9333 292.813 43.048C290.936 44.104 289.469 45.6587 288.413 47.712C287.357 49.7067 286.829 52.112 286.829 54.928V83H280.229ZM356.012 83L339.82 35.832H347.3L360.676 77.104H358.036L370.62 35.832H377.22L389.804 77.104H387.164L400.628 35.832H408.02L391.828 83H385.228L372.996 42.608H374.844L362.612 83H356.012ZM415.753 83V35.832H422.353V83H415.753ZM415.753 27.12V17.44H422.353V27.12H415.753ZM453.902 83.528C449.678 83.528 446.422 82.296 444.134 79.832C441.846 77.368 440.702 73.848 440.702 69.272V42.432H431.99V35.832H434.19C436.185 35.832 437.769 35.1867 438.942 33.896C440.115 32.5467 440.702 30.8747 440.702 28.88V24.92H447.302V35.832H457.686V42.432H447.302V69.272C447.302 70.856 447.537 72.264 448.006 73.496C448.475 74.6693 449.267 75.608 450.382 76.312C451.555 77.016 453.11 77.368 455.046 77.368C455.515 77.368 456.073 77.3387 456.718 77.28C457.363 77.2213 457.921 77.1627 458.39 77.104V83C457.686 83.176 456.894 83.2933 456.014 83.352C455.134 83.4693 454.43 83.528 453.902 83.528ZM469.979 83V16.384H476.579V44.984L475.083 44.632C476.256 41.5813 478.163 39.176 480.803 37.416C483.502 35.656 486.611 34.776 490.131 34.776C493.475 34.776 496.467 35.5387 499.107 37.064C501.806 38.5893 503.918 40.7013 505.443 43.4C507.027 46.04 507.819 49.032 507.819 52.376V83H501.219V54.928C501.219 52.0533 500.691 49.6187 499.635 47.624C498.579 45.6293 497.112 44.104 495.235 43.048C493.416 41.9333 491.334 41.376 488.987 41.376C486.64 41.376 484.528 41.9333 482.651 43.048C480.774 44.104 479.278 45.6587 478.163 47.712C477.107 49.7067 476.579 52.112 476.579 54.928V83H469.979ZM556.85 84.056C552.45 84.056 548.46 83 544.882 80.888C541.362 78.7173 538.575 75.7547 536.522 72C534.468 68.2453 533.442 63.992 533.442 59.24C533.442 54.488 534.439 50.2933 536.434 46.656C538.428 42.96 541.127 40.056 544.53 37.944C547.991 35.832 551.863 34.776 556.146 34.776C559.548 34.776 562.57 35.4213 565.21 36.712C567.908 37.944 570.196 39.6453 572.074 41.816C573.951 43.928 575.388 46.3333 576.386 49.032C577.383 51.672 577.882 54.4 577.882 57.216C577.882 57.8027 577.852 58.4773 577.794 59.24C577.735 59.944 577.647 60.6773 577.53 61.44H537.666V55.28H573.746L570.578 57.92C571.106 54.6933 570.724 51.8187 569.434 49.296C568.202 46.7147 566.412 44.6907 564.066 43.224C561.719 41.6987 559.079 40.936 556.146 40.936C553.212 40.936 550.484 41.6987 547.962 43.224C545.498 44.7493 543.562 46.8907 542.154 49.648C540.746 52.3467 540.188 55.5733 540.482 59.328C540.188 63.0827 540.775 66.368 542.242 69.184C543.767 71.9413 545.82 74.0827 548.402 75.608C551.042 77.1333 553.858 77.896 556.85 77.896C560.311 77.896 563.215 77.0747 565.562 75.432C567.908 73.7893 569.815 71.736 571.282 69.272L576.914 72.264C575.975 74.376 574.538 76.3413 572.602 78.16C570.666 79.92 568.348 81.3573 565.65 82.472C563.01 83.528 560.076 84.056 556.85 84.056ZM589.518 83V35.832H596.118V44.808L595.062 43.488C596.353 40.7307 598.26 38.5893 600.782 37.064C603.364 35.5387 606.18 34.776 609.23 34.776C612.868 34.776 616.153 35.8027 619.086 37.856C622.02 39.9093 624.102 42.5787 625.334 45.864L623.486 45.952C624.66 42.3147 626.684 39.5573 629.558 37.68C632.492 35.744 635.718 34.776 639.238 34.776C642.406 34.776 645.31 35.5387 647.95 37.064C650.649 38.5893 652.79 40.7013 654.374 43.4C656.017 46.04 656.838 49.032 656.838 52.376V83H650.238V54.928C650.238 52.0533 649.71 49.6187 648.654 47.624C647.657 45.6293 646.278 44.104 644.518 43.048C642.758 41.9333 640.734 41.376 638.446 41.376C636.217 41.376 634.193 41.9333 632.374 43.048C630.556 44.104 629.118 45.6587 628.062 47.712C627.006 49.7067 626.478 52.112 626.478 54.928V83H619.878V54.928C619.878 52.0533 619.35 49.6187 618.294 47.624C617.297 45.6293 615.918 44.104 614.158 43.048C612.398 41.9333 610.374 41.376 608.086 41.376C605.798 41.376 603.745 41.9333 601.926 43.048C600.166 44.104 598.758 45.6587 597.702 47.712C596.646 49.7067 596.118 52.112 596.118 54.928V83H589.518ZM669.44 100.6V35.832H676.04V46.392L674.984 44.544C676.861 41.552 679.355 39.176 682.464 37.416C685.632 35.656 689.24 34.776 693.288 34.776C697.747 34.776 701.707 35.8613 705.168 38.032C708.688 40.144 711.445 43.048 713.44 46.744C715.493 50.44 716.52 54.664 716.52 59.416C716.52 64.1093 715.493 68.3333 713.44 72.088C711.445 75.784 708.688 78.7173 705.168 80.888C701.707 83 697.747 84.056 693.288 84.056C689.24 84.056 685.573 83.1467 682.288 81.328C679.061 79.4507 676.627 76.8107 674.984 73.408L676.04 72.44V100.6H669.44ZM692.936 77.456C696.104 77.456 698.92 76.664 701.384 75.08C703.907 73.496 705.872 71.3547 707.28 68.656C708.747 65.8987 709.48 62.8187 709.48 59.416C709.48 55.9547 708.747 52.8747 707.28 50.176C705.872 47.4773 703.907 45.336 701.384 43.752C698.92 42.168 696.104 41.376 692.936 41.376C689.768 41.376 686.893 42.168 684.312 43.752C681.789 45.336 679.765 47.5067 678.24 50.264C676.773 52.9627 676.04 56.0133 676.04 59.416C676.04 62.8187 676.773 65.8987 678.24 68.656C679.765 71.3547 681.789 73.496 684.312 75.08C686.893 76.664 689.768 77.456 692.936 77.456ZM741.775 84.056C738.783 84.056 736.114 83.4987 733.767 82.384C731.421 81.2107 729.573 79.6267 728.223 77.632C726.874 75.6373 726.199 73.3493 726.199 70.768C726.199 68.304 726.727 66.0747 727.783 64.08C728.839 62.0267 730.482 60.296 732.711 58.888C734.941 57.48 737.786 56.4827 741.247 55.896L759.727 52.816V58.8L742.831 61.616C739.429 62.2027 736.965 63.288 735.439 64.872C733.973 66.456 733.239 68.3333 733.239 70.504C733.239 72.616 734.061 74.4053 735.703 75.872C737.405 77.3387 739.575 78.072 742.215 78.072C745.442 78.072 748.258 77.3973 750.663 76.048C753.069 74.64 754.946 72.7627 756.295 70.416C757.645 68.0693 758.319 65.4587 758.319 62.584V50.616C758.319 47.8 757.293 45.512 755.239 43.752C753.186 41.992 750.517 41.112 747.231 41.112C744.357 41.112 741.834 41.8453 739.663 43.312C737.493 44.72 735.879 46.568 734.823 48.856L728.839 45.6C729.719 43.6053 731.098 41.7867 732.975 40.144C734.911 38.5013 737.111 37.2107 739.575 36.272C742.039 35.2747 744.591 34.776 747.231 34.776C750.693 34.776 753.743 35.4507 756.383 36.8C759.082 38.1493 761.165 40.0267 762.631 42.432C764.157 44.7787 764.919 47.5067 764.919 50.616V83H758.319V73.584L759.287 74.552C758.466 76.312 757.175 77.9253 755.415 79.392C753.714 80.8 751.69 81.944 749.343 82.824C747.055 83.6453 744.533 84.056 741.775 84.056ZM795.675 83.528C791.451 83.528 788.195 82.296 785.907 79.832C783.619 77.368 782.475 73.848 782.475 69.272V42.432H773.763V35.832H775.963C777.958 35.832 779.542 35.1867 780.715 33.896C781.889 32.5467 782.475 30.8747 782.475 28.88V24.92H789.075V35.832H799.459V42.432H789.075V69.272C789.075 70.856 789.31 72.264 789.779 73.496C790.249 74.6693 791.041 75.608 792.155 76.312C793.329 77.016 794.883 77.368 796.819 77.368C797.289 77.368 797.846 77.3387 798.491 77.28C799.137 77.2213 799.694 77.1627 800.163 77.104V83C799.459 83.176 798.667 83.2933 797.787 83.352C796.907 83.4693 796.203 83.528 795.675 83.528ZM811.753 83V16.384H818.353V44.984L816.857 44.632C818.03 41.5813 819.937 39.176 822.577 37.416C825.275 35.656 828.385 34.776 831.905 34.776C835.249 34.776 838.241 35.5387 840.881 37.064C843.579 38.5893 845.691 40.7013 847.217 43.4C848.801 46.04 849.593 49.032 849.593 52.376V83H842.993V54.928C842.993 52.0533 842.465 49.6187 841.409 47.624C840.353 45.6293 838.886 44.104 837.009 43.048C835.19 41.9333 833.107 41.376 830.761 41.376C828.414 41.376 826.302 41.9333 824.425 43.048C822.547 44.104 821.051 45.6587 819.937 47.712C818.881 49.7067 818.353 52.112 818.353 54.928V83H811.753ZM862.307 102.36C861.368 102.36 860.4 102.272 859.403 102.096C858.464 101.979 857.525 101.744 856.587 101.392V95.232C857.173 95.2907 857.907 95.3787 858.787 95.496C859.725 95.672 860.664 95.76 861.603 95.76C864.477 95.76 866.677 95.144 868.203 93.912C869.728 92.7387 871.224 90.4507 872.691 87.048L875.683 80.008L875.507 85.816L855.531 35.832H862.659L879.027 77.104H877.178L893.459 35.832H900.763L879.203 88.984C878.264 91.272 877.061 93.4427 875.595 95.496C874.187 97.5493 872.397 99.192 870.227 100.424C868.056 101.715 865.416 102.36 862.307 102.36ZM942.567 37.152C944.093 39.0293 945.442 40.5547 946.615 41.728C947.789 42.9013 948.375 44.0747 948.375 45.248C948.375 45.952 948.111 46.7147 947.583 47.536C947.114 48.3573 946.469 49.1493 945.647 49.912C944.885 50.616 944.005 51.232 943.007 51.76C942.069 52.2293 941.13 52.464 940.191 52.464C939.135 52.464 938.373 52.1413 937.903 51.496C937.434 50.8507 937.111 49.9707 936.935 48.856C936.818 47.6827 936.759 46.3333 936.759 44.808C936.759 43.224 936.73 41.552 936.671 39.792C935.85 41.024 935.146 42.168 934.559 43.224C933.973 44.28 933.386 45.1893 932.799 45.952C932.213 46.7147 931.597 47.3307 930.951 47.8C930.365 48.2107 929.631 48.416 928.751 48.416C927.871 48.416 926.991 48.24 926.111 47.888C925.231 47.4773 924.439 47.008 923.735 46.48C923.031 45.8933 922.445 45.248 921.975 44.544C921.565 43.84 921.359 43.1653 921.359 42.52C921.359 41.7573 921.682 41.0533 922.327 40.408C922.973 39.7627 923.823 39.176 924.879 38.648C925.935 38.12 927.138 37.592 928.487 37.064C929.837 36.536 931.215 35.9493 932.623 35.304C930.687 34.8347 929.074 34.4827 927.783 34.248C926.493 34.0133 925.437 33.72 924.615 33.368C923.794 33.016 923.207 32.5467 922.855 31.96C922.503 31.3733 922.327 30.5227 922.327 29.408C922.327 28.176 922.503 27.0907 922.855 26.152C923.207 25.1547 923.647 24.3333 924.175 23.688C924.762 22.984 925.349 22.456 925.935 22.104C926.581 21.752 927.167 21.576 927.695 21.576C928.341 21.576 928.957 21.8107 929.543 22.28C930.189 22.7493 930.834 23.3653 931.479 24.128C932.183 24.832 932.917 25.6827 933.679 26.68C934.442 27.6773 935.263 28.704 936.143 29.76C935.967 28.9973 935.821 27.9707 935.703 26.68C935.586 25.3893 935.527 24.392 935.527 23.688C935.527 19.2293 938.021 17 943.007 17C945.061 17 946.41 17.352 947.055 18.056C947.701 18.7013 948.023 19.4347 948.023 20.256C948.023 21.6053 947.466 23.072 946.351 24.656C945.295 26.1813 943.917 28.2347 942.215 30.816C944.445 29.936 946.263 29.1147 947.671 28.352C949.138 27.5307 950.311 27.12 951.191 27.12C951.778 27.12 952.394 27.3253 953.039 27.736C953.685 28.1467 954.242 28.704 954.711 29.408C955.181 30.0533 955.562 30.8453 955.855 31.784C956.207 32.664 956.383 33.6027 956.383 34.6C956.383 36.4773 955.885 37.68 954.887 38.208C953.949 38.736 953.01 39 952.071 39C950.898 39 949.549 38.7947 948.023 38.384C946.498 37.9733 944.679 37.5627 942.567 37.152ZM1012.24 83.528C1008.01 83.528 1004.76 82.296 1002.47 79.832C1000.18 77.368 999.038 73.848 999.038 69.272V42.432H990.326V35.832H992.526C994.521 35.832 996.105 35.1867 997.278 33.896C998.451 32.5467 999.038 30.8747 999.038 28.88V24.92H1005.64V35.832H1016.02V42.432H1005.64V69.272C1005.64 70.856 1005.87 72.264 1006.34 73.496C1006.81 74.6693 1007.6 75.608 1008.72 76.312C1009.89 77.016 1011.45 77.368 1013.38 77.368C1013.85 77.368 1014.41 77.3387 1015.05 77.28C1015.7 77.2213 1016.26 77.1627 1016.73 77.104V83C1016.02 83.176 1015.23 83.2933 1014.35 83.352C1013.47 83.4693 1012.77 83.528 1012.24 83.528ZM1048.68 84.056C1044.23 84.056 1040.18 83 1036.54 80.888C1032.9 78.7173 1030 75.784 1027.83 72.088C1025.72 68.3333 1024.66 64.08 1024.66 59.328C1024.66 54.6347 1025.72 50.44 1027.83 46.744C1029.94 43.048 1032.79 40.144 1036.36 38.032C1040 35.8613 1044.11 34.776 1048.68 34.776C1053.26 34.776 1057.34 35.832 1060.92 37.944C1064.55 40.056 1067.4 42.96 1069.45 46.656C1071.56 50.352 1072.62 54.576 1072.62 59.328C1072.62 64.1387 1071.53 68.4213 1069.36 72.176C1067.19 75.872 1064.29 78.776 1060.65 80.888C1057.07 83 1053.08 84.056 1048.68 84.056ZM1048.68 77.456C1051.85 77.456 1054.7 76.664 1057.22 75.08C1059.8 73.496 1061.83 71.3253 1063.29 68.568C1064.82 65.8107 1065.58 62.7307 1065.58 59.328C1065.58 55.9253 1064.82 52.8747 1063.29 50.176C1061.83 47.4773 1059.8 45.336 1057.22 43.752C1054.7 42.168 1051.85 41.376 1048.68 41.376C1045.52 41.376 1042.64 42.168 1040.06 43.752C1037.54 45.336 1035.51 47.4773 1033.99 50.176C1032.46 52.8747 1031.7 55.9253 1031.7 59.328C1031.7 62.7307 1032.46 65.8107 1033.99 68.568C1035.51 71.3253 1037.54 73.496 1040.06 75.08C1042.64 76.664 1045.52 77.456 1048.68 77.456ZM28.336 178.056C23.7013 178.056 19.624 176.971 16.104 174.8C12.584 172.629 9.82667 169.696 7.832 166C5.83733 162.245 4.84 158.021 4.84 153.328C4.84 148.635 5.83733 144.44 7.832 140.744C9.82667 137.048 12.584 134.144 16.104 132.032C19.624 129.861 23.7013 128.776 28.336 128.776C31.2693 128.776 34.0267 129.304 36.608 130.36C39.1893 131.416 41.4773 132.853 43.472 134.672C45.4667 136.432 46.9627 138.485 47.96 140.832L41.976 143.912C40.8027 141.389 39.0133 139.336 36.608 137.752C34.2027 136.168 31.4453 135.376 28.336 135.376C25.2267 135.376 22.4107 136.168 19.888 137.752C17.424 139.277 15.4587 141.419 13.992 144.176C12.584 146.875 11.88 149.955 11.88 153.416C11.88 156.819 12.584 159.899 13.992 162.656C15.4587 165.355 17.424 167.496 19.888 169.08C22.4107 170.664 25.2267 171.456 28.336 171.456C31.4453 171.456 34.1733 170.664 36.52 169.08C38.9253 167.496 40.744 165.384 41.976 162.744L47.96 166C46.9627 168.288 45.4667 170.341 43.472 172.16C41.4773 173.979 39.1893 175.416 36.608 176.472C34.0267 177.528 31.2693 178.056 28.336 178.056ZM59.5416 177V129.832H66.1416V137.576L65.2616 136.432C66.3763 134.203 68.0483 132.443 70.2776 131.152C72.5656 129.861 75.323 129.216 78.5496 129.216H81.5416V135.816H77.4056C74.003 135.816 71.275 136.872 69.2216 138.984C67.1683 141.096 66.1416 144.088 66.1416 147.96V177H59.5416ZM102.916 178.056C99.924 178.056 97.2547 177.499 94.908 176.384C92.5613 175.211 90.7133 173.627 89.364 171.632C88.0147 169.637 87.34 167.349 87.34 164.768C87.34 162.304 87.868 160.075 88.924 158.08C89.98 156.027 91.6227 154.296 93.852 152.888C96.0813 151.48 98.9267 150.483 102.388 149.896L120.868 146.816V152.8L103.972 155.616C100.569 156.203 98.1053 157.288 96.58 158.872C95.1133 160.456 94.38 162.333 94.38 164.504C94.38 166.616 95.2013 168.405 96.844 169.872C98.5453 171.339 100.716 172.072 103.356 172.072C106.583 172.072 109.399 171.397 111.804 170.048C114.209 168.64 116.087 166.763 117.436 164.416C118.785 162.069 119.46 159.459 119.46 156.584V144.616C119.46 141.8 118.433 139.512 116.38 137.752C114.327 135.992 111.657 135.112 108.372 135.112C105.497 135.112 102.975 135.845 100.804 137.312C98.6333 138.72 97.02 140.568 95.964 142.856L89.98 139.6C90.86 137.605 92.2387 135.787 94.116 134.144C96.052 132.501 98.252 131.211 100.716 130.272C103.18 129.275 105.732 128.776 108.372 128.776C111.833 128.776 114.884 129.451 117.524 130.8C120.223 132.149 122.305 134.027 123.772 136.432C125.297 138.779 126.06 141.507 126.06 144.616V177H119.46V167.584L120.428 168.552C119.607 170.312 118.316 171.925 116.556 173.392C114.855 174.8 112.831 175.944 110.484 176.824C108.196 177.645 105.673 178.056 102.916 178.056ZM144.475 177V136.432H135.059V129.832H144.475V125.608C144.475 122.323 145.209 119.565 146.675 117.336C148.142 115.048 150.078 113.317 152.483 112.144C154.889 110.971 157.47 110.384 160.227 110.384C160.814 110.384 161.489 110.443 162.251 110.56C163.014 110.619 163.63 110.707 164.099 110.824V116.808C163.689 116.691 163.131 116.632 162.427 116.632C161.723 116.573 161.225 116.544 160.931 116.544C158.115 116.544 155.769 117.219 153.891 118.568C152.014 119.917 151.075 122.264 151.075 125.608V129.832H162.603V136.432H151.075V177H144.475ZM193.082 177.528C188.858 177.528 185.602 176.296 183.314 173.832C181.026 171.368 179.882 167.848 179.882 163.272V136.432H171.17V129.832H173.37C175.364 129.832 176.948 129.187 178.122 127.896C179.295 126.547 179.882 124.875 179.882 122.88V118.92H186.482V129.832H196.866V136.432H186.482V163.272C186.482 164.856 186.716 166.264 187.186 167.496C187.655 168.669 188.447 169.608 189.562 170.312C190.735 171.016 192.29 171.368 194.226 171.368C194.695 171.368 195.252 171.339 195.898 171.28C196.543 171.221 197.1 171.163 197.57 171.104V177C196.866 177.176 196.074 177.293 195.194 177.352C194.314 177.469 193.61 177.528 193.082 177.528ZM224.112 177V129.832H230.712V138.808L229.656 137.488C230.947 134.731 232.853 132.589 235.376 131.064C237.957 129.539 240.773 128.776 243.824 128.776C247.461 128.776 250.747 129.803 253.68 131.856C256.613 133.909 258.696 136.579 259.928 139.864L258.08 139.952C259.253 136.315 261.277 133.557 264.152 131.68C267.085 129.744 270.312 128.776 273.832 128.776C277 128.776 279.904 129.539 282.544 131.064C285.243 132.589 287.384 134.701 288.968 137.4C290.611 140.04 291.432 143.032 291.432 146.376V177H284.832V148.928C284.832 146.053 284.304 143.619 283.248 141.624C282.251 139.629 280.872 138.104 279.112 137.048C277.352 135.933 275.328 135.376 273.04 135.376C270.811 135.376 268.787 135.933 266.968 137.048C265.149 138.104 263.712 139.659 262.656 141.712C261.6 143.707 261.072 146.112 261.072 148.928V177H254.472V148.928C254.472 146.053 253.944 143.619 252.888 141.624C251.891 139.629 250.512 138.104 248.752 137.048C246.992 135.933 244.968 135.376 242.68 135.376C240.392 135.376 238.339 135.933 236.52 137.048C234.76 138.104 233.352 139.659 232.296 141.712C231.24 143.707 230.712 146.112 230.712 148.928V177H224.112ZM325.506 178.056C321.106 178.056 317.116 177 313.538 174.888C310.018 172.717 307.231 169.755 305.178 166C303.124 162.245 302.098 157.992 302.098 153.24C302.098 148.488 303.095 144.293 305.09 140.656C307.084 136.96 309.783 134.056 313.186 131.944C316.647 129.832 320.519 128.776 324.802 128.776C328.204 128.776 331.226 129.421 333.866 130.712C336.564 131.944 338.852 133.645 340.73 135.816C342.607 137.928 344.044 140.333 345.042 143.032C346.039 145.672 346.538 148.4 346.538 151.216C346.538 151.803 346.508 152.477 346.45 153.24C346.391 153.944 346.303 154.677 346.186 155.44H306.322V149.28H342.402L339.234 151.92C339.762 148.693 339.38 145.819 338.09 143.296C336.858 140.715 335.068 138.691 332.722 137.224C330.375 135.699 327.735 134.936 324.802 134.936C321.868 134.936 319.14 135.699 316.618 137.224C314.154 138.749 312.218 140.891 310.81 143.648C309.402 146.347 308.844 149.573 309.138 153.328C308.844 157.083 309.431 160.368 310.898 163.184C312.423 165.941 314.476 168.083 317.058 169.608C319.698 171.133 322.514 171.896 325.506 171.896C328.967 171.896 331.871 171.075 334.218 169.432C336.564 167.789 338.471 165.736 339.938 163.272L345.57 166.264C344.631 168.376 343.194 170.341 341.258 172.16C339.322 173.92 337.004 175.357 334.306 176.472C331.666 177.528 328.732 178.056 325.506 178.056ZM370.955 178.056C367.963 178.056 365.294 177.499 362.947 176.384C360.6 175.211 358.752 173.627 357.403 171.632C356.054 169.637 355.379 167.349 355.379 164.768C355.379 162.304 355.907 160.075 356.963 158.08C358.019 156.027 359.662 154.296 361.891 152.888C364.12 151.48 366.966 150.483 370.427 149.896L388.907 146.816V152.8L372.011 155.616C368.608 156.203 366.144 157.288 364.619 158.872C363.152 160.456 362.419 162.333 362.419 164.504C362.419 166.616 363.24 168.405 364.883 169.872C366.584 171.339 368.755 172.072 371.395 172.072C374.622 172.072 377.438 171.397 379.843 170.048C382.248 168.64 384.126 166.763 385.475 164.416C386.824 162.069 387.499 159.459 387.499 156.584V144.616C387.499 141.8 386.472 139.512 384.419 137.752C382.366 135.992 379.696 135.112 376.411 135.112C373.536 135.112 371.014 135.845 368.843 137.312C366.672 138.72 365.059 140.568 364.003 142.856L358.019 139.6C358.899 137.605 360.278 135.787 362.155 134.144C364.091 132.501 366.291 131.211 368.755 130.272C371.219 129.275 373.771 128.776 376.411 128.776C379.872 128.776 382.923 129.451 385.563 130.8C388.262 132.149 390.344 134.027 391.811 136.432C393.336 138.779 394.099 141.507 394.099 144.616V177H387.499V167.584L388.467 168.552C387.646 170.312 386.355 171.925 384.595 173.392C382.894 174.8 380.87 175.944 378.523 176.824C376.235 177.645 373.712 178.056 370.955 178.056ZM407.674 177V129.832H414.274V138.984L412.778 138.632C413.952 135.581 415.858 133.176 418.498 131.416C421.197 129.656 424.306 128.776 427.826 128.776C431.17 128.776 434.162 129.539 436.802 131.064C439.501 132.589 441.613 134.701 443.138 137.4C444.722 140.04 445.514 143.032 445.514 146.376V177H438.914V148.928C438.914 146.053 438.386 143.619 437.33 141.624C436.333 139.629 434.896 138.104 433.018 137.048C431.2 135.933 429.088 135.376 426.682 135.376C424.277 135.376 422.136 135.933 420.258 137.048C418.381 138.104 416.914 139.659 415.858 141.712C414.802 143.707 414.274 146.112 414.274 148.928V177H407.674ZM458.12 177V129.832H464.72V177H458.12ZM458.12 121.12V111.44H464.72V121.12H458.12ZM478.229 177V129.832H484.829V138.984L483.333 138.632C484.506 135.581 486.413 133.176 489.053 131.416C491.752 129.656 494.861 128.776 498.381 128.776C501.725 128.776 504.717 129.539 507.357 131.064C510.056 132.589 512.168 134.701 513.693 137.4C515.277 140.04 516.069 143.032 516.069 146.376V177H509.469V148.928C509.469 146.053 508.941 143.619 507.885 141.624C506.888 139.629 505.45 138.104 503.573 137.048C501.754 135.933 499.642 135.376 497.237 135.376C494.832 135.376 492.69 135.933 490.813 137.048C488.936 138.104 487.469 139.659 486.413 141.712C485.357 143.707 484.829 146.112 484.829 148.928V177H478.229ZM551.026 196.36C547.8 196.36 544.808 195.861 542.05 194.864C539.352 193.867 537.005 192.488 535.01 190.728C533.074 189.027 531.578 187.032 530.522 184.744L536.594 181.488C537.533 183.717 539.205 185.653 541.61 187.296C544.016 188.939 547.096 189.76 550.85 189.76C553.725 189.76 556.365 189.203 558.77 188.088C561.176 186.973 563.112 185.331 564.578 183.16C566.045 180.989 566.778 178.32 566.778 175.152V164.68L567.834 165.648C566.192 169.051 563.757 171.691 560.53 173.568C557.304 175.387 553.784 176.296 549.97 176.296C545.57 176.296 541.61 175.24 538.09 173.128C534.57 171.016 531.784 168.171 529.73 164.592C527.736 160.955 526.738 156.936 526.738 152.536C526.738 148.077 527.736 144.059 529.73 140.48C531.784 136.901 534.541 134.056 538.002 131.944C541.522 129.832 545.512 128.776 549.97 128.776C553.784 128.776 557.245 129.656 560.354 131.416C563.522 133.176 566.016 135.552 567.834 138.544L566.778 140.392V129.832H573.378V175.152C573.378 179.2 572.41 182.808 570.474 185.976C568.597 189.203 565.957 191.725 562.554 193.544C559.21 195.421 555.368 196.36 551.026 196.36ZM550.322 169.696C553.373 169.696 556.13 168.933 558.594 167.408C561.058 165.824 563.024 163.741 564.49 161.16C566.016 158.52 566.778 155.645 566.778 152.536C566.778 149.427 566.016 146.581 564.49 144C563.024 141.36 561.058 139.277 558.594 137.752C556.13 136.168 553.373 135.376 550.322 135.376C547.213 135.376 544.397 136.168 541.874 137.752C539.352 139.277 537.357 141.331 535.89 143.912C534.482 146.493 533.778 149.368 533.778 152.536C533.778 155.645 534.482 158.52 535.89 161.16C537.357 163.741 539.322 165.824 541.786 167.408C544.309 168.933 547.154 169.696 550.322 169.696ZM591.78 177V136.432H582.364V129.832H591.78V125.608C591.78 122.323 592.513 119.565 593.98 117.336C595.447 115.048 597.383 113.317 599.788 112.144C602.193 110.971 604.775 110.384 607.532 110.384C608.119 110.384 608.793 110.443 609.556 110.56C610.319 110.619 610.935 110.707 611.404 110.824V116.808C610.993 116.691 610.436 116.632 609.732 116.632C609.028 116.573 608.529 116.544 608.236 116.544C605.42 116.544 603.073 117.219 601.196 118.568C599.319 119.917 598.38 122.264 598.38 125.608V129.832H609.908V136.432H598.38V177H591.78ZM638.207 178.056C634.922 178.056 631.93 177.293 629.231 175.768C626.532 174.184 624.391 172.013 622.807 169.256C621.282 166.44 620.519 163.213 620.519 159.576V129.832H627.119V158.784C627.119 161.307 627.618 163.536 628.615 165.472C629.671 167.349 631.108 168.816 632.927 169.872C634.804 170.928 636.946 171.456 639.351 171.456C641.756 171.456 643.898 170.928 645.775 169.872C647.652 168.757 649.119 167.203 650.175 165.208C651.231 163.155 651.759 160.72 651.759 157.904V129.832H658.359V177H651.759V167.848L653.255 168.2C652.14 171.251 650.234 173.656 647.535 175.416C644.836 177.176 641.727 178.056 638.207 178.056ZM671.932 177V110.384H678.532V177H671.932ZM723.715 178.056C720.429 178.056 717.437 177.293 714.739 175.768C712.04 174.184 709.899 172.013 708.315 169.256C706.789 166.44 706.027 163.213 706.027 159.576V129.832H712.627V158.784C712.627 161.307 713.125 163.536 714.123 165.472C715.179 167.349 716.616 168.816 718.435 169.872C720.312 170.928 722.453 171.456 724.859 171.456C727.264 171.456 729.405 170.928 731.283 169.872C733.16 168.757 734.627 167.203 735.683 165.208C736.739 163.155 737.267 160.72 737.267 157.904V129.832H743.867V177H737.267V167.848L738.763 168.2C737.648 171.251 735.741 173.656 733.043 175.416C730.344 177.176 727.235 178.056 723.715 178.056ZM773.808 178.056C769.291 178.056 765.331 176.912 761.928 174.624C758.525 172.336 756.061 169.227 754.536 165.296L760.08 162.656C761.429 165.531 763.307 167.819 765.712 169.52C768.176 171.221 770.875 172.072 773.808 172.072C776.624 172.072 779 171.397 780.936 170.048C782.872 168.64 783.84 166.821 783.84 164.592C783.84 162.949 783.371 161.659 782.432 160.72C781.493 159.723 780.408 158.96 779.176 158.432C777.944 157.904 776.859 157.523 775.92 157.288L769.144 155.352C764.803 154.12 761.664 152.389 759.728 150.16C757.792 147.931 756.824 145.349 756.824 142.416C756.824 139.659 757.528 137.253 758.936 135.2C760.344 133.147 762.251 131.563 764.656 130.448C767.061 129.333 769.731 128.776 772.664 128.776C776.653 128.776 780.261 129.832 783.488 131.944C786.773 133.997 789.091 136.872 790.44 140.568L784.808 143.208C783.635 140.568 781.933 138.515 779.704 137.048C777.533 135.523 775.099 134.76 772.4 134.76C769.76 134.76 767.648 135.435 766.064 136.784C764.48 138.133 763.688 139.835 763.688 141.888C763.688 143.472 764.099 144.733 764.92 145.672C765.741 146.611 766.68 147.315 767.736 147.784C768.851 148.253 769.819 148.605 770.64 148.84L778.472 151.128C782.285 152.243 785.248 153.973 787.36 156.32C789.531 158.667 790.616 161.424 790.616 164.592C790.616 167.173 789.883 169.491 788.416 171.544C787.008 173.597 785.043 175.211 782.52 176.384C779.997 177.499 777.093 178.056 773.808 178.056ZM823.686 178.056C819.286 178.056 815.296 177 811.718 174.888C808.198 172.717 805.411 169.755 803.358 166C801.304 162.245 800.278 157.992 800.278 153.24C800.278 148.488 801.275 144.293 803.27 140.656C805.264 136.96 807.963 134.056 811.366 131.944C814.827 129.832 818.699 128.776 822.982 128.776C826.384 128.776 829.406 129.421 832.046 130.712C834.744 131.944 837.032 133.645 838.91 135.816C840.787 137.928 842.224 140.333 843.222 143.032C844.219 145.672 844.718 148.4 844.718 151.216C844.718 151.803 844.688 152.477 844.63 153.24C844.571 153.944 844.483 154.677 844.366 155.44H804.502V149.28H840.582L837.414 151.92C837.942 148.693 837.56 145.819 836.27 143.296C835.038 140.715 833.248 138.691 830.902 137.224C828.555 135.699 825.915 134.936 822.982 134.936C820.048 134.936 817.32 135.699 814.798 137.224C812.334 138.749 810.398 140.891 808.99 143.648C807.582 146.347 807.024 149.573 807.318 153.328C807.024 157.083 807.611 160.368 809.078 163.184C810.603 165.941 812.656 168.083 815.238 169.608C817.878 171.133 820.694 171.896 823.686 171.896C827.147 171.896 830.051 171.075 832.398 169.432C834.744 167.789 836.651 165.736 838.118 163.272L843.75 166.264C842.811 168.376 841.374 170.341 839.438 172.16C837.502 173.92 835.184 175.357 832.486 176.472C829.846 177.528 826.912 178.056 823.686 178.056ZM856.354 177V129.832H862.954V137.576L862.074 136.432C863.189 134.203 864.861 132.443 867.09 131.152C869.378 129.861 872.135 129.216 875.362 129.216H878.354V135.816H874.218C870.815 135.816 868.087 136.872 866.034 138.984C863.981 141.096 862.954 144.088 862.954 147.96V177H856.354ZM28.248 272.056C23.848 272.056 19.8587 271 16.28 268.888C12.76 266.717 9.97333 263.755 7.92 260C5.86667 256.245 4.84 251.992 4.84 247.24C4.84 242.488 5.83733 238.293 7.832 234.656C9.82667 230.96 12.5253 228.056 15.928 225.944C19.3893 223.832 23.2613 222.776 27.544 222.776C30.9467 222.776 33.968 223.421 36.608 224.712C39.3067 225.944 41.5947 227.645 43.472 229.816C45.3493 231.928 46.7867 234.333 47.784 237.032C48.7813 239.672 49.28 242.4 49.28 245.216C49.28 245.803 49.2507 246.477 49.192 247.24C49.1333 247.944 49.0453 248.677 48.928 249.44H9.064V243.28H45.144L41.976 245.92C42.504 242.693 42.1227 239.819 40.832 237.296C39.6 234.715 37.8107 232.691 35.464 231.224C33.1173 229.699 30.4773 228.936 27.544 228.936C24.6107 228.936 21.8827 229.699 19.36 231.224C16.896 232.749 14.96 234.891 13.552 237.648C12.144 240.347 11.5867 243.573 11.88 247.328C11.5867 251.083 12.1733 254.368 13.64 257.184C15.1653 259.941 17.2187 262.083 19.8 263.608C22.44 265.133 25.256 265.896 28.248 265.896C31.7093 265.896 34.6133 265.075 36.96 263.432C39.3067 261.789 41.2133 259.736 42.68 257.272L48.312 260.264C47.3733 262.376 45.936 264.341 44 266.16C42.064 267.92 39.7467 269.357 37.048 270.472C34.408 271.528 31.4747 272.056 28.248 272.056ZM54.2493 271L70.7933 247.416L54.3373 223.832H62.4333L77.0413 245.04H72.5533L87.0733 223.832H95.1693L78.7133 247.416L95.1693 271H87.0733L72.5533 249.792H77.0413L62.4333 271H54.2493ZM102.94 288.6V223.832H109.54V234.392L108.484 232.544C110.361 229.552 112.855 227.176 115.964 225.416C119.132 223.656 122.74 222.776 126.788 222.776C131.247 222.776 135.207 223.861 138.668 226.032C142.188 228.144 144.945 231.048 146.94 234.744C148.993 238.44 150.02 242.664 150.02 247.416C150.02 252.109 148.993 256.333 146.94 260.088C144.945 263.784 142.188 266.717 138.668 268.888C135.207 271 131.247 272.056 126.788 272.056C122.74 272.056 119.073 271.147 115.788 269.328C112.561 267.451 110.127 264.811 108.484 261.408L109.54 260.44V288.6H102.94ZM126.436 265.456C129.604 265.456 132.42 264.664 134.884 263.08C137.407 261.496 139.372 259.355 140.78 256.656C142.247 253.899 142.98 250.819 142.98 247.416C142.98 243.955 142.247 240.875 140.78 238.176C139.372 235.477 137.407 233.336 134.884 231.752C132.42 230.168 129.604 229.376 126.436 229.376C123.268 229.376 120.393 230.168 117.812 231.752C115.289 233.336 113.265 235.507 111.74 238.264C110.273 240.963 109.54 244.013 109.54 247.416C109.54 250.819 110.273 253.899 111.74 256.656C113.265 259.355 115.289 261.496 117.812 263.08C120.393 264.664 123.268 265.456 126.436 265.456ZM183.107 272.056C178.707 272.056 174.718 271 171.139 268.888C167.619 266.717 164.833 263.755 162.779 260C160.726 256.245 159.699 251.992 159.699 247.24C159.699 242.488 160.697 238.293 162.691 234.656C164.686 230.96 167.385 228.056 170.787 225.944C174.249 223.832 178.121 222.776 182.403 222.776C185.806 222.776 188.827 223.421 191.467 224.712C194.166 225.944 196.454 227.645 198.331 229.816C200.209 231.928 201.646 234.333 202.643 237.032C203.641 239.672 204.139 242.4 204.139 245.216C204.139 245.803 204.11 246.477 204.051 247.24C203.993 247.944 203.905 248.677 203.787 249.44H163.923V243.28H200.003L196.835 245.92C197.363 242.693 196.982 239.819 195.691 237.296C194.459 234.715 192.67 232.691 190.323 231.224C187.977 229.699 185.337 228.936 182.403 228.936C179.47 228.936 176.742 229.699 174.219 231.224C171.755 232.749 169.819 234.891 168.411 237.648C167.003 240.347 166.446 243.573 166.739 247.328C166.446 251.083 167.033 254.368 168.499 257.184C170.025 259.941 172.078 262.083 174.659 263.608C177.299 265.133 180.115 265.896 183.107 265.896C186.569 265.896 189.473 265.075 191.819 263.432C194.166 261.789 196.073 259.736 197.539 257.272L203.171 260.264C202.233 262.376 200.795 264.341 198.859 266.16C196.923 267.92 194.606 269.357 191.907 270.472C189.267 271.528 186.334 272.056 183.107 272.056ZM215.776 271V223.832H222.376V231.576L221.496 230.432C222.611 228.203 224.283 226.443 226.512 225.152C228.8 223.861 231.557 223.216 234.784 223.216H237.776V229.816H233.64C230.237 229.816 227.509 230.872 225.456 232.984C223.403 235.096 222.376 238.088 222.376 241.96V271H215.776ZM245.51 271V223.832H252.11V271H245.51ZM245.51 215.12V205.44H252.11V215.12H245.51ZM287.092 272.056C282.692 272.056 278.702 271 275.124 268.888C271.604 266.717 268.817 263.755 266.764 260C264.71 256.245 263.684 251.992 263.684 247.24C263.684 242.488 264.681 238.293 266.676 234.656C268.67 230.96 271.369 228.056 274.772 225.944C278.233 223.832 282.105 222.776 286.388 222.776C289.79 222.776 292.812 223.421 295.452 224.712C298.15 225.944 300.438 227.645 302.316 229.816C304.193 231.928 305.63 234.333 306.628 237.032C307.625 239.672 308.124 242.4 308.124 245.216C308.124 245.803 308.094 246.477 308.036 247.24C307.977 247.944 307.889 248.677 307.772 249.44H267.908V243.28H303.988L300.82 245.92C301.348 242.693 300.966 239.819 299.676 237.296C298.444 234.715 296.654 232.691 294.308 231.224C291.961 229.699 289.321 228.936 286.388 228.936C283.454 228.936 280.726 229.699 278.204 231.224C275.74 232.749 273.804 234.891 272.396 237.648C270.988 240.347 270.43 243.573 270.724 247.328C270.43 251.083 271.017 254.368 272.484 257.184C274.009 259.941 276.062 262.083 278.644 263.608C281.284 265.133 284.1 265.896 287.092 265.896C290.553 265.896 293.457 265.075 295.804 263.432C298.15 261.789 300.057 259.736 301.524 257.272L307.156 260.264C306.217 262.376 304.78 264.341 302.844 266.16C300.908 267.92 298.59 269.357 295.892 270.472C293.252 271.528 290.318 272.056 287.092 272.056ZM319.76 271V223.832H326.36V232.984L324.864 232.632C326.038 229.581 327.944 227.176 330.584 225.416C333.283 223.656 336.392 222.776 339.912 222.776C343.256 222.776 346.248 223.539 348.888 225.064C351.587 226.589 353.699 228.701 355.224 231.4C356.808 234.04 357.6 237.032 357.6 240.376V271H351V242.928C351 240.053 350.472 237.619 349.416 235.624C348.419 233.629 346.982 232.104 345.104 231.048C343.286 229.933 341.174 229.376 338.768 229.376C336.363 229.376 334.222 229.933 332.344 231.048C330.467 232.104 329 233.659 327.944 235.712C326.888 237.707 326.36 240.112 326.36 242.928V271H319.76ZM391.766 272.056C387.131 272.056 383.054 270.971 379.534 268.8C376.014 266.629 373.256 263.696 371.262 260C369.267 256.245 368.27 252.021 368.27 247.328C368.27 242.635 369.267 238.44 371.262 234.744C373.256 231.048 376.014 228.144 379.534 226.032C383.054 223.861 387.131 222.776 391.766 222.776C394.699 222.776 397.456 223.304 400.038 224.36C402.619 225.416 404.907 226.853 406.902 228.672C408.896 230.432 410.392 232.485 411.39 234.832L405.406 237.912C404.232 235.389 402.443 233.336 400.038 231.752C397.632 230.168 394.875 229.376 391.766 229.376C388.656 229.376 385.84 230.168 383.318 231.752C380.854 233.277 378.888 235.419 377.422 238.176C376.014 240.875 375.31 243.955 375.31 247.416C375.31 250.819 376.014 253.899 377.422 256.656C378.888 259.355 380.854 261.496 383.318 263.08C385.84 264.664 388.656 265.456 391.766 265.456C394.875 265.456 397.603 264.664 399.95 263.08C402.355 261.496 404.174 259.384 405.406 256.744L411.39 260C410.392 262.288 408.896 264.341 406.902 266.16C404.907 267.979 402.619 269.416 400.038 270.472C397.456 271.528 394.699 272.056 391.766 272.056ZM444.443 272.056C440.043 272.056 436.054 271 432.475 268.888C428.955 266.717 426.169 263.755 424.115 260C422.062 256.245 421.035 251.992 421.035 247.24C421.035 242.488 422.033 238.293 424.027 234.656C426.022 230.96 428.721 228.056 432.123 225.944C435.585 223.832 439.457 222.776 443.739 222.776C447.142 222.776 450.163 223.421 452.803 224.712C455.502 225.944 457.79 227.645 459.667 229.816C461.545 231.928 462.982 234.333 463.979 237.032C464.977 239.672 465.475 242.4 465.475 245.216C465.475 245.803 465.446 246.477 465.387 247.24C465.329 247.944 465.241 248.677 465.123 249.44H425.259V243.28H461.339L458.171 245.92C458.699 242.693 458.318 239.819 457.027 237.296C455.795 234.715 454.006 232.691 451.659 231.224C449.313 229.699 446.673 228.936 443.739 228.936C440.806 228.936 438.078 229.699 435.555 231.224C433.091 232.749 431.155 234.891 429.747 237.648C428.339 240.347 427.782 243.573 428.075 247.328C427.782 251.083 428.369 254.368 429.835 257.184C431.361 259.941 433.414 262.083 435.995 263.608C438.635 265.133 441.451 265.896 444.443 265.896C447.905 265.896 450.809 265.075 453.155 263.432C455.502 261.789 457.409 259.736 458.875 257.272L464.507 260.264C463.569 262.376 462.131 264.341 460.195 266.16C458.259 267.92 455.942 269.357 453.243 270.472C450.603 271.528 447.67 272.056 444.443 272.056ZM493.48 272.056C488.963 272.056 485.003 270.912 481.6 268.624C478.197 266.336 475.733 263.227 474.208 259.296L479.752 256.656C481.101 259.531 482.979 261.819 485.384 263.52C487.848 265.221 490.547 266.072 493.48 266.072C496.296 266.072 498.672 265.397 500.608 264.048C502.544 262.64 503.512 260.821 503.512 258.592C503.512 256.949 503.043 255.659 502.104 254.72C501.165 253.723 500.08 252.96 498.848 252.432C497.616 251.904 496.531 251.523 495.592 251.288L488.816 249.352C484.475 248.12 481.336 246.389 479.4 244.16C477.464 241.931 476.496 239.349 476.496 236.416C476.496 233.659 477.2 231.253 478.608 229.2C480.016 227.147 481.923 225.563 484.328 224.448C486.733 223.333 489.403 222.776 492.336 222.776C496.325 222.776 499.933 223.832 503.16 225.944C506.445 227.997 508.763 230.872 510.112 234.568L504.48 237.208C503.307 234.568 501.605 232.515 499.376 231.048C497.205 229.523 494.771 228.76 492.072 228.76C489.432 228.76 487.32 229.435 485.736 230.784C484.152 232.133 483.36 233.835 483.36 235.888C483.36 237.472 483.771 238.733 484.592 239.672C485.413 240.611 486.352 241.315 487.408 241.784C488.523 242.253 489.491 242.605 490.312 242.84L498.144 245.128C501.957 246.243 504.92 247.973 507.032 250.32C509.203 252.667 510.288 255.424 510.288 258.592C510.288 261.173 509.555 263.491 508.088 265.544C506.68 267.597 504.715 269.211 502.192 270.384C499.669 271.499 496.765 272.056 493.48 272.056Z" fill="#120B23"/>
<g filter="url(#filter0_d_916_1716)">
<path d="M1084.57 135.59V158.18L1072.78 152.287C1066.3 149.144 1060.21 146.394 1059.03 146.394C1054.51 146.394 1057.66 152.484 1066.1 159.948C1072.19 165.252 1074.35 168.198 1072.59 168.788C1071.01 169.377 1059.42 172.52 1046.46 175.663C1022.3 181.556 1017.39 184.11 1021.12 187.842C1022.49 189.217 1031.92 188.628 1052.94 185.485C1069.44 183.128 1083.39 181.753 1083.98 182.342C1084.57 183.128 1081.23 190.003 1076.71 197.86C1072 205.718 1068.07 212.79 1067.67 213.379C1067.28 214.165 1068.26 215.736 1069.64 216.915C1072 218.879 1073.96 217.897 1080.25 212.397C1084.57 208.468 1088.89 205.325 1089.87 205.325C1090.85 205.325 1092.82 211.218 1094.39 218.486C1097.73 235.38 1100.09 240.684 1104.41 240.684C1109.71 240.684 1110.69 234.594 1109.12 212.004C1108.34 200.611 1108.34 191.574 1109.32 191.574C1110.3 191.574 1118.16 194.717 1126.8 198.45C1143.89 205.914 1149.39 206.896 1149.39 202.575C1149.39 198.646 1146.25 195.896 1131.12 185.485C1123.86 180.77 1117.96 176.252 1117.96 175.663C1117.96 175.074 1127.98 171.734 1140.16 168.198C1161.96 161.913 1171 157.787 1171 154.251C1171 151.305 1158.62 151.894 1138.98 155.43C1129.55 157.198 1121.11 158.18 1120.52 157.394C1119.93 156.805 1121.3 151.698 1123.66 146.198C1132.5 124.786 1127 122.822 1113.25 142.662C1108.14 150.323 1103.03 155.823 1102.25 154.841C1101.46 154.055 1099.3 146.198 1097.34 137.554C1093.41 119.089 1090.85 113 1087.12 113C1085.16 113 1084.57 118.107 1084.57 135.59Z" fill="#FFEC75"/>
<path d="M1086.07 158.18V160.607L1083.9 159.522L1072.13 153.637C1072.12 153.636 1072.12 153.634 1072.12 153.633C1068.89 152.067 1065.77 150.605 1063.32 149.537C1062.09 149.002 1061.05 148.573 1060.25 148.281C1059.85 148.135 1059.53 148.03 1059.29 147.963C1059.09 147.907 1059.01 147.896 1059 147.894C1058.71 147.897 1058.55 147.935 1058.47 147.962C1058.46 148.146 1058.51 148.674 1059.04 149.68C1060.18 151.889 1062.92 155.13 1067.09 158.821C1070.14 161.478 1072.31 163.632 1073.5 165.249C1074.06 166.018 1074.57 166.879 1074.67 167.738C1074.72 168.218 1074.65 168.778 1074.31 169.288C1073.99 169.779 1073.52 170.053 1073.09 170.201C1072.18 170.537 1068.81 171.487 1064.18 172.718C1059.46 173.973 1053.31 175.547 1046.81 177.121C1034.69 180.077 1027.59 182.154 1023.99 183.911C1023.1 184.344 1022.48 184.728 1022.08 185.061C1021.67 185.399 1021.55 185.62 1021.51 185.708C1021.5 185.752 1021.48 185.797 1021.54 185.931C1021.6 186.099 1021.77 186.362 1022.12 186.726C1022.16 186.741 1022.24 186.773 1022.39 186.811C1022.69 186.888 1023.16 186.957 1023.81 186.999C1025.12 187.082 1027 187.044 1029.56 186.862C1034.65 186.498 1042.22 185.572 1052.72 184.001L1052.72 184.001L1052.73 184C1061 182.819 1068.63 181.883 1074.28 181.316C1077.1 181.033 1079.44 180.84 1081.13 180.755C1081.96 180.713 1082.67 180.696 1083.2 180.712C1083.46 180.72 1083.72 180.736 1083.95 180.772C1084.06 180.79 1084.2 180.818 1084.36 180.868C1084.47 180.906 1084.77 181.013 1085.04 181.281L1085.11 181.357L1085.18 181.442C1085.46 181.821 1085.52 182.226 1085.54 182.453C1085.56 182.703 1085.53 182.944 1085.5 183.145C1085.44 183.549 1085.31 184.008 1085.15 184.479C1084.82 185.436 1084.29 186.674 1083.62 188.091C1082.27 190.939 1080.28 194.66 1078.01 198.608L1078 198.62L1078 198.632C1075.65 202.549 1073.49 206.272 1071.87 209.092C1071.38 209.953 1070.93 210.74 1070.54 211.427C1069.89 212.566 1069.39 213.428 1069.12 213.889C1069.15 213.974 1069.2 214.095 1069.29 214.25C1069.56 214.711 1070.03 215.269 1070.61 215.769C1071.07 216.154 1071.39 216.289 1071.64 216.33C1071.89 216.37 1072.26 216.347 1072.87 216.081C1074.19 215.504 1076.07 214.057 1079.25 211.277C1081.44 209.287 1083.64 207.488 1085.42 206.177C1086.32 205.523 1087.13 204.974 1087.81 204.582C1088.14 204.386 1088.47 204.214 1088.77 204.087C1089.02 203.979 1089.43 203.825 1089.87 203.825C1090.7 203.825 1091.23 204.395 1091.42 204.614C1091.68 204.916 1091.91 205.291 1092.1 205.667C1092.5 206.432 1092.92 207.479 1093.33 208.697C1094.16 211.15 1095.06 214.499 1095.86 218.169L1095.86 218.182L1095.86 218.195C1097.53 226.653 1098.93 232.043 1100.4 235.304C1101.13 236.927 1101.82 237.896 1102.47 238.456C1103.07 238.976 1103.68 239.184 1104.41 239.184C1105.41 239.184 1106.01 238.915 1106.48 238.388C1107.01 237.779 1107.52 236.645 1107.86 234.573C1108.54 230.428 1108.41 223.435 1107.63 212.108L1107.63 212.107C1107.23 206.39 1107.03 201.241 1107.06 197.507C1107.07 195.648 1107.14 194.094 1107.27 192.982C1107.34 192.439 1107.43 191.918 1107.58 191.498C1107.65 191.296 1107.76 191.015 1107.96 190.756C1108.17 190.496 1108.61 190.074 1109.32 190.074C1109.69 190.074 1110.11 190.19 1110.41 190.275C1110.78 190.379 1111.23 190.527 1111.74 190.708C1112.78 191.07 1114.15 191.588 1115.74 192.218C1118.93 193.477 1123.07 195.203 1127.4 197.073L1127.4 197.075C1135.97 200.818 1141.46 202.854 1144.77 203.456C1146.47 203.765 1147.27 203.629 1147.58 203.467L1147.59 203.465C1147.69 203.411 1147.89 203.31 1147.89 202.575C1147.89 201.824 1147.75 201.165 1147.35 200.43C1146.93 199.658 1146.19 198.747 1144.91 197.561C1142.33 195.172 1137.87 191.949 1130.29 186.732C1126.64 184.362 1123.32 182.039 1120.92 180.226C1119.71 179.32 1118.72 178.528 1118.01 177.915C1117.66 177.611 1117.36 177.327 1117.13 177.081C1117.02 176.96 1116.89 176.815 1116.79 176.658C1116.73 176.578 1116.66 176.467 1116.61 176.331C1116.55 176.21 1116.46 175.972 1116.46 175.663C1116.46 175.132 1116.73 174.777 1116.83 174.652C1116.95 174.498 1117.09 174.389 1117.17 174.324C1117.35 174.191 1117.55 174.078 1117.73 173.987C1118.09 173.798 1118.58 173.583 1119.16 173.352C1120.33 172.885 1121.99 172.292 1124.02 171.614C1128.07 170.255 1133.64 168.53 1139.74 166.758L1139.74 166.757C1150.64 163.617 1158.26 161.039 1163.14 158.827C1165.58 157.718 1167.25 156.74 1168.29 155.882C1169.09 155.224 1169.37 154.758 1169.46 154.477C1169.28 154.386 1168.96 154.27 1168.46 154.164C1167.17 153.898 1165.16 153.8 1162.42 153.909C1156.97 154.126 1149.05 155.142 1139.25 156.905C1134.52 157.793 1130.01 158.487 1126.6 158.861C1124.9 159.047 1123.43 159.158 1122.34 159.168C1121.8 159.172 1121.29 159.154 1120.87 159.092C1120.67 159.062 1120.43 159.014 1120.2 158.929C1120.02 158.863 1119.67 158.713 1119.38 158.38C1119.16 158.128 1119.05 157.857 1118.99 157.67C1118.93 157.455 1118.9 157.246 1118.89 157.072C1118.86 156.727 1118.89 156.348 1118.94 155.979C1119.03 155.231 1119.25 154.288 1119.54 153.237C1120.12 151.126 1121.08 148.413 1122.28 145.616C1124.47 140.305 1125.73 136.286 1126.22 133.56C1126.46 132.182 1126.49 131.246 1126.39 130.68C1126.38 130.565 1126.36 130.48 1126.34 130.418C1126.21 130.451 1125.99 130.53 1125.66 130.72C1124.98 131.106 1124.08 131.809 1122.97 132.903C1120.76 135.078 1117.9 138.585 1114.49 143.505C1111.91 147.377 1109.31 150.726 1107.24 153.003C1106.21 154.132 1105.26 155.05 1104.47 155.633C1104.1 155.914 1103.65 156.196 1103.19 156.343C1102.77 156.477 1101.81 156.631 1101.13 155.837C1100.84 155.526 1100.65 155.116 1100.52 154.842C1100.36 154.48 1100.19 154.03 1100.01 153.519C1099.65 152.495 1099.24 151.135 1098.79 149.55C1097.9 146.376 1096.86 142.225 1095.87 137.887L1095.87 137.877L1095.87 137.867C1093.9 128.629 1092.31 122.616 1090.77 118.93C1090 117.084 1089.3 115.943 1088.66 115.279C1088.16 114.76 1087.74 114.563 1087.34 114.514C1087.32 114.555 1087.3 114.608 1087.27 114.676C1087.03 115.209 1086.79 116.204 1086.6 117.908C1086.22 121.273 1086.07 126.837 1086.07 135.59V158.18ZM1069.09 213.763C1069.09 213.763 1069.09 213.765 1069.09 213.769C1069.09 213.765 1069.09 213.763 1069.09 213.763ZM1126.27 130.27C1126.27 130.271 1126.28 130.279 1126.29 130.291C1126.28 130.275 1126.27 130.269 1126.27 130.27ZM1087.42 114.391C1087.42 114.391 1087.42 114.394 1087.41 114.405C1087.42 114.397 1087.42 114.392 1087.42 114.391Z" stroke="black" stroke-width="3"/>
</g>
<defs>
<filter id="filter0_d_916_1716" x="1020" y="113" width="151" height="135.448" filterUnits="userSpaceOnUse" color-interpolation-filters="sRGB">
<feFlood flood-opacity="0" result="BackgroundImageFix"/>
<feColorMatrix in="SourceAlpha" type="matrix" values="0 0 0 0 0 0 0 0 0 0 0 0 0 0 0 0 0 0 127 0" result="hardAlpha"/>
<feOffset dy="7.76457"/>
<feComposite in2="hardAlpha" operator="out"/>
<feColorMatrix type="matrix" values="0 0 0 0 0.745098 0 0 0 0 0.74902 0 0 0 0 0.705882 0 0 0 1 0"/>
<feBlend mode="normal" in2="BackgroundImageFix" result="effect1_dropShadow_916_1716"/>
<feBlend mode="normal" in="SourceGraphic" in2="effect1_dropShadow_916_1716" result="shape"/>
</filter>
</defs>
</svg>
