<svg width="119" height="32" viewBox="0 0 119 32" fill="none" xmlns="http://www.w3.org/2000/svg">
<mask id="mask0_948_212" style="mask-type:alpha" maskUnits="userSpaceOnUse" x="0" y="4" width="25" height="24">
<rect x="0.5" y="4" width="24" height="24" fill="#D9D9D9"/>
</mask>
<g mask="url(#mask0_948_212)">
<path d="M11.5 8V20.175L5.9 14.575L4.5 16L12.5 24L20.5 16L19.1 14.575L13.5 20.175V8H11.5Z" fill="#5E2FD3"/>
</g>
<path d="M37.349 31L49.448 6.58H35.943V3.435H53.259V6.58L41.271 31H37.349ZM68.2015 31.444C66.0062 31.444 64.0822 30.852 62.4295 29.668C60.8015 28.4593 59.5312 26.7943 58.6185 24.673C57.7058 22.527 57.2495 20.0357 57.2495 17.199C57.2495 14.3623 57.7058 11.8833 58.6185 9.762C59.5312 7.616 60.8015 5.951 62.4295 4.767C64.0575 3.583 65.9692 2.991 68.1645 2.991C70.3598 2.991 72.2715 3.583 73.8995 4.767C75.5275 5.951 76.7978 7.616 77.7105 9.762C78.6478 11.8833 79.1165 14.3623 79.1165 17.199C79.1165 20.0357 78.6602 22.527 77.7475 24.673C76.8348 26.819 75.5522 28.484 73.8995 29.668C72.2715 30.852 70.3722 31.444 68.2015 31.444ZM68.2015 28.077C69.6815 28.077 70.9642 27.633 72.0495 26.745C73.1348 25.8323 73.9735 24.562 74.5655 22.934C75.1822 21.306 75.4905 19.3943 75.4905 17.199C75.4905 15.0037 75.1822 13.092 74.5655 11.464C73.9735 9.836 73.1225 8.578 72.0125 7.69C70.9272 6.802 69.6445 6.358 68.1645 6.358C66.6845 6.358 65.4018 6.802 64.3165 7.69C63.2312 8.578 62.3802 9.836 61.7635 11.464C61.1715 13.092 60.8755 15.0037 60.8755 17.199C60.8755 19.3697 61.1715 21.269 61.7635 22.897C62.3802 24.525 63.2312 25.7953 64.3165 26.708C65.4265 27.6207 66.7215 28.077 68.2015 28.077ZM86.8359 31L109.332 3.435H113.439L90.9429 31H86.8359ZM90.9799 17.421C89.6233 17.421 88.4023 17.1003 87.3169 16.459C86.2316 15.793 85.3559 14.9173 84.6899 13.832C84.0486 12.7467 83.7279 11.538 83.7279 10.206C83.7279 8.874 84.0486 7.66533 84.6899 6.58C85.3559 5.47 86.2316 4.59433 87.3169 3.953C88.4023 3.31167 89.6233 2.991 90.9799 2.991C92.3119 2.991 93.5206 3.31167 94.6059 3.953C95.6913 4.59433 96.5546 5.47 97.1959 6.58C97.8373 7.66533 98.1579 8.874 98.1579 10.206C98.1579 11.538 97.8373 12.7467 97.1959 13.832C96.5546 14.9173 95.6913 15.793 94.6059 16.459C93.5206 17.1003 92.3119 17.421 90.9799 17.421ZM90.9429 14.387C91.7816 14.387 92.4969 14.1897 93.0889 13.795C93.6809 13.4003 94.1496 12.8823 94.4949 12.241C94.8403 11.5997 95.0129 10.9213 95.0129 10.206C95.0129 9.466 94.8403 8.78767 94.4949 8.171C94.1496 7.52967 93.6809 7.01167 93.0889 6.617C92.4969 6.19766 91.7816 5.988 90.9429 5.988C90.1536 5.988 89.4506 6.19766 88.8339 6.617C88.2173 7.01167 87.7363 7.52967 87.3909 8.171C87.0456 8.81233 86.8729 9.49067 86.8729 10.206C86.8729 10.8967 87.0456 11.575 87.3909 12.241C87.7363 12.8823 88.2173 13.4003 88.8339 13.795C89.4506 14.1897 90.1536 14.387 90.9429 14.387ZM109.073 31.444C107.716 31.444 106.495 31.1233 105.41 30.482C104.325 29.816 103.449 28.9403 102.783 27.855C102.142 26.7697 101.821 25.561 101.821 24.229C101.821 22.897 102.142 21.6883 102.783 20.603C103.449 19.493 104.325 18.6173 105.41 17.976C106.495 17.3347 107.716 17.014 109.073 17.014C110.405 17.014 111.614 17.3347 112.699 17.976C113.784 18.6173 114.648 19.493 115.289 20.603C115.93 21.6883 116.251 22.897 116.251 24.229C116.251 25.561 115.93 26.7697 115.289 27.855C114.648 28.9403 113.784 29.816 112.699 30.482C111.614 31.1233 110.405 31.444 109.073 31.444ZM109.073 28.41C109.887 28.41 110.59 28.2127 111.182 27.818C111.799 27.4233 112.267 26.9053 112.588 26.264C112.933 25.6227 113.106 24.9443 113.106 24.229C113.106 23.489 112.933 22.8107 112.588 22.194C112.267 21.5527 111.799 21.0347 111.182 20.64C110.59 20.2207 109.887 20.011 109.073 20.011C108.284 20.011 107.568 20.2207 106.927 20.64C106.31 21.0347 105.829 21.5527 105.484 22.194C105.139 22.8353 104.966 23.5137 104.966 24.229C104.966 24.9197 105.139 25.598 105.484 26.264C105.829 26.9053 106.31 27.4233 106.927 27.818C107.568 28.2127 108.284 28.41 109.073 28.41Z" fill="#5E2FD3"/>
</svg>
