<svg width="25" height="24" viewBox="0 0 25 24" fill="none" xmlns="http://www.w3.org/2000/svg">
<mask id="mask0_948_129" style="mask-type:alpha" maskUnits="userSpaceOnUse" x="0" y="0" width="25" height="24">
<rect x="0.5" width="24" height="24" fill="#D9D9D9"/>
</mask>
<g mask="url(#mask0_948_129)">
<path d="M3.5 21C2.95 21 2.47917 20.8042 2.0875 20.4125C1.69583 20.0208 1.5 19.55 1.5 19V6H3.5V19H20.5V21H3.5ZM7.5 17C6.95 17 6.47917 16.8042 6.0875 16.4125C5.69583 16.0208 5.5 15.55 5.5 15V4C5.5 3.45 5.69583 2.97917 6.0875 2.5875C6.47917 2.19583 6.95 2 7.5 2H12.5L14.5 4H21.5C22.05 4 22.5208 4.19583 22.9125 4.5875C23.3042 4.97917 23.5 5.45 23.5 6V15C23.5 15.55 23.3042 16.0208 22.9125 16.4125C22.5208 16.8042 22.05 17 21.5 17H7.5ZM7.5 15H21.5V6H13.675L11.675 4H7.5V15Z" fill="#5E2FD3"/>
</g>
</svg>
