<svg width="25" height="24" viewBox="0 0 25 24" fill="none" xmlns="http://www.w3.org/2000/svg">
<mask id="mask0_948_201" style="mask-type:alpha" maskUnits="userSpaceOnUse" x="0" y="0" width="25" height="24">
<rect x="0.5" width="24" height="24" fill="#D9D9D9"/>
</mask>
<g mask="url(#mask0_948_201)">
<path d="M19.5 21C18.85 21 18.2667 20.8125 17.75 20.4375C17.2333 20.0625 16.875 19.5833 16.675 19H11.5C10.4 19 9.45833 18.6083 8.675 17.825C7.89167 17.0417 7.5 16.1 7.5 15C7.5 13.9 7.89167 12.9583 8.675 12.175C9.45833 11.3917 10.4 11 11.5 11H13.5C14.05 11 14.5208 10.8042 14.9125 10.4125C15.3042 10.0208 15.5 9.55 15.5 9C15.5 8.45 15.3042 7.97917 14.9125 7.5875C14.5208 7.19583 14.05 7 13.5 7H8.325C8.10833 7.58333 7.74583 8.0625 7.2375 8.4375C6.72917 8.8125 6.15 9 5.5 9C4.66667 9 3.95833 8.70833 3.375 8.125C2.79167 7.54167 2.5 6.83333 2.5 6C2.5 5.16667 2.79167 4.45833 3.375 3.875C3.95833 3.29167 4.66667 3 5.5 3C6.15 3 6.72917 3.1875 7.2375 3.5625C7.74583 3.9375 8.10833 4.41667 8.325 5H13.5C14.6 5 15.5417 5.39167 16.325 6.175C17.1083 6.95833 17.5 7.9 17.5 9C17.5 10.1 17.1083 11.0417 16.325 11.825C15.5417 12.6083 14.6 13 13.5 13H11.5C10.95 13 10.4792 13.1958 10.0875 13.5875C9.69583 13.9792 9.5 14.45 9.5 15C9.5 15.55 9.69583 16.0208 10.0875 16.4125C10.4792 16.8042 10.95 17 11.5 17H16.675C16.8917 16.4167 17.2542 15.9375 17.7625 15.5625C18.2708 15.1875 18.85 15 19.5 15C20.3333 15 21.0417 15.2917 21.625 15.875C22.2083 16.4583 22.5 17.1667 22.5 18C22.5 18.8333 22.2083 19.5417 21.625 20.125C21.0417 20.7083 20.3333 21 19.5 21ZM5.5 7C5.78333 7 6.02083 6.90417 6.2125 6.7125C6.40417 6.52083 6.5 6.28333 6.5 6C6.5 5.71667 6.40417 5.47917 6.2125 5.2875C6.02083 5.09583 5.78333 5 5.5 5C5.21667 5 4.97917 5.09583 4.7875 5.2875C4.59583 5.47917 4.5 5.71667 4.5 6C4.5 6.28333 4.59583 6.52083 4.7875 6.7125C4.97917 6.90417 5.21667 7 5.5 7Z" fill="#5E2FD3"/>
</g>
</svg>
