<svg width="117" height="32" viewBox="0 0 117 32" fill="none" xmlns="http://www.w3.org/2000/svg">
<mask id="mask0_948_247" style="mask-type:alpha" maskUnits="userSpaceOnUse" x="0" y="4" width="25" height="24">
<rect x="0.5" y="4" width="24" height="24" fill="#D9D9D9"/>
</mask>
<g mask="url(#mask0_948_247)">
<path d="M11.5 8V20.175L5.9 14.575L4.5 16L12.5 24L20.5 16L19.1 14.575L13.5 20.175V8H11.5Z" fill="#5E2FD3"/>
</g>
<path d="M36.498 31V28.484L44.12 20.233C45.6247 18.6297 46.821 17.31 47.709 16.274C48.6217 15.238 49.2877 14.313 49.707 13.499C50.1263 12.685 50.336 11.8217 50.336 10.909C50.336 9.40433 49.892 8.245 49.004 7.431C48.116 6.617 46.9443 6.21 45.489 6.21C44.009 6.21 42.751 6.64167 41.715 7.505C40.679 8.34367 39.9637 9.54 39.569 11.094L36.276 10.243C36.5967 8.763 37.1887 7.48033 38.052 6.395C38.9153 5.30967 39.9883 4.471 41.271 3.879C42.5537 3.287 43.9597 2.991 45.489 2.991C47.1663 2.991 48.634 3.324 49.892 3.99C51.1747 4.63133 52.1737 5.53167 52.889 6.691C53.629 7.85033 53.999 9.19467 53.999 10.724C53.999 11.7353 53.7893 12.722 53.37 13.684C52.9507 14.646 52.334 15.6697 51.52 16.755C50.706 17.8157 49.6453 19.049 48.338 20.455L41.53 27.855H54.591V31H36.498ZM67.7494 31.444C66.3187 31.444 64.9744 31.1973 63.7164 30.704C62.4584 30.186 61.3607 29.4583 60.4234 28.521C59.5107 27.559 58.8447 26.4367 58.4254 25.154L61.3854 23.896C61.9034 25.2527 62.7421 26.3133 63.9014 27.078C65.0854 27.818 66.3681 28.188 67.7494 28.188C68.8841 28.188 69.8831 27.9413 70.7464 27.448C71.6344 26.93 72.3251 26.227 72.8184 25.339C73.3117 24.4263 73.5584 23.415 73.5584 22.305C73.5584 21.1457 73.2994 20.122 72.7814 19.234C72.2881 18.346 71.6097 17.6553 70.7464 17.162C69.8831 16.644 68.8964 16.385 67.7864 16.385C66.6517 16.385 65.6157 16.644 64.6784 17.162C63.7411 17.68 63.0627 18.3337 62.6434 19.123L59.7204 18.494L61.8294 3.435H76.1114V6.58H63.1984L64.6044 5.174L62.9764 16.866L61.7184 16.126C62.5324 15.09 63.4821 14.35 64.5674 13.906C65.6774 13.4373 66.8737 13.203 68.1564 13.203C69.9571 13.203 71.5357 13.61 72.8924 14.424C74.2491 15.238 75.3097 16.3233 76.0744 17.68C76.8391 19.0367 77.2214 20.5783 77.2214 22.305C77.2214 24.0317 76.8021 25.5857 75.9634 26.967C75.1494 28.3483 74.0271 29.446 72.5964 30.26C71.1904 31.0493 69.5747 31.444 67.7494 31.444ZM84.7402 31L107.236 3.435H111.343L88.8472 31H84.7402ZM88.8842 17.421C87.5276 17.421 86.3066 17.1003 85.2212 16.459C84.1359 15.793 83.2602 14.9173 82.5942 13.832C81.9529 12.7467 81.6322 11.538 81.6322 10.206C81.6322 8.874 81.9529 7.66533 82.5942 6.58C83.2602 5.47 84.1359 4.59433 85.2212 3.953C86.3066 3.31167 87.5276 2.991 88.8842 2.991C90.2162 2.991 91.4249 3.31167 92.5102 3.953C93.5956 4.59433 94.4589 5.47 95.1002 6.58C95.7416 7.66533 96.0622 8.874 96.0622 10.206C96.0622 11.538 95.7416 12.7467 95.1002 13.832C94.4589 14.9173 93.5956 15.793 92.5102 16.459C91.4249 17.1003 90.2162 17.421 88.8842 17.421ZM88.8472 14.387C89.6859 14.387 90.4012 14.1897 90.9932 13.795C91.5852 13.4003 92.0539 12.8823 92.3992 12.241C92.7446 11.5997 92.9172 10.9213 92.9172 10.206C92.9172 9.466 92.7446 8.78767 92.3992 8.171C92.0539 7.52967 91.5852 7.01167 90.9932 6.617C90.4012 6.19766 89.6859 5.988 88.8472 5.988C88.0579 5.988 87.3549 6.19766 86.7382 6.617C86.1216 7.01167 85.6406 7.52967 85.2952 8.171C84.9499 8.81233 84.7772 9.49067 84.7772 10.206C84.7772 10.8967 84.9499 11.575 85.2952 12.241C85.6406 12.8823 86.1216 13.4003 86.7382 13.795C87.3549 14.1897 88.0579 14.387 88.8472 14.387ZM106.977 31.444C105.621 31.444 104.4 31.1233 103.314 30.482C102.229 29.816 101.353 28.9403 100.687 27.855C100.046 26.7697 99.7252 25.561 99.7252 24.229C99.7252 22.897 100.046 21.6883 100.687 20.603C101.353 19.493 102.229 18.6173 103.314 17.976C104.4 17.3347 105.621 17.014 106.977 17.014C108.309 17.014 109.518 17.3347 110.603 17.976C111.689 18.6173 112.552 19.493 113.193 20.603C113.835 21.6883 114.155 22.897 114.155 24.229C114.155 25.561 113.835 26.7697 113.193 27.855C112.552 28.9403 111.689 29.816 110.603 30.482C109.518 31.1233 108.309 31.444 106.977 31.444ZM106.977 28.41C107.791 28.41 108.494 28.2127 109.086 27.818C109.703 27.4233 110.172 26.9053 110.492 26.264C110.838 25.6227 111.01 24.9443 111.01 24.229C111.01 23.489 110.838 22.8107 110.492 22.194C110.172 21.5527 109.703 21.0347 109.086 20.64C108.494 20.2207 107.791 20.011 106.977 20.011C106.188 20.011 105.473 20.2207 104.831 20.64C104.215 21.0347 103.734 21.5527 103.388 22.194C103.043 22.8353 102.87 23.5137 102.87 24.229C102.87 24.9197 103.043 25.598 103.388 26.264C103.734 26.9053 104.215 27.4233 104.831 27.818C105.473 28.2127 106.188 28.41 106.977 28.41Z" fill="#5E2FD3"/>
</svg>
