<svg width="122" height="32" viewBox="0 0 122 32" fill="none" xmlns="http://www.w3.org/2000/svg">
<mask id="mask0_948_84" style="mask-type:alpha" maskUnits="userSpaceOnUse" x="0" y="4" width="25" height="24">
<rect x="0.5" y="4" width="24" height="24" fill="#D9D9D9"/>
</mask>
<g mask="url(#mask0_948_84)">
<path d="M12.5 22.9996L6.5 16.9996L7.9 15.5996L12.5 20.1746L17.1 15.5996L18.5 16.9996L12.5 22.9996ZM12.5 16.9996L6.5 10.9996L7.9 9.59961L12.5 14.1746L17.1 9.59961L18.5 10.9996L12.5 16.9996Z" fill="#5E2FD3"/>
</g>
<path d="M45.378 31.444C43.9227 31.444 42.566 31.185 41.308 30.667C40.05 30.149 38.9647 29.4213 38.052 28.484C37.1393 27.522 36.461 26.3873 36.017 25.08L39.088 23.822C39.606 25.2033 40.42 26.2763 41.53 27.041C42.64 27.8057 43.9227 28.188 45.378 28.188C46.5127 28.188 47.524 27.966 48.412 27.522C49.3 27.078 49.9907 26.4367 50.484 25.598C51.002 24.7593 51.261 23.748 51.261 22.564C51.261 21.3553 51.002 20.344 50.484 19.53C49.9907 18.6913 49.3 18.05 48.412 17.606C47.524 17.162 46.5003 16.94 45.341 16.94C44.971 16.94 44.564 16.9647 44.12 17.014C43.7007 17.0633 43.343 17.1373 43.047 17.236L42.27 15.571L49.633 6.58H37.423V3.435H53.74V6.469L46.71 15.127L46.488 14.165C48.1407 14.2143 49.596 14.5967 50.854 15.312C52.112 16.0273 53.0987 17.0017 53.814 18.235C54.5293 19.4437 54.887 20.862 54.887 22.49C54.887 24.1673 54.48 25.6843 53.666 27.041C52.852 28.3977 51.7297 29.4707 50.299 30.26C48.8683 31.0493 47.228 31.444 45.378 31.444ZM70.514 31.444C68.3187 31.444 66.3947 30.852 64.742 29.668C63.114 28.4593 61.8437 26.7943 60.931 24.673C60.0183 22.527 59.562 20.0357 59.562 17.199C59.562 14.3623 60.0183 11.8833 60.931 9.762C61.8437 7.616 63.114 5.951 64.742 4.767C66.37 3.583 68.2817 2.991 70.477 2.991C72.6723 2.991 74.584 3.583 76.212 4.767C77.84 5.951 79.1103 7.616 80.023 9.762C80.9603 11.8833 81.429 14.3623 81.429 17.199C81.429 20.0357 80.9727 22.527 80.06 24.673C79.1473 26.819 77.8647 28.484 76.212 29.668C74.584 30.852 72.6847 31.444 70.514 31.444ZM70.514 28.077C71.994 28.077 73.2767 27.633 74.362 26.745C75.4473 25.8323 76.286 24.562 76.878 22.934C77.4947 21.306 77.803 19.3943 77.803 17.199C77.803 15.0037 77.4947 13.092 76.878 11.464C76.286 9.836 75.435 8.578 74.325 7.69C73.2397 6.802 71.957 6.358 70.477 6.358C68.997 6.358 67.7143 6.802 66.629 7.69C65.5437 8.578 64.6927 9.836 64.076 11.464C63.484 13.092 63.188 15.0037 63.188 17.199C63.188 19.3697 63.484 21.269 64.076 22.897C64.6927 24.525 65.5437 25.7953 66.629 26.708C67.739 27.6207 69.034 28.077 70.514 28.077ZM89.1484 31L111.644 3.435H115.751L93.2554 31H89.1484ZM93.2924 17.421C91.9358 17.421 90.7148 17.1003 89.6294 16.459C88.5441 15.793 87.6684 14.9173 87.0024 13.832C86.3611 12.7467 86.0404 11.538 86.0404 10.206C86.0404 8.874 86.3611 7.66533 87.0024 6.58C87.6684 5.47 88.5441 4.59433 89.6294 3.953C90.7148 3.31167 91.9358 2.991 93.2924 2.991C94.6244 2.991 95.8331 3.31167 96.9184 3.953C98.0038 4.59433 98.8671 5.47 99.5084 6.58C100.15 7.66533 100.47 8.874 100.47 10.206C100.47 11.538 100.15 12.7467 99.5084 13.832C98.8671 14.9173 98.0038 15.793 96.9184 16.459C95.8331 17.1003 94.6244 17.421 93.2924 17.421ZM93.2554 14.387C94.0941 14.387 94.8094 14.1897 95.4014 13.795C95.9934 13.4003 96.4621 12.8823 96.8074 12.241C97.1528 11.5997 97.3254 10.9213 97.3254 10.206C97.3254 9.466 97.1528 8.78767 96.8074 8.171C96.4621 7.52967 95.9934 7.01167 95.4014 6.617C94.8094 6.19766 94.0941 5.988 93.2554 5.988C92.4661 5.988 91.7631 6.19766 91.1464 6.617C90.5298 7.01167 90.0488 7.52967 89.7034 8.171C89.3581 8.81233 89.1854 9.49067 89.1854 10.206C89.1854 10.8967 89.3581 11.575 89.7034 12.241C90.0488 12.8823 90.5298 13.4003 91.1464 13.795C91.7631 14.1897 92.4661 14.387 93.2554 14.387ZM111.385 31.444C110.029 31.444 108.808 31.1233 107.722 30.482C106.637 29.816 105.761 28.9403 105.095 27.855C104.454 26.7697 104.133 25.561 104.133 24.229C104.133 22.897 104.454 21.6883 105.095 20.603C105.761 19.493 106.637 18.6173 107.722 17.976C108.808 17.3347 110.029 17.014 111.385 17.014C112.717 17.014 113.926 17.3347 115.011 17.976C116.097 18.6173 116.96 19.493 117.601 20.603C118.243 21.6883 118.563 22.897 118.563 24.229C118.563 25.561 118.243 26.7697 117.601 27.855C116.96 28.9403 116.097 29.816 115.011 30.482C113.926 31.1233 112.717 31.444 111.385 31.444ZM111.385 28.41C112.199 28.41 112.902 28.2127 113.494 27.818C114.111 27.4233 114.58 26.9053 114.9 26.264C115.246 25.6227 115.418 24.9443 115.418 24.229C115.418 23.489 115.246 22.8107 114.9 22.194C114.58 21.5527 114.111 21.0347 113.494 20.64C112.902 20.2207 112.199 20.011 111.385 20.011C110.596 20.011 109.881 20.2207 109.239 20.64C108.623 21.0347 108.142 21.5527 107.796 22.194C107.451 22.8353 107.278 23.5137 107.278 24.229C107.278 24.9197 107.451 25.598 107.796 26.264C108.142 26.9053 108.623 27.4233 109.239 27.818C109.881 28.2127 110.596 28.41 111.385 28.41Z" fill="#5E2FD3"/>
</svg>
