<svg width="25" height="24" viewBox="0 0 25 24" fill="none" xmlns="http://www.w3.org/2000/svg">
<mask id="mask0_1174_377" style="mask-type:alpha" maskUnits="userSpaceOnUse" x="0" y="0" width="25" height="24">
<rect x="0.5" width="24" height="24" fill="#D9D9D9"/>
</mask>
<g mask="url(#mask0_1174_377)">
<path d="M6.5 20.9997C5.75 20.9997 5.00833 20.8164 4.275 20.4497C3.54167 20.0831 2.95 19.5997 2.5 18.9997C2.93333 18.9997 3.375 18.8289 3.825 18.4872C4.275 18.1456 4.5 17.6497 4.5 16.9997C4.5 16.1664 4.79167 15.4581 5.375 14.8747C5.95833 14.2914 6.66667 13.9997 7.5 13.9997C8.33333 13.9997 9.04167 14.2914 9.625 14.8747C10.2083 15.4581 10.5 16.1664 10.5 16.9997C10.5 18.0997 10.1083 19.0414 9.325 19.8247C8.54167 20.6081 7.6 20.9997 6.5 20.9997ZM6.5 18.9997C7.05 18.9997 7.52083 18.8039 7.9125 18.4122C8.30417 18.0206 8.5 17.5497 8.5 16.9997C8.5 16.7164 8.40417 16.4789 8.2125 16.2872C8.02083 16.0956 7.78333 15.9997 7.5 15.9997C7.21667 15.9997 6.97917 16.0956 6.7875 16.2872C6.59583 16.4789 6.5 16.7164 6.5 16.9997C6.5 17.3831 6.45417 17.7331 6.3625 18.0497C6.27083 18.3664 6.15 18.6664 6 18.9497C6.08333 18.9831 6.16667 18.9997 6.25 18.9997H6.5ZM12.25 14.9997L9.5 12.2497L18.45 3.29972C18.6333 3.11639 18.8625 3.02055 19.1375 3.01222C19.4125 3.00389 19.65 3.09972 19.85 3.29972L21.2 4.64972C21.4 4.84972 21.5 5.08305 21.5 5.34972C21.5 5.61639 21.4 5.84972 21.2 6.04972L12.25 14.9997Z" fill="#5E2FD3"/>
</g>
</svg>
