<svg width="287" height="32" viewBox="0 0 287 32" fill="none" xmlns="http://www.w3.org/2000/svg">
<mask id="mask0_1174_642" style="mask-type:alpha" maskUnits="userSpaceOnUse" x="0" y="4" width="25" height="24">
<rect x="0.167969" y="4" width="24" height="24" fill="#D9D9D9"/>
</mask>
<g mask="url(#mask0_1174_642)">
<path d="M10.168 27V25H5.16797C4.61797 25 4.14714 24.8042 3.75547 24.4125C3.3638 24.0208 3.16797 23.55 3.16797 23V9C3.16797 8.45 3.3638 7.97917 3.75547 7.5875C4.14714 7.19583 4.61797 7 5.16797 7H10.168V5H12.168V27H10.168ZM5.16797 22H10.168V16L5.16797 22ZM14.168 25V16L19.168 22V9H14.168V7H19.168C19.718 7 20.1888 7.19583 20.5805 7.5875C20.9721 7.97917 21.168 8.45 21.168 9V23C21.168 23.55 20.9721 24.0208 20.5805 24.4125C20.1888 24.8042 19.718 25 19.168 25H14.168Z" fill="#5E2FD3"/>
</g>
<path d="M44.224 24.228C43.2233 24.228 42.2923 24.0443 41.431 23.677C40.5823 23.3097 39.8413 22.803 39.208 22.157C38.5873 21.4983 38.0996 20.7257 37.745 19.839C37.3903 18.9523 37.213 17.977 37.213 16.913C37.213 15.8617 37.384 14.8927 37.726 14.006C38.0806 13.1067 38.5746 12.334 39.208 11.688C39.8413 11.0293 40.5823 10.5227 41.431 10.168C42.2796 9.80067 43.2106 9.617 44.224 9.617C45.2246 9.617 46.1176 9.788 46.903 10.13C47.701 10.472 48.3723 10.9217 48.917 11.479C49.4616 12.0237 49.8543 12.619 50.095 13.265L48.081 14.215C47.777 13.455 47.2893 12.8407 46.618 12.372C45.9593 11.8907 45.1613 11.65 44.224 11.65C43.2866 11.65 42.457 11.8717 41.735 12.315C41.013 12.7583 40.4493 13.3727 40.044 14.158C39.6513 14.9433 39.455 15.8617 39.455 16.913C39.455 17.9643 39.6513 18.889 40.044 19.687C40.4493 20.4723 41.013 21.0867 41.735 21.53C42.457 21.9607 43.2866 22.176 44.224 22.176C45.1613 22.176 45.9593 21.9417 46.618 21.473C47.2893 21.0043 47.777 20.39 48.081 19.63L50.095 20.58C49.8543 21.2133 49.4616 21.8087 48.917 22.366C48.3723 22.9233 47.701 23.373 46.903 23.715C46.1176 24.057 45.2246 24.228 44.224 24.228ZM56.965 24.228C55.977 24.228 55.0713 23.9937 54.248 23.525C53.4373 23.0563 52.7913 22.4167 52.31 21.606C51.8286 20.7953 51.588 19.877 51.588 18.851C51.588 17.8123 51.8286 16.894 52.31 16.096C52.7913 15.2853 53.4373 14.652 54.248 14.196C55.0586 13.7273 55.9643 13.493 56.965 13.493C57.9783 13.493 58.884 13.7273 59.682 14.196C60.4926 14.652 61.1323 15.2853 61.601 16.096C62.0823 16.894 62.323 17.8123 62.323 18.851C62.323 19.8897 62.0823 20.8143 61.601 21.625C61.1196 22.4357 60.4736 23.0753 59.663 23.544C58.8523 24 57.953 24.228 56.965 24.228ZM56.965 22.233C57.573 22.233 58.1113 22.0873 58.58 21.796C59.0486 21.5047 59.416 21.1057 59.682 20.599C59.9606 20.0797 60.1 19.497 60.1 18.851C60.1 18.205 59.9606 17.6287 59.682 17.122C59.416 16.6153 59.0486 16.2163 58.58 15.925C58.1113 15.6337 57.573 15.488 56.965 15.488C56.3696 15.488 55.8313 15.6337 55.35 15.925C54.8813 16.2163 54.5076 16.6153 54.229 17.122C53.963 17.6287 53.83 18.205 53.83 18.851C53.83 19.497 53.963 20.0797 54.229 20.599C54.5076 21.1057 54.8813 21.5047 55.35 21.796C55.8313 22.0873 56.3696 22.233 56.965 22.233ZM64.419 24V13.721H66.471V15.944L66.205 15.602C66.4204 14.9053 66.813 14.3797 67.383 14.025C67.953 13.6703 68.6054 13.493 69.34 13.493C70.1634 13.493 70.8917 13.7147 71.525 14.158C72.171 14.5887 72.6017 15.165 72.817 15.887L72.209 15.944C72.513 15.1207 72.9754 14.5063 73.596 14.101C74.2294 13.6957 74.9514 13.493 75.762 13.493C76.4714 13.493 77.111 13.6577 77.681 13.987C78.2637 14.3163 78.726 14.7723 79.068 15.355C79.41 15.9377 79.581 16.6027 79.581 17.35V24H77.434V17.939C77.434 17.4197 77.339 16.9827 77.149 16.628C76.9717 16.2607 76.7184 15.982 76.389 15.792C76.0724 15.5893 75.6987 15.488 75.268 15.488C74.8374 15.488 74.4574 15.5893 74.128 15.792C73.7987 15.982 73.539 16.2607 73.349 16.628C73.159 16.9953 73.064 17.4323 73.064 17.939V24H70.936V17.939C70.936 17.4197 70.841 16.9827 70.651 16.628C70.4737 16.2607 70.2204 15.982 69.891 15.792C69.5744 15.5893 69.1944 15.488 68.751 15.488C68.3204 15.488 67.9404 15.5893 67.611 15.792C67.2817 15.982 67.022 16.2607 66.832 16.628C66.6547 16.9953 66.566 17.4323 66.566 17.939V24H64.419ZM81.879 27.8V13.721H83.931V15.849L83.684 15.355C84.064 14.7723 84.5707 14.3163 85.204 13.987C85.8373 13.6577 86.5593 13.493 87.37 13.493C88.3453 13.493 89.2193 13.7273 89.992 14.196C90.7773 14.6647 91.3917 15.3043 91.835 16.115C92.291 16.9257 92.519 17.8377 92.519 18.851C92.519 19.8643 92.291 20.7763 91.835 21.587C91.3917 22.3977 90.7837 23.0437 90.011 23.525C89.2383 23.9937 88.358 24.228 87.37 24.228C86.572 24.228 85.8437 24.0633 85.185 23.734C84.539 23.4047 84.0387 22.9297 83.684 22.309L84.026 21.91V27.8H81.879ZM87.161 22.233C87.769 22.233 88.3073 22.0873 88.776 21.796C89.2447 21.5047 89.612 21.1057 89.878 20.599C90.1567 20.0797 90.296 19.497 90.296 18.851C90.296 18.205 90.1567 17.6287 89.878 17.122C89.612 16.6153 89.2447 16.2163 88.776 15.925C88.3073 15.6337 87.769 15.488 87.161 15.488C86.5657 15.488 86.0273 15.6337 85.546 15.925C85.0773 16.2163 84.7037 16.6153 84.425 17.122C84.159 17.6287 84.026 18.205 84.026 18.851C84.026 19.497 84.159 20.0797 84.425 20.599C84.7037 21.1057 85.0773 21.5047 85.546 21.796C86.0273 22.0873 86.5657 22.233 87.161 22.233ZM97.6855 24.228C96.9888 24.228 96.3745 24.1077 95.8425 23.867C95.3232 23.6137 94.9178 23.2717 94.6265 22.841C94.3352 22.3977 94.1895 21.8783 94.1895 21.283C94.1895 20.7257 94.3098 20.2253 94.5505 19.782C94.8038 19.3387 95.1902 18.965 95.7095 18.661C96.2288 18.357 96.8812 18.1417 97.6665 18.015L101.239 17.426V19.117L98.0845 19.668C97.5145 19.7693 97.0965 19.953 96.8305 20.219C96.5645 20.4723 96.4315 20.8017 96.4315 21.207C96.4315 21.5997 96.5772 21.9227 96.8685 22.176C97.1725 22.4167 97.5588 22.537 98.0275 22.537C98.6102 22.537 99.1168 22.4103 99.5475 22.157C99.9908 21.9037 100.333 21.568 100.574 21.15C100.814 20.7193 100.935 20.2443 100.935 19.725V17.084C100.935 16.5773 100.745 16.1657 100.365 15.849C99.9972 15.5197 99.5032 15.355 98.8825 15.355C98.3125 15.355 97.8122 15.507 97.3815 15.811C96.9635 16.1023 96.6532 16.4823 96.4505 16.951L94.6645 16.058C94.8545 15.5513 95.1648 15.108 95.5955 14.728C96.0262 14.3353 96.5265 14.0313 97.0965 13.816C97.6792 13.6007 98.2935 13.493 98.9395 13.493C99.7502 13.493 100.466 13.645 101.087 13.949C101.72 14.253 102.208 14.6773 102.55 15.222C102.904 15.754 103.082 16.3747 103.082 17.084V24H101.03V22.138L101.467 22.195C101.226 22.613 100.916 22.974 100.536 23.278C100.168 23.582 99.7438 23.8163 99.2625 23.981C98.7938 24.1457 98.2682 24.228 97.6855 24.228ZM105.592 24V13.721H107.644V15.792L107.454 15.488C107.682 14.8167 108.049 14.3353 108.556 14.044C109.063 13.74 109.671 13.588 110.38 13.588H111.007V15.545H110.114C109.405 15.545 108.828 15.7667 108.385 16.21C107.954 16.6407 107.739 17.2613 107.739 18.072V24H105.592ZM117.302 24.228C116.276 24.228 115.364 23.9937 114.566 23.525C113.78 23.0437 113.166 22.3977 112.723 21.587C112.279 20.7637 112.058 19.8453 112.058 18.832C112.058 17.7933 112.279 16.875 112.723 16.077C113.179 15.279 113.787 14.652 114.547 14.196C115.307 13.7273 116.168 13.493 117.131 13.493C117.903 13.493 118.594 13.626 119.202 13.892C119.81 14.158 120.323 14.5253 120.741 14.994C121.159 15.45 121.475 15.9757 121.691 16.571C121.919 17.1663 122.033 17.7997 122.033 18.471C122.033 18.6357 122.026 18.8067 122.014 18.984C122.001 19.1613 121.976 19.326 121.938 19.478H113.749V17.768H120.722L119.696 18.547C119.822 17.9263 119.778 17.3753 119.563 16.894C119.36 16.4 119.043 16.0137 118.613 15.735C118.195 15.4437 117.701 15.298 117.131 15.298C116.561 15.298 116.054 15.4437 115.611 15.735C115.167 16.0137 114.825 16.419 114.585 16.951C114.344 17.4703 114.249 18.1037 114.3 18.851C114.236 19.5477 114.331 20.1557 114.585 20.675C114.851 21.1943 115.218 21.5997 115.687 21.891C116.168 22.1823 116.713 22.328 117.321 22.328C117.941 22.328 118.467 22.1887 118.898 21.91C119.341 21.6313 119.689 21.2703 119.943 20.827L121.691 21.682C121.488 22.1633 121.171 22.6003 120.741 22.993C120.323 23.373 119.816 23.677 119.221 23.905C118.638 24.1203 117.998 24.228 117.302 24.228ZM127.449 24V9.617H129.596V15.735L129.254 15.469C129.508 14.823 129.913 14.3353 130.47 14.006C131.028 13.664 131.674 13.493 132.408 13.493C133.168 13.493 133.84 13.6577 134.422 13.987C135.005 14.3163 135.461 14.7723 135.79 15.355C136.12 15.9377 136.284 16.6027 136.284 17.35V24H134.156V17.939C134.156 17.4197 134.055 16.9827 133.852 16.628C133.662 16.2607 133.396 15.982 133.054 15.792C132.712 15.5893 132.32 15.488 131.876 15.488C131.446 15.488 131.053 15.5893 130.698 15.792C130.356 15.982 130.084 16.2607 129.881 16.628C129.691 16.9953 129.596 17.4323 129.596 17.939V24H127.449ZM143.541 24.228C142.553 24.228 141.647 23.9937 140.824 23.525C140.013 23.0563 139.367 22.4167 138.886 21.606C138.405 20.7953 138.164 19.877 138.164 18.851C138.164 17.8123 138.405 16.894 138.886 16.096C139.367 15.2853 140.013 14.652 140.824 14.196C141.635 13.7273 142.54 13.493 143.541 13.493C144.554 13.493 145.46 13.7273 146.258 14.196C147.069 14.652 147.708 15.2853 148.177 16.096C148.658 16.894 148.899 17.8123 148.899 18.851C148.899 19.8897 148.658 20.8143 148.177 21.625C147.696 22.4357 147.05 23.0753 146.239 23.544C145.428 24 144.529 24.228 143.541 24.228ZM143.541 22.233C144.149 22.233 144.687 22.0873 145.156 21.796C145.625 21.5047 145.992 21.1057 146.258 20.599C146.537 20.0797 146.676 19.497 146.676 18.851C146.676 18.205 146.537 17.6287 146.258 17.122C145.992 16.6153 145.625 16.2163 145.156 15.925C144.687 15.6337 144.149 15.488 143.541 15.488C142.946 15.488 142.407 15.6337 141.926 15.925C141.457 16.2163 141.084 16.6153 140.805 17.122C140.539 17.6287 140.406 18.205 140.406 18.851C140.406 19.497 140.539 20.0797 140.805 20.599C141.084 21.1057 141.457 21.5047 141.926 21.796C142.407 22.0873 142.946 22.233 143.541 22.233ZM154.662 24.228C153.89 24.228 153.212 24.057 152.629 23.715C152.047 23.3603 151.591 22.8727 151.261 22.252C150.945 21.6187 150.786 20.8903 150.786 20.067V13.721H152.933V19.877C152.933 20.3457 153.028 20.7573 153.218 21.112C153.408 21.4667 153.674 21.7453 154.016 21.948C154.358 22.138 154.751 22.233 155.194 22.233C155.65 22.233 156.049 22.1317 156.391 21.929C156.733 21.7263 156.999 21.4413 157.189 21.074C157.392 20.7067 157.493 20.276 157.493 19.782V13.721H159.621V24H157.588V21.986L157.816 22.252C157.576 22.8853 157.177 23.373 156.619 23.715C156.062 24.057 155.41 24.228 154.662 24.228ZM165.928 24.228C164.877 24.228 163.952 23.9683 163.154 23.449C162.369 22.9297 161.818 22.233 161.501 21.359L163.154 20.58C163.433 21.1627 163.813 21.625 164.294 21.967C164.788 22.309 165.333 22.48 165.928 22.48C166.435 22.48 166.846 22.366 167.163 22.138C167.48 21.91 167.638 21.5997 167.638 21.207C167.638 20.9537 167.568 20.751 167.429 20.599C167.29 20.4343 167.112 20.3013 166.897 20.2C166.694 20.0987 166.485 20.0227 166.27 19.972L164.655 19.516C163.768 19.2627 163.103 18.8827 162.66 18.376C162.229 17.8567 162.014 17.255 162.014 16.571C162.014 15.9503 162.172 15.412 162.489 14.956C162.806 14.4873 163.243 14.1263 163.8 13.873C164.357 13.6197 164.984 13.493 165.681 13.493C166.618 13.493 167.454 13.7273 168.189 14.196C168.924 14.652 169.443 15.2917 169.747 16.115L168.094 16.894C167.891 16.4 167.568 16.0073 167.125 15.716C166.694 15.4247 166.207 15.279 165.662 15.279C165.193 15.279 164.82 15.393 164.541 15.621C164.262 15.8363 164.123 16.1213 164.123 16.476C164.123 16.7167 164.186 16.9193 164.313 17.084C164.44 17.236 164.604 17.3627 164.807 17.464C165.01 17.5527 165.219 17.6287 165.434 17.692L167.106 18.186C167.955 18.4267 168.607 18.8067 169.063 19.326C169.519 19.8327 169.747 20.4407 169.747 21.15C169.747 21.758 169.582 22.2963 169.253 22.765C168.936 23.221 168.493 23.582 167.923 23.848C167.353 24.1013 166.688 24.228 165.928 24.228ZM176.677 24.228C175.651 24.228 174.739 23.9937 173.941 23.525C173.155 23.0437 172.541 22.3977 172.098 21.587C171.654 20.7637 171.433 19.8453 171.433 18.832C171.433 17.7933 171.654 16.875 172.098 16.077C172.554 15.279 173.162 14.652 173.922 14.196C174.682 13.7273 175.543 13.493 176.506 13.493C177.278 13.493 177.969 13.626 178.577 13.892C179.185 14.158 179.698 14.5253 180.116 14.994C180.534 15.45 180.85 15.9757 181.066 16.571C181.294 17.1663 181.408 17.7997 181.408 18.471C181.408 18.6357 181.401 18.8067 181.389 18.984C181.376 19.1613 181.351 19.326 181.313 19.478H173.124V17.768H180.097L179.071 18.547C179.197 17.9263 179.153 17.3753 178.938 16.894C178.735 16.4 178.418 16.0137 177.988 15.735C177.57 15.4437 177.076 15.298 176.506 15.298C175.936 15.298 175.429 15.4437 174.986 15.735C174.542 16.0137 174.2 16.419 173.96 16.951C173.719 17.4703 173.624 18.1037 173.675 18.851C173.611 19.5477 173.706 20.1557 173.96 20.675C174.226 21.1943 174.593 21.5997 175.062 21.891C175.543 22.1823 176.088 22.328 176.696 22.328C177.316 22.328 177.842 22.1887 178.273 21.91C178.716 21.6313 179.064 21.2703 179.318 20.827L181.066 21.682C180.863 22.1633 180.546 22.6003 180.116 22.993C179.698 23.373 179.191 23.677 178.596 23.905C178.013 24.1203 177.373 24.228 176.677 24.228ZM187.303 24.228C186.252 24.228 185.327 23.9683 184.529 23.449C183.744 22.9297 183.193 22.233 182.876 21.359L184.529 20.58C184.808 21.1627 185.188 21.625 185.669 21.967C186.163 22.309 186.708 22.48 187.303 22.48C187.81 22.48 188.221 22.366 188.538 22.138C188.855 21.91 189.013 21.5997 189.013 21.207C189.013 20.9537 188.943 20.751 188.804 20.599C188.665 20.4343 188.487 20.3013 188.272 20.2C188.069 20.0987 187.86 20.0227 187.645 19.972L186.03 19.516C185.143 19.2627 184.478 18.8827 184.035 18.376C183.604 17.8567 183.389 17.255 183.389 16.571C183.389 15.9503 183.547 15.412 183.864 14.956C184.181 14.4873 184.618 14.1263 185.175 13.873C185.732 13.6197 186.359 13.493 187.056 13.493C187.993 13.493 188.829 13.7273 189.564 14.196C190.299 14.652 190.818 15.2917 191.122 16.115L189.469 16.894C189.266 16.4 188.943 16.0073 188.5 15.716C188.069 15.4247 187.582 15.279 187.037 15.279C186.568 15.279 186.195 15.393 185.916 15.621C185.637 15.8363 185.498 16.1213 185.498 16.476C185.498 16.7167 185.561 16.9193 185.688 17.084C185.815 17.236 185.979 17.3627 186.182 17.464C186.385 17.5527 186.594 17.6287 186.809 17.692L188.481 18.186C189.33 18.4267 189.982 18.8067 190.438 19.326C190.894 19.8327 191.122 20.4407 191.122 21.15C191.122 21.758 190.957 22.2963 190.628 22.765C190.311 23.221 189.868 23.582 189.298 23.848C188.728 24.1013 188.063 24.228 187.303 24.228ZM197.706 24V15.659H195.806V13.721H197.706V13.189C197.706 12.4163 197.864 11.7703 198.181 11.251C198.498 10.719 198.935 10.3137 199.492 10.035C200.062 9.75633 200.714 9.617 201.449 9.617C201.588 9.617 201.747 9.62967 201.924 9.655C202.101 9.66767 202.247 9.68667 202.361 9.712V11.574C202.26 11.5487 202.146 11.536 202.019 11.536C201.892 11.5233 201.791 11.517 201.715 11.517C201.145 11.517 200.689 11.65 200.347 11.916C200.005 12.1693 199.834 12.5937 199.834 13.189V13.721H202.19V15.659H199.834V24H197.706ZM208.628 24.228C207.602 24.228 206.69 23.9937 205.892 23.525C205.107 23.0437 204.492 22.3977 204.049 21.587C203.606 20.7637 203.384 19.8453 203.384 18.832C203.384 17.7933 203.606 16.875 204.049 16.077C204.505 15.279 205.113 14.652 205.873 14.196C206.633 13.7273 207.494 13.493 208.457 13.493C209.23 13.493 209.92 13.626 210.528 13.892C211.136 14.158 211.649 14.5253 212.067 14.994C212.485 15.45 212.802 15.9757 213.017 16.571C213.245 17.1663 213.359 17.7997 213.359 18.471C213.359 18.6357 213.353 18.8067 213.34 18.984C213.327 19.1613 213.302 19.326 213.264 19.478H205.075V17.768H212.048L211.022 18.547C211.149 17.9263 211.104 17.3753 210.889 16.894C210.686 16.4 210.37 16.0137 209.939 15.735C209.521 15.4437 209.027 15.298 208.457 15.298C207.887 15.298 207.38 15.4437 206.937 15.735C206.494 16.0137 206.152 16.419 205.911 16.951C205.67 17.4703 205.575 18.1037 205.626 18.851C205.563 19.5477 205.658 20.1557 205.911 20.675C206.177 21.1943 206.544 21.5997 207.013 21.891C207.494 22.1823 208.039 22.328 208.647 22.328C209.268 22.328 209.793 22.1887 210.224 21.91C210.667 21.6313 211.016 21.2703 211.269 20.827L213.017 21.682C212.814 22.1633 212.498 22.6003 212.067 22.993C211.649 23.373 211.142 23.677 210.547 23.905C209.964 24.1203 209.325 24.228 208.628 24.228ZM218.439 24.228C217.743 24.228 217.128 24.1077 216.596 23.867C216.077 23.6137 215.672 23.2717 215.38 22.841C215.089 22.3977 214.943 21.8783 214.943 21.283C214.943 20.7257 215.064 20.2253 215.304 19.782C215.558 19.3387 215.944 18.965 216.463 18.661C216.983 18.357 217.635 18.1417 218.42 18.015L221.992 17.426V19.117L218.838 19.668C218.268 19.7693 217.85 19.953 217.584 20.219C217.318 20.4723 217.185 20.8017 217.185 21.207C217.185 21.5997 217.331 21.9227 217.622 22.176C217.926 22.4167 218.313 22.537 218.781 22.537C219.364 22.537 219.871 22.4103 220.301 22.157C220.745 21.9037 221.087 21.568 221.327 21.15C221.568 20.7193 221.688 20.2443 221.688 19.725V17.084C221.688 16.5773 221.498 16.1657 221.118 15.849C220.751 15.5197 220.257 15.355 219.636 15.355C219.066 15.355 218.566 15.507 218.135 15.811C217.717 16.1023 217.407 16.4823 217.204 16.951L215.418 16.058C215.608 15.5513 215.919 15.108 216.349 14.728C216.78 14.3353 217.28 14.0313 217.85 13.816C218.433 13.6007 219.047 13.493 219.693 13.493C220.504 13.493 221.22 13.645 221.84 13.949C222.474 14.253 222.961 14.6773 223.303 15.222C223.658 15.754 223.835 16.3747 223.835 17.084V24H221.783V22.138L222.22 22.195C221.98 22.613 221.669 22.974 221.289 23.278C220.922 23.582 220.498 23.8163 220.016 23.981C219.548 24.1457 219.022 24.228 218.439 24.228ZM230.606 24.114C229.53 24.114 228.694 23.81 228.098 23.202C227.503 22.594 227.205 21.739 227.205 20.637V15.659H225.4V13.721H225.685C226.167 13.721 226.54 13.5817 226.806 13.303C227.072 13.0243 227.205 12.6443 227.205 12.163V11.365H229.352V13.721H231.689V15.659H229.352V20.542C229.352 20.8967 229.409 21.2007 229.523 21.454C229.637 21.6947 229.821 21.8847 230.074 22.024C230.328 22.1507 230.657 22.214 231.062 22.214C231.164 22.214 231.278 22.2077 231.404 22.195C231.531 22.1823 231.651 22.1697 231.765 22.157V24C231.588 24.0253 231.392 24.0507 231.176 24.076C230.961 24.1013 230.771 24.114 230.606 24.114ZM237.527 24.228C236.755 24.228 236.077 24.057 235.494 23.715C234.912 23.3603 234.456 22.8727 234.126 22.252C233.81 21.6187 233.651 20.8903 233.651 20.067V13.721H235.798V19.877C235.798 20.3457 235.893 20.7573 236.083 21.112C236.273 21.4667 236.539 21.7453 236.881 21.948C237.223 22.138 237.616 22.233 238.059 22.233C238.515 22.233 238.914 22.1317 239.256 21.929C239.598 21.7263 239.864 21.4413 240.054 21.074C240.257 20.7067 240.358 20.276 240.358 19.782V13.721H242.486V24H240.453V21.986L240.681 22.252C240.441 22.8853 240.042 23.373 239.484 23.715C238.927 24.057 238.275 24.228 237.527 24.228ZM244.993 24V13.721H247.045V15.792L246.855 15.488C247.083 14.8167 247.451 14.3353 247.957 14.044C248.464 13.74 249.072 13.588 249.781 13.588H250.408V15.545H249.515C248.806 15.545 248.23 15.7667 247.786 16.21C247.356 16.6407 247.14 17.2613 247.14 18.072V24H244.993ZM256.703 24.228C255.677 24.228 254.765 23.9937 253.967 23.525C253.182 23.0437 252.567 22.3977 252.124 21.587C251.681 20.7637 251.459 19.8453 251.459 18.832C251.459 17.7933 251.681 16.875 252.124 16.077C252.58 15.279 253.188 14.652 253.948 14.196C254.708 13.7273 255.569 13.493 256.532 13.493C257.305 13.493 257.995 13.626 258.603 13.892C259.211 14.158 259.724 14.5253 260.142 14.994C260.56 15.45 260.877 15.9757 261.092 16.571C261.32 17.1663 261.434 17.7997 261.434 18.471C261.434 18.6357 261.428 18.8067 261.415 18.984C261.402 19.1613 261.377 19.326 261.339 19.478H253.15V17.768H260.123L259.097 18.547C259.224 17.9263 259.179 17.3753 258.964 16.894C258.761 16.4 258.445 16.0137 258.014 15.735C257.596 15.4437 257.102 15.298 256.532 15.298C255.962 15.298 255.455 15.4437 255.012 15.735C254.569 16.0137 254.227 16.419 253.986 16.951C253.745 17.4703 253.65 18.1037 253.701 18.851C253.638 19.5477 253.733 20.1557 253.986 20.675C254.252 21.1943 254.619 21.5997 255.088 21.891C255.569 22.1823 256.114 22.328 256.722 22.328C257.343 22.328 257.868 22.1887 258.299 21.91C258.742 21.6313 259.091 21.2703 259.344 20.827L261.092 21.682C260.889 22.1633 260.573 22.6003 260.142 22.993C259.724 23.373 259.217 23.677 258.622 23.905C258.039 24.1203 257.4 24.228 256.703 24.228Z" fill="#5E2FD3"/>
</svg>
