<svg width="288" height="32" viewBox="0 0 288 32" fill="none" xmlns="http://www.w3.org/2000/svg">
<mask id="mask0_1174_327" style="mask-type:alpha" maskUnits="userSpaceOnUse" x="0" y="4" width="25" height="24">
<rect x="0.833984" y="4" width="24" height="24" fill="#D9D9D9"/>
</mask>
<g mask="url(#mask0_1174_327)">
<path d="M5.83398 26C5.28398 26 4.81315 25.8042 4.42148 25.4125C4.02982 25.0208 3.83398 24.55 3.83398 24V10C3.83398 9.45 4.02982 8.97917 4.42148 8.5875C4.81315 8.19583 5.28398 8 5.83398 8H6.83398V6H8.83398V8H16.834V6H18.834V8H19.834C20.384 8 20.8548 8.19583 21.2465 8.5875C21.6382 8.97917 21.834 9.45 21.834 10V24C21.834 24.55 21.6382 25.0208 21.2465 25.4125C20.8548 25.8042 20.384 26 19.834 26H5.83398ZM5.83398 24H19.834V14H5.83398V24ZM5.83398 12H19.834V10H5.83398V12ZM12.834 18C12.5507 18 12.3132 17.9042 12.1215 17.7125C11.9298 17.5208 11.834 17.2833 11.834 17C11.834 16.7167 11.9298 16.4792 12.1215 16.2875C12.3132 16.0958 12.5507 16 12.834 16C13.1173 16 13.3548 16.0958 13.5465 16.2875C13.7382 16.4792 13.834 16.7167 13.834 17C13.834 17.2833 13.7382 17.5208 13.5465 17.7125C13.3548 17.9042 13.1173 18 12.834 18ZM8.83398 18C8.55065 18 8.31315 17.9042 8.12148 17.7125C7.92982 17.5208 7.83398 17.2833 7.83398 17C7.83398 16.7167 7.92982 16.4792 8.12148 16.2875C8.31315 16.0958 8.55065 16 8.83398 16C9.11732 16 9.35482 16.0958 9.54648 16.2875C9.73815 16.4792 9.83398 16.7167 9.83398 17C9.83398 17.2833 9.73815 17.5208 9.54648 17.7125C9.35482 17.9042 9.11732 18 8.83398 18ZM16.834 18C16.5507 18 16.3132 17.9042 16.1215 17.7125C15.9298 17.5208 15.834 17.2833 15.834 17C15.834 16.7167 15.9298 16.4792 16.1215 16.2875C16.3132 16.0958 16.5507 16 16.834 16C17.1173 16 17.3548 16.0958 17.5465 16.2875C17.7382 16.4792 17.834 16.7167 17.834 17C17.834 17.2833 17.7382 17.5208 17.5465 17.7125C17.3548 17.9042 17.1173 18 16.834 18ZM12.834 22C12.5507 22 12.3132 21.9042 12.1215 21.7125C11.9298 21.5208 11.834 21.2833 11.834 21C11.834 20.7167 11.9298 20.4792 12.1215 20.2875C12.3132 20.0958 12.5507 20 12.834 20C13.1173 20 13.3548 20.0958 13.5465 20.2875C13.7382 20.4792 13.834 20.7167 13.834 21C13.834 21.2833 13.7382 21.5208 13.5465 21.7125C13.3548 21.9042 13.1173 22 12.834 22ZM8.83398 22C8.55065 22 8.31315 21.9042 8.12148 21.7125C7.92982 21.5208 7.83398 21.2833 7.83398 21C7.83398 20.7167 7.92982 20.4792 8.12148 20.2875C8.31315 20.0958 8.55065 20 8.83398 20C9.11732 20 9.35482 20.0958 9.54648 20.2875C9.73815 20.4792 9.83398 20.7167 9.83398 21C9.83398 21.2833 9.73815 21.5208 9.54648 21.7125C9.35482 21.9042 9.11732 22 8.83398 22ZM16.834 22C16.5507 22 16.3132 21.9042 16.1215 21.7125C15.9298 21.5208 15.834 21.2833 15.834 21C15.834 20.7167 15.9298 20.4792 16.1215 20.2875C16.3132 20.0958 16.5507 20 16.834 20C17.1173 20 17.3548 20.0958 17.5465 20.2875C17.7382 20.4792 17.834 20.7167 17.834 21C17.834 21.2833 17.7382 21.5208 17.5465 21.7125C17.3548 21.9042 17.1173 22 16.834 22Z" fill="#5E2FD3"/>
</g>
<path d="M37.043 24L42.021 9.845H44.795L49.773 24H47.379L46.296 20.827H40.539L39.437 24H37.043ZM41.185 18.832H45.612L43.104 11.422H43.731L41.185 18.832ZM51.2433 27.8V13.721H53.2953V15.849L53.0483 15.355C53.4283 14.7723 53.9349 14.3163 54.5683 13.987C55.2016 13.6577 55.9236 13.493 56.7343 13.493C57.7096 13.493 58.5836 13.7273 59.3563 14.196C60.1416 14.6647 60.7559 15.3043 61.1993 16.115C61.6553 16.9257 61.8833 17.8377 61.8833 18.851C61.8833 19.8643 61.6553 20.7763 61.1993 21.587C60.7559 22.3977 60.1479 23.0437 59.3753 23.525C58.6026 23.9937 57.7223 24.228 56.7343 24.228C55.9363 24.228 55.2079 24.0633 54.5493 23.734C53.9033 23.4047 53.4029 22.9297 53.0483 22.309L53.3903 21.91V27.8H51.2433ZM56.5253 22.233C57.1333 22.233 57.6716 22.0873 58.1403 21.796C58.6089 21.5047 58.9763 21.1057 59.2423 20.599C59.5209 20.0797 59.6603 19.497 59.6603 18.851C59.6603 18.205 59.5209 17.6287 59.2423 17.122C58.9763 16.6153 58.6089 16.2163 58.1403 15.925C57.6716 15.6337 57.1333 15.488 56.5253 15.488C55.9299 15.488 55.3916 15.6337 54.9103 15.925C54.4416 16.2163 54.0679 16.6153 53.7893 17.122C53.5233 17.6287 53.3903 18.205 53.3903 18.851C53.3903 19.497 53.5233 20.0797 53.7893 20.599C54.0679 21.1057 54.4416 21.5047 54.9103 21.796C55.3916 22.0873 55.9299 22.233 56.5253 22.233ZM63.9718 27.8V13.721H66.0238V15.849L65.7768 15.355C66.1568 14.7723 66.6634 14.3163 67.2968 13.987C67.9301 13.6577 68.6521 13.493 69.4628 13.493C70.4381 13.493 71.3121 13.7273 72.0848 14.196C72.8701 14.6647 73.4844 15.3043 73.9278 16.115C74.3838 16.9257 74.6118 17.8377 74.6118 18.851C74.6118 19.8643 74.3838 20.7763 73.9278 21.587C73.4844 22.3977 72.8764 23.0437 72.1038 23.525C71.3311 23.9937 70.4508 24.228 69.4628 24.228C68.6648 24.228 67.9364 24.0633 67.2778 23.734C66.6318 23.4047 66.1314 22.9297 65.7768 22.309L66.1188 21.91V27.8H63.9718ZM69.2538 22.233C69.8618 22.233 70.4001 22.0873 70.8688 21.796C71.3374 21.5047 71.7048 21.1057 71.9708 20.599C72.2494 20.0797 72.3888 19.497 72.3888 18.851C72.3888 18.205 72.2494 17.6287 71.9708 17.122C71.7048 16.6153 71.3374 16.2163 70.8688 15.925C70.4001 15.6337 69.8618 15.488 69.2538 15.488C68.6584 15.488 68.1201 15.6337 67.6388 15.925C67.1701 16.2163 66.7964 16.6153 66.5178 17.122C66.2518 17.6287 66.1188 18.205 66.1188 18.851C66.1188 19.497 66.2518 20.0797 66.5178 20.599C66.7964 21.1057 67.1701 21.5047 67.6388 21.796C68.1201 22.0873 68.6584 22.233 69.2538 22.233ZM81.6593 24.228C80.6713 24.228 79.7656 23.9937 78.9423 23.525C78.1316 23.0563 77.4856 22.4167 77.0043 21.606C76.523 20.7953 76.2823 19.877 76.2823 18.851C76.2823 17.8123 76.523 16.894 77.0043 16.096C77.4856 15.2853 78.1316 14.652 78.9423 14.196C79.753 13.7273 80.6586 13.493 81.6593 13.493C82.6726 13.493 83.5783 13.7273 84.3763 14.196C85.187 14.652 85.8266 15.2853 86.2953 16.096C86.7766 16.894 87.0173 17.8123 87.0173 18.851C87.0173 19.8897 86.7766 20.8143 86.2953 21.625C85.814 22.4357 85.168 23.0753 84.3573 23.544C83.5466 24 82.6473 24.228 81.6593 24.228ZM81.6593 22.233C82.2673 22.233 82.8056 22.0873 83.2743 21.796C83.743 21.5047 84.1103 21.1057 84.3763 20.599C84.655 20.0797 84.7943 19.497 84.7943 18.851C84.7943 18.205 84.655 17.6287 84.3763 17.122C84.1103 16.6153 83.743 16.2163 83.2743 15.925C82.8056 15.6337 82.2673 15.488 81.6593 15.488C81.064 15.488 80.5256 15.6337 80.0443 15.925C79.5756 16.2163 79.202 16.6153 78.9233 17.122C78.6573 17.6287 78.5243 18.205 78.5243 18.851C78.5243 19.497 78.6573 20.0797 78.9233 20.599C79.202 21.1057 79.5756 21.5047 80.0443 21.796C80.5256 22.0873 81.064 22.233 81.6593 22.233ZM89.1134 24V13.721H91.2604V24H89.1134ZM89.1134 12.315V9.845H91.2604V12.315H89.1134ZM93.7706 24V13.721H95.8226V15.735L95.5756 15.469C95.8289 14.823 96.2343 14.3353 96.7916 14.006C97.3489 13.664 97.9949 13.493 98.7296 13.493C99.4896 13.493 100.161 13.6577 100.744 13.987C101.326 14.3163 101.782 14.7723 102.112 15.355C102.441 15.9377 102.606 16.609 102.606 17.369V24H100.478V17.939C100.478 17.4197 100.383 16.9827 100.193 16.628C100.003 16.2607 99.7303 15.982 99.3756 15.792C99.0336 15.5893 98.6409 15.488 98.1976 15.488C97.7543 15.488 97.3553 15.5893 97.0006 15.792C96.6586 15.982 96.3926 16.2607 96.2026 16.628C96.0126 16.9953 95.9176 17.4323 95.9176 17.939V24H93.7706ZM109.349 24.114C108.273 24.114 107.437 23.81 106.841 23.202C106.246 22.594 105.948 21.739 105.948 20.637V15.659H104.143V13.721H104.428C104.91 13.721 105.283 13.5817 105.549 13.303C105.815 13.0243 105.948 12.6443 105.948 12.163V11.365H108.095V13.721H110.432V15.659H108.095V20.542C108.095 20.8967 108.152 21.2007 108.266 21.454C108.38 21.6947 108.564 21.8847 108.817 22.024C109.071 22.1507 109.4 22.214 109.805 22.214C109.907 22.214 110.021 22.2077 110.147 22.195C110.274 22.1823 110.394 22.1697 110.508 22.157V24C110.331 24.0253 110.135 24.0507 109.919 24.076C109.704 24.1013 109.514 24.114 109.349 24.114ZM112.604 24V13.721H114.656V15.944L114.39 15.602C114.605 14.9053 114.998 14.3797 115.568 14.025C116.138 13.6703 116.79 13.493 117.525 13.493C118.348 13.493 119.076 13.7147 119.71 14.158C120.356 14.5887 120.786 15.165 121.002 15.887L120.394 15.944C120.698 15.1207 121.16 14.5063 121.781 14.101C122.414 13.6957 123.136 13.493 123.947 13.493C124.656 13.493 125.296 13.6577 125.866 13.987C126.448 14.3163 126.911 14.7723 127.253 15.355C127.595 15.9377 127.766 16.6027 127.766 17.35V24H125.619V17.939C125.619 17.4197 125.524 16.9827 125.334 16.628C125.156 16.2607 124.903 15.982 124.574 15.792C124.257 15.5893 123.883 15.488 123.453 15.488C123.022 15.488 122.642 15.5893 122.313 15.792C121.983 15.982 121.724 16.2607 121.534 16.628C121.344 16.9953 121.249 17.4323 121.249 17.939V24H119.121V17.939C119.121 17.4197 119.026 16.9827 118.836 16.628C118.658 16.2607 118.405 15.982 118.076 15.792C117.759 15.5893 117.379 15.488 116.936 15.488C116.505 15.488 116.125 15.5893 115.796 15.792C115.466 15.982 115.207 16.2607 115.017 16.628C114.839 16.9953 114.751 17.4323 114.751 17.939V24H112.604ZM134.89 24.228C133.864 24.228 132.952 23.9937 132.154 23.525C131.368 23.0437 130.754 22.3977 130.311 21.587C129.867 20.7637 129.646 19.8453 129.646 18.832C129.646 17.7933 129.867 16.875 130.311 16.077C130.767 15.279 131.375 14.652 132.135 14.196C132.895 13.7273 133.756 13.493 134.719 13.493C135.491 13.493 136.182 13.626 136.79 13.892C137.398 14.158 137.911 14.5253 138.329 14.994C138.747 15.45 139.063 15.9757 139.279 16.571C139.507 17.1663 139.621 17.7997 139.621 18.471C139.621 18.6357 139.614 18.8067 139.602 18.984C139.589 19.1613 139.564 19.326 139.526 19.478H131.337V17.768H138.31L137.284 18.547C137.41 17.9263 137.366 17.3753 137.151 16.894C136.948 16.4 136.631 16.0137 136.201 15.735C135.783 15.4437 135.289 15.298 134.719 15.298C134.149 15.298 133.642 15.4437 133.199 15.735C132.755 16.0137 132.413 16.419 132.173 16.951C131.932 17.4703 131.837 18.1037 131.888 18.851C131.824 19.5477 131.919 20.1557 132.173 20.675C132.439 21.1943 132.806 21.5997 133.275 21.891C133.756 22.1823 134.301 22.328 134.909 22.328C135.529 22.328 136.055 22.1887 136.486 21.91C136.929 21.6313 137.277 21.2703 137.531 20.827L139.279 21.682C139.076 22.1633 138.759 22.6003 138.329 22.993C137.911 23.373 137.404 23.677 136.809 23.905C136.226 24.1203 135.586 24.228 134.89 24.228ZM141.716 24V13.721H143.768V15.735L143.521 15.469C143.774 14.823 144.18 14.3353 144.737 14.006C145.294 13.664 145.94 13.493 146.675 13.493C147.435 13.493 148.106 13.6577 148.689 13.987C149.272 14.3163 149.728 14.7723 150.057 15.355C150.386 15.9377 150.551 16.609 150.551 17.369V24H148.423V17.939C148.423 17.4197 148.328 16.9827 148.138 16.628C147.948 16.2607 147.676 15.982 147.321 15.792C146.979 15.5893 146.586 15.488 146.143 15.488C145.7 15.488 145.301 15.5893 144.946 15.792C144.604 15.982 144.338 16.2607 144.148 16.628C143.958 16.9953 143.863 17.4323 143.863 17.939V24H141.716ZM157.295 24.114C156.218 24.114 155.382 23.81 154.787 23.202C154.191 22.594 153.894 21.739 153.894 20.637V15.659H152.089V13.721H152.374C152.855 13.721 153.229 13.5817 153.495 13.303C153.761 13.0243 153.894 12.6443 153.894 12.163V11.365H156.041V13.721H158.378V15.659H156.041V20.542C156.041 20.8967 156.098 21.2007 156.212 21.454C156.326 21.6947 156.509 21.8847 156.763 22.024C157.016 22.1507 157.345 22.214 157.751 22.214C157.852 22.214 157.966 22.2077 158.093 22.195C158.219 22.1823 158.34 22.1697 158.454 22.157V24C158.276 24.0253 158.08 24.0507 157.865 24.076C157.649 24.1013 157.459 24.114 157.295 24.114ZM167.67 24.228C166.619 24.228 165.694 23.9683 164.896 23.449C164.111 22.9297 163.56 22.233 163.243 21.359L164.896 20.58C165.175 21.1627 165.555 21.625 166.036 21.967C166.53 22.309 167.075 22.48 167.67 22.48C168.177 22.48 168.589 22.366 168.905 22.138C169.222 21.91 169.38 21.5997 169.38 21.207C169.38 20.9537 169.311 20.751 169.171 20.599C169.032 20.4343 168.855 20.3013 168.639 20.2C168.437 20.0987 168.228 20.0227 168.012 19.972L166.397 19.516C165.511 19.2627 164.846 18.8827 164.402 18.376C163.972 17.8567 163.756 17.255 163.756 16.571C163.756 15.9503 163.915 15.412 164.231 14.956C164.548 14.4873 164.985 14.1263 165.542 13.873C166.1 13.6197 166.727 13.493 167.423 13.493C168.361 13.493 169.197 13.7273 169.931 14.196C170.666 14.652 171.185 15.2917 171.489 16.115L169.836 16.894C169.634 16.4 169.311 16.0073 168.867 15.716C168.437 15.4247 167.949 15.279 167.404 15.279C166.936 15.279 166.562 15.393 166.283 15.621C166.005 15.8363 165.865 16.1213 165.865 16.476C165.865 16.7167 165.929 16.9193 166.055 17.084C166.182 17.236 166.347 17.3627 166.549 17.464C166.752 17.5527 166.961 17.6287 167.176 17.692L168.848 18.186C169.697 18.4267 170.349 18.8067 170.805 19.326C171.261 19.8327 171.489 20.4407 171.489 21.15C171.489 21.758 171.325 22.2963 170.995 22.765C170.679 23.221 170.235 23.582 169.665 23.848C169.095 24.1013 168.43 24.228 167.67 24.228ZM178.419 24.228C177.393 24.228 176.481 23.9937 175.683 23.525C174.898 23.0437 174.283 22.3977 173.84 21.587C173.397 20.7637 173.175 19.8453 173.175 18.832C173.175 17.7933 173.397 16.875 173.84 16.077C174.296 15.279 174.904 14.652 175.664 14.196C176.424 13.7273 177.285 13.493 178.248 13.493C179.021 13.493 179.711 13.626 180.319 13.892C180.927 14.158 181.44 14.5253 181.858 14.994C182.276 15.45 182.593 15.9757 182.808 16.571C183.036 17.1663 183.15 17.7997 183.15 18.471C183.15 18.6357 183.144 18.8067 183.131 18.984C183.118 19.1613 183.093 19.326 183.055 19.478H174.866V17.768H181.839L180.813 18.547C180.94 17.9263 180.895 17.3753 180.68 16.894C180.477 16.4 180.161 16.0137 179.73 15.735C179.312 15.4437 178.818 15.298 178.248 15.298C177.678 15.298 177.171 15.4437 176.728 15.735C176.285 16.0137 175.943 16.419 175.702 16.951C175.461 17.4703 175.366 18.1037 175.417 18.851C175.354 19.5477 175.449 20.1557 175.702 20.675C175.968 21.1943 176.335 21.5997 176.804 21.891C177.285 22.1823 177.83 22.328 178.438 22.328C179.059 22.328 179.584 22.1887 180.015 21.91C180.458 21.6313 180.807 21.2703 181.06 20.827L182.808 21.682C182.605 22.1633 182.289 22.6003 181.858 22.993C181.44 23.373 180.933 23.677 180.338 23.905C179.755 24.1203 179.116 24.228 178.419 24.228ZM185.245 24V9.617H187.392V24H185.245ZM194.728 24.228C193.702 24.228 192.79 23.9937 191.992 23.525C191.207 23.0437 190.593 22.3977 190.149 21.587C189.706 20.7637 189.484 19.8453 189.484 18.832C189.484 17.7933 189.706 16.875 190.149 16.077C190.605 15.279 191.213 14.652 191.973 14.196C192.733 13.7273 193.595 13.493 194.557 13.493C195.33 13.493 196.02 13.626 196.628 13.892C197.236 14.158 197.749 14.5253 198.167 14.994C198.585 15.45 198.902 15.9757 199.117 16.571C199.345 17.1663 199.459 17.7997 199.459 18.471C199.459 18.6357 199.453 18.8067 199.44 18.984C199.428 19.1613 199.402 19.326 199.364 19.478H191.175V17.768H198.148L197.122 18.547C197.249 17.9263 197.205 17.3753 196.989 16.894C196.787 16.4 196.47 16.0137 196.039 15.735C195.621 15.4437 195.127 15.298 194.557 15.298C193.987 15.298 193.481 15.4437 193.037 15.735C192.594 16.0137 192.252 16.419 192.011 16.951C191.771 17.4703 191.676 18.1037 191.726 18.851C191.663 19.5477 191.758 20.1557 192.011 20.675C192.277 21.1943 192.645 21.5997 193.113 21.891C193.595 22.1823 194.139 22.328 194.747 22.328C195.368 22.328 195.894 22.1887 196.324 21.91C196.768 21.6313 197.116 21.2703 197.369 20.827L199.117 21.682C198.915 22.1633 198.598 22.6003 198.167 22.993C197.749 23.373 197.243 23.677 196.647 23.905C196.065 24.1203 195.425 24.228 194.728 24.228ZM206.438 24.228C205.412 24.228 204.5 23.9937 203.702 23.525C202.916 23.0437 202.289 22.3977 201.821 21.587C201.365 20.7763 201.137 19.858 201.137 18.832C201.137 17.8187 201.365 16.9067 201.821 16.096C202.277 15.2853 202.904 14.652 203.702 14.196C204.5 13.7273 205.412 13.493 206.438 13.493C207.134 13.493 207.787 13.6197 208.395 13.873C209.003 14.1137 209.528 14.4493 209.972 14.88C210.428 15.3107 210.763 15.811 210.979 16.381L209.098 17.255C208.882 16.723 208.534 16.2987 208.053 15.982C207.584 15.6527 207.046 15.488 206.438 15.488C205.855 15.488 205.329 15.6337 204.861 15.925C204.405 16.2037 204.044 16.6027 203.778 17.122C203.512 17.6287 203.379 18.205 203.379 18.851C203.379 19.497 203.512 20.0797 203.778 20.599C204.044 21.1057 204.405 21.5047 204.861 21.796C205.329 22.0873 205.855 22.233 206.438 22.233C207.058 22.233 207.597 22.0747 208.053 21.758C208.521 21.4287 208.87 20.9917 209.098 20.447L210.979 21.34C210.776 21.8847 210.447 22.3787 209.991 22.822C209.547 23.2527 209.022 23.5947 208.414 23.848C207.806 24.1013 207.147 24.228 206.438 24.228ZM217.523 24.114C216.447 24.114 215.611 23.81 215.015 23.202C214.42 22.594 214.122 21.739 214.122 20.637V15.659H212.317V13.721H212.602C213.084 13.721 213.457 13.5817 213.723 13.303C213.989 13.0243 214.122 12.6443 214.122 12.163V11.365H216.269V13.721H218.606V15.659H216.269V20.542C216.269 20.8967 216.326 21.2007 216.44 21.454C216.554 21.6947 216.738 21.8847 216.991 22.024C217.245 22.1507 217.574 22.214 217.979 22.214C218.081 22.214 218.195 22.2077 218.321 22.195C218.448 22.1823 218.568 22.1697 218.682 22.157V24C218.505 24.0253 218.309 24.0507 218.093 24.076C217.878 24.1013 217.688 24.114 217.523 24.114ZM220.777 24V13.721H222.924V24H220.777ZM220.777 12.315V9.845H222.924V12.315H220.777ZM230.394 24.228C229.406 24.228 228.5 23.9937 227.677 23.525C226.866 23.0563 226.22 22.4167 225.739 21.606C225.257 20.7953 225.017 19.877 225.017 18.851C225.017 17.8123 225.257 16.894 225.739 16.096C226.22 15.2853 226.866 14.652 227.677 14.196C228.487 13.7273 229.393 13.493 230.394 13.493C231.407 13.493 232.313 13.7273 233.111 14.196C233.921 14.652 234.561 15.2853 235.03 16.096C235.511 16.894 235.752 17.8123 235.752 18.851C235.752 19.8897 235.511 20.8143 235.03 21.625C234.548 22.4357 233.902 23.0753 233.092 23.544C232.281 24 231.382 24.228 230.394 24.228ZM230.394 22.233C231.002 22.233 231.54 22.0873 232.009 21.796C232.477 21.5047 232.845 21.1057 233.111 20.599C233.389 20.0797 233.529 19.497 233.529 18.851C233.529 18.205 233.389 17.6287 233.111 17.122C232.845 16.6153 232.477 16.2163 232.009 15.925C231.54 15.6337 231.002 15.488 230.394 15.488C229.798 15.488 229.26 15.6337 228.779 15.925C228.31 16.2163 227.936 16.6153 227.658 17.122C227.392 17.6287 227.259 18.205 227.259 18.851C227.259 19.497 227.392 20.0797 227.658 20.599C227.936 21.1057 228.31 21.5047 228.779 21.796C229.26 22.0873 229.798 22.233 230.394 22.233ZM237.848 24V13.721H239.9V15.735L239.653 15.469C239.906 14.823 240.311 14.3353 240.869 14.006C241.426 13.664 242.072 13.493 242.807 13.493C243.567 13.493 244.238 13.6577 244.821 13.987C245.403 14.3163 245.859 14.7723 246.189 15.355C246.518 15.9377 246.683 16.609 246.683 17.369V24H244.555V17.939C244.555 17.4197 244.46 16.9827 244.27 16.628C244.08 16.2607 243.807 15.982 243.453 15.792C243.111 15.5893 242.718 15.488 242.275 15.488C241.831 15.488 241.432 15.5893 241.078 15.792C240.736 15.982 240.47 16.2607 240.28 16.628C240.09 16.9953 239.995 17.4323 239.995 17.939V24H237.848Z" fill="#5E2FD3"/>
</svg>
