<svg width="25" height="24" viewBox="0 0 25 24" fill="none" xmlns="http://www.w3.org/2000/svg">
<mask id="mask0_1174_336" style="mask-type:alpha" maskUnits="userSpaceOnUse" x="0" y="0" width="25" height="24">
<rect x="0.5" width="24" height="24" fill="#D9D9D9"/>
</mask>
<g mask="url(#mask0_1174_336)">
<path d="M9.5 16.25C9.15 16.25 8.85417 16.1292 8.6125 15.8875C8.37083 15.6458 8.25 15.35 8.25 15C8.25 14.65 8.37083 14.3542 8.6125 14.1125C8.85417 13.8708 9.15 13.75 9.5 13.75C9.85 13.75 10.1458 13.8708 10.3875 14.1125C10.6292 14.3542 10.75 14.65 10.75 15C10.75 15.35 10.6292 15.6458 10.3875 15.8875C10.1458 16.1292 9.85 16.25 9.5 16.25ZM15.5 16.25C15.15 16.25 14.8542 16.1292 14.6125 15.8875C14.3708 15.6458 14.25 15.35 14.25 15C14.25 14.65 14.3708 14.3542 14.6125 14.1125C14.8542 13.8708 15.15 13.75 15.5 13.75C15.85 13.75 16.1458 13.8708 16.3875 14.1125C16.6292 14.3542 16.75 14.65 16.75 15C16.75 15.35 16.6292 15.6458 16.3875 15.8875C16.1458 16.1292 15.85 16.25 15.5 16.25ZM12.5 22C14.7333 22 16.625 21.225 18.175 19.675C19.725 18.125 20.5 16.2333 20.5 14C20.5 13.6 20.475 13.2125 20.425 12.8375C20.375 12.4625 20.2833 12.1 20.15 11.75C19.8 11.8333 19.45 11.8958 19.1 11.9375C18.75 11.9792 18.3833 12 18 12C16.4833 12 15.05 11.675 13.7 11.025C12.35 10.375 11.2 9.46667 10.25 8.3C9.71667 9.6 8.95417 10.7292 7.9625 11.6875C6.97083 12.6458 5.81667 13.3667 4.5 13.85V14C4.5 16.2333 5.275 18.125 6.825 19.675C8.375 21.225 10.2667 22 12.5 22ZM11.15 6.125C11.85 7.29167 12.8 8.22917 14 8.9375C15.2 9.64583 16.5333 10 18 10C18.2333 10 18.4583 9.9875 18.675 9.9625C18.8917 9.9375 19.1167 9.90833 19.35 9.875C18.65 8.70833 17.7 7.77083 16.5 7.0625C15.3 6.35417 13.9667 6 12.5 6C12.2667 6 12.0417 6.0125 11.825 6.0375C11.6083 6.0625 11.3833 6.09167 11.15 6.125ZM4.925 11.475C5.775 10.9917 6.51667 10.3667 7.15 9.6C7.78333 8.83333 8.25833 7.975 8.575 7.025C7.725 7.50833 6.98333 8.13333 6.35 8.9C5.71667 9.66667 5.24167 10.525 4.925 11.475ZM3.675 9.325C4.14167 8.44167 4.72917 7.64583 5.4375 6.9375C6.14583 6.22917 6.94167 5.64167 7.825 5.175C7.54167 4.825 7.2 4.54167 6.8 4.325C6.4 4.10833 5.95833 4 5.475 4C4.64167 4 3.9375 4.2875 3.3625 4.8625C2.7875 5.4375 2.5 6.14167 2.5 6.975C2.5 7.45833 2.60833 7.9 2.825 8.3C3.04167 8.7 3.325 9.04167 3.675 9.325ZM12.5 24C11.1167 24 9.81667 23.7375 8.6 23.2125C7.38333 22.6875 6.325 21.975 5.425 21.075C4.525 20.175 3.8125 19.1167 3.2875 17.9C2.7625 16.6833 2.5 15.3833 2.5 14C2.5 13.5167 2.53333 13.0375 2.6 12.5625C2.66667 12.0875 2.76667 11.6333 2.9 11.2C2.18333 10.7667 1.60417 10.1792 1.1625 9.4375C0.720833 8.69583 0.5 7.875 0.5 6.975C0.5 5.59167 0.983333 4.41667 1.95 3.45C2.91667 2.48333 4.09167 2 5.475 2C6.35833 2 7.17083 2.2125 7.9125 2.6375C8.65417 3.0625 9.25 3.65 9.7 4.4C10.1333 4.26667 10.5875 4.16667 11.0625 4.1C11.5375 4.03333 12.0167 4 12.5 4C13.8833 4 15.1833 4.2625 16.4 4.7875C17.6167 5.3125 18.675 6.025 19.575 6.925C20.475 7.825 21.1875 8.88333 21.7125 10.1C22.2375 11.3167 22.5 12.6167 22.5 14C22.5 15.3833 22.2375 16.6833 21.7125 17.9C21.1875 19.1167 20.475 20.175 19.575 21.075C18.675 21.975 17.6167 22.6875 16.4 23.2125C15.1833 23.7375 13.8833 24 12.5 24Z" fill="#5E2FD3"/>
</g>
</svg>
