<svg width="102" height="32" viewBox="0 0 102 32" fill="none" xmlns="http://www.w3.org/2000/svg">
<path d="M7.086 31V6.58H1.869V3.435H10.749V31H7.086ZM25.7279 31.444C24.2973 31.444 22.9529 31.1973 21.6949 30.704C20.4369 30.186 19.3393 29.4583 18.4019 28.521C17.4893 27.559 16.8233 26.4367 16.4039 25.154L19.3639 23.896C19.8819 25.2527 20.7206 26.3133 21.8799 27.078C23.0639 27.818 24.3466 28.188 25.7279 28.188C26.8626 28.188 27.8616 27.9413 28.7249 27.448C29.6129 26.93 30.3036 26.227 30.7969 25.339C31.2903 24.4263 31.5369 23.415 31.5369 22.305C31.5369 21.1457 31.2779 20.122 30.7599 19.234C30.2666 18.346 29.5883 17.6553 28.7249 17.162C27.8616 16.644 26.8749 16.385 25.7649 16.385C24.6303 16.385 23.5943 16.644 22.6569 17.162C21.7196 17.68 21.0413 18.3337 20.6219 19.123L17.6989 18.494L19.8079 3.435H34.0899V6.58H21.1769L22.5829 5.174L20.9549 16.866L19.6969 16.126C20.5109 15.09 21.4606 14.35 22.5459 13.906C23.6559 13.4373 24.8523 13.203 26.1349 13.203C27.9356 13.203 29.5143 13.61 30.8709 14.424C32.2276 15.238 33.2883 16.3233 34.0529 17.68C34.8176 19.0367 35.1999 20.5783 35.1999 22.305C35.1999 24.0317 34.7806 25.5857 33.9419 26.967C33.1279 28.3483 32.0056 29.446 30.5749 30.26C29.1689 31.0493 27.5533 31.444 25.7279 31.444ZM50.8587 31.444C48.6634 31.444 46.7394 30.852 45.0867 29.668C43.4587 28.4593 42.1884 26.7943 41.2757 24.673C40.3631 22.527 39.9067 20.0357 39.9067 17.199C39.9067 14.3623 40.3631 11.8833 41.2757 9.762C42.1884 7.616 43.4587 5.951 45.0867 4.767C46.7147 3.583 48.6264 2.991 50.8217 2.991C53.0171 2.991 54.9287 3.583 56.5567 4.767C58.1847 5.951 59.4551 7.616 60.3677 9.762C61.3051 11.8833 61.7737 14.3623 61.7737 17.199C61.7737 20.0357 61.3174 22.527 60.4047 24.673C59.4921 26.819 58.2094 28.484 56.5567 29.668C54.9287 30.852 53.0294 31.444 50.8587 31.444ZM50.8587 28.077C52.3387 28.077 53.6214 27.633 54.7067 26.745C55.7921 25.8323 56.6307 24.562 57.2227 22.934C57.8394 21.306 58.1477 19.3943 58.1477 17.199C58.1477 15.0037 57.8394 13.092 57.2227 11.464C56.6307 9.836 55.7797 8.578 54.6697 7.69C53.5844 6.802 52.3017 6.358 50.8217 6.358C49.3417 6.358 48.0591 6.802 46.9737 7.69C45.8884 8.578 45.0374 9.836 44.4207 11.464C43.8287 13.092 43.5327 15.0037 43.5327 17.199C43.5327 19.3697 43.8287 21.269 44.4207 22.897C45.0374 24.525 45.8884 25.7953 46.9737 26.708C48.0837 27.6207 49.3787 28.077 50.8587 28.077ZM69.4931 31L91.9892 3.435H96.0962L73.6001 31H69.4931ZM73.6371 17.421C72.2805 17.421 71.0595 17.1003 69.9741 16.459C68.8888 15.793 68.0131 14.9173 67.3471 13.832C66.7058 12.7467 66.3851 11.538 66.3851 10.206C66.3851 8.874 66.7058 7.66533 67.3471 6.58C68.0131 5.47 68.8888 4.59433 69.9741 3.953C71.0595 3.31167 72.2805 2.991 73.6371 2.991C74.9691 2.991 76.1778 3.31167 77.2631 3.953C78.3485 4.59433 79.2118 5.47 79.8531 6.58C80.4945 7.66533 80.8151 8.874 80.8151 10.206C80.8151 11.538 80.4945 12.7467 79.8531 13.832C79.2118 14.9173 78.3485 15.793 77.2631 16.459C76.1778 17.1003 74.9691 17.421 73.6371 17.421ZM73.6001 14.387C74.4388 14.387 75.1541 14.1897 75.7461 13.795C76.3381 13.4003 76.8068 12.8823 77.1521 12.241C77.4975 11.5997 77.6701 10.9213 77.6701 10.206C77.6701 9.466 77.4975 8.78767 77.1521 8.171C76.8068 7.52967 76.3381 7.01167 75.7461 6.617C75.1541 6.19766 74.4388 5.988 73.6001 5.988C72.8108 5.988 72.1078 6.19766 71.4911 6.617C70.8745 7.01167 70.3935 7.52967 70.0481 8.171C69.7028 8.81233 69.5301 9.49067 69.5301 10.206C69.5301 10.8967 69.7028 11.575 70.0481 12.241C70.3935 12.8823 70.8745 13.4003 71.4911 13.795C72.1078 14.1897 72.8108 14.387 73.6001 14.387ZM91.7301 31.444C90.3735 31.444 89.1525 31.1233 88.0671 30.482C86.9818 29.816 86.1061 28.9403 85.4401 27.855C84.7988 26.7697 84.4781 25.561 84.4781 24.229C84.4781 22.897 84.7988 21.6883 85.4401 20.603C86.1061 19.493 86.9818 18.6173 88.0671 17.976C89.1525 17.3347 90.3735 17.014 91.7301 17.014C93.0621 17.014 94.2708 17.3347 95.3562 17.976C96.4415 18.6173 97.3048 19.493 97.9462 20.603C98.5875 21.6883 98.9081 22.897 98.9081 24.229C98.9081 25.561 98.5875 26.7697 97.9462 27.855C97.3048 28.9403 96.4415 29.816 95.3562 30.482C94.2708 31.1233 93.0621 31.444 91.7301 31.444ZM91.7301 28.41C92.5441 28.41 93.2471 28.2127 93.8392 27.818C94.4558 27.4233 94.9245 26.9053 95.2452 26.264C95.5905 25.6227 95.7632 24.9443 95.7632 24.229C95.7632 23.489 95.5905 22.8107 95.2452 22.194C94.9245 21.5527 94.4558 21.0347 93.8392 20.64C93.2471 20.2207 92.5441 20.011 91.7301 20.011C90.9408 20.011 90.2255 20.2207 89.5842 20.64C88.9675 21.0347 88.4865 21.5527 88.1411 22.194C87.7958 22.8353 87.6231 23.5137 87.6231 24.229C87.6231 24.9197 87.7958 25.598 88.1411 26.264C88.4865 26.9053 88.9675 27.4233 89.5842 27.818C90.2255 28.2127 90.9408 28.41 91.7301 28.41Z" fill="#5E2FD3"/>
</svg>
