<svg width="25" height="24" viewBox="0 0 25 24" fill="none" xmlns="http://www.w3.org/2000/svg">
<mask id="mask0_1174_352" style="mask-type:alpha" maskUnits="userSpaceOnUse" x="0" y="0" width="25" height="24">
<rect x="0.5" width="24" height="24" fill="#D9D9D9"/>
</mask>
<g mask="url(#mask0_1174_352)">
<path d="M8.5 21V19H10.5V17H4.5C3.95 17 3.47917 16.8042 3.0875 16.4125C2.69583 16.0208 2.5 15.55 2.5 15V5C2.5 4.45 2.69583 3.97917 3.0875 3.5875C3.47917 3.19583 3.95 3 4.5 3H20.5C21.05 3 21.5208 3.19583 21.9125 3.5875C22.3042 3.97917 22.5 4.45 22.5 5V15C22.5 15.55 22.3042 16.0208 21.9125 16.4125C21.5208 16.8042 21.05 17 20.5 17H14.5V19H16.5V21H8.5ZM4.5 15H20.5V5H4.5V15Z" fill="#5E2FD3"/>
</g>
</svg>
