<svg width="287" height="32" viewBox="0 0 287 32" fill="none" xmlns="http://www.w3.org/2000/svg">
<mask id="mask0_1174_450" style="mask-type:alpha" maskUnits="userSpaceOnUse" x="0" y="4" width="25" height="24">
<rect x="0.5" y="4" width="24" height="24" fill="#D9D9D9"/>
</mask>
<g mask="url(#mask0_1174_450)">
<path d="M8.5 25V23H10.5V21H4.5C3.95 21 3.47917 20.8042 3.0875 20.4125C2.69583 20.0208 2.5 19.55 2.5 19V9C2.5 8.45 2.69583 7.97917 3.0875 7.5875C3.47917 7.19583 3.95 7 4.5 7H20.5C21.05 7 21.5208 7.19583 21.9125 7.5875C22.3042 7.97917 22.5 8.45 22.5 9V19C22.5 19.55 22.3042 20.0208 21.9125 20.4125C21.5208 20.8042 21.05 21 20.5 21H14.5V23H16.5V25H8.5ZM4.5 19H20.5V9H4.5V19Z" fill="#5E2FD3"/>
</g>
<path d="M44.841 24.228C43.815 24.228 42.8587 24.0443 41.972 23.677C41.098 23.3097 40.3253 22.7967 39.654 22.138C38.9953 21.4793 38.476 20.7067 38.096 19.82C37.7287 18.9333 37.545 17.9643 37.545 16.913C37.545 15.8617 37.7287 14.8927 38.096 14.006C38.476 13.1067 38.9953 12.334 39.654 11.688C40.3127 11.0293 41.0853 10.5227 41.972 10.168C42.8587 9.80067 43.815 9.617 44.841 9.617C45.8797 9.617 46.836 9.80067 47.71 10.168C48.5967 10.5227 49.3693 11.0293 50.028 11.688C50.6993 12.3467 51.2187 13.1193 51.586 14.006C51.9533 14.8927 52.137 15.8617 52.137 16.913C52.137 17.9643 51.947 18.9333 51.567 19.82C51.1997 20.7067 50.6867 21.4793 50.028 22.138C49.3693 22.7967 48.5967 23.3097 47.71 23.677C46.8233 24.0443 45.867 24.228 44.841 24.228ZM44.841 22.176C45.5757 22.176 46.247 22.043 46.855 21.777C47.4757 21.511 48.014 21.1437 48.47 20.675C48.926 20.1937 49.2807 19.6363 49.534 19.003C49.7873 18.357 49.914 17.6603 49.914 16.913C49.914 16.1657 49.7873 15.4753 49.534 14.842C49.2807 14.2087 48.926 13.6513 48.47 13.17C48.014 12.6887 47.4757 12.315 46.855 12.049C46.247 11.783 45.5757 11.65 44.841 11.65C44.1063 11.65 43.4287 11.783 42.808 12.049C42.2 12.315 41.668 12.6887 41.212 13.17C40.756 13.6513 40.4013 14.2087 40.148 14.842C39.9073 15.4753 39.787 16.1657 39.787 16.913C39.787 17.6603 39.9073 18.357 40.148 19.003C40.4013 19.6363 40.756 20.1937 41.212 20.675C41.668 21.1437 42.2063 21.511 42.827 21.777C43.4477 22.043 44.119 22.176 44.841 22.176ZM54.4347 24V13.721H56.4867V15.735L56.2397 15.469C56.493 14.823 56.8983 14.3353 57.4557 14.006C58.013 13.664 58.659 13.493 59.3937 13.493C60.1537 13.493 60.825 13.6577 61.4077 13.987C61.9903 14.3163 62.4463 14.7723 62.7757 15.355C63.105 15.9377 63.2697 16.609 63.2697 17.369V24H61.1417V17.939C61.1417 17.4197 61.0467 16.9827 60.8567 16.628C60.6667 16.2607 60.3943 15.982 60.0397 15.792C59.6977 15.5893 59.305 15.488 58.8617 15.488C58.4183 15.488 58.0193 15.5893 57.6647 15.792C57.3227 15.982 57.0567 16.2607 56.8667 16.628C56.6767 16.9953 56.5817 17.4323 56.5817 17.939V24H54.4347ZM70.3935 24.228C69.3675 24.228 68.4555 23.9937 67.6575 23.525C66.8721 23.0437 66.2578 22.3977 65.8145 21.587C65.3711 20.7637 65.1495 19.8453 65.1495 18.832C65.1495 17.7933 65.3711 16.875 65.8145 16.077C66.2705 15.279 66.8785 14.652 67.6385 14.196C68.3985 13.7273 69.2598 13.493 70.2225 13.493C70.9951 13.493 71.6855 13.626 72.2935 13.892C72.9015 14.158 73.4145 14.5253 73.8325 14.994C74.2505 15.45 74.5671 15.9757 74.7825 16.571C75.0105 17.1663 75.1245 17.7997 75.1245 18.471C75.1245 18.6357 75.1181 18.8067 75.1055 18.984C75.0928 19.1613 75.0675 19.326 75.0295 19.478H66.8405V17.768H73.8135L72.7875 18.547C72.9141 17.9263 72.8698 17.3753 72.6545 16.894C72.4518 16.4 72.1351 16.0137 71.7045 15.735C71.2865 15.4437 70.7925 15.298 70.2225 15.298C69.6525 15.298 69.1458 15.4437 68.7025 15.735C68.2591 16.0137 67.9171 16.419 67.6765 16.951C67.4358 17.4703 67.3408 18.1037 67.3915 18.851C67.3281 19.5477 67.4231 20.1557 67.6765 20.675C67.9425 21.1943 68.3098 21.5997 68.7785 21.891C69.2598 22.1823 69.8045 22.328 70.4125 22.328C71.0331 22.328 71.5588 22.1887 71.9895 21.91C72.4328 21.6313 72.7811 21.2703 73.0345 20.827L74.7825 21.682C74.5798 22.1633 74.2631 22.6003 73.8325 22.993C73.4145 23.373 72.9078 23.677 72.3125 23.905C71.7298 24.1203 71.0901 24.228 70.3935 24.228ZM77.5428 19.801V17.901H85.1428V19.801H77.5428ZM87.9815 27.8V13.721H90.0335V15.849L89.7865 15.355C90.1665 14.7723 90.6732 14.3163 91.3065 13.987C91.9399 13.6577 92.6619 13.493 93.4725 13.493C94.4479 13.493 95.3219 13.7273 96.0945 14.196C96.8799 14.6647 97.4942 15.3043 97.9375 16.115C98.3935 16.9257 98.6215 17.8377 98.6215 18.851C98.6215 19.8643 98.3935 20.7763 97.9375 21.587C97.4942 22.3977 96.8862 23.0437 96.1135 23.525C95.3409 23.9937 94.4605 24.228 93.4725 24.228C92.6745 24.228 91.9462 24.0633 91.2875 23.734C90.6415 23.4047 90.1412 22.9297 89.7865 22.309L90.1285 21.91V27.8H87.9815ZM93.2635 22.233C93.8715 22.233 94.4099 22.0873 94.8785 21.796C95.3472 21.5047 95.7145 21.1057 95.9805 20.599C96.2592 20.0797 96.3985 19.497 96.3985 18.851C96.3985 18.205 96.2592 17.6287 95.9805 17.122C95.7145 16.6153 95.3472 16.2163 94.8785 15.925C94.4099 15.6337 93.8715 15.488 93.2635 15.488C92.6682 15.488 92.1299 15.6337 91.6485 15.925C91.1799 16.2163 90.8062 16.6153 90.5275 17.122C90.2615 17.6287 90.1285 18.205 90.1285 18.851C90.1285 19.497 90.2615 20.0797 90.5275 20.599C90.8062 21.1057 91.1799 21.5047 91.6485 21.796C92.1299 22.0873 92.6682 22.233 93.2635 22.233ZM103.788 24.228C103.091 24.228 102.477 24.1077 101.945 23.867C101.426 23.6137 101.02 23.2717 100.729 22.841C100.438 22.3977 100.292 21.8783 100.292 21.283C100.292 20.7257 100.412 20.2253 100.653 19.782C100.906 19.3387 101.293 18.965 101.812 18.661C102.331 18.357 102.984 18.1417 103.769 18.015L107.341 17.426V19.117L104.187 19.668C103.617 19.7693 103.199 19.953 102.933 20.219C102.667 20.4723 102.534 20.8017 102.534 21.207C102.534 21.5997 102.68 21.9227 102.971 22.176C103.275 22.4167 103.661 22.537 104.13 22.537C104.713 22.537 105.219 22.4103 105.65 22.157C106.093 21.9037 106.435 21.568 106.676 21.15C106.917 20.7193 107.037 20.2443 107.037 19.725V17.084C107.037 16.5773 106.847 16.1657 106.467 15.849C106.1 15.5197 105.606 15.355 104.985 15.355C104.415 15.355 103.915 15.507 103.484 15.811C103.066 16.1023 102.756 16.4823 102.553 16.951L100.767 16.058C100.957 15.5513 101.267 15.108 101.698 14.728C102.129 14.3353 102.629 14.0313 103.199 13.816C103.782 13.6007 104.396 13.493 105.042 13.493C105.853 13.493 106.568 13.645 107.189 13.949C107.822 14.253 108.31 14.6773 108.652 15.222C109.007 15.754 109.184 16.3747 109.184 17.084V24H107.132V22.138L107.569 22.195C107.328 22.613 107.018 22.974 106.638 23.278C106.271 23.582 105.846 23.8163 105.365 23.981C104.896 24.1457 104.371 24.228 103.788 24.228ZM116.653 28.18C115.906 28.18 115.216 28.0597 114.582 27.819C113.949 27.5783 113.404 27.2427 112.948 26.812C112.492 26.394 112.15 25.9 111.922 25.33L113.898 24.513C114.076 24.9943 114.399 25.3933 114.867 25.71C115.349 26.0267 115.938 26.185 116.634 26.185C117.179 26.185 117.667 26.0773 118.097 25.862C118.528 25.6593 118.87 25.3553 119.123 24.95C119.377 24.5573 119.503 24.0823 119.503 23.525V21.207L119.883 21.644C119.529 22.3027 119.035 22.803 118.401 23.145C117.781 23.487 117.078 23.658 116.292 23.658C115.342 23.658 114.487 23.4363 113.727 22.993C112.967 22.5497 112.366 21.9417 111.922 21.169C111.492 20.3963 111.276 19.5287 111.276 18.566C111.276 17.5907 111.492 16.723 111.922 15.963C112.366 15.203 112.961 14.6013 113.708 14.158C114.456 13.7147 115.311 13.493 116.273 13.493C117.059 13.493 117.755 13.664 118.363 14.006C118.984 14.3353 119.491 14.8167 119.883 15.45L119.598 15.982V13.721H121.631V23.525C121.631 24.4117 121.416 25.2033 120.985 25.9C120.567 26.6093 119.985 27.1667 119.237 27.572C118.49 27.9773 117.629 28.18 116.653 28.18ZM116.539 21.663C117.109 21.663 117.616 21.53 118.059 21.264C118.503 20.9853 118.851 20.618 119.104 20.162C119.37 19.6933 119.503 19.1677 119.503 18.585C119.503 18.0023 119.37 17.4767 119.104 17.008C118.838 16.5393 118.484 16.172 118.04 15.906C117.597 15.6273 117.097 15.488 116.539 15.488C115.957 15.488 115.437 15.6273 114.981 15.906C114.525 16.172 114.164 16.5393 113.898 17.008C113.645 17.464 113.518 17.9897 113.518 18.585C113.518 19.155 113.645 19.6743 113.898 20.143C114.164 20.6117 114.525 20.9853 114.981 21.264C115.437 21.53 115.957 21.663 116.539 21.663ZM128.971 24.228C127.945 24.228 127.033 23.9937 126.235 23.525C125.449 23.0437 124.835 22.3977 124.392 21.587C123.948 20.7637 123.727 19.8453 123.727 18.832C123.727 17.7933 123.948 16.875 124.392 16.077C124.848 15.279 125.456 14.652 126.216 14.196C126.976 13.7273 127.837 13.493 128.8 13.493C129.572 13.493 130.263 13.626 130.871 13.892C131.479 14.158 131.992 14.5253 132.41 14.994C132.828 15.45 133.144 15.9757 133.36 16.571C133.588 17.1663 133.702 17.7997 133.702 18.471C133.702 18.6357 133.695 18.8067 133.683 18.984C133.67 19.1613 133.645 19.326 133.607 19.478H125.418V17.768H132.391L131.365 18.547C131.491 17.9263 131.447 17.3753 131.232 16.894C131.029 16.4 130.712 16.0137 130.282 15.735C129.864 15.4437 129.37 15.298 128.8 15.298C128.23 15.298 127.723 15.4437 127.28 15.735C126.836 16.0137 126.494 16.419 126.254 16.951C126.013 17.4703 125.918 18.1037 125.969 18.851C125.905 19.5477 126 20.1557 126.254 20.675C126.52 21.1943 126.887 21.5997 127.356 21.891C127.837 22.1823 128.382 22.328 128.99 22.328C129.61 22.328 130.136 22.1887 130.567 21.91C131.01 21.6313 131.358 21.2703 131.612 20.827L133.36 21.682C133.157 22.1633 132.84 22.6003 132.41 22.993C131.992 23.373 131.485 23.677 130.89 23.905C130.307 24.1203 129.667 24.228 128.971 24.228ZM141.607 24L138.073 13.721H140.353L143.051 21.91H142.253L145.008 13.721H146.965L149.701 21.91H148.903L151.62 13.721H153.9L150.347 24H148.409L145.635 15.621H146.338L143.564 24H141.607ZM160.013 24.228C158.987 24.228 158.075 23.9937 157.277 23.525C156.491 23.0437 155.877 22.3977 155.434 21.587C154.99 20.7637 154.769 19.8453 154.769 18.832C154.769 17.7933 154.99 16.875 155.434 16.077C155.89 15.279 156.498 14.652 157.258 14.196C158.018 13.7273 158.879 13.493 159.842 13.493C160.614 13.493 161.305 13.626 161.913 13.892C162.521 14.158 163.034 14.5253 163.452 14.994C163.87 15.45 164.186 15.9757 164.402 16.571C164.63 17.1663 164.744 17.7997 164.744 18.471C164.744 18.6357 164.737 18.8067 164.725 18.984C164.712 19.1613 164.687 19.326 164.649 19.478H156.46V17.768H163.433L162.407 18.547C162.533 17.9263 162.489 17.3753 162.274 16.894C162.071 16.4 161.754 16.0137 161.324 15.735C160.906 15.4437 160.412 15.298 159.842 15.298C159.272 15.298 158.765 15.4437 158.322 15.735C157.878 16.0137 157.536 16.419 157.296 16.951C157.055 17.4703 156.96 18.1037 157.011 18.851C156.947 19.5477 157.042 20.1557 157.296 20.675C157.562 21.1943 157.929 21.5997 158.398 21.891C158.879 22.1823 159.424 22.328 160.032 22.328C160.652 22.328 161.178 22.1887 161.609 21.91C162.052 21.6313 162.4 21.2703 162.654 20.827L164.402 21.682C164.199 22.1633 163.882 22.6003 163.452 22.993C163.034 23.373 162.527 23.677 161.932 23.905C161.349 24.1203 160.709 24.228 160.013 24.228ZM172.33 24.228C171.532 24.228 170.804 24.0633 170.145 23.734C169.499 23.4047 168.999 22.9297 168.644 22.309L168.891 21.91V24H166.839V9.617H168.986V15.849L168.644 15.355C169.024 14.7723 169.531 14.3163 170.164 13.987C170.797 13.6577 171.519 13.493 172.33 13.493C173.305 13.493 174.179 13.7273 174.952 14.196C175.737 14.6647 176.352 15.3043 176.795 16.115C177.251 16.9257 177.479 17.8377 177.479 18.851C177.479 19.8643 177.251 20.7763 176.795 21.587C176.352 22.3977 175.744 23.0437 174.971 23.525C174.198 23.9937 173.318 24.228 172.33 24.228ZM172.121 22.233C172.729 22.233 173.267 22.0873 173.736 21.796C174.205 21.5047 174.572 21.1057 174.838 20.599C175.117 20.0797 175.256 19.497 175.256 18.851C175.256 18.205 175.117 17.6287 174.838 17.122C174.572 16.6153 174.205 16.2163 173.736 15.925C173.267 15.6337 172.729 15.488 172.121 15.488C171.526 15.488 170.987 15.6337 170.506 15.925C170.037 16.2163 169.664 16.6153 169.385 17.122C169.119 17.6287 168.986 18.205 168.986 18.851C168.986 19.497 169.119 20.0797 169.385 20.599C169.664 21.1057 170.037 21.5047 170.506 21.796C170.987 22.0873 171.526 22.233 172.121 22.233ZM183.367 24.228C182.316 24.228 181.391 23.9683 180.593 23.449C179.808 22.9297 179.257 22.233 178.94 21.359L180.593 20.58C180.872 21.1627 181.252 21.625 181.733 21.967C182.227 22.309 182.772 22.48 183.367 22.48C183.874 22.48 184.286 22.366 184.602 22.138C184.919 21.91 185.077 21.5997 185.077 21.207C185.077 20.9537 185.008 20.751 184.868 20.599C184.729 20.4343 184.552 20.3013 184.336 20.2C184.134 20.0987 183.925 20.0227 183.709 19.972L182.094 19.516C181.208 19.2627 180.543 18.8827 180.099 18.376C179.669 17.8567 179.453 17.255 179.453 16.571C179.453 15.9503 179.612 15.412 179.928 14.956C180.245 14.4873 180.682 14.1263 181.239 13.873C181.797 13.6197 182.424 13.493 183.12 13.493C184.058 13.493 184.894 13.7273 185.628 14.196C186.363 14.652 186.882 15.2917 187.186 16.115L185.533 16.894C185.331 16.4 185.008 16.0073 184.564 15.716C184.134 15.4247 183.646 15.279 183.101 15.279C182.633 15.279 182.259 15.393 181.98 15.621C181.702 15.8363 181.562 16.1213 181.562 16.476C181.562 16.7167 181.626 16.9193 181.752 17.084C181.879 17.236 182.044 17.3627 182.246 17.464C182.449 17.5527 182.658 17.6287 182.873 17.692L184.545 18.186C185.394 18.4267 186.046 18.8067 186.502 19.326C186.958 19.8327 187.186 20.4407 187.186 21.15C187.186 21.758 187.022 22.2963 186.692 22.765C186.376 23.221 185.932 23.582 185.362 23.848C184.792 24.1013 184.127 24.228 183.367 24.228ZM189.29 24V13.721H191.437V24H189.29ZM189.29 12.315V9.845H191.437V12.315H189.29ZM198.393 24.114C197.317 24.114 196.481 23.81 195.885 23.202C195.29 22.594 194.992 21.739 194.992 20.637V15.659H193.187V13.721H193.472C193.954 13.721 194.327 13.5817 194.593 13.303C194.859 13.0243 194.992 12.6443 194.992 12.163V11.365H197.139V13.721H199.476V15.659H197.139V20.542C197.139 20.8967 197.196 21.2007 197.31 21.454C197.424 21.6947 197.608 21.8847 197.861 22.024C198.115 22.1507 198.444 22.214 198.849 22.214C198.951 22.214 199.065 22.2077 199.191 22.195C199.318 22.1823 199.438 22.1697 199.552 22.157V24C199.375 24.0253 199.179 24.0507 198.963 24.076C198.748 24.1013 198.558 24.114 198.393 24.114ZM206.288 24.228C205.262 24.228 204.35 23.9937 203.552 23.525C202.767 23.0437 202.152 22.3977 201.709 21.587C201.266 20.7637 201.044 19.8453 201.044 18.832C201.044 17.7933 201.266 16.875 201.709 16.077C202.165 15.279 202.773 14.652 203.533 14.196C204.293 13.7273 205.154 13.493 206.117 13.493C206.89 13.493 207.58 13.626 208.188 13.892C208.796 14.158 209.309 14.5253 209.727 14.994C210.145 15.45 210.462 15.9757 210.677 16.571C210.905 17.1663 211.019 17.7997 211.019 18.471C211.019 18.6357 211.013 18.8067 211 18.984C210.987 19.1613 210.962 19.326 210.924 19.478H202.735V17.768H209.708L208.682 18.547C208.809 17.9263 208.764 17.3753 208.549 16.894C208.346 16.4 208.03 16.0137 207.599 15.735C207.181 15.4437 206.687 15.298 206.117 15.298C205.547 15.298 205.04 15.4437 204.597 15.735C204.154 16.0137 203.812 16.419 203.571 16.951C203.33 17.4703 203.235 18.1037 203.286 18.851C203.223 19.5477 203.318 20.1557 203.571 20.675C203.837 21.1943 204.204 21.5997 204.673 21.891C205.154 22.1823 205.699 22.328 206.307 22.328C206.928 22.328 207.453 22.1887 207.884 21.91C208.327 21.6313 208.676 21.2703 208.929 20.827L210.677 21.682C210.474 22.1633 210.158 22.6003 209.727 22.993C209.309 23.373 208.802 23.677 208.207 23.905C207.624 24.1203 206.985 24.228 206.288 24.228Z" fill="#5E2FD3"/>
</svg>
