<svg width="252" height="59" viewBox="0 0 252 59" fill="none" xmlns="http://www.w3.org/2000/svg">
<mask id="mask0_1224_965" style="mask-type:alpha" maskUnits="userSpaceOnUse" x="0" y="0" width="25" height="24">
<rect x="0.5" width="24" height="24" fill="#D9D9D9"/>
</mask>
<g mask="url(#mask0_1224_965)">
<path d="M6.5 20.9997C5.75 20.9997 5.00833 20.8164 4.275 20.4497C3.54167 20.0831 2.95 19.5997 2.5 18.9997C2.93333 18.9997 3.375 18.8289 3.825 18.4872C4.275 18.1456 4.5 17.6497 4.5 16.9997C4.5 16.1664 4.79167 15.4581 5.375 14.8747C5.95833 14.2914 6.66667 13.9997 7.5 13.9997C8.33333 13.9997 9.04167 14.2914 9.625 14.8747C10.2083 15.4581 10.5 16.1664 10.5 16.9997C10.5 18.0997 10.1083 19.0414 9.325 19.8247C8.54167 20.6081 7.6 20.9997 6.5 20.9997ZM6.5 18.9997C7.05 18.9997 7.52083 18.8039 7.9125 18.4122C8.30417 18.0206 8.5 17.5497 8.5 16.9997C8.5 16.7164 8.40417 16.4789 8.2125 16.2872C8.02083 16.0956 7.78333 15.9997 7.5 15.9997C7.21667 15.9997 6.97917 16.0956 6.7875 16.2872C6.59583 16.4789 6.5 16.7164 6.5 16.9997C6.5 17.3831 6.45417 17.7331 6.3625 18.0497C6.27083 18.3664 6.15 18.6664 6 18.9497C6.08333 18.9831 6.16667 18.9997 6.25 18.9997H6.5ZM12.25 14.9997L9.5 12.2497L18.45 3.29972C18.6333 3.11639 18.8625 3.02055 19.1375 3.01222C19.4125 3.00389 19.65 3.09972 19.85 3.29972L21.2 4.64972C21.4 4.84972 21.5 5.08305 21.5 5.34972C21.5 5.61639 21.4 5.84972 21.2 6.04972L12.25 14.9997Z" fill="#5E2FD3"/>
</g>
<path d="M1.963 54V39.845H3.768L11.71 50.808L10.855 50.941V39.845H13.078V54H11.273L3.388 42.961L4.205 42.809V54H1.963ZM20.7589 54.228C19.7709 54.228 18.8652 53.9937 18.0419 53.525C17.2312 53.0563 16.5852 52.4167 16.1039 51.606C15.6226 50.7953 15.3819 49.877 15.3819 48.851C15.3819 47.8123 15.6226 46.894 16.1039 46.096C16.5852 45.2853 17.2312 44.652 18.0419 44.196C18.8526 43.7273 19.7582 43.493 20.7589 43.493C21.7722 43.493 22.6779 43.7273 23.4759 44.196C24.2866 44.652 24.9262 45.2853 25.3949 46.096C25.8762 46.894 26.1169 47.8123 26.1169 48.851C26.1169 49.8897 25.8762 50.8143 25.3949 51.625C24.9136 52.4357 24.2676 53.0753 23.4569 53.544C22.6462 54 21.7469 54.228 20.7589 54.228ZM20.7589 52.233C21.3669 52.233 21.9052 52.0873 22.3739 51.796C22.8426 51.5047 23.2099 51.1057 23.4759 50.599C23.7546 50.0797 23.8939 49.497 23.8939 48.851C23.8939 48.205 23.7546 47.6287 23.4759 47.122C23.2099 46.6153 22.8426 46.2163 22.3739 45.925C21.9052 45.6337 21.3669 45.488 20.7589 45.488C20.1636 45.488 19.6252 45.6337 19.1439 45.925C18.6752 46.2163 18.3016 46.6153 18.0229 47.122C17.7569 47.6287 17.6239 48.205 17.6239 48.851C17.6239 49.497 17.7569 50.0797 18.0229 50.599C18.3016 51.1057 18.6752 51.5047 19.1439 51.796C19.6252 52.0873 20.1636 52.233 20.7589 52.233ZM36.2843 54.228C35.2963 54.228 34.4096 53.9937 33.6243 53.525C32.8516 53.0437 32.2373 52.3977 31.7813 51.587C31.3379 50.7763 31.1163 49.8643 31.1163 48.851C31.1163 47.8377 31.3443 46.9257 31.8003 46.115C32.2563 45.3043 32.8706 44.6647 33.6433 44.196C34.4159 43.7273 35.2899 43.493 36.2653 43.493C37.0886 43.493 37.8169 43.6577 38.4503 43.987C39.0836 44.3163 39.5839 44.7723 39.9513 45.355L39.6283 45.849V39.617H41.7563V54H39.7233V51.91L39.9703 52.309C39.6156 52.9297 39.1089 53.4047 38.4503 53.734C37.7916 54.0633 37.0696 54.228 36.2843 54.228ZM36.4933 52.233C37.0886 52.233 37.6206 52.0873 38.0893 51.796C38.5706 51.5047 38.9443 51.1057 39.2103 50.599C39.4889 50.0797 39.6283 49.497 39.6283 48.851C39.6283 48.205 39.4889 47.6287 39.2103 47.122C38.9443 46.6153 38.5706 46.2163 38.0893 45.925C37.6206 45.6337 37.0886 45.488 36.4933 45.488C35.8979 45.488 35.3596 45.6337 34.8783 45.925C34.3969 46.2163 34.0233 46.6153 33.7573 47.122C33.4913 47.6287 33.3583 48.205 33.3583 48.851C33.3583 49.497 33.4913 50.0797 33.7573 50.599C34.0233 51.1057 34.3906 51.5047 34.8593 51.796C35.3406 52.0873 35.8853 52.233 36.4933 52.233ZM49.0888 54.228C48.0628 54.228 47.1508 53.9937 46.3528 53.525C45.5675 53.0437 44.9531 52.3977 44.5098 51.587C44.0665 50.7637 43.8448 49.8453 43.8448 48.832C43.8448 47.7933 44.0665 46.875 44.5098 46.077C44.9658 45.279 45.5738 44.652 46.3338 44.196C47.0938 43.7273 47.9551 43.493 48.9178 43.493C49.6905 43.493 50.3808 43.626 50.9888 43.892C51.5968 44.158 52.1098 44.5253 52.5278 44.994C52.9458 45.45 53.2625 45.9757 53.4778 46.571C53.7058 47.1663 53.8198 47.7997 53.8198 48.471C53.8198 48.6357 53.8135 48.8067 53.8008 48.984C53.7881 49.1613 53.7628 49.326 53.7248 49.478H45.5358V47.768H52.5088L51.4828 48.547C51.6095 47.9263 51.5651 47.3753 51.3498 46.894C51.1471 46.4 50.8305 46.0137 50.3998 45.735C49.9818 45.4437 49.4878 45.298 48.9178 45.298C48.3478 45.298 47.8411 45.4437 47.3978 45.735C46.9545 46.0137 46.6125 46.419 46.3718 46.951C46.1311 47.4703 46.0361 48.1037 46.0868 48.851C46.0235 49.5477 46.1185 50.1557 46.3718 50.675C46.6378 51.1943 47.0051 51.5997 47.4738 51.891C47.9551 52.1823 48.4998 52.328 49.1078 52.328C49.7285 52.328 50.2541 52.1887 50.6848 51.91C51.1281 51.6313 51.4765 51.2703 51.7298 50.827L53.4778 51.682C53.2751 52.1633 52.9585 52.6003 52.5278 52.993C52.1098 53.373 51.6031 53.677 51.0078 53.905C50.4251 54.1203 49.7855 54.228 49.0888 54.228ZM59.7151 54.228C58.6638 54.228 57.7391 53.9683 56.9411 53.449C56.1558 52.9297 55.6048 52.233 55.2881 51.359L56.9411 50.58C57.2198 51.1627 57.5998 51.625 58.0811 51.967C58.5751 52.309 59.1198 52.48 59.7151 52.48C60.2218 52.48 60.6335 52.366 60.9501 52.138C61.2668 51.91 61.4251 51.5997 61.4251 51.207C61.4251 50.9537 61.3555 50.751 61.2161 50.599C61.0768 50.4343 60.8995 50.3013 60.6841 50.2C60.4815 50.0987 60.2725 50.0227 60.0571 49.972L58.4421 49.516C57.5555 49.2627 56.8905 48.8827 56.4471 48.376C56.0165 47.8567 55.8011 47.255 55.8011 46.571C55.8011 45.9503 55.9595 45.412 56.2761 44.956C56.5928 44.4873 57.0298 44.1263 57.5871 43.873C58.1445 43.6197 58.7715 43.493 59.4681 43.493C60.4055 43.493 61.2415 43.7273 61.9761 44.196C62.7108 44.652 63.2301 45.2917 63.5341 46.115L61.8811 46.894C61.6785 46.4 61.3555 46.0073 60.9121 45.716C60.4815 45.4247 59.9938 45.279 59.4491 45.279C58.9805 45.279 58.6068 45.393 58.3281 45.621C58.0495 45.8363 57.9101 46.1213 57.9101 46.476C57.9101 46.7167 57.9735 46.9193 58.1001 47.084C58.2268 47.236 58.3915 47.3627 58.5941 47.464C58.7968 47.5527 59.0058 47.6287 59.2211 47.692L60.8931 48.186C61.7418 48.4267 62.3941 48.8067 62.8501 49.326C63.3061 49.8327 63.5341 50.4407 63.5341 51.15C63.5341 51.758 63.3695 52.2963 63.0401 52.765C62.7235 53.221 62.2801 53.582 61.7101 53.848C61.1401 54.1013 60.4751 54.228 59.7151 54.228ZM65.6378 54V43.721H67.7848V54H65.6378ZM65.6378 42.315V39.845H67.7848V42.315H65.6378ZM75.254 58.18C74.5067 58.18 73.8163 58.0597 73.183 57.819C72.5497 57.5783 72.005 57.2427 71.549 56.812C71.093 56.394 70.751 55.9 70.523 55.33L72.499 54.513C72.6763 54.9943 72.9993 55.3933 73.468 55.71C73.9493 56.0267 74.5383 56.185 75.235 56.185C75.7797 56.185 76.2673 56.0773 76.698 55.862C77.1287 55.6593 77.4707 55.3553 77.724 54.95C77.9773 54.5573 78.104 54.0823 78.104 53.525V51.207L78.484 51.644C78.1293 52.3027 77.6353 52.803 77.002 53.145C76.3813 53.487 75.6783 53.658 74.893 53.658C73.943 53.658 73.088 53.4363 72.328 52.993C71.568 52.5497 70.9663 51.9417 70.523 51.169C70.0923 50.3963 69.877 49.5287 69.877 48.566C69.877 47.5907 70.0923 46.723 70.523 45.963C70.9663 45.203 71.5617 44.6013 72.309 44.158C73.0563 43.7147 73.9113 43.493 74.874 43.493C75.6593 43.493 76.356 43.664 76.964 44.006C77.5847 44.3353 78.0913 44.8167 78.484 45.45L78.199 45.982V43.721H80.232V53.525C80.232 54.4117 80.0167 55.2033 79.586 55.9C79.168 56.6093 78.5853 57.1667 77.838 57.572C77.0907 57.9773 76.2293 58.18 75.254 58.18ZM75.14 51.663C75.71 51.663 76.2167 51.53 76.66 51.264C77.1033 50.9853 77.4517 50.618 77.705 50.162C77.971 49.6933 78.104 49.1677 78.104 48.585C78.104 48.0023 77.971 47.4767 77.705 47.008C77.439 46.5393 77.0843 46.172 76.641 45.906C76.1977 45.6273 75.6973 45.488 75.14 45.488C74.5573 45.488 74.038 45.6273 73.582 45.906C73.126 46.172 72.765 46.5393 72.499 47.008C72.2457 47.464 72.119 47.9897 72.119 48.585C72.119 49.155 72.2457 49.6743 72.499 50.143C72.765 50.6117 73.126 50.9853 73.582 51.264C74.038 51.53 74.5573 51.663 75.14 51.663ZM82.7452 54V43.721H84.7972V45.735L84.5502 45.469C84.8035 44.823 85.2089 44.3353 85.7662 44.006C86.3235 43.664 86.9695 43.493 87.7042 43.493C88.4642 43.493 89.1355 43.6577 89.7182 43.987C90.3009 44.3163 90.7569 44.7723 91.0862 45.355C91.4155 45.9377 91.5802 46.609 91.5802 47.369V54H89.4522V47.939C89.4522 47.4197 89.3572 46.9827 89.1672 46.628C88.9772 46.2607 88.7049 45.982 88.3502 45.792C88.0082 45.5893 87.6155 45.488 87.1722 45.488C86.7289 45.488 86.3299 45.5893 85.9752 45.792C85.6332 45.982 85.3672 46.2607 85.1772 46.628C84.9872 46.9953 84.8922 47.4323 84.8922 47.939V54H82.7452ZM97.1993 54V43.721H99.3463V54H97.1993ZM97.1993 42.315V39.845H99.3463V42.315H97.1993ZM101.857 54V43.721H103.909V45.735L103.662 45.469C103.915 44.823 104.32 44.3353 104.878 44.006C105.435 43.664 106.081 43.493 106.816 43.493C107.576 43.493 108.247 43.6577 108.83 43.987C109.412 44.3163 109.868 44.7723 110.198 45.355C110.527 45.9377 110.692 46.609 110.692 47.369V54H108.564V47.939C108.564 47.4197 108.469 46.9827 108.279 46.628C108.089 46.2607 107.816 45.982 107.462 45.792C107.12 45.5893 106.727 45.488 106.284 45.488C105.84 45.488 105.441 45.5893 105.087 45.792C104.745 45.982 104.479 46.2607 104.289 46.628C104.099 46.9953 104.004 47.4323 104.004 47.939V54H101.857ZM120.757 54.114C119.68 54.114 118.844 53.81 118.249 53.202C117.653 52.594 117.356 51.739 117.356 50.637V45.659H115.551V43.721H115.836C116.317 43.721 116.691 43.5817 116.957 43.303C117.223 43.0243 117.356 42.6443 117.356 42.163V41.365H119.503V43.721H121.84V45.659H119.503V50.542C119.503 50.8967 119.56 51.2007 119.674 51.454C119.788 51.6947 119.971 51.8847 120.225 52.024C120.478 52.1507 120.807 52.214 121.213 52.214C121.314 52.214 121.428 52.2077 121.555 52.195C121.681 52.1823 121.802 52.1697 121.916 52.157V54C121.738 54.0253 121.542 54.0507 121.327 54.076C121.111 54.1013 120.921 54.114 120.757 54.114ZM124.011 54V39.617H126.158V45.735L125.816 45.469C126.069 44.823 126.475 44.3353 127.032 44.006C127.589 43.664 128.235 43.493 128.97 43.493C129.73 43.493 130.401 43.6577 130.984 43.987C131.567 44.3163 132.023 44.7723 132.352 45.355C132.681 45.9377 132.846 46.6027 132.846 47.35V54H130.718V47.939C130.718 47.4197 130.617 46.9827 130.414 46.628C130.224 46.2607 129.958 45.982 129.616 45.792C129.274 45.5893 128.881 45.488 128.438 45.488C128.007 45.488 127.615 45.5893 127.26 45.792C126.918 45.982 126.646 46.2607 126.443 46.628C126.253 46.9953 126.158 47.4323 126.158 47.939V54H124.011ZM139.97 54.228C138.944 54.228 138.032 53.9937 137.234 53.525C136.448 53.0437 135.834 52.3977 135.391 51.587C134.947 50.7637 134.726 49.8453 134.726 48.832C134.726 47.7933 134.947 46.875 135.391 46.077C135.847 45.279 136.455 44.652 137.215 44.196C137.975 43.7273 138.836 43.493 139.799 43.493C140.571 43.493 141.262 43.626 141.87 43.892C142.478 44.158 142.991 44.5253 143.409 44.994C143.827 45.45 144.143 45.9757 144.359 46.571C144.587 47.1663 144.701 47.7997 144.701 48.471C144.701 48.6357 144.694 48.8067 144.682 48.984C144.669 49.1613 144.644 49.326 144.606 49.478H136.417V47.768H143.39L142.364 48.547C142.49 47.9263 142.446 47.3753 142.231 46.894C142.028 46.4 141.711 46.0137 141.281 45.735C140.863 45.4437 140.369 45.298 139.799 45.298C139.229 45.298 138.722 45.4437 138.279 45.735C137.835 46.0137 137.493 46.419 137.253 46.951C137.012 47.4703 136.917 48.1037 136.968 48.851C136.904 49.5477 136.999 50.1557 137.253 50.675C137.519 51.1943 137.886 51.5997 138.355 51.891C138.836 52.1823 139.381 52.328 139.989 52.328C140.609 52.328 141.135 52.1887 141.566 51.91C142.009 51.6313 142.357 51.2703 142.611 50.827L144.359 51.682C144.156 52.1633 143.839 52.6003 143.409 52.993C142.991 53.373 142.484 53.677 141.889 53.905C141.306 54.1203 140.666 54.228 139.97 54.228ZM150.117 57.8V43.721H152.169V45.849L151.922 45.355C152.302 44.7723 152.809 44.3163 153.442 43.987C154.076 43.6577 154.798 43.493 155.608 43.493C156.584 43.493 157.458 43.7273 158.23 44.196C159.016 44.6647 159.63 45.3043 160.073 46.115C160.529 46.9257 160.757 47.8377 160.757 48.851C160.757 49.8643 160.529 50.7763 160.073 51.587C159.63 52.3977 159.022 53.0437 158.249 53.525C157.477 53.9937 156.596 54.228 155.608 54.228C154.81 54.228 154.082 54.0633 153.423 53.734C152.777 53.4047 152.277 52.9297 151.922 52.309L152.264 51.91V57.8H150.117ZM155.399 52.233C156.007 52.233 156.546 52.0873 157.014 51.796C157.483 51.5047 157.85 51.1057 158.116 50.599C158.395 50.0797 158.534 49.497 158.534 48.851C158.534 48.205 158.395 47.6287 158.116 47.122C157.85 46.6153 157.483 46.2163 157.014 45.925C156.546 45.6337 156.007 45.488 155.399 45.488C154.804 45.488 154.266 45.6337 153.784 45.925C153.316 46.2163 152.942 46.6153 152.663 47.122C152.397 47.6287 152.264 48.205 152.264 48.851C152.264 49.497 152.397 50.0797 152.663 50.599C152.942 51.1057 153.316 51.5047 153.784 51.796C154.266 52.0873 154.804 52.233 155.399 52.233ZM162.846 54V43.721H164.898V45.792L164.708 45.488C164.936 44.8167 165.303 44.3353 165.81 44.044C166.316 43.74 166.924 43.588 167.634 43.588H168.261V45.545H167.368C166.658 45.545 166.082 45.7667 165.639 46.21C165.208 46.6407 164.993 47.2613 164.993 48.072V54H162.846ZM174.689 54.228C173.701 54.228 172.795 53.9937 171.972 53.525C171.161 53.0563 170.515 52.4167 170.034 51.606C169.552 50.7953 169.312 49.877 169.312 48.851C169.312 47.8123 169.552 46.894 170.034 46.096C170.515 45.2853 171.161 44.652 171.972 44.196C172.782 43.7273 173.688 43.493 174.689 43.493C175.702 43.493 176.608 43.7273 177.406 44.196C178.216 44.652 178.856 45.2853 179.325 46.096C179.806 46.894 180.047 47.8123 180.047 48.851C180.047 49.8897 179.806 50.8143 179.325 51.625C178.843 52.4357 178.197 53.0753 177.387 53.544C176.576 54 175.677 54.228 174.689 54.228ZM174.689 52.233C175.297 52.233 175.835 52.0873 176.304 51.796C176.772 51.5047 177.14 51.1057 177.406 50.599C177.684 50.0797 177.824 49.497 177.824 48.851C177.824 48.205 177.684 47.6287 177.406 47.122C177.14 46.6153 176.772 46.2163 176.304 45.925C175.835 45.6337 175.297 45.488 174.689 45.488C174.093 45.488 173.555 45.6337 173.074 45.925C172.605 46.2163 172.231 46.6153 171.953 47.122C171.687 47.6287 171.554 48.205 171.554 48.851C171.554 49.497 171.687 50.0797 171.953 50.599C172.231 51.1057 172.605 51.5047 173.074 51.796C173.555 52.0873 174.093 52.233 174.689 52.233ZM182.143 57.8V43.721H184.195V45.849L183.948 45.355C184.328 44.7723 184.834 44.3163 185.468 43.987C186.101 43.6577 186.823 43.493 187.634 43.493C188.609 43.493 189.483 43.7273 190.256 44.196C191.041 44.6647 191.655 45.3043 192.099 46.115C192.555 46.9257 192.783 47.8377 192.783 48.851C192.783 49.8643 192.555 50.7763 192.099 51.587C191.655 52.3977 191.047 53.0437 190.275 53.525C189.502 53.9937 188.622 54.228 187.634 54.228C186.836 54.228 186.107 54.0633 185.449 53.734C184.803 53.4047 184.302 52.9297 183.948 52.309L184.29 51.91V57.8H182.143ZM187.425 52.233C188.033 52.233 188.571 52.0873 189.04 51.796C189.508 51.5047 189.876 51.1057 190.142 50.599C190.42 50.0797 190.56 49.497 190.56 48.851C190.56 48.205 190.42 47.6287 190.142 47.122C189.876 46.6153 189.508 46.2163 189.04 45.925C188.571 45.6337 188.033 45.488 187.425 45.488C186.829 45.488 186.291 45.6337 185.81 45.925C185.341 46.2163 184.967 46.6153 184.689 47.122C184.423 47.6287 184.29 48.205 184.29 48.851C184.29 49.497 184.423 50.0797 184.689 50.599C184.967 51.1057 185.341 51.5047 185.81 51.796C186.291 52.0873 186.829 52.233 187.425 52.233ZM199.83 54.228C198.842 54.228 197.937 53.9937 197.113 53.525C196.303 53.0563 195.657 52.4167 195.175 51.606C194.694 50.7953 194.453 49.877 194.453 48.851C194.453 47.8123 194.694 46.894 195.175 46.096C195.657 45.2853 196.303 44.652 197.113 44.196C197.924 43.7273 198.83 43.493 199.83 43.493C200.844 43.493 201.749 43.7273 202.547 44.196C203.358 44.652 203.998 45.2853 204.466 46.096C204.948 46.894 205.188 47.8123 205.188 48.851C205.188 49.8897 204.948 50.8143 204.466 51.625C203.985 52.4357 203.339 53.0753 202.528 53.544C201.718 54 200.818 54.228 199.83 54.228ZM199.83 52.233C200.438 52.233 200.977 52.0873 201.445 51.796C201.914 51.5047 202.281 51.1057 202.547 50.599C202.826 50.0797 202.965 49.497 202.965 48.851C202.965 48.205 202.826 47.6287 202.547 47.122C202.281 46.6153 201.914 46.2163 201.445 45.925C200.977 45.6337 200.438 45.488 199.83 45.488C199.235 45.488 198.697 45.6337 198.215 45.925C197.747 46.2163 197.373 46.6153 197.094 47.122C196.828 47.6287 196.695 48.205 196.695 48.851C196.695 49.497 196.828 50.0797 197.094 50.599C197.373 51.1057 197.747 51.5047 198.215 51.796C198.697 52.0873 199.235 52.233 199.83 52.233ZM211.084 54.228C210.033 54.228 209.108 53.9683 208.31 53.449C207.525 52.9297 206.974 52.233 206.657 51.359L208.31 50.58C208.589 51.1627 208.969 51.625 209.45 51.967C209.944 52.309 210.489 52.48 211.084 52.48C211.591 52.48 212.003 52.366 212.319 52.138C212.636 51.91 212.794 51.5997 212.794 51.207C212.794 50.9537 212.725 50.751 212.585 50.599C212.446 50.4343 212.269 50.3013 212.053 50.2C211.851 50.0987 211.642 50.0227 211.426 49.972L209.811 49.516C208.925 49.2627 208.26 48.8827 207.816 48.376C207.386 47.8567 207.17 47.255 207.17 46.571C207.17 45.9503 207.329 45.412 207.645 44.956C207.962 44.4873 208.399 44.1263 208.956 43.873C209.514 43.6197 210.141 43.493 210.837 43.493C211.775 43.493 212.611 43.7273 213.345 44.196C214.08 44.652 214.599 45.2917 214.903 46.115L213.25 46.894C213.048 46.4 212.725 46.0073 212.281 45.716C211.851 45.4247 211.363 45.279 210.818 45.279C210.35 45.279 209.976 45.393 209.697 45.621C209.419 45.8363 209.279 46.1213 209.279 46.476C209.279 46.7167 209.343 46.9193 209.469 47.084C209.596 47.236 209.761 47.3627 209.963 47.464C210.166 47.5527 210.375 47.6287 210.59 47.692L212.262 48.186C213.111 48.4267 213.763 48.8067 214.219 49.326C214.675 49.8327 214.903 50.4407 214.903 51.15C214.903 51.758 214.739 52.2963 214.409 52.765C214.093 53.221 213.649 53.582 213.079 53.848C212.509 54.1013 211.844 54.228 211.084 54.228ZM220.085 54.228C219.388 54.228 218.774 54.1077 218.242 53.867C217.723 53.6137 217.317 53.2717 217.026 52.841C216.735 52.3977 216.589 51.8783 216.589 51.283C216.589 50.7257 216.709 50.2253 216.95 49.782C217.203 49.3387 217.59 48.965 218.109 48.661C218.628 48.357 219.281 48.1417 220.066 48.015L223.638 47.426V49.117L220.484 49.668C219.914 49.7693 219.496 49.953 219.23 50.219C218.964 50.4723 218.831 50.8017 218.831 51.207C218.831 51.5997 218.977 51.9227 219.268 52.176C219.572 52.4167 219.958 52.537 220.427 52.537C221.01 52.537 221.516 52.4103 221.947 52.157C222.39 51.9037 222.732 51.568 222.973 51.15C223.214 50.7193 223.334 50.2443 223.334 49.725V47.084C223.334 46.5773 223.144 46.1657 222.764 45.849C222.397 45.5197 221.903 45.355 221.282 45.355C220.712 45.355 220.212 45.507 219.781 45.811C219.363 46.1023 219.053 46.4823 218.85 46.951L217.064 46.058C217.254 45.5513 217.564 45.108 217.995 44.728C218.426 44.3353 218.926 44.0313 219.496 43.816C220.079 43.6007 220.693 43.493 221.339 43.493C222.15 43.493 222.865 43.645 223.486 43.949C224.119 44.253 224.607 44.6773 224.949 45.222C225.304 45.754 225.481 46.3747 225.481 47.084V54H223.429V52.138L223.866 52.195C223.625 52.613 223.315 52.974 222.935 53.278C222.568 53.582 222.143 53.8163 221.662 53.981C221.193 54.1457 220.668 54.228 220.085 54.228ZM227.991 54V39.617H230.138V54H227.991Z" fill="#5E2FD3"/>
</svg>
