<svg width="252" height="59" viewBox="0 0 252 59" fill="none" xmlns="http://www.w3.org/2000/svg">
<mask id="mask0_1224_974" style="mask-type:alpha" maskUnits="userSpaceOnUse" x="0" y="0" width="25" height="24">
<rect x="0.5" width="24" height="24" fill="#D9D9D9"/>
</mask>
<g mask="url(#mask0_1224_974)">
<path d="M9.5 16.25C9.15 16.25 8.85417 16.1292 8.6125 15.8875C8.37083 15.6458 8.25 15.35 8.25 15C8.25 14.65 8.37083 14.3542 8.6125 14.1125C8.85417 13.8708 9.15 13.75 9.5 13.75C9.85 13.75 10.1458 13.8708 10.3875 14.1125C10.6292 14.3542 10.75 14.65 10.75 15C10.75 15.35 10.6292 15.6458 10.3875 15.8875C10.1458 16.1292 9.85 16.25 9.5 16.25ZM15.5 16.25C15.15 16.25 14.8542 16.1292 14.6125 15.8875C14.3708 15.6458 14.25 15.35 14.25 15C14.25 14.65 14.3708 14.3542 14.6125 14.1125C14.8542 13.8708 15.15 13.75 15.5 13.75C15.85 13.75 16.1458 13.8708 16.3875 14.1125C16.6292 14.3542 16.75 14.65 16.75 15C16.75 15.35 16.6292 15.6458 16.3875 15.8875C16.1458 16.1292 15.85 16.25 15.5 16.25ZM12.5 22C14.7333 22 16.625 21.225 18.175 19.675C19.725 18.125 20.5 16.2333 20.5 14C20.5 13.6 20.475 13.2125 20.425 12.8375C20.375 12.4625 20.2833 12.1 20.15 11.75C19.8 11.8333 19.45 11.8958 19.1 11.9375C18.75 11.9792 18.3833 12 18 12C16.4833 12 15.05 11.675 13.7 11.025C12.35 10.375 11.2 9.46667 10.25 8.3C9.71667 9.6 8.95417 10.7292 7.9625 11.6875C6.97083 12.6458 5.81667 13.3667 4.5 13.85V14C4.5 16.2333 5.275 18.125 6.825 19.675C8.375 21.225 10.2667 22 12.5 22ZM11.15 6.125C11.85 7.29167 12.8 8.22917 14 8.9375C15.2 9.64583 16.5333 10 18 10C18.2333 10 18.4583 9.9875 18.675 9.9625C18.8917 9.9375 19.1167 9.90833 19.35 9.875C18.65 8.70833 17.7 7.77083 16.5 7.0625C15.3 6.35417 13.9667 6 12.5 6C12.2667 6 12.0417 6.0125 11.825 6.0375C11.6083 6.0625 11.3833 6.09167 11.15 6.125ZM4.925 11.475C5.775 10.9917 6.51667 10.3667 7.15 9.6C7.78333 8.83333 8.25833 7.975 8.575 7.025C7.725 7.50833 6.98333 8.13333 6.35 8.9C5.71667 9.66667 5.24167 10.525 4.925 11.475ZM3.675 9.325C4.14167 8.44167 4.72917 7.64583 5.4375 6.9375C6.14583 6.22917 6.94167 5.64167 7.825 5.175C7.54167 4.825 7.2 4.54167 6.8 4.325C6.4 4.10833 5.95833 4 5.475 4C4.64167 4 3.9375 4.2875 3.3625 4.8625C2.7875 5.4375 2.5 6.14167 2.5 6.975C2.5 7.45833 2.60833 7.9 2.825 8.3C3.04167 8.7 3.325 9.04167 3.675 9.325ZM12.5 24C11.1167 24 9.81667 23.7375 8.6 23.2125C7.38333 22.6875 6.325 21.975 5.425 21.075C4.525 20.175 3.8125 19.1167 3.2875 17.9C2.7625 16.6833 2.5 15.3833 2.5 14C2.5 13.5167 2.53333 13.0375 2.6 12.5625C2.66667 12.0875 2.76667 11.6333 2.9 11.2C2.18333 10.7667 1.60417 10.1792 1.1625 9.4375C0.720833 8.69583 0.5 7.875 0.5 6.975C0.5 5.59167 0.983333 4.41667 1.95 3.45C2.91667 2.48333 4.09167 2 5.475 2C6.35833 2 7.17083 2.2125 7.9125 2.6375C8.65417 3.0625 9.25 3.65 9.7 4.4C10.1333 4.26667 10.5875 4.16667 11.0625 4.1C11.5375 4.03333 12.0167 4 12.5 4C13.8833 4 15.1833 4.2625 16.4 4.7875C17.6167 5.3125 18.675 6.025 19.575 6.925C20.475 7.825 21.1875 8.88333 21.7125 10.1C22.2375 11.3167 22.5 12.6167 22.5 14C22.5 15.3833 22.2375 16.6833 21.7125 17.9C21.1875 19.1167 20.475 20.175 19.575 21.075C18.675 21.975 17.6167 22.6875 16.4 23.2125C15.1833 23.7375 13.8833 24 12.5 24Z" fill="#5E2FD3"/>
</g>
<path d="M1.963 54V39.845H6.599C8.06833 39.845 9.34133 40.1427 10.418 40.738C11.5073 41.3207 12.3497 42.144 12.945 43.208C13.5403 44.272 13.838 45.507 13.838 46.913C13.838 48.3063 13.5403 49.5413 12.945 50.618C12.3497 51.682 11.5073 52.5117 10.418 53.107C9.34133 53.7023 8.06833 54 6.599 54H1.963ZM4.205 52.005H6.637C7.63767 52.005 8.50533 51.796 9.24 51.378C9.98733 50.96 10.5637 50.371 10.969 49.611C11.3743 48.851 11.577 47.9517 11.577 46.913C11.577 45.8743 11.368 44.9813 10.95 44.234C10.5447 43.474 9.97467 42.885 9.24 42.467C8.50533 42.049 7.63767 41.84 6.637 41.84H4.205V52.005ZM20.796 54.228C19.808 54.228 18.9023 53.9937 18.079 53.525C17.2683 53.0563 16.6223 52.4167 16.141 51.606C15.6597 50.7953 15.419 49.877 15.419 48.851C15.419 47.8123 15.6597 46.894 16.141 46.096C16.6223 45.2853 17.2683 44.652 18.079 44.196C18.8897 43.7273 19.7953 43.493 20.796 43.493C21.8093 43.493 22.715 43.7273 23.513 44.196C24.3237 44.652 24.9633 45.2853 25.432 46.096C25.9133 46.894 26.154 47.8123 26.154 48.851C26.154 49.8897 25.9133 50.8143 25.432 51.625C24.9507 52.4357 24.3047 53.0753 23.494 53.544C22.6833 54 21.784 54.228 20.796 54.228ZM20.796 52.233C21.404 52.233 21.9423 52.0873 22.411 51.796C22.8797 51.5047 23.247 51.1057 23.513 50.599C23.7917 50.0797 23.931 49.497 23.931 48.851C23.931 48.205 23.7917 47.6287 23.513 47.122C23.247 46.6153 22.8797 46.2163 22.411 45.925C21.9423 45.6337 21.404 45.488 20.796 45.488C20.2007 45.488 19.6623 45.6337 19.181 45.925C18.7123 46.2163 18.3387 46.6153 18.06 47.122C17.794 47.6287 17.661 48.205 17.661 48.851C17.661 49.497 17.794 50.0797 18.06 50.599C18.3387 51.1057 18.7123 51.5047 19.181 51.796C19.6623 52.0873 20.2007 52.233 20.796 52.233ZM28.2501 54V43.721H30.3971V54H28.2501ZM28.2501 42.315V39.845H30.3971V42.315H28.2501ZM32.9073 54V43.721H34.9593V45.735L34.7123 45.469C34.9657 44.823 35.371 44.3353 35.9283 44.006C36.4857 43.664 37.1317 43.493 37.8663 43.493C38.6263 43.493 39.2977 43.6577 39.8803 43.987C40.463 44.3163 40.919 44.7723 41.2483 45.355C41.5777 45.9377 41.7423 46.609 41.7423 47.369V54H39.6143V47.939C39.6143 47.4197 39.5193 46.9827 39.3293 46.628C39.1393 46.2607 38.867 45.982 38.5123 45.792C38.1703 45.5893 37.7777 45.488 37.3343 45.488C36.891 45.488 36.492 45.5893 36.1373 45.792C35.7953 45.982 35.5293 46.2607 35.3393 46.628C35.1493 46.9953 35.0543 47.4323 35.0543 47.939V54H32.9073ZM48.9991 58.18C48.2518 58.18 47.5615 58.0597 46.9281 57.819C46.2948 57.5783 45.7501 57.2427 45.2941 56.812C44.8381 56.394 44.4961 55.9 44.2681 55.33L46.2441 54.513C46.4215 54.9943 46.7445 55.3933 47.2131 55.71C47.6945 56.0267 48.2835 56.185 48.9801 56.185C49.5248 56.185 50.0125 56.0773 50.4431 55.862C50.8738 55.6593 51.2158 55.3553 51.4691 54.95C51.7225 54.5573 51.8491 54.0823 51.8491 53.525V51.207L52.2291 51.644C51.8745 52.3027 51.3805 52.803 50.7471 53.145C50.1265 53.487 49.4235 53.658 48.6381 53.658C47.6881 53.658 46.8331 53.4363 46.0731 52.993C45.3131 52.5497 44.7115 51.9417 44.2681 51.169C43.8375 50.3963 43.6221 49.5287 43.6221 48.566C43.6221 47.5907 43.8375 46.723 44.2681 45.963C44.7115 45.203 45.3068 44.6013 46.0541 44.158C46.8015 43.7147 47.6565 43.493 48.6191 43.493C49.4045 43.493 50.1011 43.664 50.7091 44.006C51.3298 44.3353 51.8365 44.8167 52.2291 45.45L51.9441 45.982V43.721H53.9771V53.525C53.9771 54.4117 53.7618 55.2033 53.3311 55.9C52.9131 56.6093 52.3305 57.1667 51.5831 57.572C50.8358 57.9773 49.9745 58.18 48.9991 58.18ZM48.8851 51.663C49.4551 51.663 49.9618 51.53 50.4051 51.264C50.8485 50.9853 51.1968 50.618 51.4501 50.162C51.7161 49.6933 51.8491 49.1677 51.8491 48.585C51.8491 48.0023 51.7161 47.4767 51.4501 47.008C51.1841 46.5393 50.8295 46.172 50.3861 45.906C49.9428 45.6273 49.4425 45.488 48.8851 45.488C48.3025 45.488 47.7831 45.6273 47.3271 45.906C46.8711 46.172 46.5101 46.5393 46.2441 47.008C45.9908 47.464 45.8641 47.9897 45.8641 48.585C45.8641 49.155 45.9908 49.6743 46.2441 50.143C46.5101 50.6117 46.8711 50.9853 47.3271 51.264C47.7831 51.53 48.3025 51.663 48.8851 51.663ZM64.2576 54.114C63.181 54.114 62.345 53.81 61.7496 53.202C61.1543 52.594 60.8566 51.739 60.8566 50.637V45.659H59.0516V43.721H59.3366C59.818 43.721 60.1916 43.5817 60.4576 43.303C60.7236 43.0243 60.8566 42.6443 60.8566 42.163V41.365H63.0036V43.721H65.3406V45.659H63.0036V50.542C63.0036 50.8967 63.0606 51.2007 63.1746 51.454C63.2886 51.6947 63.4723 51.8847 63.7256 52.024C63.979 52.1507 64.3083 52.214 64.7136 52.214C64.815 52.214 64.929 52.2077 65.0556 52.195C65.1823 52.1823 65.3026 52.1697 65.4166 52.157V54C65.2393 54.0253 65.043 54.0507 64.8276 54.076C64.6123 54.1013 64.4223 54.114 64.2576 54.114ZM67.5118 54V39.617H69.6588V45.735L69.3168 45.469C69.5701 44.823 69.9755 44.3353 70.5328 44.006C71.0901 43.664 71.7361 43.493 72.4708 43.493C73.2308 43.493 73.9021 43.6577 74.4848 43.987C75.0675 44.3163 75.5235 44.7723 75.8528 45.355C76.1821 45.9377 76.3468 46.6027 76.3468 47.35V54H74.2188V47.939C74.2188 47.4197 74.1175 46.9827 73.9148 46.628C73.7248 46.2607 73.4588 45.982 73.1168 45.792C72.7748 45.5893 72.3821 45.488 71.9388 45.488C71.5081 45.488 71.1155 45.5893 70.7608 45.792C70.4188 45.982 70.1465 46.2607 69.9438 46.628C69.7538 46.9953 69.6588 47.4323 69.6588 47.939V54H67.5118ZM78.6446 54V43.721H80.7916V54H78.6446ZM78.6446 42.315V39.845H80.7916V42.315H78.6446ZM83.3019 54V43.721H85.3539V45.735L85.1069 45.469C85.3602 44.823 85.7655 44.3353 86.3229 44.006C86.8802 43.664 87.5262 43.493 88.2609 43.493C89.0209 43.493 89.6922 43.6577 90.2749 43.987C90.8575 44.3163 91.3135 44.7723 91.6429 45.355C91.9722 45.9377 92.1369 46.609 92.1369 47.369V54H90.0089V47.939C90.0089 47.4197 89.9139 46.9827 89.7239 46.628C89.5339 46.2607 89.2615 45.982 88.9069 45.792C88.5649 45.5893 88.1722 45.488 87.7289 45.488C87.2855 45.488 86.8865 45.5893 86.5319 45.792C86.1899 45.982 85.9239 46.2607 85.7339 46.628C85.5439 46.9953 85.4489 47.4323 85.4489 47.939V54H83.3019ZM99.3937 58.18C98.6463 58.18 97.956 58.0597 97.3227 57.819C96.6893 57.5783 96.1447 57.2427 95.6887 56.812C95.2327 56.394 94.8907 55.9 94.6627 55.33L96.6387 54.513C96.816 54.9943 97.139 55.3933 97.6077 55.71C98.089 56.0267 98.678 56.185 99.3747 56.185C99.9193 56.185 100.407 56.0773 100.838 55.862C101.268 55.6593 101.61 55.3553 101.864 54.95C102.117 54.5573 102.244 54.0823 102.244 53.525V51.207L102.624 51.644C102.269 52.3027 101.775 52.803 101.142 53.145C100.521 53.487 99.818 53.658 99.0327 53.658C98.0827 53.658 97.2277 53.4363 96.4677 52.993C95.7077 52.5497 95.106 51.9417 94.6627 51.169C94.232 50.3963 94.0167 49.5287 94.0167 48.566C94.0167 47.5907 94.232 46.723 94.6627 45.963C95.106 45.203 95.7013 44.6013 96.4487 44.158C97.196 43.7147 98.051 43.493 99.0137 43.493C99.799 43.493 100.496 43.664 101.104 44.006C101.724 44.3353 102.231 44.8167 102.624 45.45L102.339 45.982V43.721H104.372V53.525C104.372 54.4117 104.156 55.2033 103.726 55.9C103.308 56.6093 102.725 57.1667 101.978 57.572C101.23 57.9773 100.369 58.18 99.3937 58.18ZM99.2797 51.663C99.8497 51.663 100.356 51.53 100.8 51.264C101.243 50.9853 101.591 50.618 101.845 50.162C102.111 49.6933 102.244 49.1677 102.244 48.585C102.244 48.0023 102.111 47.4767 101.845 47.008C101.579 46.5393 101.224 46.172 100.781 45.906C100.337 45.6273 99.837 45.488 99.2797 45.488C98.697 45.488 98.1777 45.6273 97.7217 45.906C97.2657 46.172 96.9047 46.5393 96.6387 47.008C96.3853 47.464 96.2587 47.9897 96.2587 48.585C96.2587 49.155 96.3853 49.6743 96.6387 50.143C96.9047 50.6117 97.2657 50.9853 97.7217 51.264C98.1777 51.53 98.697 51.663 99.2797 51.663ZM110.685 54.228C109.634 54.228 108.709 53.9683 107.911 53.449C107.126 52.9297 106.575 52.233 106.258 51.359L107.911 50.58C108.19 51.1627 108.57 51.625 109.051 51.967C109.545 52.309 110.09 52.48 110.685 52.48C111.192 52.48 111.603 52.366 111.92 52.138C112.237 51.91 112.395 51.5997 112.395 51.207C112.395 50.9537 112.325 50.751 112.186 50.599C112.047 50.4343 111.869 50.3013 111.654 50.2C111.451 50.0987 111.242 50.0227 111.027 49.972L109.412 49.516C108.525 49.2627 107.86 48.8827 107.417 48.376C106.986 47.8567 106.771 47.255 106.771 46.571C106.771 45.9503 106.929 45.412 107.246 44.956C107.563 44.4873 108 44.1263 108.557 43.873C109.114 43.6197 109.741 43.493 110.438 43.493C111.375 43.493 112.211 43.7273 112.946 44.196C113.681 44.652 114.2 45.2917 114.504 46.115L112.851 46.894C112.648 46.4 112.325 46.0073 111.882 45.716C111.451 45.4247 110.964 45.279 110.419 45.279C109.95 45.279 109.577 45.393 109.298 45.621C109.019 45.8363 108.88 46.1213 108.88 46.476C108.88 46.7167 108.943 46.9193 109.07 47.084C109.197 47.236 109.361 47.3627 109.564 47.464C109.767 47.5527 109.976 47.6287 110.191 47.692L111.863 48.186C112.712 48.4267 113.364 48.8067 113.82 49.326C114.276 49.8327 114.504 50.4407 114.504 51.15C114.504 51.758 114.339 52.2963 114.01 52.765C113.693 53.221 113.25 53.582 112.68 53.848C112.11 54.1013 111.445 54.228 110.685 54.228ZM119.929 54V43.721H121.981V45.944L121.715 45.602C121.93 44.9053 122.323 44.3797 122.893 44.025C123.463 43.6703 124.115 43.493 124.85 43.493C125.673 43.493 126.401 43.7147 127.035 44.158C127.681 44.5887 128.111 45.165 128.327 45.887L127.719 45.944C128.023 45.1207 128.485 44.5063 129.106 44.101C129.739 43.6957 130.461 43.493 131.272 43.493C131.981 43.493 132.621 43.6577 133.191 43.987C133.773 44.3163 134.236 44.7723 134.578 45.355C134.92 45.9377 135.091 46.6027 135.091 47.35V54H132.944V47.939C132.944 47.4197 132.849 46.9827 132.659 46.628C132.481 46.2607 132.228 45.982 131.899 45.792C131.582 45.5893 131.208 45.488 130.778 45.488C130.347 45.488 129.967 45.5893 129.638 45.792C129.308 45.982 129.049 46.2607 128.859 46.628C128.669 46.9953 128.574 47.4323 128.574 47.939V54H126.446V47.939C126.446 47.4197 126.351 46.9827 126.161 46.628C125.983 46.2607 125.73 45.982 125.401 45.792C125.084 45.5893 124.704 45.488 124.261 45.488C123.83 45.488 123.45 45.5893 123.121 45.792C122.791 45.982 122.532 46.2607 122.342 46.628C122.164 46.9953 122.076 47.4323 122.076 47.939V54H119.929ZM140.467 54.228C139.77 54.228 139.156 54.1077 138.624 53.867C138.104 53.6137 137.699 53.2717 137.408 52.841C137.116 52.3977 136.971 51.8783 136.971 51.283C136.971 50.7257 137.091 50.2253 137.332 49.782C137.585 49.3387 137.971 48.965 138.491 48.661C139.01 48.357 139.662 48.1417 140.448 48.015L144.02 47.426V49.117L140.866 49.668C140.296 49.7693 139.878 49.953 139.612 50.219C139.346 50.4723 139.213 50.8017 139.213 51.207C139.213 51.5997 139.358 51.9227 139.65 52.176C139.954 52.4167 140.34 52.537 140.809 52.537C141.391 52.537 141.898 52.4103 142.329 52.157C142.772 51.9037 143.114 51.568 143.355 51.15C143.595 50.7193 143.716 50.2443 143.716 49.725V47.084C143.716 46.5773 143.526 46.1657 143.146 45.849C142.778 45.5197 142.284 45.355 141.664 45.355C141.094 45.355 140.593 45.507 140.163 45.811C139.745 46.1023 139.434 46.4823 139.232 46.951L137.446 46.058C137.636 45.5513 137.946 45.108 138.377 44.728C138.807 44.3353 139.308 44.0313 139.878 43.816C140.46 43.6007 141.075 43.493 141.721 43.493C142.531 43.493 143.247 43.645 143.868 43.949C144.501 44.253 144.989 44.6773 145.331 45.222C145.685 45.754 145.863 46.3747 145.863 47.084V54H143.811V52.138L144.248 52.195C144.007 52.613 143.697 52.974 143.317 53.278C142.949 53.582 142.525 53.8163 142.044 53.981C141.575 54.1457 141.049 54.228 140.467 54.228ZM148.373 54V43.721H150.425V45.735L150.178 45.469C150.431 44.823 150.837 44.3353 151.394 44.006C151.951 43.664 152.597 43.493 153.332 43.493C154.092 43.493 154.763 43.6577 155.346 43.987C155.929 44.3163 156.385 44.7723 156.714 45.355C157.043 45.9377 157.208 46.609 157.208 47.369V54H155.08V47.939C155.08 47.4197 154.985 46.9827 154.795 46.628C154.605 46.2607 154.333 45.982 153.978 45.792C153.636 45.5893 153.243 45.488 152.8 45.488C152.357 45.488 151.958 45.5893 151.603 45.792C151.261 45.982 150.995 46.2607 150.805 46.628C150.615 46.9953 150.52 47.4323 150.52 47.939V54H148.373ZM163.173 54.228C162.4 54.228 161.723 54.057 161.14 53.715C160.557 53.3603 160.101 52.8727 159.772 52.252C159.455 51.6187 159.297 50.8903 159.297 50.067V43.721H161.444V49.877C161.444 50.3457 161.539 50.7573 161.729 51.112C161.919 51.4667 162.185 51.7453 162.527 51.948C162.869 52.138 163.262 52.233 163.705 52.233C164.161 52.233 164.56 52.1317 164.902 51.929C165.244 51.7263 165.51 51.4413 165.7 51.074C165.903 50.7067 166.004 50.276 166.004 49.782V43.721H168.132V54H166.099V51.986L166.327 52.252C166.086 52.8853 165.687 53.373 165.13 53.715C164.573 54.057 163.92 54.228 163.173 54.228ZM173.717 54.228C173.02 54.228 172.406 54.1077 171.874 53.867C171.354 53.6137 170.949 53.2717 170.658 52.841C170.366 52.3977 170.221 51.8783 170.221 51.283C170.221 50.7257 170.341 50.2253 170.582 49.782C170.835 49.3387 171.221 48.965 171.741 48.661C172.26 48.357 172.912 48.1417 173.698 48.015L177.27 47.426V49.117L174.116 49.668C173.546 49.7693 173.128 49.953 172.862 50.219C172.596 50.4723 172.463 50.8017 172.463 51.207C172.463 51.5997 172.608 51.9227 172.9 52.176C173.204 52.4167 173.59 52.537 174.059 52.537C174.641 52.537 175.148 52.4103 175.579 52.157C176.022 51.9037 176.364 51.568 176.605 51.15C176.845 50.7193 176.966 50.2443 176.966 49.725V47.084C176.966 46.5773 176.776 46.1657 176.396 45.849C176.028 45.5197 175.534 45.355 174.914 45.355C174.344 45.355 173.843 45.507 173.413 45.811C172.995 46.1023 172.684 46.4823 172.482 46.951L170.696 46.058C170.886 45.5513 171.196 45.108 171.627 44.728C172.057 44.3353 172.558 44.0313 173.128 43.816C173.71 43.6007 174.325 43.493 174.971 43.493C175.781 43.493 176.497 43.645 177.118 43.949C177.751 44.253 178.239 44.6773 178.581 45.222C178.935 45.754 179.113 46.3747 179.113 47.084V54H177.061V52.138L177.498 52.195C177.257 52.613 176.947 52.974 176.567 53.278C176.199 53.582 175.775 53.8163 175.294 53.981C174.825 54.1457 174.299 54.228 173.717 54.228ZM181.623 54V39.617H183.77V54H181.623ZM186.28 54V39.617H188.427V54H186.28ZM191.85 58.18C191.596 58.18 191.343 58.1547 191.09 58.104C190.849 58.066 190.627 58.0027 190.425 57.914V56.071C190.577 56.109 190.76 56.1407 190.976 56.166C191.191 56.204 191.4 56.223 191.603 56.223C192.198 56.223 192.635 56.09 192.914 55.824C193.205 55.5707 193.465 55.178 193.693 54.646L194.377 53.088L194.339 54.893L189.893 43.721H192.192L195.479 52.29H194.7L197.968 43.721H200.286L195.745 55.121C195.504 55.729 195.2 56.261 194.833 56.717C194.478 57.1857 194.054 57.5467 193.56 57.8C193.078 58.0533 192.508 58.18 191.85 58.18Z" fill="#5E2FD3"/>
</svg>
