<svg width="81" height="32" viewBox="0 0 81 32" fill="none" xmlns="http://www.w3.org/2000/svg">
<path d="M11.637 31.444C9.861 31.444 8.28233 31.0493 6.901 30.26C5.54433 29.4707 4.47133 28.3977 3.682 27.041C2.89267 25.6597 2.498 24.0933 2.498 22.342C2.498 21.38 2.609 20.4303 2.831 19.493C3.053 18.5557 3.41067 17.606 3.904 16.644C4.39733 15.682 5.02633 14.683 5.791 13.647L13.561 3.435H17.927L8.418 15.793L7.752 15.719C8.122 15.2257 8.529 14.8433 8.973 14.572C9.44167 14.3007 9.935 14.1033 10.453 13.98C10.9957 13.8567 11.563 13.795 12.155 13.795C13.783 13.795 15.2383 14.1773 16.521 14.942C17.8283 15.682 18.852 16.7057 19.592 18.013C20.3567 19.3203 20.739 20.825 20.739 22.527C20.739 24.229 20.3443 25.7583 19.555 27.115C18.7657 28.447 17.6803 29.5077 16.299 30.297C14.9423 31.0617 13.3883 31.444 11.637 31.444ZM11.637 28.188C12.673 28.188 13.598 27.9537 14.412 27.485C15.226 26.9917 15.8673 26.3133 16.336 25.45C16.8293 24.5867 17.076 23.6247 17.076 22.564C17.076 21.454 16.8417 20.492 16.373 19.678C15.9043 18.8393 15.263 18.1733 14.449 17.68C13.635 17.1867 12.6977 16.94 11.637 16.94C10.601 16.94 9.66367 17.1867 8.825 17.68C7.98633 18.1733 7.33267 18.8393 6.864 19.678C6.39533 20.492 6.161 21.454 6.161 22.564C6.161 23.6247 6.39533 24.5867 6.864 25.45C7.35733 26.3133 8.011 26.9917 8.825 27.485C9.66367 27.9537 10.601 28.188 11.637 28.188ZM25.4984 31L37.5974 6.58H24.0924V3.435H41.4084V6.58L29.4204 31H25.4984ZM48.2109 31L70.7069 3.435H74.8139L52.3179 31H48.2109ZM52.3549 17.421C50.9983 17.421 49.7773 17.1003 48.6919 16.459C47.6066 15.793 46.7309 14.9173 46.0649 13.832C45.4236 12.7467 45.1029 11.538 45.1029 10.206C45.1029 8.874 45.4236 7.66533 46.0649 6.58C46.7309 5.47 47.6066 4.59433 48.6919 3.953C49.7773 3.31167 50.9983 2.991 52.3549 2.991C53.6869 2.991 54.8956 3.31167 55.9809 3.953C57.0663 4.59433 57.9296 5.47 58.5709 6.58C59.2123 7.66533 59.5329 8.874 59.5329 10.206C59.5329 11.538 59.2123 12.7467 58.5709 13.832C57.9296 14.9173 57.0663 15.793 55.9809 16.459C54.8956 17.1003 53.6869 17.421 52.3549 17.421ZM52.3179 14.387C53.1566 14.387 53.8719 14.1897 54.4639 13.795C55.0559 13.4003 55.5246 12.8823 55.8699 12.241C56.2153 11.5997 56.3879 10.9213 56.3879 10.206C56.3879 9.466 56.2153 8.78767 55.8699 8.171C55.5246 7.52967 55.0559 7.01167 54.4639 6.617C53.8719 6.19766 53.1566 5.988 52.3179 5.988C51.5286 5.988 50.8256 6.19766 50.2089 6.617C49.5923 7.01167 49.1113 7.52967 48.7659 8.171C48.4206 8.81233 48.2479 9.49067 48.2479 10.206C48.2479 10.8967 48.4206 11.575 48.7659 12.241C49.1113 12.8823 49.5923 13.4003 50.2089 13.795C50.8256 14.1897 51.5286 14.387 52.3179 14.387ZM70.4479 31.444C69.0913 31.444 67.8703 31.1233 66.7849 30.482C65.6996 29.816 64.8239 28.9403 64.1579 27.855C63.5166 26.7697 63.1959 25.561 63.1959 24.229C63.1959 22.897 63.5166 21.6883 64.1579 20.603C64.8239 19.493 65.6996 18.6173 66.7849 17.976C67.8703 17.3347 69.0913 17.014 70.4479 17.014C71.7799 17.014 72.9886 17.3347 74.0739 17.976C75.1593 18.6173 76.0226 19.493 76.6639 20.603C77.3053 21.6883 77.6259 22.897 77.6259 24.229C77.6259 25.561 77.3053 26.7697 76.6639 27.855C76.0226 28.9403 75.1593 29.816 74.0739 30.482C72.9886 31.1233 71.7799 31.444 70.4479 31.444ZM70.4479 28.41C71.2619 28.41 71.9649 28.2127 72.5569 27.818C73.1736 27.4233 73.6423 26.9053 73.9629 26.264C74.3083 25.6227 74.4809 24.9443 74.4809 24.229C74.4809 23.489 74.3083 22.8107 73.9629 22.194C73.6423 21.5527 73.1736 21.0347 72.5569 20.64C71.9649 20.2207 71.2619 20.011 70.4479 20.011C69.6586 20.011 68.9433 20.2207 68.3019 20.64C67.6853 21.0347 67.2043 21.5527 66.8589 22.194C66.5136 22.8353 66.3409 23.5137 66.3409 24.229C66.3409 24.9197 66.5136 25.598 66.8589 26.264C67.2043 26.9053 67.6853 27.4233 68.3019 27.818C68.9433 28.2127 69.6586 28.41 70.4479 28.41Z" fill="#5E2FD3"/>
</svg>
