<svg width="252" height="59" viewBox="0 0 252 59" fill="none" xmlns="http://www.w3.org/2000/svg">
<mask id="mask0_1224_983" style="mask-type:alpha" maskUnits="userSpaceOnUse" x="0" y="0" width="25" height="24">
<rect x="0.5" width="24" height="24" fill="#D9D9D9"/>
</mask>
<g mask="url(#mask0_1224_983)">
<path d="M8.5 21V19H10.5V17H4.5C3.95 17 3.47917 16.8042 3.0875 16.4125C2.69583 16.0208 2.5 15.55 2.5 15V5C2.5 4.45 2.69583 3.97917 3.0875 3.5875C3.47917 3.19583 3.95 3 4.5 3H20.5C21.05 3 21.5208 3.19583 21.9125 3.5875C22.3042 3.97917 22.5 4.45 22.5 5V15C22.5 15.55 22.3042 16.0208 21.9125 16.4125C21.5208 16.8042 21.05 17 20.5 17H14.5V19H16.5V21H8.5ZM4.5 15H20.5V5H4.5V15Z" fill="#5E2FD3"/>
</g>
<path d="M1.963 54V39.845H4.053L9.373 47.217H8.328L13.553 39.845H15.643V54H13.42V42.486L14.256 42.714L8.917 50.01H8.689L3.464 42.714L4.205 42.486V54H1.963ZM22.0274 54.228C21.2548 54.228 20.5771 54.057 19.9944 53.715C19.4118 53.3603 18.9558 52.8727 18.6264 52.252C18.3098 51.6187 18.1514 50.8903 18.1514 50.067V43.721H20.2984V49.877C20.2984 50.3457 20.3934 50.7573 20.5834 51.112C20.7734 51.4667 21.0394 51.7453 21.3814 51.948C21.7234 52.138 22.1161 52.233 22.5594 52.233C23.0154 52.233 23.4144 52.1317 23.7564 51.929C24.0984 51.7263 24.3644 51.4413 24.5544 51.074C24.7571 50.7067 24.8584 50.276 24.8584 49.782V43.721H26.9864V54H24.9534V51.986L25.1814 52.252C24.9408 52.8853 24.5418 53.373 23.9844 53.715C23.4271 54.057 22.7748 54.228 22.0274 54.228ZM33.9393 54.114C32.8626 54.114 32.0266 53.81 31.4313 53.202C30.8359 52.594 30.5383 51.739 30.5383 50.637V45.659H28.7333V43.721H29.0183C29.4996 43.721 29.8733 43.5817 30.1393 43.303C30.4053 43.0243 30.5383 42.6443 30.5383 42.163V41.365H32.6853V43.721H35.0223V45.659H32.6853V50.542C32.6853 50.8967 32.7423 51.2007 32.8563 51.454C32.9703 51.6947 33.1539 51.8847 33.4073 52.024C33.6606 52.1507 33.9899 52.214 34.3953 52.214C34.4966 52.214 34.6106 52.2077 34.7373 52.195C34.8639 52.1823 34.9843 52.1697 35.0983 52.157V54C34.9209 54.0253 34.7246 54.0507 34.5093 54.076C34.2939 54.1013 34.1039 54.114 33.9393 54.114ZM37.1935 54V43.721H39.3405V54H37.1935ZM37.1935 42.315V39.845H39.3405V42.315H37.1935ZM41.8507 57.8V43.721H43.9027V45.849L43.6557 45.355C44.0357 44.7723 44.5423 44.3163 45.1757 43.987C45.809 43.6577 46.531 43.493 47.3417 43.493C48.317 43.493 49.191 43.7273 49.9637 44.196C50.749 44.6647 51.3633 45.3043 51.8067 46.115C52.2627 46.9257 52.4907 47.8377 52.4907 48.851C52.4907 49.8643 52.2627 50.7763 51.8067 51.587C51.3633 52.3977 50.7553 53.0437 49.9827 53.525C49.21 53.9937 48.3297 54.228 47.3417 54.228C46.5437 54.228 45.8153 54.0633 45.1567 53.734C44.5107 53.4047 44.0103 52.9297 43.6557 52.309L43.9977 51.91V57.8H41.8507ZM47.1327 52.233C47.7407 52.233 48.279 52.0873 48.7477 51.796C49.2163 51.5047 49.5837 51.1057 49.8497 50.599C50.1283 50.0797 50.2677 49.497 50.2677 48.851C50.2677 48.205 50.1283 47.6287 49.8497 47.122C49.5837 46.6153 49.2163 46.2163 48.7477 45.925C48.279 45.6337 47.7407 45.488 47.1327 45.488C46.5373 45.488 45.999 45.6337 45.5177 45.925C45.049 46.2163 44.6753 46.6153 44.3967 47.122C44.1307 47.6287 43.9977 48.205 43.9977 48.851C43.9977 49.497 44.1307 50.0797 44.3967 50.599C44.6753 51.1057 45.049 51.5047 45.5177 51.796C45.999 52.0873 46.5373 52.233 47.1327 52.233ZM54.5792 54V39.617H56.7262V54H54.5792ZM64.0624 54.228C63.0364 54.228 62.1244 53.9937 61.3264 53.525C60.5411 53.0437 59.9268 52.3977 59.4834 51.587C59.0401 50.7637 58.8184 49.8453 58.8184 48.832C58.8184 47.7933 59.0401 46.875 59.4834 46.077C59.9394 45.279 60.5474 44.652 61.3074 44.196C62.0674 43.7273 62.9288 43.493 63.8914 43.493C64.6641 43.493 65.3544 43.626 65.9624 43.892C66.5704 44.158 67.0834 44.5253 67.5014 44.994C67.9194 45.45 68.2361 45.9757 68.4514 46.571C68.6794 47.1663 68.7934 47.7997 68.7934 48.471C68.7934 48.6357 68.7871 48.8067 68.7744 48.984C68.7618 49.1613 68.7364 49.326 68.6984 49.478H60.5094V47.768H67.4824L66.4564 48.547C66.5831 47.9263 66.5388 47.3753 66.3234 46.894C66.1208 46.4 65.8041 46.0137 65.3734 45.735C64.9554 45.4437 64.4614 45.298 63.8914 45.298C63.3214 45.298 62.8148 45.4437 62.3714 45.735C61.9281 46.0137 61.5861 46.419 61.3454 46.951C61.1048 47.4703 61.0098 48.1037 61.0604 48.851C60.9971 49.5477 61.0921 50.1557 61.3454 50.675C61.6114 51.1943 61.9788 51.5997 62.4474 51.891C62.9288 52.1823 63.4734 52.328 64.0814 52.328C64.7021 52.328 65.2278 52.1887 65.6584 51.91C66.1018 51.6313 66.4501 51.2703 66.7034 50.827L68.4514 51.682C68.2488 52.1633 67.9321 52.6003 67.5014 52.993C67.0834 53.373 66.5768 53.677 65.9814 53.905C65.3988 54.1203 64.7591 54.228 64.0624 54.228ZM79.0931 54.228C78.0671 54.228 77.1551 53.9937 76.3571 53.525C75.5717 53.0437 74.9447 52.3977 74.4761 51.587C74.0201 50.7763 73.7921 49.858 73.7921 48.832C73.7921 47.8187 74.0201 46.9067 74.4761 46.096C74.9321 45.2853 75.5591 44.652 76.3571 44.196C77.1551 43.7273 78.0671 43.493 79.0931 43.493C79.7897 43.493 80.4421 43.6197 81.0501 43.873C81.6581 44.1137 82.1837 44.4493 82.6271 44.88C83.0831 45.3107 83.4187 45.811 83.6341 46.381L81.7531 47.255C81.5377 46.723 81.1894 46.2987 80.7081 45.982C80.2394 45.6527 79.7011 45.488 79.0931 45.488C78.5104 45.488 77.9847 45.6337 77.5161 45.925C77.0601 46.2037 76.6991 46.6027 76.4331 47.122C76.1671 47.6287 76.0341 48.205 76.0341 48.851C76.0341 49.497 76.1671 50.0797 76.4331 50.599C76.6991 51.1057 77.0601 51.5047 77.5161 51.796C77.9847 52.0873 78.5104 52.233 79.0931 52.233C79.7137 52.233 80.2521 52.0747 80.7081 51.758C81.1767 51.4287 81.5251 50.9917 81.7531 50.447L83.6341 51.34C83.4314 51.8847 83.1021 52.3787 82.6461 52.822C82.2027 53.2527 81.6771 53.5947 81.0691 53.848C80.4611 54.1013 79.8024 54.228 79.0931 54.228ZM85.7325 54V39.617H87.8795V45.735L87.5375 45.469C87.7908 44.823 88.1962 44.3353 88.7535 44.006C89.3108 43.664 89.9568 43.493 90.6915 43.493C91.4515 43.493 92.1228 43.6577 92.7055 43.987C93.2882 44.3163 93.7442 44.7723 94.0735 45.355C94.4028 45.9377 94.5675 46.6027 94.5675 47.35V54H92.4395V47.939C92.4395 47.4197 92.3382 46.9827 92.1355 46.628C91.9455 46.2607 91.6795 45.982 91.3375 45.792C90.9955 45.5893 90.6028 45.488 90.1595 45.488C89.7288 45.488 89.3362 45.5893 88.9815 45.792C88.6395 45.982 88.3672 46.2607 88.1645 46.628C87.9745 46.9953 87.8795 47.4323 87.8795 47.939V54H85.7325ZM99.9433 54.228C99.2467 54.228 98.6323 54.1077 98.1003 53.867C97.581 53.6137 97.1757 53.2717 96.8843 52.841C96.593 52.3977 96.4473 51.8783 96.4473 51.283C96.4473 50.7257 96.5677 50.2253 96.8083 49.782C97.0617 49.3387 97.448 48.965 97.9673 48.661C98.4867 48.357 99.139 48.1417 99.9243 48.015L103.496 47.426V49.117L100.342 49.668C99.7723 49.7693 99.3543 49.953 99.0883 50.219C98.8223 50.4723 98.6893 50.8017 98.6893 51.207C98.6893 51.5997 98.835 51.9227 99.1263 52.176C99.4303 52.4167 99.8167 52.537 100.285 52.537C100.868 52.537 101.375 52.4103 101.805 52.157C102.249 51.9037 102.591 51.568 102.831 51.15C103.072 50.7193 103.192 50.2443 103.192 49.725V47.084C103.192 46.5773 103.002 46.1657 102.622 45.849C102.255 45.5197 101.761 45.355 101.14 45.355C100.57 45.355 100.07 45.507 99.6393 45.811C99.2213 46.1023 98.911 46.4823 98.7083 46.951L96.9223 46.058C97.1123 45.5513 97.4227 45.108 97.8533 44.728C98.284 44.3353 98.7843 44.0313 99.3543 43.816C99.937 43.6007 100.551 43.493 101.197 43.493C102.008 43.493 102.724 43.645 103.344 43.949C103.978 44.253 104.465 44.6773 104.807 45.222C105.162 45.754 105.339 46.3747 105.339 47.084V54H103.287V52.138L103.724 52.195C103.484 52.613 103.173 52.974 102.793 53.278C102.426 53.582 102.002 53.8163 101.52 53.981C101.052 54.1457 100.526 54.228 99.9433 54.228ZM107.85 54V43.721H109.902V45.735L109.655 45.469C109.908 44.823 110.313 44.3353 110.871 44.006C111.428 43.664 112.074 43.493 112.809 43.493C113.569 43.493 114.24 43.6577 114.823 43.987C115.405 44.3163 115.861 44.7723 116.191 45.355C116.52 45.9377 116.685 46.609 116.685 47.369V54H114.557V47.939C114.557 47.4197 114.462 46.9827 114.272 46.628C114.082 46.2607 113.809 45.982 113.455 45.792C113.113 45.5893 112.72 45.488 112.277 45.488C111.833 45.488 111.434 45.5893 111.08 45.792C110.738 45.982 110.472 46.2607 110.282 46.628C110.092 46.9953 109.997 47.4323 109.997 47.939V54H107.85ZM118.983 54V43.721H121.035V45.735L120.788 45.469C121.041 44.823 121.446 44.3353 122.004 44.006C122.561 43.664 123.207 43.493 123.942 43.493C124.702 43.493 125.373 43.6577 125.956 43.987C126.538 44.3163 126.994 44.7723 127.324 45.355C127.653 45.9377 127.818 46.609 127.818 47.369V54H125.69V47.939C125.69 47.4197 125.595 46.9827 125.405 46.628C125.215 46.2607 124.942 45.982 124.588 45.792C124.246 45.5893 123.853 45.488 123.41 45.488C122.966 45.488 122.567 45.5893 122.213 45.792C121.871 45.982 121.605 46.2607 121.415 46.628C121.225 46.9953 121.13 47.4323 121.13 47.939V54H118.983ZM134.941 54.228C133.915 54.228 133.003 53.9937 132.205 53.525C131.42 53.0437 130.806 52.3977 130.362 51.587C129.919 50.7637 129.697 49.8453 129.697 48.832C129.697 47.7933 129.919 46.875 130.362 46.077C130.818 45.279 131.426 44.652 132.186 44.196C132.946 43.7273 133.808 43.493 134.77 43.493C135.543 43.493 136.233 43.626 136.841 43.892C137.449 44.158 137.962 44.5253 138.38 44.994C138.798 45.45 139.115 45.9757 139.33 46.571C139.558 47.1663 139.672 47.7997 139.672 48.471C139.672 48.6357 139.666 48.8067 139.653 48.984C139.641 49.1613 139.615 49.326 139.577 49.478H131.388V47.768H138.361L137.335 48.547C137.462 47.9263 137.418 47.3753 137.202 46.894C137 46.4 136.683 46.0137 136.252 45.735C135.834 45.4437 135.34 45.298 134.77 45.298C134.2 45.298 133.694 45.4437 133.25 45.735C132.807 46.0137 132.465 46.419 132.224 46.951C131.984 47.4703 131.889 48.1037 131.939 48.851C131.876 49.5477 131.971 50.1557 132.224 50.675C132.49 51.1943 132.858 51.5997 133.326 51.891C133.808 52.1823 134.352 52.328 134.96 52.328C135.581 52.328 136.107 52.1887 136.537 51.91C136.981 51.6313 137.329 51.2703 137.582 50.827L139.33 51.682C139.128 52.1633 138.811 52.6003 138.38 52.993C137.962 53.373 137.456 53.677 136.86 53.905C136.278 54.1203 135.638 54.228 134.941 54.228ZM141.768 54V39.617H143.915V54H141.768ZM150.225 54.228C149.174 54.228 148.249 53.9683 147.451 53.449C146.666 52.9297 146.115 52.233 145.798 51.359L147.451 50.58C147.73 51.1627 148.11 51.625 148.591 51.967C149.085 52.309 149.63 52.48 150.225 52.48C150.732 52.48 151.143 52.366 151.46 52.138C151.777 51.91 151.935 51.5997 151.935 51.207C151.935 50.9537 151.865 50.751 151.726 50.599C151.587 50.4343 151.409 50.3013 151.194 50.2C150.991 50.0987 150.782 50.0227 150.567 49.972L148.952 49.516C148.065 49.2627 147.4 48.8827 146.957 48.376C146.526 47.8567 146.311 47.255 146.311 46.571C146.311 45.9503 146.469 45.412 146.786 44.956C147.103 44.4873 147.54 44.1263 148.097 43.873C148.654 43.6197 149.281 43.493 149.978 43.493C150.915 43.493 151.751 43.7273 152.486 44.196C153.221 44.652 153.74 45.2917 154.044 46.115L152.391 46.894C152.188 46.4 151.865 46.0073 151.422 45.716C150.991 45.4247 150.504 45.279 149.959 45.279C149.49 45.279 149.117 45.393 148.838 45.621C148.559 45.8363 148.42 46.1213 148.42 46.476C148.42 46.7167 148.483 46.9193 148.61 47.084C148.737 47.236 148.901 47.3627 149.104 47.464C149.307 47.5527 149.516 47.6287 149.731 47.692L151.403 48.186C152.252 48.4267 152.904 48.8067 153.36 49.326C153.816 49.8327 154.044 50.4407 154.044 51.15C154.044 51.758 153.879 52.2963 153.55 52.765C153.233 53.221 152.79 53.582 152.22 53.848C151.65 54.1013 150.985 54.228 150.225 54.228Z" fill="#5E2FD3"/>
</svg>
