<svg width="416" height="386" viewBox="0 0 416 386" fill="none" xmlns="http://www.w3.org/2000/svg">
<g clip-path="url(#clip0_1015_1882)">
<path d="M8.06534 70.8423L9.5843 67.1431C10.4232 65.1001 10.298 62.7307 9.14271 60.7478L7.12971 57.2925C6.7172 56.5844 7.4409 55.7536 8.19884 56.0648L11.898 57.5838C13.941 58.4227 16.3104 58.2974 18.2934 57.1422L21.7486 55.1292C22.4567 54.7167 23.2876 55.4405 22.9764 56.1984L21.4574 59.8975C20.6185 61.9405 20.7438 64.3099 21.899 66.2929L23.912 69.7482C24.3245 70.4563 23.6008 71.2871 22.8429 70.9759L19.1437 69.4569C17.1008 68.618 14.7313 68.7433 12.7484 69.8985L9.29307 71.9115C8.58495 72.324 7.75414 71.6002 8.06534 70.8423ZM9.89138 58.618L10.6281 59.8825C12.0038 62.2438 12.2532 65.1692 11.1745 67.7961L10.6186 69.1498L11.8831 68.4132C14.2444 67.0375 17.1698 66.7881 19.7967 67.8667L21.1504 68.4226L20.4137 67.1581C19.038 64.7968 18.7886 61.8714 19.8673 59.2445L20.4232 57.8908L19.1587 58.6274C16.7974 60.0031 13.872 60.2525 11.2451 59.1739L9.89138 58.618Z" fill="#120B23"/>
</g>
<g clip-path="url(#clip1_1015_1882)">
<path d="M49.968 12.9296L54.9775 12.0304C57.7441 11.5338 60.2018 9.77905 61.5403 7.18298L63.8726 2.65934C64.3506 1.73233 65.7373 1.94097 65.9216 2.96737L66.8208 7.97682C67.3173 10.7435 69.0722 13.2011 71.6682 14.5396L76.1918 16.8719C77.1188 17.3499 76.9101 18.7367 75.8837 18.9209L70.8743 19.8202C68.1077 20.3168 65.6501 22.0715 64.3116 24.6676L61.9792 29.1912C61.5012 30.1182 60.1145 29.9095 59.9302 28.8832L59.0311 23.8737C58.5345 21.1072 56.7797 18.6494 54.1836 17.311L49.66 14.9786C48.733 14.5006 48.9418 13.1138 49.968 12.9296ZM64.3384 6.53016L63.4849 8.18562C61.891 11.2771 58.9214 13.5453 55.3641 14.1839L53.5308 14.5129L55.1863 15.3664C58.2777 16.9603 60.546 19.9299 61.1845 23.4872L61.5135 25.3204L62.3671 23.665C63.961 20.5735 66.9305 18.3053 70.4879 17.6667L72.3211 17.3377L70.6657 16.4842C67.5742 14.8902 65.306 11.9207 64.6674 8.3634L64.3384 6.53016Z" fill="#B369E1"/>
</g>
<path d="M366.28 361.282C360.222 351.491 353.037 342.969 351.629 343.987C349.195 345.735 350.638 349.79 356.867 357.968C360.213 362.578 363.841 367.438 364.868 368.979C365.895 370.521 367.171 371.781 367.837 371.741C370.632 371.575 369.972 367.207 366.28 361.282Z" fill="#120B23"/>
<path d="M398.073 309.208C397.485 308.308 392.231 307.552 386.21 307.375C376.846 307.13 375.264 307.492 374.71 309.395C373.123 314.164 375.324 315.235 386.27 315.119C398.139 314.814 401.129 313.434 398.073 309.208Z" fill="#120B23"/>
<path d="M380.59 337.954C369.052 330.358 365.512 329.233 365.766 333.492C365.868 335.222 369.809 338.594 377.594 343.741C384.127 348.028 389.805 351.431 390.471 351.391C391.003 351.359 391.449 349.864 391.346 348.133C391.203 345.738 388.516 343.226 380.59 337.954Z" fill="#CB76FF"/>
<circle cx="214.5" cy="188.5" r="187.5" stroke="#CB76FF" stroke-width="2"/>
<circle cx="200.5" cy="188.5" r="188" stroke="#CB76FF"/>
<circle cx="206.5" cy="195.5" r="189" stroke="#CB76FF" stroke-width="3"/>
<defs>
<clipPath id="clip0_1015_1882">
<rect width="22" height="22" fill="white" transform="translate(14.4492 48) rotate(41.0501)"/>
</clipPath>
<clipPath id="clip1_1015_1882">
<rect width="28" height="28" fill="white" transform="translate(78.8516 4.16211) rotate(98.5495)"/>
</clipPath>
</defs>
</svg>
