<svg width="427" height="452" viewBox="0 0 427 452" fill="none" xmlns="http://www.w3.org/2000/svg">
<path d="M335.487 376.052C329.429 366.26 322.244 357.738 320.836 358.757C318.402 360.504 319.845 364.559 326.074 372.737C329.42 377.347 333.048 382.207 334.075 383.749C335.102 385.291 336.379 386.55 337.044 386.511C339.839 386.345 339.179 381.976 335.487 376.052Z" fill="#120B23"/>
<path d="M367.284 323.978C366.696 323.078 361.442 322.321 355.421 322.145C346.057 321.9 344.475 322.261 343.921 324.164C342.334 328.933 344.535 330.005 355.481 329.888C367.35 329.584 370.34 328.204 367.284 323.978Z" fill="#120B23"/>
<path d="M349.801 352.722C338.263 345.126 334.723 344.001 334.976 348.26C335.079 349.991 339.02 353.363 346.805 358.51C353.338 362.797 359.016 366.199 359.682 366.16C360.214 366.128 360.66 364.632 360.557 362.902C360.414 360.506 357.727 357.994 349.801 352.722Z" fill="#CB76FF"/>
<path d="M237 381.766C321 359.883 352.243 318.266 373.992 267.687C395.741 217.039 398.604 149.259 366.697 100.181C334.789 51.1716 268.11 20.8649 204.362 23.1175C140.547 25.37 79.5947 60.2499 48.2324 109.191C16.9382 158.064 15.1655 221.066 32.3467 272.943C49.5959 324.887 103 375 179 381.766" stroke="#CB76FF" stroke-width="2"/>
<path d="M237 371.766C321 349.883 352.243 308.266 373.992 257.687C395.741 207.039 398.604 139.259 366.697 90.181C334.789 41.1716 268.11 10.8649 204.362 13.1175C140.547 15.37 79.5947 50.2499 48.2324 99.1911C16.9382 148.064 15.1655 211.066 32.3467 262.943C49.5959 314.887 121 373 182.5 373" stroke="#CB76FF" stroke-width="2"/>
<g filter="url(#filter0_d_675_1364)">
<path d="M206.5 347C189.651 347 176 360.651 176 377.5C176 394.349 189.651 408 206.5 408C223.349 408 237 394.349 237 377.5C237 360.651 223.349 347 206.5 347ZM220.729 380.452L199.084 392.873C197.141 393.955 194.694 392.566 194.694 390.29V364.71C194.694 362.447 197.129 361.045 199.084 362.127L220.729 375.286C222.746 376.418 222.746 379.332 220.729 380.452Z" fill="#CB76FF"/>
</g>
<g clip-path="url(#clip0_675_1364)">
<path d="M30.0653 77.8423L31.5843 74.1431C32.4232 72.1001 32.298 69.7307 31.1427 67.7478L29.1297 64.2925C28.7172 63.5844 29.4409 62.7536 30.1988 63.0648L33.898 64.5838C35.941 65.4227 38.3104 65.2974 40.2934 64.1422L43.7486 62.1292C44.4567 61.7167 45.2876 62.4405 44.9764 63.1984L43.4574 66.8975C42.6185 68.9405 42.7438 71.3099 43.899 73.2929L45.912 76.7482C46.3245 77.4563 45.6008 78.2871 44.8429 77.9759L41.1437 76.4569C39.1008 75.618 36.7313 75.7433 34.7484 76.8985L31.2931 78.9115C30.5849 79.324 29.7541 78.6002 30.0653 77.8423ZM31.8914 65.618L32.6281 66.8825C34.0038 69.2438 34.2532 72.1692 33.1745 74.7961L32.6186 76.1498L33.8831 75.4132C36.2444 74.0375 39.1698 73.7881 41.7967 74.8667L43.1504 75.4226L42.4137 74.1581C41.038 71.7968 40.7886 68.8714 41.8673 66.2445L42.4232 64.8908L41.1587 65.6274C38.7974 67.0031 35.872 67.2525 33.2451 66.1739L31.8914 65.618Z" fill="#120B23"/>
</g>
<g clip-path="url(#clip1_675_1364)">
<path d="M71.968 19.9296L76.9775 19.0304C79.7441 18.5338 82.2018 16.7791 83.5403 14.183L85.8726 9.65934C86.3506 8.73233 87.7373 8.94097 87.9216 9.96737L88.8208 14.9768C89.3173 17.7435 91.0722 20.2011 93.6682 21.5396L98.1918 23.8719C99.1188 24.3499 98.9101 25.7367 97.8837 25.9209L92.8743 26.8202C90.1077 27.3168 87.6501 29.0715 86.3116 31.6676L83.9792 36.1912C83.5012 37.1182 82.1145 36.9095 81.9302 35.8832L81.0311 30.8737C80.5345 28.1072 78.7797 25.6494 76.1836 24.311L71.66 21.9786C70.733 21.5006 70.9418 20.1138 71.968 19.9296ZM86.3384 13.5302L85.4849 15.1856C83.891 18.2771 80.9214 20.5453 77.3641 21.1839L75.5308 21.5129L77.1863 22.3664C80.2777 23.9603 82.546 26.9299 83.1845 30.4872L83.5135 32.3204L84.3671 30.6649C85.961 27.5735 88.9305 25.3053 92.4879 24.6667L94.3211 24.3377L92.6657 23.4842C89.5742 21.8902 87.306 18.9207 86.6674 15.3634L86.3384 13.5302Z" fill="#B369E1"/>
</g>
<defs>
<filter id="filter0_d_675_1364" x="176" y="347" width="63" height="65" filterUnits="userSpaceOnUse" color-interpolation-filters="sRGB">
<feFlood flood-opacity="0" result="BackgroundImageFix"/>
<feColorMatrix in="SourceAlpha" type="matrix" values="0 0 0 0 0 0 0 0 0 0 0 0 0 0 0 0 0 0 127 0" result="hardAlpha"/>
<feOffset dx="2" dy="4"/>
<feComposite in2="hardAlpha" operator="out"/>
<feColorMatrix type="matrix" values="0 0 0 0 0 0 0 0 0 0 0 0 0 0 0 0 0 0 1 0"/>
<feBlend mode="normal" in2="BackgroundImageFix" result="effect1_dropShadow_675_1364"/>
<feBlend mode="normal" in="SourceGraphic" in2="effect1_dropShadow_675_1364" result="shape"/>
</filter>
<clipPath id="clip0_675_1364">
<rect width="22" height="22" fill="white" transform="translate(36.4492 55) rotate(41.0501)"/>
</clipPath>
<clipPath id="clip1_675_1364">
<rect width="28" height="28" fill="white" transform="translate(100.852 11.1621) rotate(98.5495)"/>
</clipPath>
</defs>
</svg>
