<svg width="70" height="70" viewBox="0 0 70 70" fill="none" xmlns="http://www.w3.org/2000/svg">
<path fill-rule="evenodd" clip-rule="evenodd" d="M35 70C54.3298 70 70 54.3298 70 35C70 15.67 54.3298 0 35 0C15.67 0 0 15.67 0 35C0 54.3298 15.67 70 35 70ZM21.2664 23.1606C21 23.8038 21 24.6192 21 26.25V43.75C21 45.3807 21 46.1962 21.2664 46.8395C21.6216 47.697 22.303 48.3784 23.1606 48.7337C23.8038 49 24.6192 49 26.25 49C27.8808 49 28.6962 49 29.3395 48.7337C30.197 48.3784 30.8784 47.697 31.2336 46.8395C31.5 46.1962 31.5 45.3807 31.5 43.75V26.25C31.5 24.6192 31.5 23.8038 31.2336 23.1606C30.8784 22.303 30.197 21.6216 29.3395 21.2664C28.6962 21 27.8808 21 26.25 21C24.6192 21 23.8038 21 23.1606 21.2664C22.303 21.6216 21.6216 22.303 21.2664 23.1606ZM38.7663 23.1606C38.5 23.8038 38.5 24.6192 38.5 26.25V43.75C38.5 45.3807 38.5 46.1962 38.7663 46.8395C39.1216 47.697 39.803 48.3784 40.6605 48.7337C41.3038 49 42.1193 49 43.75 49C45.3807 49 46.1962 49 46.8395 48.7337C47.697 48.3784 48.3784 47.697 48.7337 46.8395C49 46.1962 49 45.3807 49 43.75V26.25C49 24.6192 49 23.8038 48.7337 23.1606C48.3784 22.303 47.697 21.6216 46.8395 21.2664C46.1962 21 45.3807 21 43.75 21C42.1193 21 41.3038 21 40.6605 21.2664C39.803 21.6216 39.1216 22.303 38.7663 23.1606Z" fill="#CB76FF"/>
</svg>
