<svg width="252" height="84" viewBox="0 0 252 84" fill="none" xmlns="http://www.w3.org/2000/svg">
<mask id="mask0_1224_1068" style="mask-type:alpha" maskUnits="userSpaceOnUse" x="0" y="0" width="25" height="24">
<rect x="0.5" width="24" height="24" fill="#D9D9D9"/>
</mask>
<g mask="url(#mask0_1224_1068)">
<path d="M3.90078 16.4L1.60078 14.15C1.40078 13.95 1.30078 13.7167 1.30078 13.45C1.30078 13.1833 1.40078 12.95 1.60078 12.75C3.06745 11.1667 4.75911 9.97917 6.67578 9.1875C8.59245 8.39583 10.5341 8 12.5008 8C14.4674 8 16.4049 8.39583 18.3133 9.1875C20.2216 9.97917 21.9174 11.1667 23.4008 12.75C23.6008 12.95 23.7008 13.1833 23.7008 13.45C23.7008 13.7167 23.6008 13.95 23.4008 14.15L21.1008 16.4C20.9174 16.5833 20.7049 16.6833 20.4633 16.7C20.2216 16.7167 20.0008 16.65 19.8008 16.5L16.9008 14.3C16.7674 14.2 16.6674 14.0833 16.6008 13.95C16.5341 13.8167 16.5008 13.6667 16.5008 13.5V10.65C15.8674 10.45 15.2174 10.2917 14.5508 10.175C13.8841 10.0583 13.2008 10 12.5008 10C11.8008 10 11.1174 10.0583 10.4508 10.175C9.78412 10.2917 9.13411 10.45 8.50078 10.65V13.5C8.50078 13.6667 8.46745 13.8167 8.40078 13.95C8.33411 14.0833 8.23411 14.2 8.10078 14.3L5.20078 16.5C5.00078 16.65 4.77995 16.7167 4.53828 16.7C4.29661 16.6833 4.08411 16.5833 3.90078 16.4ZM6.50078 11.45C6.01745 11.7 5.55078 11.9875 5.10078 12.3125C4.65078 12.6375 4.18411 13 3.70078 13.4L4.70078 14.4L6.50078 13V11.45ZM18.5008 11.5V13L20.3008 14.4L21.3008 13.45C20.8174 13.0167 20.3508 12.6417 19.9008 12.325C19.4508 12.0083 18.9841 11.7333 18.5008 11.5Z" fill="#5E2FD3"/>
</g>
<path d="M1.963 54V39.845H7.112C8.062 39.845 8.898 40.0223 9.62 40.377C10.342 40.719 10.9057 41.2257 11.311 41.897C11.729 42.5557 11.938 43.3473 11.938 44.272C11.938 45.2473 11.691 46.0833 11.197 46.78C10.7157 47.4767 10.0633 47.9833 9.24 48.3L12.508 54H9.962L6.485 47.825L7.948 48.68H4.205V54H1.963ZM4.205 46.685H7.15C7.66933 46.685 8.119 46.5837 8.499 46.381C8.879 46.1783 9.17033 45.8997 9.373 45.545C9.58833 45.1777 9.696 44.747 9.696 44.253C9.696 43.759 9.58833 43.3347 9.373 42.98C9.17033 42.6127 8.879 42.334 8.499 42.144C8.119 41.9413 7.66933 41.84 7.15 41.84H4.205V46.685ZM18.4364 54.228C17.4104 54.228 16.4984 53.9937 15.7004 53.525C14.9151 53.0437 14.3008 52.3977 13.8574 51.587C13.4141 50.7637 13.1924 49.8453 13.1924 48.832C13.1924 47.7933 13.4141 46.875 13.8574 46.077C14.3134 45.279 14.9214 44.652 15.6814 44.196C16.4414 43.7273 17.3028 43.493 18.2654 43.493C19.0381 43.493 19.7284 43.626 20.3364 43.892C20.9444 44.158 21.4574 44.5253 21.8754 44.994C22.2934 45.45 22.6101 45.9757 22.8254 46.571C23.0534 47.1663 23.1674 47.7997 23.1674 48.471C23.1674 48.6357 23.1611 48.8067 23.1484 48.984C23.1358 49.1613 23.1104 49.326 23.0724 49.478H14.8834V47.768H21.8564L20.8304 48.547C20.9571 47.9263 20.9128 47.3753 20.6974 46.894C20.4948 46.4 20.1781 46.0137 19.7474 45.735C19.3294 45.4437 18.8354 45.298 18.2654 45.298C17.6954 45.298 17.1888 45.4437 16.7454 45.735C16.3021 46.0137 15.9601 46.419 15.7194 46.951C15.4788 47.4703 15.3838 48.1037 15.4344 48.851C15.3711 49.5477 15.4661 50.1557 15.7194 50.675C15.9854 51.1943 16.3528 51.5997 16.8214 51.891C17.3028 52.1823 17.8474 52.328 18.4554 52.328C19.0761 52.328 19.6018 52.1887 20.0324 51.91C20.4758 51.6313 20.8241 51.2703 21.0774 50.827L22.8254 51.682C22.6228 52.1633 22.3061 52.6003 21.8754 52.993C21.4574 53.373 20.9508 53.677 20.3554 53.905C19.7728 54.1203 19.1331 54.228 18.4364 54.228ZM25.2628 54V39.617H27.4098V54H25.2628ZM29.92 54V43.721H32.067V54H29.92ZM29.92 42.315V39.845H32.067V42.315H29.92ZM37.6552 54.228C36.9586 54.228 36.3442 54.1077 35.8122 53.867C35.2929 53.6137 34.8876 53.2717 34.5962 52.841C34.3049 52.3977 34.1592 51.8783 34.1592 51.283C34.1592 50.7257 34.2796 50.2253 34.5202 49.782C34.7736 49.3387 35.1599 48.965 35.6792 48.661C36.1986 48.357 36.8509 48.1417 37.6362 48.015L41.2082 47.426V49.117L38.0542 49.668C37.4842 49.7693 37.0662 49.953 36.8002 50.219C36.5342 50.4723 36.4012 50.8017 36.4012 51.207C36.4012 51.5997 36.5469 51.9227 36.8382 52.176C37.1422 52.4167 37.5286 52.537 37.9972 52.537C38.5799 52.537 39.0866 52.4103 39.5172 52.157C39.9606 51.9037 40.3026 51.568 40.5432 51.15C40.7839 50.7193 40.9042 50.2443 40.9042 49.725V47.084C40.9042 46.5773 40.7142 46.1657 40.3342 45.849C39.9669 45.5197 39.4729 45.355 38.8522 45.355C38.2822 45.355 37.7819 45.507 37.3512 45.811C36.9332 46.1023 36.6229 46.4823 36.4202 46.951L34.6342 46.058C34.8242 45.5513 35.1346 45.108 35.5652 44.728C35.9959 44.3353 36.4962 44.0313 37.0662 43.816C37.6489 43.6007 38.2632 43.493 38.9092 43.493C39.7199 43.493 40.4356 43.645 41.0562 43.949C41.6896 44.253 42.1772 44.6773 42.5192 45.222C42.8739 45.754 43.0512 46.3747 43.0512 47.084V54H40.9992V52.138L41.4362 52.195C41.1956 52.613 40.8852 52.974 40.5052 53.278C40.1379 53.582 39.7136 53.8163 39.2322 53.981C38.7636 54.1457 38.2379 54.228 37.6552 54.228ZM45.5616 54V43.721H47.6136V45.735L47.3666 45.469C47.62 44.823 48.0253 44.3353 48.5826 44.006C49.14 43.664 49.786 43.493 50.5206 43.493C51.2806 43.493 51.952 43.6577 52.5346 43.987C53.1173 44.3163 53.5733 44.7723 53.9026 45.355C54.232 45.9377 54.3966 46.609 54.3966 47.369V54H52.2686V47.939C52.2686 47.4197 52.1736 46.9827 51.9836 46.628C51.7936 46.2607 51.5213 45.982 51.1666 45.792C50.8246 45.5893 50.432 45.488 49.9886 45.488C49.5453 45.488 49.1463 45.5893 48.7916 45.792C48.4496 45.982 48.1836 46.2607 47.9936 46.628C47.8036 46.9953 47.7086 47.4323 47.7086 47.939V54H45.5616ZM61.5774 54.228C60.5514 54.228 59.6394 53.9937 58.8414 53.525C58.0561 53.0437 57.4291 52.3977 56.9604 51.587C56.5044 50.7763 56.2764 49.858 56.2764 48.832C56.2764 47.8187 56.5044 46.9067 56.9604 46.096C57.4164 45.2853 58.0434 44.652 58.8414 44.196C59.6394 43.7273 60.5514 43.493 61.5774 43.493C62.2741 43.493 62.9264 43.6197 63.5344 43.873C64.1424 44.1137 64.6681 44.4493 65.1114 44.88C65.5674 45.3107 65.9031 45.811 66.1184 46.381L64.2374 47.255C64.0221 46.723 63.6738 46.2987 63.1924 45.982C62.7238 45.6527 62.1854 45.488 61.5774 45.488C60.9948 45.488 60.4691 45.6337 60.0004 45.925C59.5444 46.2037 59.1834 46.6027 58.9174 47.122C58.6514 47.6287 58.5184 48.205 58.5184 48.851C58.5184 49.497 58.6514 50.0797 58.9174 50.599C59.1834 51.1057 59.5444 51.5047 60.0004 51.796C60.4691 52.0873 60.9948 52.233 61.5774 52.233C62.1981 52.233 62.7364 52.0747 63.1924 51.758C63.6611 51.4287 64.0094 50.9917 64.2374 50.447L66.1184 51.34C65.9158 51.8847 65.5864 52.3787 65.1304 52.822C64.6871 53.2527 64.1614 53.5947 63.5534 53.848C62.9454 54.1013 62.2868 54.228 61.5774 54.228ZM73.0429 54.228C72.0169 54.228 71.1049 53.9937 70.3069 53.525C69.5216 53.0437 68.9072 52.3977 68.4639 51.587C68.0206 50.7637 67.7989 49.8453 67.7989 48.832C67.7989 47.7933 68.0206 46.875 68.4639 46.077C68.9199 45.279 69.5279 44.652 70.2879 44.196C71.0479 43.7273 71.9092 43.493 72.8719 43.493C73.6446 43.493 74.3349 43.626 74.9429 43.892C75.5509 44.158 76.0639 44.5253 76.4819 44.994C76.8999 45.45 77.2166 45.9757 77.4319 46.571C77.6599 47.1663 77.7739 47.7997 77.7739 48.471C77.7739 48.6357 77.7676 48.8067 77.7549 48.984C77.7422 49.1613 77.7169 49.326 77.6789 49.478H69.4899V47.768H76.4629L75.4369 48.547C75.5636 47.9263 75.5192 47.3753 75.3039 46.894C75.1012 46.4 74.7846 46.0137 74.3539 45.735C73.9359 45.4437 73.4419 45.298 72.8719 45.298C72.3019 45.298 71.7952 45.4437 71.3519 45.735C70.9086 46.0137 70.5666 46.419 70.3259 46.951C70.0852 47.4703 69.9902 48.1037 70.0409 48.851C69.9776 49.5477 70.0726 50.1557 70.3259 50.675C70.5919 51.1943 70.9592 51.5997 71.4279 51.891C71.9092 52.1823 72.4539 52.328 73.0619 52.328C73.6826 52.328 74.2082 52.1887 74.6389 51.91C75.0822 51.6313 75.4306 51.2703 75.6839 50.827L77.4319 51.682C77.2292 52.1633 76.9126 52.6003 76.4819 52.993C76.0639 53.373 75.5572 53.677 74.9619 53.905C74.3792 54.1203 73.7396 54.228 73.0429 54.228ZM88.1495 54.228C87.1615 54.228 86.2559 53.9937 85.4325 53.525C84.6219 53.0563 83.9759 52.4167 83.4945 51.606C83.0132 50.7953 82.7725 49.877 82.7725 48.851C82.7725 47.8123 83.0132 46.894 83.4945 46.096C83.9759 45.2853 84.6219 44.652 85.4325 44.196C86.2432 43.7273 87.1489 43.493 88.1495 43.493C89.1629 43.493 90.0685 43.7273 90.8665 44.196C91.6772 44.652 92.3169 45.2853 92.7855 46.096C93.2669 46.894 93.5075 47.8123 93.5075 48.851C93.5075 49.8897 93.2669 50.8143 92.7855 51.625C92.3042 52.4357 91.6582 53.0753 90.8475 53.544C90.0369 54 89.1375 54.228 88.1495 54.228ZM88.1495 52.233C88.7575 52.233 89.2959 52.0873 89.7645 51.796C90.2332 51.5047 90.6005 51.1057 90.8665 50.599C91.1452 50.0797 91.2845 49.497 91.2845 48.851C91.2845 48.205 91.1452 47.6287 90.8665 47.122C90.6005 46.6153 90.2332 46.2163 89.7645 45.925C89.2959 45.6337 88.7575 45.488 88.1495 45.488C87.5542 45.488 87.0159 45.6337 86.5345 45.925C86.0659 46.2163 85.6922 46.6153 85.4135 47.122C85.1475 47.6287 85.0145 48.205 85.0145 48.851C85.0145 49.497 85.1475 50.0797 85.4135 50.599C85.6922 51.1057 86.0659 51.5047 86.5345 51.796C87.0159 52.0873 87.5542 52.233 88.1495 52.233ZM95.6036 54V43.721H97.6556V45.735L97.4086 45.469C97.6619 44.823 98.0673 44.3353 98.6246 44.006C99.1819 43.664 99.8279 43.493 100.563 43.493C101.323 43.493 101.994 43.6577 102.577 43.987C103.159 44.3163 103.615 44.7723 103.945 45.355C104.274 45.9377 104.439 46.609 104.439 47.369V54H102.311V47.939C102.311 47.4197 102.216 46.9827 102.026 46.628C101.836 46.2607 101.563 45.982 101.209 45.792C100.867 45.5893 100.474 45.488 100.031 45.488C99.5873 45.488 99.1883 45.5893 98.8336 45.792C98.4916 45.982 98.2256 46.2607 98.0356 46.628C97.8456 46.9953 97.7506 47.4323 97.7506 47.939V54H95.6036ZM110.058 57.8V43.721H112.11V45.849L111.863 45.355C112.243 44.7723 112.749 44.3163 113.383 43.987C114.016 43.6577 114.738 43.493 115.549 43.493C116.524 43.493 117.398 43.7273 118.171 44.196C118.956 44.6647 119.57 45.3043 120.014 46.115C120.47 46.9257 120.698 47.8377 120.698 48.851C120.698 49.8643 120.47 50.7763 120.014 51.587C119.57 52.3977 118.962 53.0437 118.19 53.525C117.417 53.9937 116.537 54.228 115.549 54.228C114.751 54.228 114.022 54.0633 113.364 53.734C112.718 53.4047 112.217 52.9297 111.863 52.309L112.205 51.91V57.8H110.058ZM115.34 52.233C115.948 52.233 116.486 52.0873 116.955 51.796C117.423 51.5047 117.791 51.1057 118.057 50.599C118.335 50.0797 118.475 49.497 118.475 48.851C118.475 48.205 118.335 47.6287 118.057 47.122C117.791 46.6153 117.423 46.2163 116.955 45.925C116.486 45.6337 115.948 45.488 115.34 45.488C114.744 45.488 114.206 45.6337 113.725 45.925C113.256 46.2163 112.882 46.6153 112.604 47.122C112.338 47.6287 112.205 48.205 112.205 48.851C112.205 49.497 112.338 50.0797 112.604 50.599C112.882 51.1057 113.256 51.5047 113.725 51.796C114.206 52.0873 114.744 52.233 115.34 52.233ZM122.786 54V39.617H124.933V45.735L124.591 45.469C124.845 44.823 125.25 44.3353 125.807 44.006C126.365 43.664 127.011 43.493 127.745 43.493C128.505 43.493 129.177 43.6577 129.759 43.987C130.342 44.3163 130.798 44.7723 131.127 45.355C131.457 45.9377 131.621 46.6027 131.621 47.35V54H129.493V47.939C129.493 47.4197 129.392 46.9827 129.189 46.628C128.999 46.2607 128.733 45.982 128.391 45.792C128.049 45.5893 127.657 45.488 127.213 45.488C126.783 45.488 126.39 45.5893 126.035 45.792C125.693 45.982 125.421 46.2607 125.218 46.628C125.028 46.9953 124.933 47.4323 124.933 47.939V54H122.786ZM138.878 54.228C137.89 54.228 136.984 53.9937 136.161 53.525C135.35 53.0563 134.704 52.4167 134.223 51.606C133.742 50.7953 133.501 49.877 133.501 48.851C133.501 47.8123 133.742 46.894 134.223 46.096C134.704 45.2853 135.35 44.652 136.161 44.196C136.972 43.7273 137.877 43.493 138.878 43.493C139.891 43.493 140.797 43.7273 141.595 44.196C142.406 44.652 143.045 45.2853 143.514 46.096C143.995 46.894 144.236 47.8123 144.236 48.851C144.236 49.8897 143.995 50.8143 143.514 51.625C143.033 52.4357 142.387 53.0753 141.576 53.544C140.765 54 139.866 54.228 138.878 54.228ZM138.878 52.233C139.486 52.233 140.024 52.0873 140.493 51.796C140.962 51.5047 141.329 51.1057 141.595 50.599C141.874 50.0797 142.013 49.497 142.013 48.851C142.013 48.205 141.874 47.6287 141.595 47.122C141.329 46.6153 140.962 46.2163 140.493 45.925C140.024 45.6337 139.486 45.488 138.878 45.488C138.283 45.488 137.744 45.6337 137.263 45.925C136.794 46.2163 136.421 46.6153 136.142 47.122C135.876 47.6287 135.743 48.205 135.743 48.851C135.743 49.497 135.876 50.0797 136.142 50.599C136.421 51.1057 136.794 51.5047 137.263 51.796C137.744 52.0873 138.283 52.233 138.878 52.233ZM146.332 54V43.721H148.384V45.735L148.137 45.469C148.39 44.823 148.796 44.3353 149.353 44.006C149.91 43.664 150.556 43.493 151.291 43.493C152.051 43.493 152.722 43.6577 153.305 43.987C153.888 44.3163 154.344 44.7723 154.673 45.355C155.002 45.9377 155.167 46.609 155.167 47.369V54H153.039V47.939C153.039 47.4197 152.944 46.9827 152.754 46.628C152.564 46.2607 152.292 45.982 151.937 45.792C151.595 45.5893 151.202 45.488 150.759 45.488C150.316 45.488 149.917 45.5893 149.562 45.792C149.22 45.982 148.954 46.2607 148.764 46.628C148.574 46.9953 148.479 47.4323 148.479 47.939V54H146.332ZM162.291 54.228C161.265 54.228 160.353 53.9937 159.555 53.525C158.77 53.0437 158.155 52.3977 157.712 51.587C157.269 50.7637 157.047 49.8453 157.047 48.832C157.047 47.7933 157.269 46.875 157.712 46.077C158.168 45.279 158.776 44.652 159.536 44.196C160.296 43.7273 161.157 43.493 162.12 43.493C162.893 43.493 163.583 43.626 164.191 43.892C164.799 44.158 165.312 44.5253 165.73 44.994C166.148 45.45 166.465 45.9757 166.68 46.571C166.908 47.1663 167.022 47.7997 167.022 48.471C167.022 48.6357 167.016 48.8067 167.003 48.984C166.99 49.1613 166.965 49.326 166.927 49.478H158.738V47.768H165.711L164.685 48.547C164.812 47.9263 164.767 47.3753 164.552 46.894C164.349 46.4 164.033 46.0137 163.602 45.735C163.184 45.4437 162.69 45.298 162.12 45.298C161.55 45.298 161.043 45.4437 160.6 45.735C160.157 46.0137 159.815 46.419 159.574 46.951C159.333 47.4703 159.238 48.1037 159.289 48.851C159.226 49.5477 159.321 50.1557 159.574 50.675C159.84 51.1943 160.207 51.5997 160.676 51.891C161.157 52.1823 161.702 52.328 162.31 52.328C162.931 52.328 163.456 52.1887 163.887 51.91C164.33 51.6313 164.679 51.2703 164.932 50.827L166.68 51.682C166.477 52.1633 166.161 52.6003 165.73 52.993C165.312 53.373 164.805 53.677 164.21 53.905C163.627 54.1203 162.988 54.228 162.291 54.228ZM1.754 79V68.721H3.901V79H1.754ZM1.754 67.315V64.845H3.901V67.315H1.754ZM6.41123 79V68.721H8.46323V70.735L8.21623 70.469C8.46956 69.823 8.87489 69.3353 9.43223 69.006C9.98956 68.664 10.6356 68.493 11.3702 68.493C12.1302 68.493 12.8016 68.6577 13.3842 68.987C13.9669 69.3163 14.4229 69.7723 14.7522 70.355C15.0816 70.9377 15.2462 71.609 15.2462 72.369V79H13.1182V72.939C13.1182 72.4197 13.0232 71.9827 12.8332 71.628C12.6432 71.2607 12.3709 70.982 12.0162 70.792C11.6742 70.5893 11.2816 70.488 10.8382 70.488C10.3949 70.488 9.99589 70.5893 9.64123 70.792C9.29923 70.982 9.03323 71.2607 8.84323 71.628C8.65323 71.9953 8.55823 72.4323 8.55823 72.939V79H6.41123ZM21.99 79.114C20.9134 79.114 20.0774 78.81 19.482 78.202C18.8867 77.594 18.589 76.739 18.589 75.637V70.659H16.784V68.721H17.069C17.5504 68.721 17.924 68.5817 18.19 68.303C18.456 68.0243 18.589 67.6443 18.589 67.163V66.365H20.736V68.721H23.073V70.659H20.736V75.542C20.736 75.8967 20.793 76.2007 20.907 76.454C21.021 76.6947 21.2047 76.8847 21.458 77.024C21.7114 77.1507 22.0407 77.214 22.446 77.214C22.5474 77.214 22.6614 77.2077 22.788 77.195C22.9147 77.1823 23.035 77.1697 23.149 77.157V79C22.9717 79.0253 22.7754 79.0507 22.56 79.076C22.3447 79.1013 22.1547 79.114 21.99 79.114ZM29.8847 79.228C28.8587 79.228 27.9467 78.9937 27.1487 78.525C26.3634 78.0437 25.749 77.3977 25.3057 76.587C24.8624 75.7637 24.6407 74.8453 24.6407 73.832C24.6407 72.7933 24.8624 71.875 25.3057 71.077C25.7617 70.279 26.3697 69.652 27.1297 69.196C27.8897 68.7273 28.751 68.493 29.7137 68.493C30.4864 68.493 31.1767 68.626 31.7847 68.892C32.3927 69.158 32.9057 69.5253 33.3237 69.994C33.7417 70.45 34.0584 70.9757 34.2737 71.571C34.5017 72.1663 34.6157 72.7997 34.6157 73.471C34.6157 73.6357 34.6094 73.8067 34.5967 73.984C34.584 74.1613 34.5587 74.326 34.5207 74.478H26.3317V72.768H33.3047L32.2787 73.547C32.4054 72.9263 32.361 72.3753 32.1457 71.894C31.943 71.4 31.6264 71.0137 31.1957 70.735C30.7777 70.4437 30.2837 70.298 29.7137 70.298C29.1437 70.298 28.637 70.4437 28.1937 70.735C27.7504 71.0137 27.4084 71.419 27.1677 71.951C26.927 72.4703 26.832 73.1037 26.8827 73.851C26.8194 74.5477 26.9144 75.1557 27.1677 75.675C27.4337 76.1943 27.801 76.5997 28.2697 76.891C28.751 77.1823 29.2957 77.328 29.9037 77.328C30.5244 77.328 31.05 77.1887 31.4807 76.91C31.924 76.6313 32.2724 76.2703 32.5257 75.827L34.2737 76.682C34.071 77.1633 33.7544 77.6003 33.3237 77.993C32.9057 78.373 32.399 78.677 31.8037 78.905C31.221 79.1203 30.5814 79.228 29.8847 79.228ZM36.711 79V68.721H38.763V70.792L38.573 70.488C38.801 69.8167 39.1684 69.3353 39.675 69.044C40.1817 68.74 40.7897 68.588 41.499 68.588H42.126V70.545H41.233C40.5237 70.545 39.9474 70.7667 39.504 71.21C39.0734 71.6407 38.858 72.2613 38.858 73.072V79H36.711ZM46.5778 79L42.5498 68.721H44.8868L47.9838 77.1H47.1288L50.2258 68.721H52.5818L48.5348 79H46.5778ZM54.0411 79V68.721H56.1881V79H54.0411ZM54.0411 67.315V64.845H56.1881V67.315H54.0411ZM63.5243 79.228C62.4983 79.228 61.5863 78.9937 60.7883 78.525C60.003 78.0437 59.3887 77.3977 58.9453 76.587C58.502 75.7637 58.2803 74.8453 58.2803 73.832C58.2803 72.7933 58.502 71.875 58.9453 71.077C59.4013 70.279 60.0093 69.652 60.7693 69.196C61.5293 68.7273 62.3907 68.493 63.3533 68.493C64.126 68.493 64.8163 68.626 65.4243 68.892C66.0323 69.158 66.5453 69.5253 66.9633 69.994C67.3813 70.45 67.698 70.9757 67.9133 71.571C68.1413 72.1663 68.2553 72.7997 68.2553 73.471C68.2553 73.6357 68.249 73.8067 68.2363 73.984C68.2237 74.1613 68.1983 74.326 68.1603 74.478H59.9713V72.768H66.9443L65.9183 73.547C66.045 72.9263 66.0007 72.3753 65.7853 71.894C65.5827 71.4 65.266 71.0137 64.8353 70.735C64.4173 70.4437 63.9233 70.298 63.3533 70.298C62.7833 70.298 62.2767 70.4437 61.8333 70.735C61.39 71.0137 61.048 71.419 60.8073 71.951C60.5667 72.4703 60.4717 73.1037 60.5223 73.851C60.459 74.5477 60.554 75.1557 60.8073 75.675C61.0733 76.1943 61.4407 76.5997 61.9093 76.891C62.3907 77.1823 62.9353 77.328 63.5433 77.328C64.164 77.328 64.6897 77.1887 65.1203 76.91C65.5637 76.6313 65.912 76.2703 66.1653 75.827L67.9133 76.682C67.7107 77.1633 67.394 77.6003 66.9633 77.993C66.5453 78.373 66.0387 78.677 65.4433 78.905C64.8607 79.1203 64.221 79.228 63.5243 79.228ZM72.8397 79L69.3057 68.721H71.5857L74.2837 76.91H73.4857L76.2407 68.721H78.1977L80.9337 76.91H80.1357L82.8527 68.721H85.1327L81.5797 79H79.6417L76.8677 70.621H77.5707L74.7967 79H72.8397ZM90.4046 79.228C89.3533 79.228 88.4286 78.9683 87.6306 78.449C86.8453 77.9297 86.2943 77.233 85.9776 76.359L87.6306 75.58C87.9093 76.1627 88.2893 76.625 88.7706 76.967C89.2646 77.309 89.8093 77.48 90.4046 77.48C90.9113 77.48 91.3229 77.366 91.6396 77.138C91.9563 76.91 92.1146 76.5997 92.1146 76.207C92.1146 75.9537 92.0449 75.751 91.9056 75.599C91.7663 75.4343 91.5889 75.3013 91.3736 75.2C91.1709 75.0987 90.9619 75.0227 90.7466 74.972L89.1316 74.516C88.2449 74.2627 87.5799 73.8827 87.1366 73.376C86.7059 72.8567 86.4906 72.255 86.4906 71.571C86.4906 70.9503 86.6489 70.412 86.9656 69.956C87.2823 69.4873 87.7193 69.1263 88.2766 68.873C88.8339 68.6197 89.4609 68.493 90.1576 68.493C91.0949 68.493 91.9309 68.7273 92.6656 69.196C93.4003 69.652 93.9196 70.2917 94.2236 71.115L92.5706 71.894C92.3679 71.4 92.0449 71.0073 91.6016 70.716C91.1709 70.4247 90.6833 70.279 90.1386 70.279C89.6699 70.279 89.2963 70.393 89.0176 70.621C88.7389 70.8363 88.5996 71.1213 88.5996 71.476C88.5996 71.7167 88.6629 71.9193 88.7896 72.084C88.9163 72.236 89.0809 72.3627 89.2836 72.464C89.4863 72.5527 89.6953 72.6287 89.9106 72.692L91.5826 73.186C92.4313 73.4267 93.0836 73.8067 93.5396 74.326C93.9956 74.8327 94.2236 75.4407 94.2236 76.15C94.2236 76.758 94.0589 77.2963 93.7296 77.765C93.4129 78.221 92.9696 78.582 92.3996 78.848C91.8296 79.1013 91.1646 79.228 90.4046 79.228Z" fill="#5E2FD3"/>
</svg>
