<svg width="279" height="32" viewBox="0 0 279 32" fill="none" xmlns="http://www.w3.org/2000/svg">
<mask id="mask0_1233_458" style="mask-type:alpha" maskUnits="userSpaceOnUse" x="0" y="4" width="25" height="24">
<rect x="0.5" y="4" width="24" height="24" fill="#D9D9D9"/>
</mask>
<g mask="url(#mask0_1233_458)">
<path d="M6.5 18H14.5V16H6.5V18ZM6.5 15H18.5V13H6.5V15ZM6.5 12H18.5V10H6.5V12ZM2.5 26V8C2.5 7.45 2.69583 6.97917 3.0875 6.5875C3.47917 6.19583 3.95 6 4.5 6H20.5C21.05 6 21.5208 6.19583 21.9125 6.5875C22.3042 6.97917 22.5 7.45 22.5 8V20C22.5 20.55 22.3042 21.0208 21.9125 21.4125C21.5208 21.8042 21.05 22 20.5 22H6.5L2.5 26ZM5.65 20H20.5V8H4.5V21.125L5.65 20Z" fill="#5E2FD3"/>
</g>
<path d="M41.264 24.228C40.2127 24.228 39.2753 24.0063 38.452 23.563C37.6413 23.1197 37.0017 22.5117 36.533 21.739C36.077 20.9663 35.849 20.086 35.849 19.098V9.845H38.091V19.003C38.091 19.6237 38.224 20.1747 38.49 20.656C38.7687 21.1373 39.1423 21.511 39.611 21.777C40.0923 22.043 40.6433 22.176 41.264 22.176C41.8973 22.176 42.4483 22.043 42.917 21.777C43.3983 21.511 43.772 21.1373 44.038 20.656C44.3167 20.1747 44.456 19.6237 44.456 19.003V9.845H46.679V19.098C46.679 20.086 46.451 20.9663 45.995 21.739C45.539 22.5117 44.8993 23.1197 44.076 23.563C43.2653 24.0063 42.328 24.228 41.264 24.228ZM53.0804 24.228C52.029 24.228 51.1044 23.9683 50.3064 23.449C49.521 22.9297 48.97 22.233 48.6534 21.359L50.3064 20.58C50.585 21.1627 50.965 21.625 51.4464 21.967C51.9404 22.309 52.485 22.48 53.0804 22.48C53.587 22.48 53.9987 22.366 54.3154 22.138C54.632 21.91 54.7904 21.5997 54.7904 21.207C54.7904 20.9537 54.7207 20.751 54.5814 20.599C54.442 20.4343 54.2647 20.3013 54.0494 20.2C53.8467 20.0987 53.6377 20.0227 53.4224 19.972L51.8074 19.516C50.9207 19.2627 50.2557 18.8827 49.8124 18.376C49.3817 17.8567 49.1664 17.255 49.1664 16.571C49.1664 15.9503 49.3247 15.412 49.6414 14.956C49.958 14.4873 50.395 14.1263 50.9524 13.873C51.5097 13.6197 52.1367 13.493 52.8334 13.493C53.7707 13.493 54.6067 13.7273 55.3414 14.196C56.076 14.652 56.5954 15.2917 56.8994 16.115L55.2464 16.894C55.0437 16.4 54.7207 16.0073 54.2774 15.716C53.8467 15.4247 53.359 15.279 52.8144 15.279C52.3457 15.279 51.972 15.393 51.6934 15.621C51.4147 15.8363 51.2754 16.1213 51.2754 16.476C51.2754 16.7167 51.3387 16.9193 51.4654 17.084C51.592 17.236 51.7567 17.3627 51.9594 17.464C52.162 17.5527 52.371 17.6287 52.5864 17.692L54.2584 18.186C55.107 18.4267 55.7594 18.8067 56.2154 19.326C56.6714 19.8327 56.8994 20.4407 56.8994 21.15C56.8994 21.758 56.7347 22.2963 56.4054 22.765C56.0887 23.221 55.6454 23.582 55.0754 23.848C54.5054 24.1013 53.8404 24.228 53.0804 24.228ZM59.003 24V13.721H61.15V24H59.003ZM59.003 12.315V9.845H61.15V12.315H59.003ZM63.6602 24V13.721H65.7123V15.735L65.4653 15.469C65.7186 14.823 66.1239 14.3353 66.6813 14.006C67.2386 13.664 67.8846 13.493 68.6193 13.493C69.3793 13.493 70.0506 13.6577 70.6333 13.987C71.2159 14.3163 71.6719 14.7723 72.0012 15.355C72.3306 15.9377 72.4953 16.609 72.4953 17.369V24H70.3673V17.939C70.3673 17.4197 70.2723 16.9827 70.0823 16.628C69.8923 16.2607 69.6199 15.982 69.2653 15.792C68.9233 15.5893 68.5306 15.488 68.0873 15.488C67.6439 15.488 67.2449 15.5893 66.8903 15.792C66.5483 15.982 66.2823 16.2607 66.0923 16.628C65.9023 16.9953 65.8073 17.4323 65.8073 17.939V24H63.6602ZM79.7521 28.18C79.0047 28.18 78.3144 28.0597 77.6811 27.819C77.0477 27.5783 76.5031 27.2427 76.0471 26.812C75.5911 26.394 75.2491 25.9 75.0211 25.33L76.9971 24.513C77.1744 24.9943 77.4974 25.3933 77.9661 25.71C78.4474 26.0267 79.0364 26.185 79.7331 26.185C80.2777 26.185 80.7654 26.0773 81.1961 25.862C81.6267 25.6593 81.9687 25.3553 82.2221 24.95C82.4754 24.5573 82.6021 24.0823 82.6021 23.525V21.207L82.9821 21.644C82.6274 22.3027 82.1334 22.803 81.5001 23.145C80.8794 23.487 80.1764 23.658 79.3911 23.658C78.4411 23.658 77.5861 23.4363 76.8261 22.993C76.0661 22.5497 75.4644 21.9417 75.0211 21.169C74.5904 20.3963 74.3751 19.5287 74.3751 18.566C74.3751 17.5907 74.5904 16.723 75.0211 15.963C75.4644 15.203 76.0597 14.6013 76.8071 14.158C77.5544 13.7147 78.4094 13.493 79.3721 13.493C80.1574 13.493 80.8541 13.664 81.4621 14.006C82.0827 14.3353 82.5894 14.8167 82.9821 15.45L82.6971 15.982V13.721H84.7301V23.525C84.7301 24.4117 84.5147 25.2033 84.0841 25.9C83.6661 26.6093 83.0834 27.1667 82.3361 27.572C81.5887 27.9773 80.7274 28.18 79.7521 28.18ZM79.6381 21.663C80.2081 21.663 80.7147 21.53 81.1581 21.264C81.6014 20.9853 81.9497 20.618 82.2031 20.162C82.4691 19.6933 82.6021 19.1677 82.6021 18.585C82.6021 18.0023 82.4691 17.4767 82.2031 17.008C81.9371 16.5393 81.5824 16.172 81.1391 15.906C80.6957 15.6273 80.1954 15.488 79.6381 15.488C79.0554 15.488 78.5361 15.6273 78.0801 15.906C77.6241 16.172 77.2631 16.5393 76.9971 17.008C76.7437 17.464 76.6171 17.9897 76.6171 18.585C76.6171 19.155 76.7437 19.6743 76.9971 20.143C77.2631 20.6117 77.6241 20.9853 78.0801 21.264C78.5361 21.53 79.0554 21.663 79.6381 21.663ZM95.5235 24.228C94.5355 24.228 93.6299 23.9937 92.8065 23.525C91.9959 23.0563 91.3499 22.4167 90.8685 21.606C90.3872 20.7953 90.1465 19.877 90.1465 18.851C90.1465 17.8123 90.3872 16.894 90.8685 16.096C91.3499 15.2853 91.9959 14.652 92.8065 14.196C93.6172 13.7273 94.5229 13.493 95.5235 13.493C96.5369 13.493 97.4425 13.7273 98.2405 14.196C99.0512 14.652 99.6909 15.2853 100.16 16.096C100.641 16.894 100.882 17.8123 100.882 18.851C100.882 19.8897 100.641 20.8143 100.16 21.625C99.6782 22.4357 99.0322 23.0753 98.2215 23.544C97.4109 24 96.5115 24.228 95.5235 24.228ZM95.5235 22.233C96.1315 22.233 96.6699 22.0873 97.1385 21.796C97.6072 21.5047 97.9745 21.1057 98.2405 20.599C98.5192 20.0797 98.6585 19.497 98.6585 18.851C98.6585 18.205 98.5192 17.6287 98.2405 17.122C97.9745 16.6153 97.6072 16.2163 97.1385 15.925C96.6699 15.6337 96.1315 15.488 95.5235 15.488C94.9282 15.488 94.3899 15.6337 93.9085 15.925C93.4399 16.2163 93.0662 16.6153 92.7875 17.122C92.5215 17.6287 92.3885 18.205 92.3885 18.851C92.3885 19.497 92.5215 20.0797 92.7875 20.599C93.0662 21.1057 93.4399 21.5047 93.9085 21.796C94.3899 22.0873 94.9282 22.233 95.5235 22.233ZM107.238 24.114C106.161 24.114 105.325 23.81 104.73 23.202C104.135 22.594 103.837 21.739 103.837 20.637V15.659H102.032V13.721H102.317C102.798 13.721 103.172 13.5817 103.438 13.303C103.704 13.0243 103.837 12.6443 103.837 12.163V11.365H105.984V13.721H108.321V15.659H105.984V20.542C105.984 20.8967 106.041 21.2007 106.155 21.454C106.269 21.6947 106.453 21.8847 106.706 22.024C106.959 22.1507 107.289 22.214 107.694 22.214C107.795 22.214 107.909 22.2077 108.036 22.195C108.163 22.1823 108.283 22.1697 108.397 22.157V24C108.22 24.0253 108.023 24.0507 107.808 24.076C107.593 24.1013 107.403 24.114 107.238 24.114ZM110.492 24V9.617H112.639V15.735L112.297 15.469C112.551 14.823 112.956 14.3353 113.513 14.006C114.071 13.664 114.717 13.493 115.451 13.493C116.211 13.493 116.883 13.6577 117.465 13.987C118.048 14.3163 118.504 14.7723 118.833 15.355C119.163 15.9377 119.327 16.6027 119.327 17.35V24H117.199V17.939C117.199 17.4197 117.098 16.9827 116.895 16.628C116.705 16.2607 116.439 15.982 116.097 15.792C115.755 15.5893 115.363 15.488 114.919 15.488C114.489 15.488 114.096 15.5893 113.741 15.792C113.399 15.982 113.127 16.2607 112.924 16.628C112.734 16.9953 112.639 17.4323 112.639 17.939V24H110.492ZM126.451 24.228C125.425 24.228 124.513 23.9937 123.715 23.525C122.93 23.0437 122.315 22.3977 121.872 21.587C121.429 20.7637 121.207 19.8453 121.207 18.832C121.207 17.7933 121.429 16.875 121.872 16.077C122.328 15.279 122.936 14.652 123.696 14.196C124.456 13.7273 125.317 13.493 126.28 13.493C127.053 13.493 127.743 13.626 128.351 13.892C128.959 14.158 129.472 14.5253 129.89 14.994C130.308 15.45 130.625 15.9757 130.84 16.571C131.068 17.1663 131.182 17.7997 131.182 18.471C131.182 18.6357 131.176 18.8067 131.163 18.984C131.15 19.1613 131.125 19.326 131.087 19.478H122.898V17.768H129.871L128.845 18.547C128.972 17.9263 128.927 17.3753 128.712 16.894C128.509 16.4 128.193 16.0137 127.762 15.735C127.344 15.4437 126.85 15.298 126.28 15.298C125.71 15.298 125.203 15.4437 124.76 15.735C124.317 16.0137 123.975 16.419 123.734 16.951C123.493 17.4703 123.398 18.1037 123.449 18.851C123.386 19.5477 123.481 20.1557 123.734 20.675C124 21.1943 124.367 21.5997 124.836 21.891C125.317 22.1823 125.862 22.328 126.47 22.328C127.091 22.328 127.616 22.1887 128.047 21.91C128.49 21.6313 128.839 21.2703 129.092 20.827L130.84 21.682C130.637 22.1633 130.321 22.6003 129.89 22.993C129.472 23.373 128.965 23.677 128.37 23.905C127.787 24.1203 127.148 24.228 126.451 24.228ZM133.277 24V13.721H135.329V15.792L135.139 15.488C135.367 14.8167 135.735 14.3353 136.241 14.044C136.748 13.74 137.356 13.588 138.065 13.588H138.692V15.545H137.799C137.09 15.545 136.514 15.7667 136.07 16.21C135.64 16.6407 135.424 17.2613 135.424 18.072V24H133.277ZM148.366 24.228C147.34 24.228 146.428 23.9937 145.63 23.525C144.844 23.0437 144.217 22.3977 143.749 21.587C143.293 20.7763 143.065 19.858 143.065 18.832C143.065 17.8187 143.293 16.9067 143.749 16.096C144.205 15.2853 144.832 14.652 145.63 14.196C146.428 13.7273 147.34 13.493 148.366 13.493C149.062 13.493 149.715 13.6197 150.323 13.873C150.931 14.1137 151.456 14.4493 151.9 14.88C152.356 15.3107 152.691 15.811 152.907 16.381L151.026 17.255C150.81 16.723 150.462 16.2987 149.981 15.982C149.512 15.6527 148.974 15.488 148.366 15.488C147.783 15.488 147.257 15.6337 146.789 15.925C146.333 16.2037 145.972 16.6027 145.706 17.122C145.44 17.6287 145.307 18.205 145.307 18.851C145.307 19.497 145.44 20.0797 145.706 20.599C145.972 21.1057 146.333 21.5047 146.789 21.796C147.257 22.0873 147.783 22.233 148.366 22.233C148.986 22.233 149.525 22.0747 149.981 21.758C150.449 21.4287 150.798 20.9917 151.026 20.447L152.907 21.34C152.704 21.8847 152.375 22.3787 151.919 22.822C151.475 23.2527 150.95 23.5947 150.342 23.848C149.734 24.1013 149.075 24.228 148.366 24.228ZM159.964 24.228C158.976 24.228 158.07 23.9937 157.247 23.525C156.436 23.0563 155.79 22.4167 155.309 21.606C154.828 20.7953 154.587 19.877 154.587 18.851C154.587 17.8123 154.828 16.894 155.309 16.096C155.79 15.2853 156.436 14.652 157.247 14.196C158.058 13.7273 158.963 13.493 159.964 13.493C160.977 13.493 161.883 13.7273 162.681 14.196C163.492 14.652 164.131 15.2853 164.6 16.096C165.081 16.894 165.322 17.8123 165.322 18.851C165.322 19.8897 165.081 20.8143 164.6 21.625C164.119 22.4357 163.473 23.0753 162.662 23.544C161.851 24 160.952 24.228 159.964 24.228ZM159.964 22.233C160.572 22.233 161.11 22.0873 161.579 21.796C162.048 21.5047 162.415 21.1057 162.681 20.599C162.96 20.0797 163.099 19.497 163.099 18.851C163.099 18.205 162.96 17.6287 162.681 17.122C162.415 16.6153 162.048 16.2163 161.579 15.925C161.11 15.6337 160.572 15.488 159.964 15.488C159.369 15.488 158.83 15.6337 158.349 15.925C157.88 16.2163 157.507 16.6153 157.228 17.122C156.962 17.6287 156.829 18.205 156.829 18.851C156.829 19.497 156.962 20.0797 157.228 20.599C157.507 21.1057 157.88 21.5047 158.349 21.796C158.83 22.0873 159.369 22.233 159.964 22.233ZM167.418 24V13.721H169.47V15.944L169.204 15.602C169.419 14.9053 169.812 14.3797 170.382 14.025C170.952 13.6703 171.604 13.493 172.339 13.493C173.162 13.493 173.891 13.7147 174.524 14.158C175.17 14.5887 175.601 15.165 175.816 15.887L175.208 15.944C175.512 15.1207 175.974 14.5063 176.595 14.101C177.228 13.6957 177.95 13.493 178.761 13.493C179.47 13.493 180.11 13.6577 180.68 13.987C181.263 14.3163 181.725 14.7723 182.067 15.355C182.409 15.9377 182.58 16.6027 182.58 17.35V24H180.433V17.939C180.433 17.4197 180.338 16.9827 180.148 16.628C179.971 16.2607 179.717 15.982 179.388 15.792C179.071 15.5893 178.698 15.488 178.267 15.488C177.836 15.488 177.456 15.5893 177.127 15.792C176.798 15.982 176.538 16.2607 176.348 16.628C176.158 16.9953 176.063 17.4323 176.063 17.939V24H173.935V17.939C173.935 17.4197 173.84 16.9827 173.65 16.628C173.473 16.2607 173.219 15.982 172.89 15.792C172.573 15.5893 172.193 15.488 171.75 15.488C171.319 15.488 170.939 15.5893 170.61 15.792C170.281 15.982 170.021 16.2607 169.831 16.628C169.654 16.9953 169.565 17.4323 169.565 17.939V24H167.418ZM184.878 27.8V13.721H186.93V15.849L186.683 15.355C187.063 14.7723 187.57 14.3163 188.203 13.987C188.836 13.6577 189.558 13.493 190.369 13.493C191.344 13.493 192.218 13.7273 192.991 14.196C193.776 14.6647 194.391 15.3043 194.834 16.115C195.29 16.9257 195.518 17.8377 195.518 18.851C195.518 19.8643 195.29 20.7763 194.834 21.587C194.391 22.3977 193.783 23.0437 193.01 23.525C192.237 23.9937 191.357 24.228 190.369 24.228C189.571 24.228 188.843 24.0633 188.184 23.734C187.538 23.4047 187.038 22.9297 186.683 22.309L187.025 21.91V27.8H184.878ZM190.16 22.233C190.768 22.233 191.306 22.0873 191.775 21.796C192.244 21.5047 192.611 21.1057 192.877 20.599C193.156 20.0797 193.295 19.497 193.295 18.851C193.295 18.205 193.156 17.6287 192.877 17.122C192.611 16.6153 192.244 16.2163 191.775 15.925C191.306 15.6337 190.768 15.488 190.16 15.488C189.565 15.488 189.026 15.6337 188.545 15.925C188.076 16.2163 187.703 16.6153 187.424 17.122C187.158 17.6287 187.025 18.205 187.025 18.851C187.025 19.497 187.158 20.0797 187.424 20.599C187.703 21.1057 188.076 21.5047 188.545 21.796C189.026 22.0873 189.565 22.233 190.16 22.233ZM202.433 24.228C201.407 24.228 200.495 23.9937 199.697 23.525C198.911 23.0437 198.297 22.3977 197.854 21.587C197.41 20.7637 197.189 19.8453 197.189 18.832C197.189 17.7933 197.41 16.875 197.854 16.077C198.31 15.279 198.918 14.652 199.678 14.196C200.438 13.7273 201.299 13.493 202.262 13.493C203.034 13.493 203.725 13.626 204.333 13.892C204.941 14.158 205.454 14.5253 205.872 14.994C206.29 15.45 206.606 15.9757 206.822 16.571C207.05 17.1663 207.164 17.7997 207.164 18.471C207.164 18.6357 207.157 18.8067 207.145 18.984C207.132 19.1613 207.107 19.326 207.069 19.478H198.88V17.768H205.853L204.827 18.547C204.953 17.9263 204.909 17.3753 204.694 16.894C204.491 16.4 204.174 16.0137 203.744 15.735C203.326 15.4437 202.832 15.298 202.262 15.298C201.692 15.298 201.185 15.4437 200.742 15.735C200.298 16.0137 199.956 16.419 199.716 16.951C199.475 17.4703 199.38 18.1037 199.431 18.851C199.367 19.5477 199.462 20.1557 199.716 20.675C199.982 21.1943 200.349 21.5997 200.818 21.891C201.299 22.1823 201.844 22.328 202.452 22.328C203.072 22.328 203.598 22.1887 204.029 21.91C204.472 21.6313 204.82 21.2703 205.074 20.827L206.822 21.682C206.619 22.1633 206.302 22.6003 205.872 22.993C205.454 23.373 204.947 23.677 204.352 23.905C203.769 24.1203 203.129 24.228 202.433 24.228ZM213.705 24.114C212.628 24.114 211.792 23.81 211.197 23.202C210.602 22.594 210.304 21.739 210.304 20.637V15.659H208.499V13.721H208.784C209.265 13.721 209.639 13.5817 209.905 13.303C210.171 13.0243 210.304 12.6443 210.304 12.163V11.365H212.451V13.721H214.788V15.659H212.451V20.542C212.451 20.8967 212.508 21.2007 212.622 21.454C212.736 21.6947 212.92 21.8847 213.173 22.024C213.426 22.1507 213.756 22.214 214.161 22.214C214.262 22.214 214.376 22.2077 214.503 22.195C214.63 22.1823 214.75 22.1697 214.864 22.157V24C214.687 24.0253 214.49 24.0507 214.275 24.076C214.06 24.1013 213.87 24.114 213.705 24.114ZM216.959 24V13.721H219.106V24H216.959ZM216.959 12.315V9.845H219.106V12.315H216.959ZM226.062 24.114C224.986 24.114 224.15 23.81 223.554 23.202C222.959 22.594 222.661 21.739 222.661 20.637V15.659H220.856V13.721H221.141C221.623 13.721 221.996 13.5817 222.262 13.303C222.528 13.0243 222.661 12.6443 222.661 12.163V11.365H224.808V13.721H227.145V15.659H224.808V20.542C224.808 20.8967 224.865 21.2007 224.979 21.454C225.093 21.6947 225.277 21.8847 225.53 22.024C225.784 22.1507 226.113 22.214 226.518 22.214C226.62 22.214 226.734 22.2077 226.86 22.195C226.987 22.1823 227.107 22.1697 227.221 22.157V24C227.044 24.0253 226.848 24.0507 226.632 24.076C226.417 24.1013 226.227 24.114 226.062 24.114ZM234.09 24.228C233.102 24.228 232.196 23.9937 231.373 23.525C230.562 23.0563 229.916 22.4167 229.435 21.606C228.954 20.7953 228.713 19.877 228.713 18.851C228.713 17.8123 228.954 16.894 229.435 16.096C229.916 15.2853 230.562 14.652 231.373 14.196C232.184 13.7273 233.089 13.493 234.09 13.493C235.103 13.493 236.009 13.7273 236.807 14.196C237.618 14.652 238.257 15.2853 238.726 16.096C239.207 16.894 239.448 17.8123 239.448 18.851C239.448 19.8897 239.207 20.8143 238.726 21.625C238.245 22.4357 237.599 23.0753 236.788 23.544C235.977 24 235.078 24.228 234.09 24.228ZM234.09 22.233C234.698 22.233 235.236 22.0873 235.705 21.796C236.174 21.5047 236.541 21.1057 236.807 20.599C237.086 20.0797 237.225 19.497 237.225 18.851C237.225 18.205 237.086 17.6287 236.807 17.122C236.541 16.6153 236.174 16.2163 235.705 15.925C235.236 15.6337 234.698 15.488 234.09 15.488C233.495 15.488 232.956 15.6337 232.475 15.925C232.006 16.2163 231.633 16.6153 231.354 17.122C231.088 17.6287 230.955 18.205 230.955 18.851C230.955 19.497 231.088 20.0797 231.354 20.599C231.633 21.1057 232.006 21.5047 232.475 21.796C232.956 22.0873 233.495 22.233 234.09 22.233ZM241.544 24V13.721H243.596V15.792L243.406 15.488C243.634 14.8167 244.001 14.3353 244.508 14.044C245.015 13.74 245.623 13.588 246.332 13.588H246.959V15.545H246.066C245.357 15.545 244.78 15.7667 244.337 16.21C243.906 16.6407 243.691 17.2613 243.691 18.072V24H241.544ZM252.228 24.228C251.176 24.228 250.252 23.9683 249.454 23.449C248.668 22.9297 248.117 22.233 247.801 21.359L249.454 20.58C249.732 21.1627 250.112 21.625 250.594 21.967C251.088 22.309 251.632 22.48 252.228 22.48C252.734 22.48 253.146 22.366 253.463 22.138C253.779 21.91 253.938 21.5997 253.938 21.207C253.938 20.9537 253.868 20.751 253.729 20.599C253.589 20.4343 253.412 20.3013 253.197 20.2C252.994 20.0987 252.785 20.0227 252.57 19.972L250.955 19.516C250.068 19.2627 249.403 18.8827 248.96 18.376C248.529 17.8567 248.314 17.255 248.314 16.571C248.314 15.9503 248.472 15.412 248.789 14.956C249.105 14.4873 249.542 14.1263 250.1 13.873C250.657 13.6197 251.284 13.493 251.981 13.493C252.918 13.493 253.754 13.7273 254.489 14.196C255.223 14.652 255.743 15.2917 256.047 16.115L254.394 16.894C254.191 16.4 253.868 16.0073 253.425 15.716C252.994 15.4247 252.506 15.279 251.962 15.279C251.493 15.279 251.119 15.393 250.841 15.621C250.562 15.8363 250.423 16.1213 250.423 16.476C250.423 16.7167 250.486 16.9193 250.613 17.084C250.739 17.236 250.904 17.3627 251.107 17.464C251.309 17.5527 251.518 17.6287 251.734 17.692L253.406 18.186C254.254 18.4267 254.907 18.8067 255.363 19.326C255.819 19.8327 256.047 20.4407 256.047 21.15C256.047 21.758 255.882 22.2963 255.553 22.765C255.236 23.221 254.793 23.582 254.223 23.848C253.653 24.1013 252.988 24.228 252.228 24.228Z" fill="#5E2FD3"/>
</svg>
