<svg width="463" height="32" viewBox="0 0 463 32" fill="none" xmlns="http://www.w3.org/2000/svg">
<mask id="mask0_1233_530" style="mask-type:alpha" maskUnits="userSpaceOnUse" x="0" y="4" width="25" height="24">
<rect x="0.5" y="4" width="24" height="24" fill="#D9D9D9"/>
</mask>
<g mask="url(#mask0_1233_530)">
<path d="M6.5 18H14.5V16H6.5V18ZM6.5 15H18.5V13H6.5V15ZM6.5 12H18.5V10H6.5V12ZM2.5 26V8C2.5 7.45 2.69583 6.97917 3.0875 6.5875C3.47917 6.19583 3.95 6 4.5 6H20.5C21.05 6 21.5208 6.19583 21.9125 6.5875C22.3042 6.97917 22.5 7.45 22.5 8V20C22.5 20.55 22.3042 21.0208 21.9125 21.4125C21.5208 21.8042 21.05 22 20.5 22H6.5L2.5 26ZM5.65 20H20.5V8H4.5V21.125L5.65 20Z" fill="#5E2FD3"/>
</g>
<path d="M35.963 24V9.845H41.112C42.062 9.845 42.898 10.0223 43.62 10.377C44.3547 10.719 44.9247 11.2257 45.33 11.897C45.7353 12.5557 45.938 13.3473 45.938 14.272C45.938 15.184 45.729 15.9693 45.311 16.628C44.9057 17.2867 44.342 17.7933 43.62 18.148C42.898 18.5027 42.062 18.68 41.112 18.68H38.205V24H35.963ZM38.205 16.685H41.169C41.6757 16.685 42.119 16.5837 42.499 16.381C42.879 16.1783 43.1767 15.8997 43.392 15.545C43.6073 15.1777 43.715 14.747 43.715 14.253C43.715 13.759 43.6073 13.3347 43.392 12.98C43.1767 12.6127 42.879 12.334 42.499 12.144C42.119 11.9413 41.6757 11.84 41.169 11.84H38.205V16.685ZM48.0372 24V9.617H50.1842V24H48.0372ZM55.7724 24.228C55.0758 24.228 54.4614 24.1077 53.9294 23.867C53.4101 23.6137 53.0048 23.2717 52.7134 22.841C52.4221 22.3977 52.2764 21.8783 52.2764 21.283C52.2764 20.7257 52.3968 20.2253 52.6374 19.782C52.8908 19.3387 53.2771 18.965 53.7964 18.661C54.3158 18.357 54.9681 18.1417 55.7534 18.015L59.3254 17.426V19.117L56.1714 19.668C55.6014 19.7693 55.1834 19.953 54.9174 20.219C54.6514 20.4723 54.5184 20.8017 54.5184 21.207C54.5184 21.5997 54.6641 21.9227 54.9554 22.176C55.2594 22.4167 55.6458 22.537 56.1144 22.537C56.6971 22.537 57.2038 22.4103 57.6344 22.157C58.0778 21.9037 58.4198 21.568 58.6604 21.15C58.9011 20.7193 59.0214 20.2443 59.0214 19.725V17.084C59.0214 16.5773 58.8314 16.1657 58.4514 15.849C58.0841 15.5197 57.5901 15.355 56.9694 15.355C56.3994 15.355 55.8991 15.507 55.4684 15.811C55.0504 16.1023 54.7401 16.4823 54.5374 16.951L52.7514 16.058C52.9414 15.5513 53.2518 15.108 53.6824 14.728C54.1131 14.3353 54.6134 14.0313 55.1834 13.816C55.7661 13.6007 56.3804 13.493 57.0264 13.493C57.8371 13.493 58.5528 13.645 59.1734 13.949C59.8068 14.253 60.2944 14.6773 60.6364 15.222C60.9911 15.754 61.1684 16.3747 61.1684 17.084V24H59.1164V22.138L59.5534 22.195C59.3128 22.613 59.0024 22.974 58.6224 23.278C58.2551 23.582 57.8308 23.8163 57.3494 23.981C56.8808 24.1457 56.3551 24.228 55.7724 24.228ZM63.6788 24V13.721H65.7308V15.735L65.4838 15.469C65.7371 14.823 66.1425 14.3353 66.6998 14.006C67.2571 13.664 67.9031 13.493 68.6378 13.493C69.3978 13.493 70.0691 13.6577 70.6518 13.987C71.2345 14.3163 71.6905 14.7723 72.0198 15.355C72.3491 15.9377 72.5138 16.609 72.5138 17.369V24H70.3858V17.939C70.3858 17.4197 70.2908 16.9827 70.1008 16.628C69.9108 16.2607 69.6385 15.982 69.2838 15.792C68.9418 15.5893 68.5491 15.488 68.1058 15.488C67.6625 15.488 67.2635 15.5893 66.9088 15.792C66.5668 15.982 66.3008 16.2607 66.1108 16.628C65.9208 16.9953 65.8258 17.4323 65.8258 17.939V24H63.6788ZM78.6116 24.228C77.5603 24.228 76.6356 23.9683 75.8376 23.449C75.0523 22.9297 74.5013 22.233 74.1846 21.359L75.8376 20.58C76.1163 21.1627 76.4963 21.625 76.9776 21.967C77.4716 22.309 78.0163 22.48 78.6116 22.48C79.1183 22.48 79.53 22.366 79.8466 22.138C80.1633 21.91 80.3216 21.5997 80.3216 21.207C80.3216 20.9537 80.252 20.751 80.1126 20.599C79.9733 20.4343 79.796 20.3013 79.5806 20.2C79.378 20.0987 79.169 20.0227 78.9536 19.972L77.3386 19.516C76.452 19.2627 75.787 18.8827 75.3436 18.376C74.913 17.8567 74.6976 17.255 74.6976 16.571C74.6976 15.9503 74.856 15.412 75.1726 14.956C75.4893 14.4873 75.9263 14.1263 76.4836 13.873C77.041 13.6197 77.668 13.493 78.3646 13.493C79.302 13.493 80.138 13.7273 80.8726 14.196C81.6073 14.652 82.1266 15.2917 82.4306 16.115L80.7776 16.894C80.575 16.4 80.252 16.0073 79.8086 15.716C79.378 15.4247 78.8903 15.279 78.3456 15.279C77.877 15.279 77.5033 15.393 77.2246 15.621C76.946 15.8363 76.8066 16.1213 76.8066 16.476C76.8066 16.7167 76.87 16.9193 76.9966 17.084C77.1233 17.236 77.288 17.3627 77.4906 17.464C77.6933 17.5527 77.9023 17.6287 78.1176 17.692L79.7896 18.186C80.6383 18.4267 81.2906 18.8067 81.7466 19.326C82.2026 19.8327 82.4306 20.4407 82.4306 21.15C82.4306 21.758 82.266 22.2963 81.9366 22.765C81.62 23.221 81.1766 23.582 80.6066 23.848C80.0366 24.1013 79.3716 24.228 78.6116 24.228ZM92.3016 24.114C91.2249 24.114 90.3889 23.81 89.7936 23.202C89.1982 22.594 88.9006 21.739 88.9006 20.637V15.659H87.0956V13.721H87.3806C87.8619 13.721 88.2356 13.5817 88.5016 13.303C88.7676 13.0243 88.9006 12.6443 88.9006 12.163V11.365H91.0476V13.721H93.3846V15.659H91.0476V20.542C91.0476 20.8967 91.1046 21.2007 91.2186 21.454C91.3326 21.6947 91.5162 21.8847 91.7696 22.024C92.0229 22.1507 92.3522 22.214 92.7576 22.214C92.8589 22.214 92.9729 22.2077 93.0996 22.195C93.2262 22.1823 93.3466 22.1697 93.4606 22.157V24C93.2832 24.0253 93.0869 24.0507 92.8716 24.076C92.6562 24.1013 92.4662 24.114 92.3016 24.114ZM95.5558 24V9.617H97.7028V15.735L97.3608 15.469C97.6141 14.823 98.0194 14.3353 98.5768 14.006C99.1341 13.664 99.7801 13.493 100.515 13.493C101.275 13.493 101.946 13.6577 102.529 13.987C103.111 14.3163 103.567 14.7723 103.897 15.355C104.226 15.9377 104.391 16.6027 104.391 17.35V24H102.263V17.939C102.263 17.4197 102.161 16.9827 101.959 16.628C101.769 16.2607 101.503 15.982 101.161 15.792C100.819 15.5893 100.426 15.488 99.9828 15.488C99.5521 15.488 99.1594 15.5893 98.8048 15.792C98.4628 15.982 98.1904 16.2607 97.9878 16.628C97.7978 16.9953 97.7028 17.4323 97.7028 17.939V24H95.5558ZM109.767 24.228C109.07 24.228 108.456 24.1077 107.924 23.867C107.404 23.6137 106.999 23.2717 106.708 22.841C106.416 22.3977 106.271 21.8783 106.271 21.283C106.271 20.7257 106.391 20.2253 106.632 19.782C106.885 19.3387 107.271 18.965 107.791 18.661C108.31 18.357 108.962 18.1417 109.748 18.015L113.32 17.426V19.117L110.166 19.668C109.596 19.7693 109.178 19.953 108.912 20.219C108.646 20.4723 108.513 20.8017 108.513 21.207C108.513 21.5997 108.658 21.9227 108.95 22.176C109.254 22.4167 109.64 22.537 110.109 22.537C110.691 22.537 111.198 22.4103 111.629 22.157C112.072 21.9037 112.414 21.568 112.655 21.15C112.895 20.7193 113.016 20.2443 113.016 19.725V17.084C113.016 16.5773 112.826 16.1657 112.446 15.849C112.078 15.5197 111.584 15.355 110.964 15.355C110.394 15.355 109.893 15.507 109.463 15.811C109.045 16.1023 108.734 16.4823 108.532 16.951L106.746 16.058C106.936 15.5513 107.246 15.108 107.677 14.728C108.107 14.3353 108.608 14.0313 109.178 13.816C109.76 13.6007 110.375 13.493 111.021 13.493C111.831 13.493 112.547 13.645 113.168 13.949C113.801 14.253 114.289 14.6773 114.631 15.222C114.985 15.754 115.163 16.3747 115.163 17.084V24H113.111V22.138L113.548 22.195C113.307 22.613 112.997 22.974 112.617 23.278C112.249 23.582 111.825 23.8163 111.344 23.981C110.875 24.1457 110.349 24.228 109.767 24.228ZM121.933 24.114C120.857 24.114 120.021 23.81 119.425 23.202C118.83 22.594 118.532 21.739 118.532 20.637V15.659H116.727V13.721H117.012C117.494 13.721 117.867 13.5817 118.133 13.303C118.399 13.0243 118.532 12.6443 118.532 12.163V11.365H120.679V13.721H123.016V15.659H120.679V20.542C120.679 20.8967 120.736 21.2007 120.85 21.454C120.964 21.6947 121.148 21.8847 121.401 22.024C121.655 22.1507 121.984 22.214 122.389 22.214C122.491 22.214 122.605 22.2077 122.731 22.195C122.858 22.1823 122.978 22.1697 123.092 22.157V24C122.915 24.0253 122.719 24.0507 122.503 24.076C122.288 24.1013 122.098 24.114 121.933 24.114ZM131.587 24.228C130.89 24.228 130.276 24.1077 129.744 23.867C129.225 23.6137 128.819 23.2717 128.528 22.841C128.237 22.3977 128.091 21.8783 128.091 21.283C128.091 20.7257 128.211 20.2253 128.452 19.782C128.705 19.3387 129.092 18.965 129.611 18.661C130.13 18.357 130.783 18.1417 131.568 18.015L135.14 17.426V19.117L131.986 19.668C131.416 19.7693 130.998 19.953 130.732 20.219C130.466 20.4723 130.333 20.8017 130.333 21.207C130.333 21.5997 130.479 21.9227 130.77 22.176C131.074 22.4167 131.46 22.537 131.929 22.537C132.512 22.537 133.018 22.4103 133.449 22.157C133.892 21.9037 134.234 21.568 134.475 21.15C134.716 20.7193 134.836 20.2443 134.836 19.725V17.084C134.836 16.5773 134.646 16.1657 134.266 15.849C133.899 15.5197 133.405 15.355 132.784 15.355C132.214 15.355 131.714 15.507 131.283 15.811C130.865 16.1023 130.555 16.4823 130.352 16.951L128.566 16.058C128.756 15.5513 129.066 15.108 129.497 14.728C129.928 14.3353 130.428 14.0313 130.998 13.816C131.581 13.6007 132.195 13.493 132.841 13.493C133.652 13.493 134.367 13.645 134.988 13.949C135.621 14.253 136.109 14.6773 136.451 15.222C136.806 15.754 136.983 16.3747 136.983 17.084V24H134.931V22.138L135.368 22.195C135.127 22.613 134.817 22.974 134.437 23.278C134.07 23.582 133.645 23.8163 133.164 23.981C132.695 24.1457 132.17 24.228 131.587 24.228ZM139.493 24V13.721H141.545V15.792L141.355 15.488C141.583 14.8167 141.951 14.3353 142.457 14.044C142.964 13.74 143.572 13.588 144.281 13.588H144.908V15.545H144.015C143.306 15.545 142.73 15.7667 142.286 16.21C141.856 16.6407 141.64 17.2613 141.64 18.072V24H139.493ZM151.203 24.228C150.177 24.228 149.265 23.9937 148.467 23.525C147.682 23.0437 147.067 22.3977 146.624 21.587C146.181 20.7637 145.959 19.8453 145.959 18.832C145.959 17.7933 146.181 16.875 146.624 16.077C147.08 15.279 147.688 14.652 148.448 14.196C149.208 13.7273 150.069 13.493 151.032 13.493C151.805 13.493 152.495 13.626 153.103 13.892C153.711 14.158 154.224 14.5253 154.642 14.994C155.06 15.45 155.377 15.9757 155.592 16.571C155.82 17.1663 155.934 17.7997 155.934 18.471C155.934 18.6357 155.928 18.8067 155.915 18.984C155.902 19.1613 155.877 19.326 155.839 19.478H147.65V17.768H154.623L153.597 18.547C153.724 17.9263 153.679 17.3753 153.464 16.894C153.261 16.4 152.945 16.0137 152.514 15.735C152.096 15.4437 151.602 15.298 151.032 15.298C150.462 15.298 149.955 15.4437 149.512 15.735C149.069 16.0137 148.727 16.419 148.486 16.951C148.245 17.4703 148.15 18.1037 148.201 18.851C148.138 19.5477 148.233 20.1557 148.486 20.675C148.752 21.1943 149.119 21.5997 149.588 21.891C150.069 22.1823 150.614 22.328 151.222 22.328C151.843 22.328 152.368 22.1887 152.799 21.91C153.242 21.6313 153.591 21.2703 153.844 20.827L155.592 21.682C155.389 22.1633 155.073 22.6003 154.642 22.993C154.224 23.373 153.717 23.677 153.122 23.905C152.539 24.1203 151.9 24.228 151.203 24.228ZM158.029 24V13.721H160.081V15.735L159.834 15.469C160.088 14.823 160.493 14.3353 161.05 14.006C161.608 13.664 162.254 13.493 162.988 13.493C163.748 13.493 164.42 13.6577 165.002 13.987C165.585 14.3163 166.041 14.7723 166.37 15.355C166.7 15.9377 166.864 16.609 166.864 17.369V24H164.736V17.939C164.736 17.4197 164.641 16.9827 164.451 16.628C164.261 16.2607 163.989 15.982 163.634 15.792C163.292 15.5893 162.9 15.488 162.456 15.488C162.013 15.488 161.614 15.5893 161.259 15.792C160.917 15.982 160.651 16.2607 160.461 16.628C160.271 16.9953 160.176 17.4323 160.176 17.939V24H158.029ZM169.713 14.918V13.873C170.131 13.7717 170.454 13.588 170.682 13.322C170.91 13.0433 171.05 12.7077 171.1 12.315H170.093V9.845H172.278V11.46C172.278 12.3847 172.063 13.151 171.632 13.759C171.202 14.3543 170.562 14.7407 169.713 14.918ZM179.843 24.114C178.766 24.114 177.93 23.81 177.335 23.202C176.739 22.594 176.442 21.739 176.442 20.637V15.659H174.637V13.721H174.922C175.403 13.721 175.777 13.5817 176.043 13.303C176.309 13.0243 176.442 12.6443 176.442 12.163V11.365H178.589V13.721H180.926V15.659H178.589V20.542C178.589 20.8967 178.646 21.2007 178.76 21.454C178.874 21.6947 179.057 21.8847 179.311 22.024C179.564 22.1507 179.893 22.214 180.299 22.214C180.4 22.214 180.514 22.2077 180.641 22.195C180.767 22.1823 180.888 22.1697 181.002 22.157V24C180.824 24.0253 180.628 24.0507 180.413 24.076C180.197 24.1013 180.007 24.114 179.843 24.114ZM186.418 24V13.721H188.565V24H186.418ZM186.418 12.315V9.845H188.565V12.315H186.418ZM195.825 24.228C194.837 24.228 193.951 23.9937 193.165 23.525C192.393 23.0437 191.778 22.3977 191.322 21.587C190.879 20.7763 190.657 19.8643 190.657 18.851C190.657 17.8377 190.885 16.9257 191.341 16.115C191.797 15.3043 192.412 14.6647 193.184 14.196C193.957 13.7273 194.831 13.493 195.806 13.493C196.63 13.493 197.358 13.6577 197.991 13.987C198.625 14.3163 199.125 14.7723 199.492 15.355L199.169 15.849V9.617H201.297V24H199.264V21.91L199.511 22.309C199.157 22.9297 198.65 23.4047 197.991 23.734C197.333 24.0633 196.611 24.228 195.825 24.228ZM196.034 22.233C196.63 22.233 197.162 22.0873 197.63 21.796C198.112 21.5047 198.485 21.1057 198.751 20.599C199.03 20.0797 199.169 19.497 199.169 18.851C199.169 18.205 199.03 17.6287 198.751 17.122C198.485 16.6153 198.112 16.2163 197.63 15.925C197.162 15.6337 196.63 15.488 196.034 15.488C195.439 15.488 194.901 15.6337 194.419 15.925C193.938 16.2163 193.564 16.6153 193.298 17.122C193.032 17.6287 192.899 18.205 192.899 18.851C192.899 19.497 193.032 20.0797 193.298 20.599C193.564 21.1057 193.932 21.5047 194.4 21.796C194.882 22.0873 195.426 22.233 196.034 22.233ZM208.63 24.228C207.604 24.228 206.692 23.9937 205.894 23.525C205.108 23.0437 204.494 22.3977 204.051 21.587C203.607 20.7637 203.386 19.8453 203.386 18.832C203.386 17.7933 203.607 16.875 204.051 16.077C204.507 15.279 205.115 14.652 205.875 14.196C206.635 13.7273 207.496 13.493 208.459 13.493C209.231 13.493 209.922 13.626 210.53 13.892C211.138 14.158 211.651 14.5253 212.069 14.994C212.487 15.45 212.803 15.9757 213.019 16.571C213.247 17.1663 213.361 17.7997 213.361 18.471C213.361 18.6357 213.354 18.8067 213.342 18.984C213.329 19.1613 213.304 19.326 213.266 19.478H205.077V17.768H212.05L211.024 18.547C211.15 17.9263 211.106 17.3753 210.891 16.894C210.688 16.4 210.371 16.0137 209.941 15.735C209.523 15.4437 209.029 15.298 208.459 15.298C207.889 15.298 207.382 15.4437 206.939 15.735C206.495 16.0137 206.153 16.419 205.913 16.951C205.672 17.4703 205.577 18.1037 205.628 18.851C205.564 19.5477 205.659 20.1557 205.913 20.675C206.179 21.1943 206.546 21.5997 207.015 21.891C207.496 22.1823 208.041 22.328 208.649 22.328C209.269 22.328 209.795 22.1887 210.226 21.91C210.669 21.6313 211.017 21.2703 211.271 20.827L213.019 21.682C212.816 22.1633 212.499 22.6003 212.069 22.993C211.651 23.373 211.144 23.677 210.549 23.905C209.966 24.1203 209.326 24.228 208.63 24.228ZM218.441 24.228C217.745 24.228 217.13 24.1077 216.598 23.867C216.079 23.6137 215.674 23.2717 215.382 22.841C215.091 22.3977 214.945 21.8783 214.945 21.283C214.945 20.7257 215.066 20.2253 215.306 19.782C215.56 19.3387 215.946 18.965 216.465 18.661C216.985 18.357 217.637 18.1417 218.422 18.015L221.994 17.426V19.117L218.84 19.668C218.27 19.7693 217.852 19.953 217.586 20.219C217.32 20.4723 217.187 20.8017 217.187 21.207C217.187 21.5997 217.333 21.9227 217.624 22.176C217.928 22.4167 218.315 22.537 218.783 22.537C219.366 22.537 219.873 22.4103 220.303 22.157C220.747 21.9037 221.089 21.568 221.329 21.15C221.57 20.7193 221.69 20.2443 221.69 19.725V17.084C221.69 16.5773 221.5 16.1657 221.12 15.849C220.753 15.5197 220.259 15.355 219.638 15.355C219.068 15.355 218.568 15.507 218.137 15.811C217.719 16.1023 217.409 16.4823 217.206 16.951L215.42 16.058C215.61 15.5513 215.921 15.108 216.351 14.728C216.782 14.3353 217.282 14.0313 217.852 13.816C218.435 13.6007 219.049 13.493 219.695 13.493C220.506 13.493 221.222 13.645 221.842 13.949C222.476 14.253 222.963 14.6773 223.305 15.222C223.66 15.754 223.837 16.3747 223.837 17.084V24H221.785V22.138L222.222 22.195C221.982 22.613 221.671 22.974 221.291 23.278C220.924 23.582 220.5 23.8163 220.018 23.981C219.55 24.1457 219.024 24.228 218.441 24.228ZM226.348 24V9.617H228.495V24H226.348Z" fill="#5E2FD3"/>
</svg>
