<svg width="252" height="98" viewBox="0 0 252 98" fill="none" xmlns="http://www.w3.org/2000/svg">
<mask id="mask0_1224_1059" style="mask-type:alpha" maskUnits="userSpaceOnUse" x="0" y="0" width="25" height="24">
<rect x="0.5" width="24" height="24" fill="#D9D9D9"/>
</mask>
<g mask="url(#mask0_1224_1059)">
<path d="M12.5 6C11.95 6 11.4792 5.80417 11.0875 5.4125C10.6958 5.02083 10.5 4.55 10.5 4C10.5 3.45 10.6958 2.97917 11.0875 2.5875C11.4792 2.19583 11.95 2 12.5 2C13.05 2 13.5208 2.19583 13.9125 2.5875C14.3042 2.97917 14.5 3.45 14.5 4C14.5 4.55 14.3042 5.02083 13.9125 5.4125C13.5208 5.80417 13.05 6 12.5 6ZM9.5 22V9H3.5V7H21.5V9H15.5V22H13.5V16H11.5V22H9.5Z" fill="#5E2FD3"/>
</g>
<path d="M1.963 58V43.845H6.599C8.06833 43.845 9.34133 44.1427 10.418 44.738C11.5073 45.3207 12.3497 46.144 12.945 47.208C13.5403 48.272 13.838 49.507 13.838 50.913C13.838 52.3063 13.5403 53.5413 12.945 54.618C12.3497 55.682 11.5073 56.5117 10.418 57.107C9.34133 57.7023 8.06833 58 6.599 58H1.963ZM4.205 56.005H6.637C7.63767 56.005 8.50533 55.796 9.24 55.378C9.98733 54.96 10.5637 54.371 10.969 53.611C11.3743 52.851 11.577 51.9517 11.577 50.913C11.577 49.8743 11.368 48.9813 10.95 48.234C10.5447 47.474 9.97467 46.885 9.24 46.467C8.50533 46.049 7.63767 45.84 6.637 45.84H4.205V56.005ZM15.837 58V47.721H17.984V58H15.837ZM15.837 46.315V43.845H17.984V46.315H15.837ZM21.6532 58V49.659H19.7532V47.721H21.6532V47.189C21.6532 46.4163 21.8116 45.7703 22.1282 45.251C22.4449 44.719 22.8819 44.3137 23.4392 44.035C24.0092 43.7563 24.6616 43.617 25.3962 43.617C25.5356 43.617 25.6939 43.6297 25.8712 43.655C26.0486 43.6677 26.1942 43.6867 26.3082 43.712V45.574C26.2069 45.5487 26.0929 45.536 25.9662 45.536C25.8396 45.5233 25.7382 45.517 25.6622 45.517C25.0922 45.517 24.6362 45.65 24.2942 45.916C23.9522 46.1693 23.7812 46.5937 23.7812 47.189V47.721H28.7022V49.659H23.7812V58H21.6532ZM35.1242 58V47.721H37.2712V58H35.1242ZM29.0822 58V49.659H27.2012V47.721H29.0822V47.189C29.0822 46.4163 29.2406 45.7703 29.5572 45.251C29.8866 44.719 30.3299 44.3137 30.8872 44.035C31.4572 43.7563 32.1032 43.617 32.8252 43.617C32.9772 43.617 33.1419 43.6297 33.3192 43.655C33.4966 43.6677 33.6422 43.6867 33.7562 43.712V45.574C33.6422 45.5487 33.5219 45.536 33.3952 45.536C33.2812 45.5233 33.1799 45.517 33.0912 45.517C32.5212 45.517 32.0652 45.65 31.7232 45.916C31.3939 46.1693 31.2292 46.5937 31.2292 47.189V47.721H36.1502V49.659H31.2292V58H29.0822ZM44.4143 58.228C43.3883 58.228 42.4763 57.9937 41.6783 57.525C40.893 57.0437 40.266 56.3977 39.7973 55.587C39.3413 54.7763 39.1133 53.858 39.1133 52.832C39.1133 51.8187 39.3413 50.9067 39.7973 50.096C40.2533 49.2853 40.8803 48.652 41.6783 48.196C42.4763 47.7273 43.3883 47.493 44.4143 47.493C45.111 47.493 45.7633 47.6197 46.3713 47.873C46.9793 48.1137 47.505 48.4493 47.9483 48.88C48.4043 49.3107 48.74 49.811 48.9553 50.381L47.0743 51.255C46.859 50.723 46.5107 50.2987 46.0293 49.982C45.5607 49.6527 45.0223 49.488 44.4143 49.488C43.8317 49.488 43.306 49.6337 42.8373 49.925C42.3813 50.2037 42.0203 50.6027 41.7543 51.122C41.4883 51.6287 41.3553 52.205 41.3553 52.851C41.3553 53.497 41.4883 54.0797 41.7543 54.599C42.0203 55.1057 42.3813 55.5047 42.8373 55.796C43.306 56.0873 43.8317 56.233 44.4143 56.233C45.035 56.233 45.5733 56.0747 46.0293 55.758C46.498 55.4287 46.8463 54.9917 47.0743 54.447L48.9553 55.34C48.7527 55.8847 48.4233 56.3787 47.9673 56.822C47.524 57.2527 46.9983 57.5947 46.3903 57.848C45.7823 58.1013 45.1237 58.228 44.4143 58.228ZM54.7208 58.228C53.9481 58.228 53.2705 58.057 52.6878 57.715C52.1051 57.3603 51.6491 56.8727 51.3198 56.252C51.0031 55.6187 50.8448 54.8903 50.8448 54.067V47.721H52.9918V53.877C52.9918 54.3457 53.0868 54.7573 53.2768 55.112C53.4668 55.4667 53.7328 55.7453 54.0748 55.948C54.4168 56.138 54.8095 56.233 55.2528 56.233C55.7088 56.233 56.1078 56.1317 56.4498 55.929C56.7918 55.7263 57.0578 55.4413 57.2478 55.074C57.4505 54.7067 57.5518 54.276 57.5518 53.782V47.721H59.6798V58H57.6468V55.986L57.8748 56.252C57.6341 56.8853 57.2351 57.373 56.6778 57.715C56.1205 58.057 55.4681 58.228 54.7208 58.228ZM62.1866 58V43.617H64.3336V58H62.1866ZM71.2898 58.114C70.2132 58.114 69.3772 57.81 68.7818 57.202C68.1865 56.594 67.8888 55.739 67.8888 54.637V49.659H66.0838V47.721H66.3688C66.8502 47.721 67.2238 47.5817 67.4898 47.303C67.7558 47.0243 67.8888 46.6443 67.8888 46.163V45.365H70.0358V47.721H72.3728V49.659H70.0358V54.542C70.0358 54.8967 70.0928 55.2007 70.2068 55.454C70.3208 55.6947 70.5045 55.8847 70.7578 56.024C71.0112 56.1507 71.3405 56.214 71.7458 56.214C71.8472 56.214 71.9612 56.2077 72.0878 56.195C72.2145 56.1823 72.3348 56.1697 72.4488 56.157V58C72.2715 58.0253 72.0752 58.0507 71.8598 58.076C71.6445 58.1013 71.4545 58.114 71.2898 58.114ZM75.456 62.18C75.2027 62.18 74.9494 62.1547 74.696 62.104C74.4554 62.066 74.2337 62.0027 74.031 61.914V60.071C74.183 60.109 74.3667 60.1407 74.582 60.166C74.7974 60.204 75.0064 60.223 75.209 60.223C75.8044 60.223 76.2414 60.09 76.52 59.824C76.8114 59.5707 77.071 59.178 77.299 58.646L77.983 57.088L77.945 58.893L73.499 47.721H75.798L79.085 56.29H78.306L81.574 47.721H83.892L79.351 59.121C79.1104 59.729 78.8064 60.261 78.439 60.717C78.0844 61.1857 77.66 61.5467 77.166 61.8C76.6847 62.0533 76.1147 62.18 75.456 62.18ZM88.6827 58V47.721H90.7347V49.792L90.5447 49.488C90.7727 48.8167 91.14 48.3353 91.6467 48.044C92.1534 47.74 92.7614 47.588 93.4707 47.588H94.0977V49.545H93.2047C92.4954 49.545 91.919 49.7667 91.4757 50.21C91.045 50.6407 90.8297 51.2613 90.8297 52.072V58H88.6827ZM100.393 58.228C99.3665 58.228 98.4545 57.9937 97.6565 57.525C96.8712 57.0437 96.2568 56.3977 95.8135 55.587C95.3702 54.7637 95.1485 53.8453 95.1485 52.832C95.1485 51.7933 95.3702 50.875 95.8135 50.077C96.2695 49.279 96.8775 48.652 97.6375 48.196C98.3975 47.7273 99.2588 47.493 100.222 47.493C100.994 47.493 101.685 47.626 102.293 47.892C102.901 48.158 103.414 48.5253 103.832 48.994C104.25 49.45 104.566 49.9757 104.781 50.571C105.01 51.1663 105.124 51.7997 105.124 52.471C105.124 52.6357 105.117 52.8067 105.105 52.984C105.092 53.1613 105.067 53.326 105.029 53.478H96.8395V51.768H103.812L102.787 52.547C102.913 51.9263 102.869 51.3753 102.654 50.894C102.451 50.4 102.134 50.0137 101.704 49.735C101.286 49.4437 100.792 49.298 100.222 49.298C99.6515 49.298 99.1448 49.4437 98.7015 49.735C98.2582 50.0137 97.9162 50.419 97.6755 50.951C97.4348 51.4703 97.3398 52.1037 97.3905 52.851C97.3272 53.5477 97.4222 54.1557 97.6755 54.675C97.9415 55.1943 98.3088 55.5997 98.7775 55.891C99.2588 56.1823 99.8035 56.328 100.412 56.328C101.032 56.328 101.558 56.1887 101.989 55.91C102.432 55.6313 102.78 55.2703 103.034 54.827L104.781 55.682C104.579 56.1633 104.262 56.6003 103.832 56.993C103.414 57.373 102.907 57.677 102.312 57.905C101.729 58.1203 101.089 58.228 100.393 58.228ZM112.102 58.228C111.076 58.228 110.164 57.9937 109.366 57.525C108.581 57.0437 107.954 56.3977 107.485 55.587C107.029 54.7763 106.801 53.858 106.801 52.832C106.801 51.8187 107.029 50.9067 107.485 50.096C107.941 49.2853 108.568 48.652 109.366 48.196C110.164 47.7273 111.076 47.493 112.102 47.493C112.799 47.493 113.451 47.6197 114.059 47.873C114.667 48.1137 115.193 48.4493 115.636 48.88C116.092 49.3107 116.428 49.811 116.643 50.381L114.762 51.255C114.547 50.723 114.198 50.2987 113.717 49.982C113.248 49.6527 112.71 49.488 112.102 49.488C111.519 49.488 110.994 49.6337 110.525 49.925C110.069 50.2037 109.708 50.6027 109.442 51.122C109.176 51.6287 109.043 52.205 109.043 52.851C109.043 53.497 109.176 54.0797 109.442 54.599C109.708 55.1057 110.069 55.5047 110.525 55.796C110.994 56.0873 111.519 56.233 112.102 56.233C112.723 56.233 113.261 56.0747 113.717 55.758C114.186 55.4287 114.534 54.9917 114.762 54.447L116.643 55.34C116.44 55.8847 116.111 56.3787 115.655 56.822C115.212 57.2527 114.686 57.5947 114.078 57.848C113.47 58.1013 112.811 58.228 112.102 58.228ZM118.741 58V47.721H120.793V49.792L120.603 49.488C120.831 48.8167 121.199 48.3353 121.705 48.044C122.212 47.74 122.82 47.588 123.529 47.588H124.156V49.545H123.263C122.554 49.545 121.978 49.7667 121.534 50.21C121.104 50.6407 120.888 51.2613 120.888 52.072V58H118.741ZM129.292 58.228C128.519 58.228 127.842 58.057 127.259 57.715C126.676 57.3603 126.22 56.8727 125.891 56.252C125.574 55.6187 125.416 54.8903 125.416 54.067V47.721H127.563V53.877C127.563 54.3457 127.658 54.7573 127.848 55.112C128.038 55.4667 128.304 55.7453 128.646 55.948C128.988 56.138 129.381 56.233 129.824 56.233C130.28 56.233 130.679 56.1317 131.021 55.929C131.363 55.7263 131.629 55.4413 131.819 55.074C132.022 54.7067 132.123 54.276 132.123 53.782V47.721H134.251V58H132.218V55.986L132.446 56.252C132.205 56.8853 131.806 57.373 131.249 57.715C130.692 58.057 130.039 58.228 129.292 58.228ZM136.758 58V47.721H138.905V58H136.758ZM136.758 46.315V43.845H138.905V46.315H136.758ZM145.861 58.114C144.784 58.114 143.948 57.81 143.353 57.202C142.758 56.594 142.46 55.739 142.46 54.637V49.659H140.655V47.721H140.94C141.421 47.721 141.795 47.5817 142.061 47.303C142.327 47.0243 142.46 46.6443 142.46 46.163V45.365H144.607V47.721H146.944V49.659H144.607V54.542C144.607 54.8967 144.664 55.2007 144.778 55.454C144.892 55.6947 145.076 55.8847 145.329 56.024C145.582 56.1507 145.912 56.214 146.317 56.214C146.418 56.214 146.532 56.2077 146.659 56.195C146.786 56.1823 146.906 56.1697 147.02 56.157V58C146.843 58.0253 146.646 58.0507 146.431 58.076C146.216 58.1013 146.026 58.114 145.861 58.114ZM149.115 58V47.721H151.262V58H149.115ZM149.115 46.315V43.845H151.262V46.315H149.115ZM153.773 58V47.721H155.825V49.735L155.578 49.469C155.831 48.823 156.236 48.3353 156.794 48.006C157.351 47.664 157.997 47.493 158.732 47.493C159.492 47.493 160.163 47.6577 160.746 47.987C161.328 48.3163 161.784 48.7723 162.114 49.355C162.443 49.9377 162.608 50.609 162.608 51.369V58H160.48V51.939C160.48 51.4197 160.385 50.9827 160.195 50.628C160.005 50.2607 159.732 49.982 159.378 49.792C159.036 49.5893 158.643 49.488 158.2 49.488C157.756 49.488 157.357 49.5893 157.003 49.792C156.661 49.982 156.395 50.2607 156.205 50.628C156.015 50.9953 155.92 51.4323 155.92 51.939V58H153.773ZM169.864 62.18C169.117 62.18 168.427 62.0597 167.793 61.819C167.16 61.5783 166.615 61.2427 166.159 60.812C165.703 60.394 165.361 59.9 165.133 59.33L167.109 58.513C167.287 58.9943 167.61 59.3933 168.078 59.71C168.56 60.0267 169.149 60.185 169.845 60.185C170.39 60.185 170.878 60.0773 171.308 59.862C171.739 59.6593 172.081 59.3553 172.334 58.95C172.588 58.5573 172.714 58.0823 172.714 57.525V55.207L173.094 55.644C172.74 56.3027 172.246 56.803 171.612 57.145C170.992 57.487 170.289 57.658 169.503 57.658C168.553 57.658 167.698 57.4363 166.938 56.993C166.178 56.5497 165.577 55.9417 165.133 55.169C164.703 54.3963 164.487 53.5287 164.487 52.566C164.487 51.5907 164.703 50.723 165.133 49.963C165.577 49.203 166.172 48.6013 166.919 48.158C167.667 47.7147 168.522 47.493 169.484 47.493C170.27 47.493 170.966 47.664 171.574 48.006C172.195 48.3353 172.702 48.8167 173.094 49.45L172.809 49.982V47.721H174.842V57.525C174.842 58.4117 174.627 59.2033 174.196 59.9C173.778 60.6093 173.196 61.1667 172.448 61.572C171.701 61.9773 170.84 62.18 169.864 62.18ZM169.75 55.663C170.32 55.663 170.827 55.53 171.27 55.264C171.714 54.9853 172.062 54.618 172.315 54.162C172.581 53.6933 172.714 53.1677 172.714 52.585C172.714 52.0023 172.581 51.4767 172.315 51.008C172.049 50.5393 171.695 50.172 171.251 49.906C170.808 49.6273 170.308 49.488 169.75 49.488C169.168 49.488 168.648 49.6273 168.192 49.906C167.736 50.172 167.375 50.5393 167.109 51.008C166.856 51.464 166.729 51.9897 166.729 52.585C166.729 53.155 166.856 53.6743 167.109 54.143C167.375 54.6117 167.736 54.9853 168.192 55.264C168.648 55.53 169.168 55.663 169.75 55.663ZM184.344 58.228C183.571 58.228 182.894 58.057 182.311 57.715C181.728 57.3603 181.272 56.8727 180.943 56.252C180.626 55.6187 180.468 54.8903 180.468 54.067V47.721H182.615V53.877C182.615 54.3457 182.71 54.7573 182.9 55.112C183.09 55.4667 183.356 55.7453 183.698 55.948C184.04 56.138 184.433 56.233 184.876 56.233C185.332 56.233 185.731 56.1317 186.073 55.929C186.415 55.7263 186.681 55.4413 186.871 55.074C187.074 54.7067 187.175 54.276 187.175 53.782V47.721H189.303V58H187.27V55.986L187.498 56.252C187.257 56.8853 186.858 57.373 186.301 57.715C185.744 58.057 185.091 58.228 184.344 58.228ZM195.61 58.228C194.558 58.228 193.634 57.9683 192.836 57.449C192.05 56.9297 191.499 56.233 191.183 55.359L192.836 54.58C193.114 55.1627 193.494 55.625 193.976 55.967C194.47 56.309 195.014 56.48 195.61 56.48C196.116 56.48 196.528 56.366 196.845 56.138C197.161 55.91 197.32 55.5997 197.32 55.207C197.32 54.9537 197.25 54.751 197.111 54.599C196.971 54.4343 196.794 54.3013 196.579 54.2C196.376 54.0987 196.167 54.0227 195.952 53.972L194.337 53.516C193.45 53.2627 192.785 52.8827 192.342 52.376C191.911 51.8567 191.696 51.255 191.696 50.571C191.696 49.9503 191.854 49.412 192.171 48.956C192.487 48.4873 192.924 48.1263 193.482 47.873C194.039 47.6197 194.666 47.493 195.363 47.493C196.3 47.493 197.136 47.7273 197.871 48.196C198.605 48.652 199.125 49.2917 199.429 50.115L197.776 50.894C197.573 50.4 197.25 50.0073 196.807 49.716C196.376 49.4247 195.888 49.279 195.344 49.279C194.875 49.279 194.501 49.393 194.223 49.621C193.944 49.8363 193.805 50.1213 193.805 50.476C193.805 50.7167 193.868 50.9193 193.995 51.084C194.121 51.236 194.286 51.3627 194.489 51.464C194.691 51.5527 194.9 51.6287 195.116 51.692L196.788 52.186C197.636 52.4267 198.289 52.8067 198.745 53.326C199.201 53.8327 199.429 54.4407 199.429 55.15C199.429 55.758 199.264 56.2963 198.935 56.765C198.618 57.221 198.175 57.582 197.605 57.848C197.035 58.1013 196.37 58.228 195.61 58.228ZM206.358 58.228C205.332 58.228 204.42 57.9937 203.622 57.525C202.837 57.0437 202.223 56.3977 201.779 55.587C201.336 54.7637 201.114 53.8453 201.114 52.832C201.114 51.7933 201.336 50.875 201.779 50.077C202.235 49.279 202.843 48.652 203.603 48.196C204.363 47.7273 205.225 47.493 206.187 47.493C206.96 47.493 207.65 47.626 208.258 47.892C208.866 48.158 209.379 48.5253 209.797 48.994C210.215 49.45 210.532 49.9757 210.747 50.571C210.975 51.1663 211.089 51.7997 211.089 52.471C211.089 52.6357 211.083 52.8067 211.07 52.984C211.058 53.1613 211.032 53.326 210.994 53.478H202.805V51.768H209.778L208.752 52.547C208.879 51.9263 208.835 51.3753 208.619 50.894C208.417 50.4 208.1 50.0137 207.669 49.735C207.251 49.4437 206.757 49.298 206.187 49.298C205.617 49.298 205.111 49.4437 204.667 49.735C204.224 50.0137 203.882 50.419 203.641 50.951C203.401 51.4703 203.306 52.1037 203.356 52.851C203.293 53.5477 203.388 54.1557 203.641 54.675C203.907 55.1943 204.275 55.5997 204.743 55.891C205.225 56.1823 205.769 56.328 206.377 56.328C206.998 56.328 207.524 56.1887 207.954 55.91C208.398 55.6313 208.746 55.2703 208.999 54.827L210.747 55.682C210.545 56.1633 210.228 56.6003 209.797 56.993C209.379 57.373 208.873 57.677 208.277 57.905C207.695 58.1203 207.055 58.228 206.358 58.228ZM213.185 58V47.721H215.237V49.792L215.047 49.488C215.275 48.8167 215.642 48.3353 216.149 48.044C216.655 47.74 217.263 47.588 217.973 47.588H218.6V49.545H217.707C216.997 49.545 216.421 49.7667 215.978 50.21C215.547 50.6407 215.332 51.2613 215.332 52.072V58H213.185ZM223.868 58.228C222.817 58.228 221.892 57.9683 221.094 57.449C220.309 56.9297 219.758 56.233 219.441 55.359L221.094 54.58C221.373 55.1627 221.753 55.625 222.234 55.967C222.728 56.309 223.273 56.48 223.868 56.48C224.375 56.48 224.787 56.366 225.103 56.138C225.42 55.91 225.578 55.5997 225.578 55.207C225.578 54.9537 225.509 54.751 225.369 54.599C225.23 54.4343 225.053 54.3013 224.837 54.2C224.635 54.0987 224.426 54.0227 224.21 53.972L222.595 53.516C221.709 53.2627 221.044 52.8827 220.6 52.376C220.17 51.8567 219.954 51.255 219.954 50.571C219.954 49.9503 220.113 49.412 220.429 48.956C220.746 48.4873 221.183 48.1263 221.74 47.873C222.298 47.6197 222.925 47.493 223.621 47.493C224.559 47.493 225.395 47.7273 226.129 48.196C226.864 48.652 227.383 49.2917 227.687 50.115L226.034 50.894C225.832 50.4 225.509 50.0073 225.065 49.716C224.635 49.4247 224.147 49.279 223.602 49.279C223.134 49.279 222.76 49.393 222.481 49.621C222.203 49.8363 222.063 50.1213 222.063 50.476C222.063 50.7167 222.127 50.9193 222.253 51.084C222.38 51.236 222.545 51.3627 222.747 51.464C222.95 51.5527 223.159 51.6287 223.374 51.692L225.046 52.186C225.895 52.4267 226.547 52.8067 227.003 53.326C227.459 53.8327 227.687 54.4407 227.687 55.15C227.687 55.758 227.523 56.2963 227.193 56.765C226.877 57.221 226.433 57.582 225.863 57.848C225.293 58.1013 224.628 58.228 223.868 58.228ZM4.243 90L0.709 79.721H2.989L5.687 87.91H4.889L7.644 79.721H9.601L12.337 87.91H11.539L14.256 79.721H16.536L12.983 90H11.045L8.271 81.621H8.974L6.2 90H4.243ZM18.0079 90V79.721H20.1549V90H18.0079ZM18.0079 78.315V75.845H20.1549V78.315H18.0079ZM27.1111 90.114C26.0345 90.114 25.1985 89.81 24.6031 89.202C24.0078 88.594 23.7101 87.739 23.7101 86.637V81.659H21.9051V79.721H22.1901C22.6715 79.721 23.0451 79.5817 23.3111 79.303C23.5771 79.0243 23.7101 78.6443 23.7101 78.163V77.365H25.8571V79.721H28.1941V81.659H25.8571V86.542C25.8571 86.8967 25.9141 87.2007 26.0281 87.454C26.1421 87.6947 26.3258 87.8847 26.5791 88.024C26.8325 88.1507 27.1618 88.214 27.5671 88.214C27.6685 88.214 27.7825 88.2077 27.9091 88.195C28.0358 88.1823 28.1561 88.1697 28.2701 88.157V90C28.0928 90.0253 27.8965 90.0507 27.6811 90.076C27.4658 90.1013 27.2758 90.114 27.1111 90.114ZM30.3653 90V75.617H32.5123V81.735L32.1703 81.469C32.4237 80.823 32.829 80.3353 33.3863 80.006C33.9437 79.664 34.5897 79.493 35.3243 79.493C36.0843 79.493 36.7557 79.6577 37.3383 79.987C37.921 80.3163 38.377 80.7723 38.7063 81.355C39.0357 81.9377 39.2003 82.6027 39.2003 83.35V90H37.0723V83.939C37.0723 83.4197 36.971 82.9827 36.7683 82.628C36.5783 82.2607 36.3123 81.982 35.9703 81.792C35.6283 81.5893 35.2357 81.488 34.7923 81.488C34.3617 81.488 33.969 81.5893 33.6143 81.792C33.2723 81.982 33 82.2607 32.7973 82.628C32.6073 82.9953 32.5123 83.4323 32.5123 83.939V90H30.3653ZM46.4571 90.228C45.4691 90.228 44.5635 89.9937 43.7401 89.525C42.9295 89.0563 42.2835 88.4167 41.8021 87.606C41.3208 86.7953 41.0801 85.877 41.0801 84.851C41.0801 83.8123 41.3208 82.894 41.8021 82.096C42.2835 81.2853 42.9295 80.652 43.7401 80.196C44.5508 79.7273 45.4565 79.493 46.4571 79.493C47.4705 79.493 48.3761 79.7273 49.1741 80.196C49.9848 80.652 50.6245 81.2853 51.0931 82.096C51.5745 82.894 51.8151 83.8123 51.8151 84.851C51.8151 85.8897 51.5745 86.8143 51.0931 87.625C50.6118 88.4357 49.9658 89.0753 49.1551 89.544C48.3445 90 47.4451 90.228 46.4571 90.228ZM46.4571 88.233C47.0651 88.233 47.6035 88.0873 48.0721 87.796C48.5408 87.5047 48.9081 87.1057 49.1741 86.599C49.4528 86.0797 49.5921 85.497 49.5921 84.851C49.5921 84.205 49.4528 83.6287 49.1741 83.122C48.9081 82.6153 48.5408 82.2163 48.0721 81.925C47.6035 81.6337 47.0651 81.488 46.4571 81.488C45.8618 81.488 45.3235 81.6337 44.8421 81.925C44.3735 82.2163 43.9998 82.6153 43.7211 83.122C43.4551 83.6287 43.3221 84.205 43.3221 84.851C43.3221 85.497 43.4551 86.0797 43.7211 86.599C43.9998 87.1057 44.3735 87.5047 44.8421 87.796C45.3235 88.0873 45.8618 88.233 46.4571 88.233ZM57.5782 90.228C56.8056 90.228 56.1279 90.057 55.5452 89.715C54.9626 89.3603 54.5066 88.8727 54.1772 88.252C53.8606 87.6187 53.7022 86.8903 53.7022 86.067V79.721H55.8492V85.877C55.8492 86.3457 55.9442 86.7573 56.1342 87.112C56.3242 87.4667 56.5902 87.7453 56.9322 87.948C57.2742 88.138 57.6669 88.233 58.1102 88.233C58.5662 88.233 58.9652 88.1317 59.3072 87.929C59.6492 87.7263 59.9152 87.4413 60.1052 87.074C60.3079 86.7067 60.4092 86.276 60.4092 85.782V79.721H62.5372V90H60.5042V87.986L60.7322 88.252C60.4916 88.8853 60.0926 89.373 59.5352 89.715C58.9779 90.057 58.3256 90.228 57.5782 90.228ZM69.49 90.114C68.4134 90.114 67.5774 89.81 66.982 89.202C66.3867 88.594 66.089 87.739 66.089 86.637V81.659H64.284V79.721H64.569C65.0504 79.721 65.424 79.5817 65.69 79.303C65.956 79.0243 66.089 78.6443 66.089 78.163V77.365H68.236V79.721H70.573V81.659H68.236V86.542C68.236 86.8967 68.293 87.2007 68.407 87.454C68.521 87.6947 68.7047 87.8847 68.958 88.024C69.2114 88.1507 69.5407 88.214 69.946 88.214C70.0474 88.214 70.1614 88.2077 70.288 88.195C70.4147 88.1823 70.535 88.1697 70.649 88.157V90C70.4717 90.0253 70.2754 90.0507 70.06 90.076C69.8447 90.1013 69.6547 90.114 69.49 90.114ZM76.0655 90V79.721H78.2125V90H76.0655ZM76.0655 78.315V75.845H78.2125V78.315H76.0655ZM80.7227 90V79.721H82.7748V81.735L82.5278 81.469C82.7811 80.823 83.1864 80.3353 83.7438 80.006C84.3011 79.664 84.9471 79.493 85.6818 79.493C86.4418 79.493 87.1131 79.6577 87.6958 79.987C88.2784 80.3163 88.7344 80.7723 89.0637 81.355C89.3931 81.9377 89.5578 82.609 89.5578 83.369V90H87.4298V83.939C87.4298 83.4197 87.3348 82.9827 87.1448 82.628C86.9548 82.2607 86.6824 81.982 86.3278 81.792C85.9858 81.5893 85.5931 81.488 85.1498 81.488C84.7064 81.488 84.3074 81.5893 83.9528 81.792C83.6108 81.982 83.3448 82.2607 83.1548 82.628C82.9648 82.9953 82.8698 83.4323 82.8698 83.939V90H80.7227ZM96.7386 90.228C95.7126 90.228 94.8006 89.9937 94.0026 89.525C93.2172 89.0437 92.5902 88.3977 92.1216 87.587C91.6656 86.7763 91.4376 85.858 91.4376 84.832C91.4376 83.8187 91.6656 82.9067 92.1216 82.096C92.5776 81.2853 93.2046 80.652 94.0026 80.196C94.8006 79.7273 95.7126 79.493 96.7386 79.493C97.4352 79.493 98.0876 79.6197 98.6956 79.873C99.3036 80.1137 99.8292 80.4493 100.273 80.88C100.729 81.3107 101.064 81.811 101.28 82.381L99.3986 83.255C99.1832 82.723 98.8349 82.2987 98.3536 81.982C97.8849 81.6527 97.3466 81.488 96.7386 81.488C96.1559 81.488 95.6302 81.6337 95.1616 81.925C94.7056 82.2037 94.3446 82.6027 94.0786 83.122C93.8126 83.6287 93.6796 84.205 93.6796 84.851C93.6796 85.497 93.8126 86.0797 94.0786 86.599C94.3446 87.1057 94.7056 87.5047 95.1616 87.796C95.6302 88.0873 96.1559 88.233 96.7386 88.233C97.3592 88.233 97.8976 88.0747 98.3536 87.758C98.8222 87.4287 99.1706 86.9917 99.3986 86.447L101.28 87.34C101.077 87.8847 100.748 88.3787 100.292 88.822C99.8482 89.2527 99.3226 89.5947 98.7146 89.848C98.1066 90.1013 97.4479 90.228 96.7386 90.228ZM108.204 90.228C107.178 90.228 106.266 89.9937 105.468 89.525C104.683 89.0437 104.068 88.3977 103.625 87.587C103.182 86.7637 102.96 85.8453 102.96 84.832C102.96 83.7933 103.182 82.875 103.625 82.077C104.081 81.279 104.689 80.652 105.449 80.196C106.209 79.7273 107.07 79.493 108.033 79.493C108.806 79.493 109.496 79.626 110.104 79.892C110.712 80.158 111.225 80.5253 111.643 80.994C112.061 81.45 112.378 81.9757 112.593 82.571C112.821 83.1663 112.935 83.7997 112.935 84.471C112.935 84.6357 112.929 84.8067 112.916 84.984C112.903 85.1613 112.878 85.326 112.84 85.478H104.651V83.768H111.624L110.598 84.547C110.725 83.9263 110.68 83.3753 110.465 82.894C110.262 82.4 109.946 82.0137 109.515 81.735C109.097 81.4437 108.603 81.298 108.033 81.298C107.463 81.298 106.956 81.4437 106.513 81.735C106.07 82.0137 105.728 82.419 105.487 82.951C105.246 83.4703 105.151 84.1037 105.202 84.851C105.139 85.5477 105.234 86.1557 105.487 86.675C105.753 87.1943 106.12 87.5997 106.589 87.891C107.07 88.1823 107.615 88.328 108.223 88.328C108.844 88.328 109.369 88.1887 109.8 87.91C110.243 87.6313 110.592 87.2703 110.845 86.827L112.593 87.682C112.39 88.1633 112.074 88.6003 111.643 88.993C111.225 89.373 110.718 89.677 110.123 89.905C109.54 90.1203 108.901 90.228 108.204 90.228ZM115.03 90V79.721H117.082V81.735L116.835 81.469C117.089 80.823 117.494 80.3353 118.051 80.006C118.609 79.664 119.255 79.493 119.989 79.493C120.749 79.493 121.421 79.6577 122.003 79.987C122.586 80.3163 123.042 80.7723 123.371 81.355C123.701 81.9377 123.865 82.609 123.865 83.369V90H121.737V83.939C121.737 83.4197 121.642 82.9827 121.452 82.628C121.262 82.2607 120.99 81.982 120.635 81.792C120.293 81.5893 119.901 81.488 119.457 81.488C119.014 81.488 118.615 81.5893 118.26 81.792C117.918 81.982 117.652 82.2607 117.462 82.628C117.272 82.9953 117.177 83.4323 117.177 83.939V90H115.03ZM130.609 90.114C129.533 90.114 128.697 89.81 128.101 89.202C127.506 88.594 127.208 87.739 127.208 86.637V81.659H125.403V79.721H125.688C126.17 79.721 126.543 79.5817 126.809 79.303C127.075 79.0243 127.208 78.6443 127.208 78.163V77.365H129.355V79.721H131.692V81.659H129.355V86.542C129.355 86.8967 129.412 87.2007 129.526 87.454C129.64 87.6947 129.824 87.8847 130.077 88.024C130.331 88.1507 130.66 88.214 131.065 88.214C131.167 88.214 131.281 88.2077 131.407 88.195C131.534 88.1823 131.654 88.1697 131.768 88.157V90C131.591 90.0253 131.395 90.0507 131.179 90.076C130.964 90.1013 130.774 90.114 130.609 90.114ZM133.863 90V79.721H136.01V90H133.863ZM133.863 78.315V75.845H136.01V78.315H133.863ZM141.504 90L137.476 79.721H139.813L142.91 88.1H142.055L145.152 79.721H147.508L143.461 90H141.504ZM153.607 90.228C152.581 90.228 151.669 89.9937 150.871 89.525C150.086 89.0437 149.472 88.3977 149.028 87.587C148.585 86.7637 148.363 85.8453 148.363 84.832C148.363 83.7933 148.585 82.875 149.028 82.077C149.484 81.279 150.092 80.652 150.852 80.196C151.612 79.7273 152.474 79.493 153.436 79.493C154.209 79.493 154.899 79.626 155.507 79.892C156.115 80.158 156.628 80.5253 157.046 80.994C157.464 81.45 157.781 81.9757 157.996 82.571C158.224 83.1663 158.338 83.7997 158.338 84.471C158.338 84.6357 158.332 84.8067 158.319 84.984C158.307 85.1613 158.281 85.326 158.243 85.478H150.054V83.768H157.027L156.001 84.547C156.128 83.9263 156.084 83.3753 155.868 82.894C155.666 82.4 155.349 82.0137 154.918 81.735C154.5 81.4437 154.006 81.298 153.436 81.298C152.866 81.298 152.36 81.4437 151.916 81.735C151.473 82.0137 151.131 82.419 150.89 82.951C150.65 83.4703 150.555 84.1037 150.605 84.851C150.542 85.5477 150.637 86.1557 150.89 86.675C151.156 87.1943 151.524 87.5997 151.992 87.891C152.474 88.1823 153.018 88.328 153.626 88.328C154.247 88.328 154.773 88.1887 155.203 87.91C155.647 87.6313 155.995 87.2703 156.248 86.827L157.996 87.682C157.794 88.1633 157.477 88.6003 157.046 88.993C156.628 89.373 156.122 89.677 155.526 89.905C154.944 90.1203 154.304 90.228 153.607 90.228ZM164.234 90.228C163.182 90.228 162.258 89.9683 161.46 89.449C160.674 88.9297 160.123 88.233 159.807 87.359L161.46 86.58C161.738 87.1627 162.118 87.625 162.6 87.967C163.094 88.309 163.638 88.48 164.234 88.48C164.74 88.48 165.152 88.366 165.469 88.138C165.785 87.91 165.944 87.5997 165.944 87.207C165.944 86.9537 165.874 86.751 165.735 86.599C165.595 86.4343 165.418 86.3013 165.203 86.2C165 86.0987 164.791 86.0227 164.576 85.972L162.961 85.516C162.074 85.2627 161.409 84.8827 160.966 84.376C160.535 83.8567 160.32 83.255 160.32 82.571C160.32 81.9503 160.478 81.412 160.795 80.956C161.111 80.4873 161.548 80.1263 162.106 79.873C162.663 79.6197 163.29 79.493 163.987 79.493C164.924 79.493 165.76 79.7273 166.495 80.196C167.229 80.652 167.749 81.2917 168.053 82.115L166.4 82.894C166.197 82.4 165.874 82.0073 165.431 81.716C165 81.4247 164.512 81.279 163.968 81.279C163.499 81.279 163.125 81.393 162.847 81.621C162.568 81.8363 162.429 82.1213 162.429 82.476C162.429 82.7167 162.492 82.9193 162.619 83.084C162.745 83.236 162.91 83.3627 163.113 83.464C163.315 83.5527 163.524 83.6287 163.74 83.692L165.412 84.186C166.26 84.4267 166.913 84.8067 167.369 85.326C167.825 85.8327 168.053 86.4407 168.053 87.15C168.053 87.758 167.888 88.2963 167.559 88.765C167.242 89.221 166.799 89.582 166.229 89.848C165.659 90.1013 164.994 90.228 164.234 90.228Z" fill="#5E2FD3"/>
</svg>
