<svg width="463" height="32" viewBox="0 0 463 32" fill="none" xmlns="http://www.w3.org/2000/svg">
<mask id="mask0_1233_733" style="mask-type:alpha" maskUnits="userSpaceOnUse" x="0" y="4" width="24" height="24">
<rect y="4" width="24" height="24" fill="#D9D9D9"/>
</mask>
<g mask="url(#mask0_1233_733)">
<path d="M6 18H14V16H6V18ZM6 15H18V13H6V15ZM6 12H18V10H6V12ZM2 26V8C2 7.45 2.19583 6.97917 2.5875 6.5875C2.97917 6.19583 3.45 6 4 6H20C20.55 6 21.0208 6.19583 21.4125 6.5875C21.8042 6.97917 22 7.45 22 8V20C22 20.55 21.8042 21.0208 21.4125 21.4125C21.0208 21.8042 20.55 22 20 22H6L2 26ZM5.15 20H20V8H4V21.125L5.15 20Z" fill="#5E2FD3"/>
</g>
<path d="M35.463 24V9.845H37.705V24H35.463ZM44.2308 24.228C43.1794 24.228 42.2548 23.9683 41.4568 23.449C40.6714 22.9297 40.1204 22.233 39.8038 21.359L41.4568 20.58C41.7354 21.1627 42.1154 21.625 42.5968 21.967C43.0908 22.309 43.6354 22.48 44.2308 22.48C44.7374 22.48 45.1491 22.366 45.4658 22.138C45.7824 21.91 45.9408 21.5997 45.9408 21.207C45.9408 20.9537 45.8711 20.751 45.7318 20.599C45.5924 20.4343 45.4151 20.3013 45.1998 20.2C44.9971 20.0987 44.7881 20.0227 44.5728 19.972L42.9578 19.516C42.0711 19.2627 41.4061 18.8827 40.9628 18.376C40.5321 17.8567 40.3168 17.255 40.3168 16.571C40.3168 15.9503 40.4751 15.412 40.7918 14.956C41.1084 14.4873 41.5454 14.1263 42.1028 13.873C42.6601 13.6197 43.2871 13.493 43.9838 13.493C44.9211 13.493 45.7571 13.7273 46.4918 14.196C47.2264 14.652 47.7458 15.2917 48.0498 16.115L46.3968 16.894C46.1941 16.4 45.8711 16.0073 45.4278 15.716C44.9971 15.4247 44.5094 15.279 43.9648 15.279C43.4961 15.279 43.1224 15.393 42.8438 15.621C42.5651 15.8363 42.4258 16.1213 42.4258 16.476C42.4258 16.7167 42.4891 16.9193 42.6158 17.084C42.7424 17.236 42.9071 17.3627 43.1098 17.464C43.3124 17.5527 43.5214 17.6287 43.7368 17.692L45.4088 18.186C46.2574 18.4267 46.9098 18.8067 47.3658 19.326C47.8218 19.8327 48.0498 20.4407 48.0498 21.15C48.0498 21.758 47.8851 22.2963 47.5558 22.765C47.2391 23.221 46.7958 23.582 46.2258 23.848C45.6558 24.1013 44.9908 24.228 44.2308 24.228ZM53.9534 24.228C52.9021 24.228 51.9774 23.9683 51.1794 23.449C50.3941 22.9297 49.8431 22.233 49.5264 21.359L51.1794 20.58C51.4581 21.1627 51.8381 21.625 52.3194 21.967C52.8134 22.309 53.3581 22.48 53.9534 22.48C54.4601 22.48 54.8717 22.366 55.1884 22.138C55.5051 21.91 55.6634 21.5997 55.6634 21.207C55.6634 20.9537 55.5937 20.751 55.4544 20.599C55.3151 20.4343 55.1377 20.3013 54.9224 20.2C54.7197 20.0987 54.5107 20.0227 54.2954 19.972L52.6804 19.516C51.7937 19.2627 51.1287 18.8827 50.6854 18.376C50.2547 17.8567 50.0394 17.255 50.0394 16.571C50.0394 15.9503 50.1977 15.412 50.5144 14.956C50.8311 14.4873 51.2681 14.1263 51.8254 13.873C52.3827 13.6197 53.0097 13.493 53.7064 13.493C54.6437 13.493 55.4797 13.7273 56.2144 14.196C56.9491 14.652 57.4684 15.2917 57.7724 16.115L56.1194 16.894C55.9167 16.4 55.5937 16.0073 55.1504 15.716C54.7197 15.4247 54.2321 15.279 53.6874 15.279C53.2187 15.279 52.8451 15.393 52.5664 15.621C52.2877 15.8363 52.1484 16.1213 52.1484 16.476C52.1484 16.7167 52.2117 16.9193 52.3384 17.084C52.4651 17.236 52.6297 17.3627 52.8324 17.464C53.0351 17.5527 53.2441 17.6287 53.4594 17.692L55.1314 18.186C55.9801 18.4267 56.6324 18.8067 57.0884 19.326C57.5444 19.8327 57.7724 20.4407 57.7724 21.15C57.7724 21.758 57.6077 22.2963 57.2784 22.765C56.9617 23.221 56.5184 23.582 55.9484 23.848C55.3784 24.1013 54.7134 24.228 53.9534 24.228ZM63.5431 24.228C62.7704 24.228 62.0927 24.057 61.5101 23.715C60.9274 23.3603 60.4714 22.8727 60.1421 22.252C59.8254 21.6187 59.6671 20.8903 59.6671 20.067V13.721H61.8141V19.877C61.8141 20.3457 61.9091 20.7573 62.0991 21.112C62.2891 21.4667 62.5551 21.7453 62.8971 21.948C63.2391 22.138 63.6317 22.233 64.0751 22.233C64.5311 22.233 64.9301 22.1317 65.2721 21.929C65.6141 21.7263 65.8801 21.4413 66.0701 21.074C66.2727 20.7067 66.3741 20.276 66.3741 19.782V13.721H68.5021V24H66.4691V21.986L66.6971 22.252C66.4564 22.8853 66.0574 23.373 65.5001 23.715C64.9427 24.057 64.2904 24.228 63.5431 24.228ZM75.8349 24.228C74.8089 24.228 73.8969 23.9937 73.0989 23.525C72.3135 23.0437 71.6992 22.3977 71.2559 21.587C70.8125 20.7637 70.5909 19.8453 70.5909 18.832C70.5909 17.7933 70.8125 16.875 71.2559 16.077C71.7119 15.279 72.3199 14.652 73.0799 14.196C73.8399 13.7273 74.7012 13.493 75.6639 13.493C76.4365 13.493 77.1269 13.626 77.7349 13.892C78.3429 14.158 78.8559 14.5253 79.2739 14.994C79.6919 15.45 80.0085 15.9757 80.2239 16.571C80.4519 17.1663 80.5659 17.7997 80.5659 18.471C80.5659 18.6357 80.5595 18.8067 80.5469 18.984C80.5342 19.1613 80.5089 19.326 80.4709 19.478H72.2819V17.768H79.2549L78.2289 18.547C78.3555 17.9263 78.3112 17.3753 78.0959 16.894C77.8932 16.4 77.5765 16.0137 77.1459 15.735C76.7279 15.4437 76.2339 15.298 75.6639 15.298C75.0939 15.298 74.5872 15.4437 74.1439 15.735C73.7005 16.0137 73.3585 16.419 73.1179 16.951C72.8772 17.4703 72.7822 18.1037 72.8329 18.851C72.7695 19.5477 72.8645 20.1557 73.1179 20.675C73.3839 21.1943 73.7512 21.5997 74.2199 21.891C74.7012 22.1823 75.2459 22.328 75.8539 22.328C76.4745 22.328 77.0002 22.1887 77.4309 21.91C77.8742 21.6313 78.2225 21.2703 78.4759 20.827L80.2239 21.682C80.0212 22.1633 79.7046 22.6003 79.2739 22.993C78.8559 23.373 78.3492 23.677 77.7539 23.905C77.1712 24.1203 76.5316 24.228 75.8349 24.228ZM86.4612 24.228C85.4099 24.228 84.4852 23.9683 83.6872 23.449C82.9019 22.9297 82.3509 22.233 82.0342 21.359L83.6872 20.58C83.9659 21.1627 84.3459 21.625 84.8272 21.967C85.3212 22.309 85.8659 22.48 86.4612 22.48C86.9679 22.48 87.3796 22.366 87.6962 22.138C88.0129 21.91 88.1712 21.5997 88.1712 21.207C88.1712 20.9537 88.1016 20.751 87.9622 20.599C87.8229 20.4343 87.6456 20.3013 87.4302 20.2C87.2276 20.0987 87.0186 20.0227 86.8032 19.972L85.1882 19.516C84.3016 19.2627 83.6366 18.8827 83.1932 18.376C82.7626 17.8567 82.5472 17.255 82.5472 16.571C82.5472 15.9503 82.7056 15.412 83.0222 14.956C83.3389 14.4873 83.7759 14.1263 84.3332 13.873C84.8906 13.6197 85.5176 13.493 86.2142 13.493C87.1516 13.493 87.9876 13.7273 88.7222 14.196C89.4569 14.652 89.9762 15.2917 90.2802 16.115L88.6272 16.894C88.4246 16.4 88.1016 16.0073 87.6582 15.716C87.2276 15.4247 86.7399 15.279 86.1952 15.279C85.7266 15.279 85.3529 15.393 85.0742 15.621C84.7956 15.8363 84.6562 16.1213 84.6562 16.476C84.6562 16.7167 84.7196 16.9193 84.8462 17.084C84.9729 17.236 85.1376 17.3627 85.3402 17.464C85.5429 17.5527 85.7519 17.6287 85.9672 17.692L87.6392 18.186C88.4879 18.4267 89.1402 18.8067 89.5962 19.326C90.0522 19.8327 90.2802 20.4407 90.2802 21.15C90.2802 21.758 90.1156 22.2963 89.7862 22.765C89.4696 23.221 89.0262 23.582 88.4562 23.848C87.8862 24.1013 87.2212 24.228 86.4612 24.228ZM98.1942 24L94.6602 13.721H96.9402L99.6382 21.91H98.8402L101.595 13.721H103.552L106.288 21.91H105.49L108.207 13.721H110.487L106.934 24H104.996L102.222 15.621H102.925L100.151 24H98.1942ZM111.959 24V13.721H114.106V24H111.959ZM111.959 12.315V9.845H114.106V12.315H111.959ZM121.062 24.114C119.986 24.114 119.15 23.81 118.554 23.202C117.959 22.594 117.661 21.739 117.661 20.637V15.659H115.856V13.721H116.141C116.623 13.721 116.996 13.5817 117.262 13.303C117.528 13.0243 117.661 12.6443 117.661 12.163V11.365H119.808V13.721H122.145V15.659H119.808V20.542C119.808 20.8967 119.865 21.2007 119.979 21.454C120.093 21.6947 120.277 21.8847 120.53 22.024C120.784 22.1507 121.113 22.214 121.518 22.214C121.62 22.214 121.734 22.2077 121.86 22.195C121.987 22.1823 122.107 22.1697 122.221 22.157V24C122.044 24.0253 121.848 24.0507 121.632 24.076C121.417 24.1013 121.227 24.114 121.062 24.114ZM124.316 24V9.617H126.464V15.735L126.122 15.469C126.375 14.823 126.78 14.3353 127.338 14.006C127.895 13.664 128.541 13.493 129.276 13.493C130.036 13.493 130.707 13.6577 131.29 13.987C131.872 14.3163 132.328 14.7723 132.657 15.355C132.987 15.9377 133.152 16.6027 133.152 17.35V24H131.024V17.939C131.024 17.4197 130.922 16.9827 130.72 16.628C130.53 16.2607 130.264 15.982 129.922 15.792C129.58 15.5893 129.187 15.488 128.744 15.488C128.313 15.488 127.92 15.5893 127.566 15.792C127.224 15.982 126.951 16.2607 126.749 16.628C126.559 16.9953 126.464 17.4323 126.464 17.939V24H124.316ZM141.849 24.228C141.152 24.228 140.538 24.1077 140.006 23.867C139.486 23.6137 139.081 23.2717 138.79 22.841C138.498 22.3977 138.353 21.8783 138.353 21.283C138.353 20.7257 138.473 20.2253 138.714 19.782C138.967 19.3387 139.353 18.965 139.873 18.661C140.392 18.357 141.044 18.1417 141.83 18.015L145.402 17.426V19.117L142.248 19.668C141.678 19.7693 141.26 19.953 140.994 20.219C140.728 20.4723 140.595 20.8017 140.595 21.207C140.595 21.5997 140.74 21.9227 141.032 22.176C141.336 22.4167 141.722 22.537 142.191 22.537C142.773 22.537 143.28 22.4103 143.711 22.157C144.154 21.9037 144.496 21.568 144.737 21.15C144.977 20.7193 145.098 20.2443 145.098 19.725V17.084C145.098 16.5773 144.908 16.1657 144.528 15.849C144.16 15.5197 143.666 15.355 143.046 15.355C142.476 15.355 141.975 15.507 141.545 15.811C141.127 16.1023 140.816 16.4823 140.614 16.951L138.828 16.058C139.018 15.5513 139.328 15.108 139.759 14.728C140.189 14.3353 140.69 14.0313 141.26 13.816C141.842 13.6007 142.457 13.493 143.103 13.493C143.913 13.493 144.629 13.645 145.25 13.949C145.883 14.253 146.371 14.6773 146.713 15.222C147.067 15.754 147.245 16.3747 147.245 17.084V24H145.193V22.138L145.63 22.195C145.389 22.613 145.079 22.974 144.699 23.278C144.331 23.582 143.907 23.8163 143.426 23.981C142.957 24.1457 142.431 24.228 141.849 24.228ZM154.638 24.228C153.612 24.228 152.7 23.9937 151.902 23.525C151.117 23.0437 150.49 22.3977 150.021 21.587C149.565 20.7763 149.337 19.858 149.337 18.832C149.337 17.8187 149.565 16.9067 150.021 16.096C150.477 15.2853 151.104 14.652 151.902 14.196C152.7 13.7273 153.612 13.493 154.638 13.493C155.335 13.493 155.987 13.6197 156.595 13.873C157.203 14.1137 157.729 14.4493 158.172 14.88C158.628 15.3107 158.964 15.811 159.179 16.381L157.298 17.255C157.083 16.723 156.734 16.2987 156.253 15.982C155.784 15.6527 155.246 15.488 154.638 15.488C154.055 15.488 153.53 15.6337 153.061 15.925C152.605 16.2037 152.244 16.6027 151.978 17.122C151.712 17.6287 151.579 18.205 151.579 18.851C151.579 19.497 151.712 20.0797 151.978 20.599C152.244 21.1057 152.605 21.5047 153.061 21.796C153.53 22.0873 154.055 22.233 154.638 22.233C155.259 22.233 155.797 22.0747 156.253 21.758C156.722 21.4287 157.07 20.9917 157.298 20.447L159.179 21.34C158.976 21.8847 158.647 22.3787 158.191 22.822C157.748 23.2527 157.222 23.5947 156.614 23.848C156.006 24.1013 155.347 24.228 154.638 24.228ZM166.16 24.228C165.134 24.228 164.222 23.9937 163.424 23.525C162.639 23.0437 162.012 22.3977 161.543 21.587C161.087 20.7763 160.859 19.858 160.859 18.832C160.859 17.8187 161.087 16.9067 161.543 16.096C161.999 15.2853 162.626 14.652 163.424 14.196C164.222 13.7273 165.134 13.493 166.16 13.493C166.857 13.493 167.509 13.6197 168.117 13.873C168.725 14.1137 169.251 14.4493 169.694 14.88C170.15 15.3107 170.486 15.811 170.701 16.381L168.82 17.255C168.605 16.723 168.257 16.2987 167.775 15.982C167.307 15.6527 166.768 15.488 166.16 15.488C165.578 15.488 165.052 15.6337 164.583 15.925C164.127 16.2037 163.766 16.6027 163.5 17.122C163.234 17.6287 163.101 18.205 163.101 18.851C163.101 19.497 163.234 20.0797 163.5 20.599C163.766 21.1057 164.127 21.5047 164.583 21.796C165.052 22.0873 165.578 22.233 166.16 22.233C166.781 22.233 167.319 22.0747 167.775 21.758C168.244 21.4287 168.592 20.9917 168.82 20.447L170.701 21.34C170.499 21.8847 170.169 22.3787 169.713 22.822C169.27 23.2527 168.744 23.5947 168.136 23.848C167.528 24.1013 166.87 24.228 166.16 24.228ZM177.759 24.228C176.771 24.228 175.865 23.9937 175.042 23.525C174.231 23.0563 173.585 22.4167 173.104 21.606C172.623 20.7953 172.382 19.877 172.382 18.851C172.382 17.8123 172.623 16.894 173.104 16.096C173.585 15.2853 174.231 14.652 175.042 14.196C175.853 13.7273 176.758 13.493 177.759 13.493C178.772 13.493 179.678 13.7273 180.476 14.196C181.287 14.652 181.926 15.2853 182.395 16.096C182.876 16.894 183.117 17.8123 183.117 18.851C183.117 19.8897 182.876 20.8143 182.395 21.625C181.914 22.4357 181.268 23.0753 180.457 23.544C179.646 24 178.747 24.228 177.759 24.228ZM177.759 22.233C178.367 22.233 178.905 22.0873 179.374 21.796C179.843 21.5047 180.21 21.1057 180.476 20.599C180.755 20.0797 180.894 19.497 180.894 18.851C180.894 18.205 180.755 17.6287 180.476 17.122C180.21 16.6153 179.843 16.2163 179.374 15.925C178.905 15.6337 178.367 15.488 177.759 15.488C177.164 15.488 176.625 15.6337 176.144 15.925C175.675 16.2163 175.302 16.6153 175.023 17.122C174.757 17.6287 174.624 18.205 174.624 18.851C174.624 19.497 174.757 20.0797 175.023 20.599C175.302 21.1057 175.675 21.5047 176.144 21.796C176.625 22.0873 177.164 22.233 177.759 22.233ZM188.88 24.228C188.107 24.228 187.43 24.057 186.847 23.715C186.264 23.3603 185.808 22.8727 185.479 22.252C185.162 21.6187 185.004 20.8903 185.004 20.067V13.721H187.151V19.877C187.151 20.3457 187.246 20.7573 187.436 21.112C187.626 21.4667 187.892 21.7453 188.234 21.948C188.576 22.138 188.969 22.233 189.412 22.233C189.868 22.233 190.267 22.1317 190.609 21.929C190.951 21.7263 191.217 21.4413 191.407 21.074C191.61 20.7067 191.711 20.276 191.711 19.782V13.721H193.839V24H191.806V21.986L192.034 22.252C191.793 22.8853 191.394 23.373 190.837 23.715C190.28 24.057 189.627 24.228 188.88 24.228ZM196.346 24V13.721H198.398V15.735L198.151 15.469C198.404 14.823 198.809 14.3353 199.367 14.006C199.924 13.664 200.57 13.493 201.305 13.493C202.065 13.493 202.736 13.6577 203.319 13.987C203.901 14.3163 204.357 14.7723 204.687 15.355C205.016 15.9377 205.181 16.609 205.181 17.369V24H203.053V17.939C203.053 17.4197 202.958 16.9827 202.768 16.628C202.578 16.2607 202.305 15.982 201.951 15.792C201.609 15.5893 201.216 15.488 200.773 15.488C200.329 15.488 199.93 15.5893 199.576 15.792C199.234 15.982 198.968 16.2607 198.778 16.628C198.588 16.9953 198.493 17.4323 198.493 17.939V24H196.346ZM211.925 24.114C210.848 24.114 210.012 23.81 209.417 23.202C208.821 22.594 208.524 21.739 208.524 20.637V15.659H206.719V13.721H207.004C207.485 13.721 207.859 13.5817 208.125 13.303C208.391 13.0243 208.524 12.6443 208.524 12.163V11.365H210.671V13.721H213.008V15.659H210.671V20.542C210.671 20.8967 210.728 21.2007 210.842 21.454C210.956 21.6947 211.139 21.8847 211.393 22.024C211.646 22.1507 211.975 22.214 212.381 22.214C212.482 22.214 212.596 22.2077 212.723 22.195C212.849 22.1823 212.97 22.1697 213.084 22.157V24C212.906 24.0253 212.71 24.0507 212.495 24.076C212.279 24.1013 212.089 24.114 211.925 24.114ZM221.578 24.228C220.881 24.228 220.267 24.1077 219.735 23.867C219.216 23.6137 218.81 23.2717 218.519 22.841C218.228 22.3977 218.082 21.8783 218.082 21.283C218.082 20.7257 218.202 20.2253 218.443 19.782C218.696 19.3387 219.083 18.965 219.602 18.661C220.121 18.357 220.774 18.1417 221.559 18.015L225.131 17.426V19.117L221.977 19.668C221.407 19.7693 220.989 19.953 220.723 20.219C220.457 20.4723 220.324 20.8017 220.324 21.207C220.324 21.5997 220.47 21.9227 220.761 22.176C221.065 22.4167 221.451 22.537 221.92 22.537C222.503 22.537 223.009 22.4103 223.44 22.157C223.883 21.9037 224.225 21.568 224.466 21.15C224.707 20.7193 224.827 20.2443 224.827 19.725V17.084C224.827 16.5773 224.637 16.1657 224.257 15.849C223.89 15.5197 223.396 15.355 222.775 15.355C222.205 15.355 221.705 15.507 221.274 15.811C220.856 16.1023 220.546 16.4823 220.343 16.951L218.557 16.058C218.747 15.5513 219.057 15.108 219.488 14.728C219.919 14.3353 220.419 14.0313 220.989 13.816C221.572 13.6007 222.186 13.493 222.832 13.493C223.643 13.493 224.358 13.645 224.979 13.949C225.612 14.253 226.1 14.6773 226.442 15.222C226.797 15.754 226.974 16.3747 226.974 17.084V24H224.922V22.138L225.359 22.195C225.118 22.613 224.808 22.974 224.428 23.278C224.061 23.582 223.636 23.8163 223.155 23.981C222.686 24.1457 222.161 24.228 221.578 24.228ZM234.367 24.228C233.341 24.228 232.429 23.9937 231.631 23.525C230.846 23.0437 230.219 22.3977 229.75 21.587C229.294 20.7763 229.066 19.858 229.066 18.832C229.066 17.8187 229.294 16.9067 229.75 16.096C230.206 15.2853 230.833 14.652 231.631 14.196C232.429 13.7273 233.341 13.493 234.367 13.493C235.064 13.493 235.716 13.6197 236.324 13.873C236.932 14.1137 237.458 14.4493 237.901 14.88C238.357 15.3107 238.693 15.811 238.908 16.381L237.027 17.255C236.812 16.723 236.464 16.2987 235.982 15.982C235.514 15.6527 234.975 15.488 234.367 15.488C233.785 15.488 233.259 15.6337 232.79 15.925C232.334 16.2037 231.973 16.6027 231.707 17.122C231.441 17.6287 231.308 18.205 231.308 18.851C231.308 19.497 231.441 20.0797 231.707 20.599C231.973 21.1057 232.334 21.5047 232.79 21.796C233.259 22.0873 233.785 22.233 234.367 22.233C234.988 22.233 235.526 22.0747 235.982 21.758C236.451 21.4287 236.799 20.9917 237.027 20.447L238.908 21.34C238.706 21.8847 238.376 22.3787 237.92 22.822C237.477 23.2527 236.951 23.5947 236.343 23.848C235.735 24.1013 235.077 24.228 234.367 24.228ZM245.453 24.114C244.376 24.114 243.54 23.81 242.945 23.202C242.35 22.594 242.052 21.739 242.052 20.637V15.659H240.247V13.721H240.532C241.013 13.721 241.387 13.5817 241.653 13.303C241.919 13.0243 242.052 12.6443 242.052 12.163V11.365H244.199V13.721H246.536V15.659H244.199V20.542C244.199 20.8967 244.256 21.2007 244.37 21.454C244.484 21.6947 244.668 21.8847 244.921 22.024C245.174 22.1507 245.504 22.214 245.909 22.214C246.01 22.214 246.124 22.2077 246.251 22.195C246.378 22.1823 246.498 22.1697 246.612 22.157V24C246.435 24.0253 246.238 24.0507 246.023 24.076C245.808 24.1013 245.618 24.114 245.453 24.114ZM248.707 24V13.721H250.854V24H248.707ZM248.707 12.315V9.845H250.854V12.315H248.707ZM256.347 24L252.319 13.721H254.656L257.753 22.1H256.898L259.995 13.721H262.351L258.304 24H256.347ZM266.518 24.228C265.821 24.228 265.207 24.1077 264.675 23.867C264.155 23.6137 263.75 23.2717 263.459 22.841C263.167 22.3977 263.022 21.8783 263.022 21.283C263.022 20.7257 263.142 20.2253 263.383 19.782C263.636 19.3387 264.022 18.965 264.542 18.661C265.061 18.357 265.713 18.1417 266.499 18.015L270.071 17.426V19.117L266.917 19.668C266.347 19.7693 265.929 19.953 265.663 20.219C265.397 20.4723 265.264 20.8017 265.264 21.207C265.264 21.5997 265.409 21.9227 265.701 22.176C266.005 22.4167 266.391 22.537 266.86 22.537C267.442 22.537 267.949 22.4103 268.38 22.157C268.823 21.9037 269.165 21.568 269.406 21.15C269.646 20.7193 269.767 20.2443 269.767 19.725V17.084C269.767 16.5773 269.577 16.1657 269.197 15.849C268.829 15.5197 268.335 15.355 267.715 15.355C267.145 15.355 266.644 15.507 266.214 15.811C265.796 16.1023 265.485 16.4823 265.283 16.951L263.497 16.058C263.687 15.5513 263.997 15.108 264.428 14.728C264.858 14.3353 265.359 14.0313 265.929 13.816C266.511 13.6007 267.126 13.493 267.772 13.493C268.582 13.493 269.298 13.645 269.919 13.949C270.552 14.253 271.04 14.6773 271.382 15.222C271.736 15.754 271.914 16.3747 271.914 17.084V24H269.862V22.138L270.299 22.195C270.058 22.613 269.748 22.974 269.368 23.278C269 23.582 268.576 23.8163 268.095 23.981C267.626 24.1457 267.1 24.228 266.518 24.228ZM278.684 24.114C277.608 24.114 276.772 23.81 276.176 23.202C275.581 22.594 275.283 21.739 275.283 20.637V15.659H273.478V13.721H273.763C274.245 13.721 274.618 13.5817 274.884 13.303C275.15 13.0243 275.283 12.6443 275.283 12.163V11.365H277.43V13.721H279.767V15.659H277.43V20.542C277.43 20.8967 277.487 21.2007 277.601 21.454C277.715 21.6947 277.899 21.8847 278.152 22.024C278.406 22.1507 278.735 22.214 279.14 22.214C279.242 22.214 279.356 22.2077 279.482 22.195C279.609 22.1823 279.729 22.1697 279.843 22.157V24C279.666 24.0253 279.47 24.0507 279.254 24.076C279.039 24.1013 278.849 24.114 278.684 24.114ZM281.939 24V13.721H284.086V24H281.939ZM281.939 12.315V9.845H284.086V12.315H281.939ZM291.555 24.228C290.567 24.228 289.661 23.9937 288.838 23.525C288.027 23.0563 287.381 22.4167 286.9 21.606C286.418 20.7953 286.178 19.877 286.178 18.851C286.178 17.8123 286.418 16.894 286.9 16.096C287.381 15.2853 288.027 14.652 288.838 14.196C289.648 13.7273 290.554 13.493 291.555 13.493C292.568 13.493 293.474 13.7273 294.272 14.196C295.082 14.652 295.722 15.2853 296.191 16.096C296.672 16.894 296.913 17.8123 296.913 18.851C296.913 19.8897 296.672 20.8143 296.191 21.625C295.709 22.4357 295.063 23.0753 294.253 23.544C293.442 24 292.543 24.228 291.555 24.228ZM291.555 22.233C292.163 22.233 292.701 22.0873 293.17 21.796C293.638 21.5047 294.006 21.1057 294.272 20.599C294.55 20.0797 294.69 19.497 294.69 18.851C294.69 18.205 294.55 17.6287 294.272 17.122C294.006 16.6153 293.638 16.2163 293.17 15.925C292.701 15.6337 292.163 15.488 291.555 15.488C290.959 15.488 290.421 15.6337 289.94 15.925C289.471 16.2163 289.097 16.6153 288.819 17.122C288.553 17.6287 288.42 18.205 288.42 18.851C288.42 19.497 288.553 20.0797 288.819 20.599C289.097 21.1057 289.471 21.5047 289.94 21.796C290.421 22.0873 290.959 22.233 291.555 22.233ZM299.009 24V13.721H301.061V15.735L300.814 15.469C301.067 14.823 301.473 14.3353 302.03 14.006C302.587 13.664 303.233 13.493 303.968 13.493C304.728 13.493 305.399 13.6577 305.982 13.987C306.565 14.3163 307.021 14.7723 307.35 15.355C307.679 15.9377 307.844 16.609 307.844 17.369V24H305.716V17.939C305.716 17.4197 305.621 16.9827 305.431 16.628C305.241 16.2607 304.969 15.982 304.614 15.792C304.272 15.5893 303.879 15.488 303.436 15.488C302.993 15.488 302.594 15.5893 302.239 15.792C301.897 15.982 301.631 16.2607 301.441 16.628C301.251 16.9953 301.156 17.4323 301.156 17.939V24H299.009Z" fill="#5E2FD3"/>
</svg>
