<svg width="280" height="32" viewBox="0 0 280 32" fill="none" xmlns="http://www.w3.org/2000/svg">
<mask id="mask0_1233_338" style="mask-type:alpha" maskUnits="userSpaceOnUse" x="0" y="4" width="25" height="24">
<rect x="0.832031" y="4" width="24" height="24" fill="#D9D9D9"/>
</mask>
<g mask="url(#mask0_1233_338)">
<path d="M6.83203 18H14.832V16H6.83203V18ZM6.83203 15H18.832V13H6.83203V15ZM6.83203 12H18.832V10H6.83203V12ZM2.83203 26V8C2.83203 7.45 3.02786 6.97917 3.41953 6.5875C3.8112 6.19583 4.28203 6 4.83203 6H20.832C21.382 6 21.8529 6.19583 22.2445 6.5875C22.6362 6.97917 22.832 7.45 22.832 8V20C22.832 20.55 22.6362 21.0208 22.2445 21.4125C21.8529 21.8042 21.382 22 20.832 22H6.83203L2.83203 26ZM5.98203 20H20.832V8H4.83203V21.125L5.98203 20Z" fill="#5E2FD3"/>
</g>
<path d="M36.295 24V9.845H38.385L43.705 17.217H42.66L47.885 9.845H49.975V24H47.752V12.486L48.588 12.714L43.249 20.01H43.021L37.796 12.714L38.537 12.486V24H36.295ZM57.6515 24.228C56.6635 24.228 55.7578 23.9937 54.9345 23.525C54.1238 23.0563 53.4778 22.4167 52.9965 21.606C52.5151 20.7953 52.2745 19.877 52.2745 18.851C52.2745 17.8123 52.5151 16.894 52.9965 16.096C53.4778 15.2853 54.1238 14.652 54.9345 14.196C55.7451 13.7273 56.6508 13.493 57.6515 13.493C58.6648 13.493 59.5705 13.7273 60.3685 14.196C61.1791 14.652 61.8188 15.2853 62.2875 16.096C62.7688 16.894 63.0095 17.8123 63.0095 18.851C63.0095 19.8897 62.7688 20.8143 62.2875 21.625C61.8061 22.4357 61.1601 23.0753 60.3495 23.544C59.5388 24 58.6395 24.228 57.6515 24.228ZM57.6515 22.233C58.2595 22.233 58.7978 22.0873 59.2665 21.796C59.7351 21.5047 60.1025 21.1057 60.3685 20.599C60.6471 20.0797 60.7865 19.497 60.7865 18.851C60.7865 18.205 60.6471 17.6287 60.3685 17.122C60.1025 16.6153 59.7351 16.2163 59.2665 15.925C58.7978 15.6337 58.2595 15.488 57.6515 15.488C57.0561 15.488 56.5178 15.6337 56.0365 15.925C55.5678 16.2163 55.1941 16.6153 54.9155 17.122C54.6495 17.6287 54.5165 18.205 54.5165 18.851C54.5165 19.497 54.6495 20.0797 54.9155 20.599C55.1941 21.1057 55.5678 21.5047 56.0365 21.796C56.5178 22.0873 57.0561 22.233 57.6515 22.233ZM65.1056 24V13.721H67.1576V15.735L66.9106 15.469C67.1639 14.823 67.5692 14.3353 68.1266 14.006C68.6839 13.664 69.3299 13.493 70.0646 13.493C70.8246 13.493 71.4959 13.6577 72.0786 13.987C72.6612 14.3163 73.1172 14.7723 73.4466 15.355C73.7759 15.9377 73.9406 16.609 73.9406 17.369V24H71.8126V17.939C71.8126 17.4197 71.7176 16.9827 71.5276 16.628C71.3376 16.2607 71.0652 15.982 70.7106 15.792C70.3686 15.5893 69.9759 15.488 69.5326 15.488C69.0892 15.488 68.6902 15.5893 68.3356 15.792C67.9936 15.982 67.7276 16.2607 67.5376 16.628C67.3476 16.9953 67.2526 17.4323 67.2526 17.939V24H65.1056ZM81.0644 24.228C80.0384 24.228 79.1264 23.9937 78.3284 23.525C77.543 23.0437 76.9287 22.3977 76.4854 21.587C76.042 20.7637 75.8204 19.8453 75.8204 18.832C75.8204 17.7933 76.042 16.875 76.4854 16.077C76.9414 15.279 77.5494 14.652 78.3094 14.196C79.0694 13.7273 79.9307 13.493 80.8934 13.493C81.666 13.493 82.3564 13.626 82.9644 13.892C83.5724 14.158 84.0854 14.5253 84.5034 14.994C84.9214 15.45 85.238 15.9757 85.4534 16.571C85.6814 17.1663 85.7954 17.7997 85.7954 18.471C85.7954 18.6357 85.789 18.8067 85.7764 18.984C85.7637 19.1613 85.7384 19.326 85.7004 19.478H77.5114V17.768H84.4844L83.4584 18.547C83.585 17.9263 83.5407 17.3753 83.3254 16.894C83.1227 16.4 82.806 16.0137 82.3754 15.735C81.9574 15.4437 81.4634 15.298 80.8934 15.298C80.3234 15.298 79.8167 15.4437 79.3734 15.735C78.93 16.0137 78.588 16.419 78.3474 16.951C78.1067 17.4703 78.0117 18.1037 78.0624 18.851C77.999 19.5477 78.094 20.1557 78.3474 20.675C78.6134 21.1943 78.9807 21.5997 79.4494 21.891C79.9307 22.1823 80.4754 22.328 81.0834 22.328C81.704 22.328 82.2297 22.1887 82.6604 21.91C83.1037 21.6313 83.452 21.2703 83.7054 20.827L85.4534 21.682C85.2507 22.1633 84.934 22.6003 84.5034 22.993C84.0854 23.373 83.5787 23.677 82.9834 23.905C82.4007 24.1203 81.761 24.228 81.0644 24.228ZM88.8027 28.18C88.5494 28.18 88.2961 28.1547 88.0427 28.104C87.8021 28.066 87.5804 28.0027 87.3777 27.914V26.071C87.5297 26.109 87.7134 26.1407 87.9287 26.166C88.1441 26.204 88.3531 26.223 88.5557 26.223C89.1511 26.223 89.5881 26.09 89.8667 25.824C90.1581 25.5707 90.4177 25.178 90.6457 24.646L91.3297 23.088L91.2917 24.893L86.8457 13.721H89.1447L92.4317 22.29H91.6527L94.9207 13.721H97.2387L92.6977 25.121C92.4571 25.729 92.1531 26.261 91.7857 26.717C91.4311 27.1857 91.0067 27.5467 90.5127 27.8C90.0314 28.0533 89.4614 28.18 88.8027 28.18ZM106.779 24.228C105.791 24.228 104.905 23.9937 104.119 23.525C103.347 23.0437 102.732 22.3977 102.276 21.587C101.833 20.7763 101.611 19.8643 101.611 18.851C101.611 17.8377 101.839 16.9257 102.295 16.115C102.751 15.3043 103.366 14.6647 104.138 14.196C104.911 13.7273 105.785 13.493 106.76 13.493C107.584 13.493 108.312 13.6577 108.945 13.987C109.579 14.3163 110.079 14.7723 110.446 15.355L110.123 15.849V9.617H112.251V24H110.218V21.91L110.465 22.309C110.111 22.9297 109.604 23.4047 108.945 23.734C108.287 24.0633 107.565 24.228 106.779 24.228ZM106.988 22.233C107.584 22.233 108.116 22.0873 108.584 21.796C109.066 21.5047 109.439 21.1057 109.705 20.599C109.984 20.0797 110.123 19.497 110.123 18.851C110.123 18.205 109.984 17.6287 109.705 17.122C109.439 16.6153 109.066 16.2163 108.584 15.925C108.116 15.6337 107.584 15.488 106.988 15.488C106.393 15.488 105.855 15.6337 105.373 15.925C104.892 16.2163 104.518 16.6153 104.252 17.122C103.986 17.6287 103.853 18.205 103.853 18.851C103.853 19.497 103.986 20.0797 104.252 20.599C104.518 21.1057 104.886 21.5047 105.354 21.796C105.836 22.0873 106.38 22.233 106.988 22.233ZM119.717 24.228C118.729 24.228 117.823 23.9937 117 23.525C116.189 23.0563 115.543 22.4167 115.062 21.606C114.581 20.7953 114.34 19.877 114.34 18.851C114.34 17.8123 114.581 16.894 115.062 16.096C115.543 15.2853 116.189 14.652 117 14.196C117.811 13.7273 118.716 13.493 119.717 13.493C120.73 13.493 121.636 13.7273 122.434 14.196C123.245 14.652 123.884 15.2853 124.353 16.096C124.834 16.894 125.075 17.8123 125.075 18.851C125.075 19.8897 124.834 20.8143 124.353 21.625C123.872 22.4357 123.226 23.0753 122.415 23.544C121.604 24 120.705 24.228 119.717 24.228ZM119.717 22.233C120.325 22.233 120.863 22.0873 121.332 21.796C121.801 21.5047 122.168 21.1057 122.434 20.599C122.713 20.0797 122.852 19.497 122.852 18.851C122.852 18.205 122.713 17.6287 122.434 17.122C122.168 16.6153 121.801 16.2163 121.332 15.925C120.863 15.6337 120.325 15.488 119.717 15.488C119.122 15.488 118.583 15.6337 118.102 15.925C117.633 16.2163 117.26 16.6153 116.981 17.122C116.715 17.6287 116.582 18.205 116.582 18.851C116.582 19.497 116.715 20.0797 116.981 20.599C117.26 21.1057 117.633 21.5047 118.102 21.796C118.583 22.0873 119.122 22.233 119.717 22.233ZM129.474 24L125.94 13.721H128.22L130.918 21.91H130.12L132.875 13.721H134.832L137.568 21.91H136.77L139.487 13.721H141.767L138.214 24H136.276L133.502 15.621H134.205L131.431 24H129.474ZM143.239 24V13.721H145.291V15.735L145.044 15.469C145.298 14.823 145.703 14.3353 146.26 14.006C146.818 13.664 147.464 13.493 148.198 13.493C148.958 13.493 149.63 13.6577 150.212 13.987C150.795 14.3163 151.251 14.7723 151.58 15.355C151.91 15.9377 152.074 16.609 152.074 17.369V24H149.946V17.939C149.946 17.4197 149.851 16.9827 149.661 16.628C149.471 16.2607 149.199 15.982 148.844 15.792C148.502 15.5893 148.11 15.488 147.666 15.488C147.223 15.488 146.824 15.5893 146.469 15.792C146.127 15.982 145.861 16.2607 145.671 16.628C145.481 16.9953 145.386 17.4323 145.386 17.939V24H143.239ZM162.139 24.114C161.063 24.114 160.227 23.81 159.631 23.202C159.036 22.594 158.738 21.739 158.738 20.637V15.659H156.933V13.721H157.218C157.7 13.721 158.073 13.5817 158.339 13.303C158.605 13.0243 158.738 12.6443 158.738 12.163V11.365H160.885V13.721H163.222V15.659H160.885V20.542C160.885 20.8967 160.942 21.2007 161.056 21.454C161.17 21.6947 161.354 21.8847 161.607 22.024C161.861 22.1507 162.19 22.214 162.595 22.214C162.697 22.214 162.811 22.2077 162.937 22.195C163.064 22.1823 163.184 22.1697 163.298 22.157V24C163.121 24.0253 162.925 24.0507 162.709 24.076C162.494 24.1013 162.304 24.114 162.139 24.114ZM165.394 24V9.617H167.541V15.735L167.199 15.469C167.452 14.823 167.857 14.3353 168.415 14.006C168.972 13.664 169.618 13.493 170.353 13.493C171.113 13.493 171.784 13.6577 172.367 13.987C172.949 14.3163 173.405 14.7723 173.735 15.355C174.064 15.9377 174.229 16.6027 174.229 17.35V24H172.101V17.939C172.101 17.4197 171.999 16.9827 171.797 16.628C171.607 16.2607 171.341 15.982 170.999 15.792C170.657 15.5893 170.264 15.488 169.821 15.488C169.39 15.488 168.997 15.5893 168.643 15.792C168.301 15.982 168.028 16.2607 167.826 16.628C167.636 16.9953 167.541 17.4323 167.541 17.939V24H165.394ZM181.352 24.228C180.326 24.228 179.414 23.9937 178.616 23.525C177.831 23.0437 177.217 22.3977 176.773 21.587C176.33 20.7637 176.108 19.8453 176.108 18.832C176.108 17.7933 176.33 16.875 176.773 16.077C177.229 15.279 177.837 14.652 178.597 14.196C179.357 13.7273 180.219 13.493 181.181 13.493C181.954 13.493 182.644 13.626 183.252 13.892C183.86 14.158 184.373 14.5253 184.791 14.994C185.209 15.45 185.526 15.9757 185.741 16.571C185.969 17.1663 186.083 17.7997 186.083 18.471C186.083 18.6357 186.077 18.8067 186.064 18.984C186.052 19.1613 186.026 19.326 185.988 19.478H177.799V17.768H184.772L183.746 18.547C183.873 17.9263 183.829 17.3753 183.613 16.894C183.411 16.4 183.094 16.0137 182.663 15.735C182.245 15.4437 181.751 15.298 181.181 15.298C180.611 15.298 180.105 15.4437 179.661 15.735C179.218 16.0137 178.876 16.419 178.635 16.951C178.395 17.4703 178.3 18.1037 178.35 18.851C178.287 19.5477 178.382 20.1557 178.635 20.675C178.901 21.1943 179.269 21.5997 179.737 21.891C180.219 22.1823 180.763 22.328 181.371 22.328C181.992 22.328 182.518 22.1887 182.948 21.91C183.392 21.6313 183.74 21.2703 183.993 20.827L185.741 21.682C185.539 22.1633 185.222 22.6003 184.791 22.993C184.373 23.373 183.867 23.677 183.271 23.905C182.689 24.1203 182.049 24.228 181.352 24.228ZM196.25 24.228C195.262 24.228 194.375 23.9937 193.59 23.525C192.817 23.0437 192.203 22.3977 191.747 21.587C191.304 20.7763 191.082 19.8643 191.082 18.851C191.082 17.8377 191.31 16.9257 191.766 16.115C192.222 15.3043 192.836 14.6647 193.609 14.196C194.382 13.7273 195.256 13.493 196.231 13.493C197.054 13.493 197.783 13.6577 198.416 13.987C199.049 14.3163 199.55 14.7723 199.917 15.355L199.594 15.849V9.617H201.722V24H199.689V21.91L199.936 22.309C199.581 22.9297 199.075 23.4047 198.416 23.734C197.757 24.0633 197.035 24.228 196.25 24.228ZM196.459 22.233C197.054 22.233 197.586 22.0873 198.055 21.796C198.536 21.5047 198.91 21.1057 199.176 20.599C199.455 20.0797 199.594 19.497 199.594 18.851C199.594 18.205 199.455 17.6287 199.176 17.122C198.91 16.6153 198.536 16.2163 198.055 15.925C197.586 15.6337 197.054 15.488 196.459 15.488C195.864 15.488 195.325 15.6337 194.844 15.925C194.363 16.2163 193.989 16.6153 193.723 17.122C193.457 17.6287 193.324 18.205 193.324 18.851C193.324 19.497 193.457 20.0797 193.723 20.599C193.989 21.1057 194.356 21.5047 194.825 21.796C195.306 22.0873 195.851 22.233 196.459 22.233ZM204.229 24V13.721H206.281V15.792L206.091 15.488C206.319 14.8167 206.686 14.3353 207.193 14.044C207.699 13.74 208.307 13.588 209.017 13.588H209.644V15.545H208.751C208.041 15.545 207.465 15.7667 207.022 16.21C206.591 16.6407 206.376 17.2613 206.376 18.072V24H204.229ZM214.19 24.228C213.494 24.228 212.879 24.1077 212.347 23.867C211.828 23.6137 211.423 23.2717 211.131 22.841C210.84 22.3977 210.694 21.8783 210.694 21.283C210.694 20.7257 210.815 20.2253 211.055 19.782C211.309 19.3387 211.695 18.965 212.214 18.661C212.734 18.357 213.386 18.1417 214.171 18.015L217.743 17.426V19.117L214.589 19.668C214.019 19.7693 213.601 19.953 213.335 20.219C213.069 20.4723 212.936 20.8017 212.936 21.207C212.936 21.5997 213.082 21.9227 213.373 22.176C213.677 22.4167 214.064 22.537 214.532 22.537C215.115 22.537 215.622 22.4103 216.052 22.157C216.496 21.9037 216.838 21.568 217.078 21.15C217.319 20.7193 217.439 20.2443 217.439 19.725V17.084C217.439 16.5773 217.249 16.1657 216.869 15.849C216.502 15.5197 216.008 15.355 215.387 15.355C214.817 15.355 214.317 15.507 213.886 15.811C213.468 16.1023 213.158 16.4823 212.955 16.951L211.169 16.058C211.359 15.5513 211.67 15.108 212.1 14.728C212.531 14.3353 213.031 14.0313 213.601 13.816C214.184 13.6007 214.798 13.493 215.444 13.493C216.255 13.493 216.971 13.645 217.591 13.949C218.225 14.253 218.712 14.6773 219.054 15.222C219.409 15.754 219.586 16.3747 219.586 17.084V24H217.534V22.138L217.971 22.195C217.731 22.613 217.42 22.974 217.04 23.278C216.673 23.582 216.249 23.8163 215.767 23.981C215.299 24.1457 214.773 24.228 214.19 24.228ZM222.097 24V13.721H224.244V24H222.097ZM222.097 12.315V9.845H224.244V12.315H222.097ZM226.754 24V13.721H228.806V15.735L228.559 15.469C228.812 14.823 229.218 14.3353 229.775 14.006C230.332 13.664 230.978 13.493 231.713 13.493C232.473 13.493 233.144 13.6577 233.727 13.987C234.31 14.3163 234.766 14.7723 235.095 15.355C235.424 15.9377 235.589 16.609 235.589 17.369V24H233.461V17.939C233.461 17.4197 233.366 16.9827 233.176 16.628C232.986 16.2607 232.714 15.982 232.359 15.792C232.017 15.5893 231.624 15.488 231.181 15.488C230.738 15.488 230.339 15.5893 229.984 15.792C229.642 15.982 229.376 16.2607 229.186 16.628C228.996 16.9953 228.901 17.4323 228.901 17.939V24H226.754Z" fill="#5E2FD3"/>
</svg>
