<svg width="252" height="98" viewBox="0 0 252 98" fill="none" xmlns="http://www.w3.org/2000/svg">
<mask id="mask0_1224_1050" style="mask-type:alpha" maskUnits="userSpaceOnUse" x="0" y="0" width="25" height="24">
<rect x="0.5" width="24" height="24" fill="#D9D9D9"/>
</mask>
<g mask="url(#mask0_1224_1050)">
<path d="M7.9 16L10.95 12.95L12.95 14.95L16.5 11.425V13H18.5V8H13.5V10H15.075L12.95 12.125L10.95 10.125L6.5 14.6L7.9 16ZM5.5 21C4.95 21 4.47917 20.8042 4.0875 20.4125C3.69583 20.0208 3.5 19.55 3.5 19V5C3.5 4.45 3.69583 3.97917 4.0875 3.5875C4.47917 3.19583 4.95 3 5.5 3H19.5C20.05 3 20.5208 3.19583 20.9125 3.5875C21.3042 3.97917 21.5 4.45 21.5 5V19C21.5 19.55 21.3042 20.0208 20.9125 20.4125C20.5208 20.8042 20.05 21 19.5 21H5.5ZM5.5 19H19.5V5H5.5V19Z" fill="#5E2FD3"/>
</g>
<path d="M1.963 58V43.845H4.205V50.077H10.76V43.845H12.983V58H10.76V52.072H4.205V58H1.963ZM15.7071 58V47.721H17.8541V58H15.7071ZM15.7071 46.315V43.845H17.8541V46.315H15.7071ZM25.3234 62.18C24.576 62.18 23.8857 62.0597 23.2524 61.819C22.619 61.5783 22.0744 61.2427 21.6184 60.812C21.1624 60.394 20.8204 59.9 20.5924 59.33L22.5684 58.513C22.7457 58.9943 23.0687 59.3933 23.5374 59.71C24.0187 60.0267 24.6077 60.185 25.3044 60.185C25.849 60.185 26.3367 60.0773 26.7674 59.862C27.198 59.6593 27.54 59.3553 27.7934 58.95C28.0467 58.5573 28.1734 58.0823 28.1734 57.525V55.207L28.5534 55.644C28.1987 56.3027 27.7047 56.803 27.0714 57.145C26.4507 57.487 25.7477 57.658 24.9624 57.658C24.0124 57.658 23.1574 57.4363 22.3974 56.993C21.6374 56.5497 21.0357 55.9417 20.5924 55.169C20.1617 54.3963 19.9464 53.5287 19.9464 52.566C19.9464 51.5907 20.1617 50.723 20.5924 49.963C21.0357 49.203 21.631 48.6013 22.3784 48.158C23.1257 47.7147 23.9807 47.493 24.9434 47.493C25.7287 47.493 26.4254 47.664 27.0334 48.006C27.654 48.3353 28.1607 48.8167 28.5534 49.45L28.2684 49.982V47.721H30.3014V57.525C30.3014 58.4117 30.086 59.2033 29.6554 59.9C29.2374 60.6093 28.6547 61.1667 27.9074 61.572C27.16 61.9773 26.2987 62.18 25.3234 62.18ZM25.2094 55.663C25.7794 55.663 26.286 55.53 26.7294 55.264C27.1727 54.9853 27.521 54.618 27.7744 54.162C28.0404 53.6933 28.1734 53.1677 28.1734 52.585C28.1734 52.0023 28.0404 51.4767 27.7744 51.008C27.5084 50.5393 27.1537 50.172 26.7104 49.906C26.267 49.6273 25.7667 49.488 25.2094 49.488C24.6267 49.488 24.1074 49.6273 23.6514 49.906C23.1954 50.172 22.8344 50.5393 22.5684 51.008C22.315 51.464 22.1884 51.9897 22.1884 52.585C22.1884 53.155 22.315 53.6743 22.5684 54.143C22.8344 54.6117 23.1954 54.9853 23.6514 55.264C24.1074 55.53 24.6267 55.663 25.2094 55.663ZM32.8145 58V43.617H34.9615V49.735L34.6195 49.469C34.8729 48.823 35.2782 48.3353 35.8355 48.006C36.3929 47.664 37.0389 47.493 37.7735 47.493C38.5335 47.493 39.2049 47.6577 39.7875 47.987C40.3702 48.3163 40.8262 48.7723 41.1555 49.355C41.4849 49.9377 41.6495 50.6027 41.6495 51.35V58H39.5215V51.939C39.5215 51.4197 39.4202 50.9827 39.2175 50.628C39.0275 50.2607 38.7615 49.982 38.4195 49.792C38.0775 49.5893 37.6849 49.488 37.2415 49.488C36.8109 49.488 36.4182 49.5893 36.0635 49.792C35.7215 49.982 35.4492 50.2607 35.2465 50.628C35.0565 50.9953 34.9615 51.4323 34.9615 51.939V58H32.8145ZM52.1516 58.228C51.1256 58.228 50.2136 57.9937 49.4156 57.525C48.6303 57.0437 48.0033 56.3977 47.5346 55.587C47.0786 54.7763 46.8506 53.858 46.8506 52.832C46.8506 51.8187 47.0786 50.9067 47.5346 50.096C47.9906 49.2853 48.6176 48.652 49.4156 48.196C50.2136 47.7273 51.1256 47.493 52.1516 47.493C52.8483 47.493 53.5006 47.6197 54.1086 47.873C54.7166 48.1137 55.2423 48.4493 55.6856 48.88C56.1416 49.3107 56.4773 49.811 56.6926 50.381L54.8116 51.255C54.5963 50.723 54.248 50.2987 53.7666 49.982C53.298 49.6527 52.7596 49.488 52.1516 49.488C51.569 49.488 51.0433 49.6337 50.5746 49.925C50.1186 50.2037 49.7576 50.6027 49.4916 51.122C49.2256 51.6287 49.0926 52.205 49.0926 52.851C49.0926 53.497 49.2256 54.0797 49.4916 54.599C49.7576 55.1057 50.1186 55.5047 50.5746 55.796C51.0433 56.0873 51.569 56.233 52.1516 56.233C52.7723 56.233 53.3106 56.0747 53.7666 55.758C54.2353 55.4287 54.5836 54.9917 54.8116 54.447L56.6926 55.34C56.49 55.8847 56.1606 56.3787 55.7046 56.822C55.2613 57.2527 54.7356 57.5947 54.1276 57.848C53.5196 58.1013 52.861 58.228 52.1516 58.228ZM58.7911 58V43.617H60.9381V49.735L60.5961 49.469C60.8494 48.823 61.2548 48.3353 61.8121 48.006C62.3694 47.664 63.0154 47.493 63.7501 47.493C64.5101 47.493 65.1814 47.6577 65.7641 47.987C66.3468 48.3163 66.8028 48.7723 67.1321 49.355C67.4614 49.9377 67.6261 50.6027 67.6261 51.35V58H65.4981V51.939C65.4981 51.4197 65.3968 50.9827 65.1941 50.628C65.0041 50.2607 64.7381 49.982 64.3961 49.792C64.0541 49.5893 63.6614 49.488 63.2181 49.488C62.7874 49.488 62.3948 49.5893 62.0401 49.792C61.6981 49.982 61.4258 50.2607 61.2231 50.628C61.0331 50.9953 60.9381 51.4323 60.9381 51.939V58H58.7911ZM73.5909 58.228C72.8183 58.228 72.1406 58.057 71.5579 57.715C70.9753 57.3603 70.5193 56.8727 70.1899 56.252C69.8733 55.6187 69.7149 54.8903 69.7149 54.067V47.721H71.8619V53.877C71.8619 54.3457 71.9569 54.7573 72.1469 55.112C72.3369 55.4667 72.6029 55.7453 72.9449 55.948C73.2869 56.138 73.6796 56.233 74.1229 56.233C74.5789 56.233 74.9779 56.1317 75.3199 55.929C75.6619 55.7263 75.9279 55.4413 76.1179 55.074C76.3206 54.7067 76.4219 54.276 76.4219 53.782V47.721H78.5499V58H76.5169V55.986L76.7449 56.252C76.5043 56.8853 76.1053 57.373 75.5479 57.715C74.9906 58.057 74.3383 58.228 73.5909 58.228ZM81.0567 58V47.721H83.1087V49.792L82.9187 49.488C83.1467 48.8167 83.5141 48.3353 84.0207 48.044C84.5274 47.74 85.1354 47.588 85.8447 47.588H86.4717V49.545H85.5787C84.8694 49.545 84.2931 49.7667 83.8497 50.21C83.4191 50.6407 83.2037 51.2613 83.2037 52.072V58H81.0567ZM87.9405 58V47.721H89.9925V49.735L89.7455 49.469C89.9989 48.823 90.4042 48.3353 90.9615 48.006C91.5189 47.664 92.1649 47.493 92.8995 47.493C93.6595 47.493 94.3309 47.6577 94.9135 47.987C95.4962 48.3163 95.9522 48.7723 96.2815 49.355C96.6109 49.9377 96.7755 50.609 96.7755 51.369V58H94.6475V51.939C94.6475 51.4197 94.5525 50.9827 94.3625 50.628C94.1725 50.2607 93.9002 49.982 93.5455 49.792C93.2035 49.5893 92.8109 49.488 92.3675 49.488C91.9242 49.488 91.5252 49.5893 91.1705 49.792C90.8285 49.982 90.5625 50.2607 90.3725 50.628C90.1825 50.9953 90.0875 51.4323 90.0875 51.939V58H87.9405ZM102.395 58V47.721H104.447V49.792L104.257 49.488C104.485 48.8167 104.852 48.3353 105.359 48.044C105.865 47.74 106.473 47.588 107.183 47.588H107.81V49.545H106.917C106.207 49.545 105.631 49.7667 105.188 50.21C104.757 50.6407 104.542 51.2613 104.542 52.072V58H102.395ZM112.356 58.228C111.66 58.228 111.045 58.1077 110.513 57.867C109.994 57.6137 109.589 57.2717 109.297 56.841C109.006 56.3977 108.86 55.8783 108.86 55.283C108.86 54.7257 108.981 54.2253 109.221 53.782C109.475 53.3387 109.861 52.965 110.38 52.661C110.9 52.357 111.552 52.1417 112.337 52.015L115.909 51.426V53.117L112.755 53.668C112.185 53.7693 111.767 53.953 111.501 54.219C111.235 54.4723 111.102 54.8017 111.102 55.207C111.102 55.5997 111.248 55.9227 111.539 56.176C111.843 56.4167 112.23 56.537 112.698 56.537C113.281 56.537 113.788 56.4103 114.218 56.157C114.662 55.9037 115.004 55.568 115.244 55.15C115.485 54.7193 115.605 54.2443 115.605 53.725V51.084C115.605 50.5773 115.415 50.1657 115.035 49.849C114.668 49.5197 114.174 49.355 113.553 49.355C112.983 49.355 112.483 49.507 112.052 49.811C111.634 50.1023 111.324 50.4823 111.121 50.951L109.335 50.058C109.525 49.5513 109.836 49.108 110.266 48.728C110.697 48.3353 111.197 48.0313 111.767 47.816C112.35 47.6007 112.964 47.493 113.61 47.493C114.421 47.493 115.137 47.645 115.757 47.949C116.391 48.253 116.878 48.6773 117.22 49.222C117.575 49.754 117.752 50.3747 117.752 51.084V58H115.7V56.138L116.137 56.195C115.897 56.613 115.586 56.974 115.206 57.278C114.839 57.582 114.415 57.8163 113.933 57.981C113.465 58.1457 112.939 58.228 112.356 58.228ZM124.523 58.114C123.447 58.114 122.611 57.81 122.015 57.202C121.42 56.594 121.122 55.739 121.122 54.637V49.659H119.317V47.721H119.602C120.084 47.721 120.457 47.5817 120.723 47.303C120.989 47.0243 121.122 46.6443 121.122 46.163V45.365H123.269V47.721H125.606V49.659H123.269V54.542C123.269 54.8967 123.326 55.2007 123.44 55.454C123.554 55.6947 123.738 55.8847 123.991 56.024C124.245 56.1507 124.574 56.214 124.979 56.214C125.081 56.214 125.195 56.2077 125.321 56.195C125.448 56.1823 125.568 56.1697 125.682 56.157V58C125.505 58.0253 125.309 58.0507 125.093 58.076C124.878 58.1013 124.688 58.114 124.523 58.114ZM132.418 58.228C131.392 58.228 130.48 57.9937 129.682 57.525C128.897 57.0437 128.282 56.3977 127.839 55.587C127.396 54.7637 127.174 53.8453 127.174 52.832C127.174 51.7933 127.396 50.875 127.839 50.077C128.295 49.279 128.903 48.652 129.663 48.196C130.423 47.7273 131.284 47.493 132.247 47.493C133.02 47.493 133.71 47.626 134.318 47.892C134.926 48.158 135.439 48.5253 135.857 48.994C136.275 49.45 136.592 49.9757 136.807 50.571C137.035 51.1663 137.149 51.7997 137.149 52.471C137.149 52.6357 137.143 52.8067 137.13 52.984C137.117 53.1613 137.092 53.326 137.054 53.478H128.865V51.768H135.838L134.812 52.547C134.939 51.9263 134.894 51.3753 134.679 50.894C134.476 50.4 134.16 50.0137 133.729 49.735C133.311 49.4437 132.817 49.298 132.247 49.298C131.677 49.298 131.17 49.4437 130.727 49.735C130.284 50.0137 129.942 50.419 129.701 50.951C129.46 51.4703 129.365 52.1037 129.416 52.851C129.353 53.5477 129.448 54.1557 129.701 54.675C129.967 55.1943 130.334 55.5997 130.803 55.891C131.284 56.1823 131.829 56.328 132.437 56.328C133.058 56.328 133.583 56.1887 134.014 55.91C134.457 55.6313 134.806 55.2703 135.059 54.827L136.807 55.682C136.604 56.1633 136.288 56.6003 135.857 56.993C135.439 57.373 134.932 57.677 134.337 57.905C133.754 58.1203 133.115 58.228 132.418 58.228ZM145.055 58L141.521 47.721H143.801L146.499 55.91H145.701L148.456 47.721H150.413L153.149 55.91H152.351L155.068 47.721H157.348L153.795 58H151.857L149.083 49.621H149.786L147.012 58H145.055ZM158.819 58V47.721H160.966V58H158.819ZM158.819 46.315V43.845H160.966V46.315H158.819ZM167.923 58.114C166.846 58.114 166.01 57.81 165.415 57.202C164.819 56.594 164.522 55.739 164.522 54.637V49.659H162.717V47.721H163.002C163.483 47.721 163.857 47.5817 164.123 47.303C164.389 47.0243 164.522 46.6443 164.522 46.163V45.365H166.669V47.721H169.006V49.659H166.669V54.542C166.669 54.8967 166.726 55.2007 166.84 55.454C166.954 55.6947 167.137 55.8847 167.391 56.024C167.644 56.1507 167.973 56.214 168.379 56.214C168.48 56.214 168.594 56.2077 168.721 56.195C168.847 56.1823 168.968 56.1697 169.082 56.157V58C168.904 58.0253 168.708 58.0507 168.493 58.076C168.277 58.1013 168.087 58.114 167.923 58.114ZM171.177 58V43.617H173.324V49.735L172.982 49.469C173.235 48.823 173.641 48.3353 174.198 48.006C174.755 47.664 175.401 47.493 176.136 47.493C176.896 47.493 177.567 47.6577 178.15 47.987C178.733 48.3163 179.189 48.7723 179.518 49.355C179.847 49.9377 180.012 50.6027 180.012 51.35V58H177.884V51.939C177.884 51.4197 177.783 50.9827 177.58 50.628C177.39 50.2607 177.124 49.982 176.782 49.792C176.44 49.5893 176.047 49.488 175.604 49.488C175.173 49.488 174.781 49.5893 174.426 49.792C174.084 49.982 173.812 50.2607 173.609 50.628C173.419 50.9953 173.324 51.4323 173.324 51.939V58H171.177ZM182.31 58V47.721H184.457V58H182.31ZM182.31 46.315V43.845H184.457V46.315H182.31ZM186.967 58V47.721H189.019V49.735L188.772 49.469C189.025 48.823 189.431 48.3353 189.988 48.006C190.545 47.664 191.191 47.493 191.926 47.493C192.686 47.493 193.357 47.6577 193.94 47.987C194.523 48.3163 194.979 48.7723 195.308 49.355C195.637 49.9377 195.802 50.609 195.802 51.369V58H193.674V51.939C193.674 51.4197 193.579 50.9827 193.389 50.628C193.199 50.2607 192.927 49.982 192.572 49.792C192.23 49.5893 191.837 49.488 191.394 49.488C190.951 49.488 190.552 49.5893 190.197 49.792C189.855 49.982 189.589 50.2607 189.399 50.628C189.209 50.9953 189.114 51.4323 189.114 51.939V58H186.967ZM205.867 58.114C204.79 58.114 203.954 57.81 203.359 57.202C202.764 56.594 202.466 55.739 202.466 54.637V49.659H200.661V47.721H200.946C201.427 47.721 201.801 47.5817 202.067 47.303C202.333 47.0243 202.466 46.6443 202.466 46.163V45.365H204.613V47.721H206.95V49.659H204.613V54.542C204.613 54.8967 204.67 55.2007 204.784 55.454C204.898 55.6947 205.082 55.8847 205.335 56.024C205.588 56.1507 205.918 56.214 206.323 56.214C206.424 56.214 206.538 56.2077 206.665 56.195C206.792 56.1823 206.912 56.1697 207.026 56.157V58C206.849 58.0253 206.652 58.0507 206.437 58.076C206.222 58.1013 206.032 58.114 205.867 58.114ZM209.121 58V43.617H211.268V49.735L210.926 49.469C211.18 48.823 211.585 48.3353 212.142 48.006C212.7 47.664 213.346 47.493 214.08 47.493C214.84 47.493 215.512 47.6577 216.094 47.987C216.677 48.3163 217.133 48.7723 217.462 49.355C217.792 49.9377 217.956 50.6027 217.956 51.35V58H215.828V51.939C215.828 51.4197 215.727 50.9827 215.524 50.628C215.334 50.2607 215.068 49.982 214.726 49.792C214.384 49.5893 213.992 49.488 213.548 49.488C213.118 49.488 212.725 49.5893 212.37 49.792C212.028 49.982 211.756 50.2607 211.553 50.628C211.363 50.9953 211.268 51.4323 211.268 51.939V58H209.121ZM225.08 58.228C224.054 58.228 223.142 57.9937 222.344 57.525C221.559 57.0437 220.944 56.3977 220.501 55.587C220.058 54.7637 219.836 53.8453 219.836 52.832C219.836 51.7933 220.058 50.875 220.501 50.077C220.957 49.279 221.565 48.652 222.325 48.196C223.085 47.7273 223.946 47.493 224.909 47.493C225.682 47.493 226.372 47.626 226.98 47.892C227.588 48.158 228.101 48.5253 228.519 48.994C228.937 49.45 229.254 49.9757 229.469 50.571C229.697 51.1663 229.811 51.7997 229.811 52.471C229.811 52.6357 229.805 52.8067 229.792 52.984C229.779 53.1613 229.754 53.326 229.716 53.478H221.527V51.768H228.5L227.474 52.547C227.601 51.9263 227.556 51.3753 227.341 50.894C227.138 50.4 226.822 50.0137 226.391 49.735C225.973 49.4437 225.479 49.298 224.909 49.298C224.339 49.298 223.832 49.4437 223.389 49.735C222.946 50.0137 222.604 50.419 222.363 50.951C222.122 51.4703 222.027 52.1037 222.078 52.851C222.015 53.5477 222.11 54.1557 222.363 54.675C222.629 55.1943 222.996 55.5997 223.465 55.891C223.946 56.1823 224.491 56.328 225.099 56.328C225.72 56.328 226.245 56.1887 226.676 55.91C227.119 55.6313 227.468 55.2703 227.721 54.827L229.469 55.682C229.266 56.1633 228.95 56.6003 228.519 56.993C228.101 57.373 227.594 57.677 226.999 57.905C226.416 58.1203 225.777 58.228 225.08 58.228ZM2.913 90V81.659H1.013V79.721H2.913V79.189C2.913 78.4163 3.07133 77.7703 3.388 77.251C3.70467 76.719 4.14167 76.3137 4.699 76.035C5.269 75.7563 5.92133 75.617 6.656 75.617C6.79533 75.617 6.95367 75.6297 7.131 75.655C7.30833 75.6677 7.454 75.6867 7.568 75.712V77.574C7.46667 77.5487 7.35267 77.536 7.226 77.536C7.09933 77.5233 6.998 77.517 6.922 77.517C6.352 77.517 5.896 77.65 5.554 77.916C5.212 78.1693 5.041 78.5937 5.041 79.189V79.721H9.962V81.659H5.041V90H2.913ZM8.955 90V79.721H11.083V90H8.955ZM13.3507 90V79.721H15.4027V81.792L15.2127 81.488C15.4407 80.8167 15.808 80.3353 16.3147 80.044C16.8213 79.74 17.4293 79.588 18.1387 79.588H18.7657V81.545H17.8727C17.1633 81.545 16.587 81.7667 16.1437 82.21C15.713 82.6407 15.4977 83.2613 15.4977 84.072V90H13.3507ZM24.0345 90.228C22.9831 90.228 22.0585 89.9683 21.2605 89.449C20.4751 88.9297 19.9241 88.233 19.6075 87.359L21.2605 86.58C21.5391 87.1627 21.9191 87.625 22.4005 87.967C22.8945 88.309 23.4391 88.48 24.0345 88.48C24.5411 88.48 24.9528 88.366 25.2695 88.138C25.5861 87.91 25.7445 87.5997 25.7445 87.207C25.7445 86.9537 25.6748 86.751 25.5355 86.599C25.3961 86.4343 25.2188 86.3013 25.0035 86.2C24.8008 86.0987 24.5918 86.0227 24.3765 85.972L22.7615 85.516C21.8748 85.2627 21.2098 84.8827 20.7665 84.376C20.3358 83.8567 20.1205 83.255 20.1205 82.571C20.1205 81.9503 20.2788 81.412 20.5955 80.956C20.9121 80.4873 21.3491 80.1263 21.9065 79.873C22.4638 79.6197 23.0908 79.493 23.7875 79.493C24.7248 79.493 25.5608 79.7273 26.2955 80.196C27.0301 80.652 27.5495 81.2917 27.8535 82.115L26.2005 82.894C25.9978 82.4 25.6748 82.0073 25.2315 81.716C24.8008 81.4247 24.3131 81.279 23.7685 81.279C23.2998 81.279 22.9261 81.393 22.6475 81.621C22.3688 81.8363 22.2295 82.1213 22.2295 82.476C22.2295 82.7167 22.2928 82.9193 22.4195 83.084C22.5461 83.236 22.7108 83.3627 22.9135 83.464C23.1161 83.5527 23.3251 83.6287 23.5405 83.692L25.2125 84.186C26.0611 84.4267 26.7135 84.8067 27.1695 85.326C27.6255 85.8327 27.8535 86.4407 27.8535 87.15C27.8535 87.758 27.6888 88.2963 27.3595 88.765C27.0428 89.221 26.5995 89.582 26.0295 89.848C25.4595 90.1013 24.7945 90.228 24.0345 90.228ZM34.4031 90.114C33.3265 90.114 32.4905 89.81 31.8951 89.202C31.2998 88.594 31.0021 87.739 31.0021 86.637V81.659H29.1971V79.721H29.4821C29.9635 79.721 30.3371 79.5817 30.6031 79.303C30.8691 79.0243 31.0021 78.6443 31.0021 78.163V77.365H33.1491V79.721H35.4861V81.659H33.1491V86.542C33.1491 86.8967 33.2061 87.2007 33.3201 87.454C33.4341 87.6947 33.6178 87.8847 33.8711 88.024C34.1245 88.1507 34.4538 88.214 34.8591 88.214C34.9605 88.214 35.0745 88.2077 35.2011 88.195C35.3278 88.1823 35.4481 88.1697 35.5621 88.157V90C35.3848 90.0253 35.1885 90.0507 34.9731 90.076C34.7578 90.1013 34.5678 90.114 34.4031 90.114ZM41.8336 90L46.6786 83.73L47.0586 83.977C46.8813 84.167 46.6849 84.319 46.4696 84.433C46.2669 84.547 46.0453 84.6293 45.8046 84.68C45.5766 84.7307 45.3296 84.756 45.0636 84.756C44.2149 84.756 43.4549 84.566 42.7836 84.186C42.1123 83.7933 41.5803 83.2613 41.1876 82.59C40.8076 81.906 40.6176 81.1333 40.6176 80.272C40.6176 79.3727 40.8266 78.5747 41.2446 77.878C41.6626 77.1813 42.2326 76.6303 42.9546 76.225C43.6766 75.8197 44.4999 75.617 45.4246 75.617C46.3619 75.617 47.1853 75.8197 47.8946 76.225C48.6166 76.6303 49.1803 77.1877 49.5856 77.897C50.0036 78.5937 50.2126 79.3917 50.2126 80.291C50.2126 80.7723 50.1619 81.2473 50.0606 81.716C49.9593 82.1847 49.7819 82.6723 49.5286 83.179C49.2753 83.673 48.9206 84.2177 48.4646 84.813L44.5126 90H41.8336ZM45.4246 82.875C45.9186 82.875 46.3556 82.761 46.7356 82.533C47.1156 82.305 47.4196 81.9947 47.6476 81.602C47.8756 81.2093 47.9896 80.7597 47.9896 80.253C47.9896 79.7337 47.8756 79.2777 47.6476 78.885C47.4196 78.4797 47.1093 78.1693 46.7166 77.954C46.3366 77.726 45.9059 77.612 45.4246 77.612C44.9433 77.612 44.5063 77.726 44.1136 77.954C43.7336 78.1693 43.4296 78.4797 43.2016 78.885C42.9736 79.2777 42.8596 79.7337 42.8596 80.253C42.8596 80.7597 42.9673 81.2093 43.1826 81.602C43.4106 81.9947 43.7209 82.305 44.1136 82.533C44.5063 82.761 44.9433 82.875 45.4246 82.875ZM57.9567 90.228C56.8294 90.228 55.8414 89.924 54.9927 89.316C54.1441 88.6953 53.4791 87.8403 52.9977 86.751C52.5291 85.649 52.2947 84.3697 52.2947 82.913C52.2947 81.4437 52.5291 80.1643 52.9977 79.075C53.4791 77.9857 54.1377 77.137 54.9737 76.529C55.8224 75.921 56.8104 75.617 57.9377 75.617C59.0651 75.617 60.0467 75.921 60.8827 76.529C61.7314 77.137 62.3901 77.992 62.8587 79.094C63.3401 80.1833 63.5807 81.4563 63.5807 82.913C63.5807 84.3697 63.3464 85.649 62.8777 86.751C62.4091 87.8403 61.7504 88.6953 60.9017 89.316C60.0657 89.924 59.0841 90.228 57.9567 90.228ZM57.9567 88.176C58.6534 88.176 59.2551 87.9607 59.7617 87.53C60.2684 87.0993 60.6611 86.4913 60.9397 85.706C61.2184 84.9207 61.3577 83.9897 61.3577 82.913C61.3577 81.8363 61.2184 80.9053 60.9397 80.12C60.6611 79.3347 60.2684 78.7267 59.7617 78.296C59.2551 77.8653 58.6471 77.65 57.9377 77.65C57.2411 77.65 56.6394 77.8653 56.1327 78.296C55.6261 78.7267 55.2334 79.3347 54.9547 80.12C54.6761 80.9053 54.5367 81.8363 54.5367 82.913C54.5367 83.977 54.6761 84.908 54.9547 85.706C55.2334 86.4913 55.6261 87.0993 56.1327 87.53C56.6521 87.9607 57.2601 88.176 57.9567 88.176ZM74.0616 90.228C73.0736 90.228 72.187 89.9937 71.4016 89.525C70.629 89.0437 70.0146 88.3977 69.5586 87.587C69.1153 86.7763 68.8936 85.8643 68.8936 84.851C68.8936 83.8377 69.1216 82.9257 69.5776 82.115C70.0336 81.3043 70.648 80.6647 71.4206 80.196C72.1933 79.7273 73.0673 79.493 74.0426 79.493C74.866 79.493 75.5943 79.6577 76.2276 79.987C76.861 80.3163 77.3613 80.7723 77.7286 81.355L77.4056 81.849V75.617H79.5336V90H77.5006V87.91L77.7476 88.309C77.393 88.9297 76.8863 89.4047 76.2276 89.734C75.569 90.0633 74.847 90.228 74.0616 90.228ZM74.2706 88.233C74.866 88.233 75.398 88.0873 75.8666 87.796C76.348 87.5047 76.7216 87.1057 76.9876 86.599C77.2663 86.0797 77.4056 85.497 77.4056 84.851C77.4056 84.205 77.2663 83.6287 76.9876 83.122C76.7216 82.6153 76.348 82.2163 75.8666 81.925C75.398 81.6337 74.866 81.488 74.2706 81.488C73.6753 81.488 73.137 81.6337 72.6556 81.925C72.1743 82.2163 71.8006 82.6153 71.5346 83.122C71.2686 83.6287 71.1356 84.205 71.1356 84.851C71.1356 85.497 71.2686 86.0797 71.5346 86.599C71.8006 87.1057 72.168 87.5047 72.6366 87.796C73.118 88.0873 73.6626 88.233 74.2706 88.233ZM85.1181 90.228C84.4215 90.228 83.8071 90.1077 83.2751 89.867C82.7558 89.6137 82.3505 89.2717 82.0591 88.841C81.7678 88.3977 81.6221 87.8783 81.6221 87.283C81.6221 86.7257 81.7425 86.2253 81.9831 85.782C82.2365 85.3387 82.6228 84.965 83.1421 84.661C83.6615 84.357 84.3138 84.1417 85.0991 84.015L88.6711 83.426V85.117L85.5171 85.668C84.9471 85.7693 84.5291 85.953 84.2631 86.219C83.9971 86.4723 83.8641 86.8017 83.8641 87.207C83.8641 87.5997 84.0098 87.9227 84.3011 88.176C84.6051 88.4167 84.9915 88.537 85.4601 88.537C86.0428 88.537 86.5495 88.4103 86.9801 88.157C87.4235 87.9037 87.7655 87.568 88.0061 87.15C88.2468 86.7193 88.3671 86.2443 88.3671 85.725V83.084C88.3671 82.5773 88.1771 82.1657 87.7971 81.849C87.4298 81.5197 86.9358 81.355 86.3151 81.355C85.7451 81.355 85.2448 81.507 84.8141 81.811C84.3961 82.1023 84.0858 82.4823 83.8831 82.951L82.0971 82.058C82.2871 81.5513 82.5975 81.108 83.0281 80.728C83.4588 80.3353 83.9591 80.0313 84.5291 79.816C85.1118 79.6007 85.7261 79.493 86.3721 79.493C87.1828 79.493 87.8985 79.645 88.5191 79.949C89.1525 80.253 89.6401 80.6773 89.9821 81.222C90.3368 81.754 90.5141 82.3747 90.5141 83.084V90H88.4621V88.138L88.8991 88.195C88.6585 88.613 88.3481 88.974 87.9681 89.278C87.6008 89.582 87.1765 89.8163 86.6951 89.981C86.2265 90.1457 85.7008 90.228 85.1181 90.228ZM93.9365 94.18C93.6832 94.18 93.4298 94.1547 93.1765 94.104C92.9358 94.066 92.7142 94.0027 92.5115 93.914V92.071C92.6635 92.109 92.8472 92.1407 93.0625 92.166C93.2778 92.204 93.4868 92.223 93.6895 92.223C94.2848 92.223 94.7218 92.09 95.0005 91.824C95.2918 91.5707 95.5515 91.178 95.7795 90.646L96.4635 89.088L96.4255 90.893L91.9795 79.721H94.2785L97.5655 88.29H96.7865L100.055 79.721H102.373L97.8315 91.121C97.5908 91.729 97.2868 92.261 96.9195 92.717C96.5648 93.1857 96.1405 93.5467 95.6465 93.8C95.1652 94.0533 94.5952 94.18 93.9365 94.18ZM107.642 90.228C106.591 90.228 105.666 89.9683 104.868 89.449C104.083 88.9297 103.532 88.233 103.215 87.359L104.868 86.58C105.147 87.1627 105.527 87.625 106.008 87.967C106.502 88.309 107.047 88.48 107.642 88.48C108.149 88.48 108.56 88.366 108.877 88.138C109.194 87.91 109.352 87.5997 109.352 87.207C109.352 86.9537 109.282 86.751 109.143 86.599C109.004 86.4343 108.826 86.3013 108.611 86.2C108.408 86.0987 108.199 86.0227 107.984 85.972L106.369 85.516C105.482 85.2627 104.817 84.8827 104.374 84.376C103.943 83.8567 103.728 83.255 103.728 82.571C103.728 81.9503 103.886 81.412 104.203 80.956C104.52 80.4873 104.957 80.1263 105.514 79.873C106.071 79.6197 106.698 79.493 107.395 79.493C108.332 79.493 109.168 79.7273 109.903 80.196C110.638 80.652 111.157 81.2917 111.461 82.115L109.808 82.894C109.605 82.4 109.282 82.0073 108.839 81.716C108.408 81.4247 107.921 81.279 107.376 81.279C106.907 81.279 106.534 81.393 106.255 81.621C105.976 81.8363 105.837 82.1213 105.837 82.476C105.837 82.7167 105.9 82.9193 106.027 83.084C106.154 83.236 106.318 83.3627 106.521 83.464C106.724 83.5527 106.933 83.6287 107.148 83.692L108.82 84.186C109.669 84.4267 110.321 84.8067 110.777 85.326C111.233 85.8327 111.461 86.4407 111.461 87.15C111.461 87.758 111.296 88.2963 110.967 88.765C110.65 89.221 110.207 89.582 109.637 89.848C109.067 90.1013 108.402 90.228 107.642 90.228Z" fill="#5E2FD3"/>
</svg>
