<svg width="279" height="32" viewBox="0 0 279 32" fill="none" xmlns="http://www.w3.org/2000/svg">
<mask id="mask0_1233_269" style="mask-type:alpha" maskUnits="userSpaceOnUse" x="0" y="4" width="25" height="24">
<rect x="0.167969" y="4" width="24" height="24" fill="#D9D9D9"/>
</mask>
<g mask="url(#mask0_1233_269)">
<path d="M6.16797 18H14.168V16H6.16797V18ZM6.16797 15H18.168V13H6.16797V15ZM6.16797 12H18.168V10H6.16797V12ZM2.16797 26V8C2.16797 7.45 2.3638 6.97917 2.75547 6.5875C3.14714 6.19583 3.61797 6 4.16797 6H20.168C20.718 6 21.1888 6.19583 21.5805 6.5875C21.9721 6.97917 22.168 7.45 22.168 8V20C22.168 20.55 21.9721 21.0208 21.5805 21.4125C21.1888 21.8042 20.718 22 20.168 22H6.16797L2.16797 26ZM5.31797 20H20.168V8H4.16797V21.125L5.31797 20Z" fill="#5E2FD3"/>
</g>
<path d="M35.631 24V9.845H40.78C41.73 9.845 42.566 10.0223 43.288 10.377C44.0226 10.719 44.5926 11.2257 44.998 11.897C45.4033 12.5557 45.606 13.3473 45.606 14.272C45.606 15.184 45.397 15.9693 44.979 16.628C44.5736 17.2867 44.01 17.7933 43.288 18.148C42.566 18.5027 41.73 18.68 40.78 18.68H37.873V24H35.631ZM37.873 16.685H40.837C41.3436 16.685 41.787 16.5837 42.167 16.381C42.547 16.1783 42.8446 15.8997 43.06 15.545C43.2753 15.1777 43.383 14.747 43.383 14.253C43.383 13.759 43.2753 13.3347 43.06 12.98C42.8446 12.6127 42.547 12.334 42.167 12.144C41.787 11.9413 41.3436 11.84 40.837 11.84H37.873V16.685ZM52.2931 24.228C51.3051 24.228 50.3994 23.9937 49.5761 23.525C48.7654 23.0563 48.1194 22.4167 47.6381 21.606C47.1567 20.7953 46.9161 19.877 46.9161 18.851C46.9161 17.8123 47.1567 16.894 47.6381 16.096C48.1194 15.2853 48.7654 14.652 49.5761 14.196C50.3867 13.7273 51.2924 13.493 52.2931 13.493C53.3064 13.493 54.2121 13.7273 55.0101 14.196C55.8207 14.652 56.4604 15.2853 56.9291 16.096C57.4104 16.894 57.6511 17.8123 57.6511 18.851C57.6511 19.8897 57.4104 20.8143 56.9291 21.625C56.4477 22.4357 55.8017 23.0753 54.9911 23.544C54.1804 24 53.2811 24.228 52.2931 24.228ZM52.2931 22.233C52.9011 22.233 53.4394 22.0873 53.9081 21.796C54.3767 21.5047 54.7441 21.1057 55.0101 20.599C55.2887 20.0797 55.4281 19.497 55.4281 18.851C55.4281 18.205 55.2887 17.6287 55.0101 17.122C54.7441 16.6153 54.3767 16.2163 53.9081 15.925C53.4394 15.6337 52.9011 15.488 52.2931 15.488C51.6977 15.488 51.1594 15.6337 50.6781 15.925C50.2094 16.2163 49.8357 16.6153 49.5571 17.122C49.2911 17.6287 49.1581 18.205 49.1581 18.851C49.1581 19.497 49.2911 20.0797 49.5571 20.599C49.8357 21.1057 50.2094 21.5047 50.6781 21.796C51.1594 22.0873 51.6977 22.233 52.2931 22.233ZM64.7062 24.228C63.7182 24.228 62.8125 23.9937 61.9892 23.525C61.1785 23.0563 60.5325 22.4167 60.0512 21.606C59.5698 20.7953 59.3292 19.877 59.3292 18.851C59.3292 17.8123 59.5698 16.894 60.0512 16.096C60.5325 15.2853 61.1785 14.652 61.9892 14.196C62.7998 13.7273 63.7055 13.493 64.7062 13.493C65.7195 13.493 66.6252 13.7273 67.4232 14.196C68.2338 14.652 68.8735 15.2853 69.3422 16.096C69.8235 16.894 70.0642 17.8123 70.0642 18.851C70.0642 19.8897 69.8235 20.8143 69.3422 21.625C68.8608 22.4357 68.2148 23.0753 67.4042 23.544C66.5935 24 65.6942 24.228 64.7062 24.228ZM64.7062 22.233C65.3142 22.233 65.8525 22.0873 66.3212 21.796C66.7898 21.5047 67.1572 21.1057 67.4232 20.599C67.7018 20.0797 67.8412 19.497 67.8412 18.851C67.8412 18.205 67.7018 17.6287 67.4232 17.122C67.1572 16.6153 66.7898 16.2163 66.3212 15.925C65.8525 15.6337 65.3142 15.488 64.7062 15.488C64.1108 15.488 63.5725 15.6337 63.0912 15.925C62.6225 16.2163 62.2488 16.6153 61.9702 17.122C61.7042 17.6287 61.5712 18.205 61.5712 18.851C61.5712 19.497 61.7042 20.0797 61.9702 20.599C62.2488 21.1057 62.6225 21.5047 63.0912 21.796C63.5725 22.0873 64.1108 22.233 64.7062 22.233ZM72.1602 24V13.721H74.2123V15.792L74.0223 15.488C74.2503 14.8167 74.6176 14.3353 75.1243 14.044C75.6309 13.74 76.2389 13.588 76.9483 13.588H77.5753V15.545H76.6823C75.9729 15.545 75.3966 15.7667 74.9533 16.21C74.5226 16.6407 74.3073 17.2613 74.3073 18.072V24H72.1602ZM86.8113 24.114C85.7347 24.114 84.8987 23.81 84.3033 23.202C83.708 22.594 83.4103 21.739 83.4103 20.637V15.659H81.6053V13.721H81.8903C82.3717 13.721 82.7453 13.5817 83.0113 13.303C83.2773 13.0243 83.4103 12.6443 83.4103 12.163V11.365H85.5573V13.721H87.8943V15.659H85.5573V20.542C85.5573 20.8967 85.6143 21.2007 85.7283 21.454C85.8423 21.6947 86.026 21.8847 86.2793 22.024C86.5327 22.1507 86.862 22.214 87.2673 22.214C87.3687 22.214 87.4827 22.2077 87.6093 22.195C87.736 22.1823 87.8563 22.1697 87.9703 22.157V24C87.793 24.0253 87.5967 24.0507 87.3813 24.076C87.166 24.1013 86.976 24.114 86.8113 24.114ZM90.0655 24V13.721H92.1175V15.792L91.9275 15.488C92.1555 14.8167 92.5229 14.3353 93.0295 14.044C93.5362 13.74 94.1442 13.588 94.8535 13.588H95.4805V15.545H94.5875C93.8782 15.545 93.3019 15.7667 92.8585 16.21C92.4279 16.6407 92.2125 17.2613 92.2125 18.072V24H90.0655ZM101.775 24.228C100.749 24.228 99.8373 23.9937 99.0393 23.525C98.254 23.0437 97.6396 22.3977 97.1963 21.587C96.753 20.7637 96.5313 19.8453 96.5313 18.832C96.5313 17.7933 96.753 16.875 97.1963 16.077C97.6523 15.279 98.2603 14.652 99.0203 14.196C99.7803 13.7273 100.642 13.493 101.604 13.493C102.377 13.493 103.067 13.626 103.675 13.892C104.283 14.158 104.796 14.5253 105.214 14.994C105.632 15.45 105.949 15.9757 106.164 16.571C106.392 17.1663 106.506 17.7997 106.506 18.471C106.506 18.6357 106.5 18.8067 106.487 18.984C106.475 19.1613 106.449 19.326 106.411 19.478H98.2223V17.768H105.195L104.169 18.547C104.296 17.9263 104.252 17.3753 104.036 16.894C103.834 16.4 103.517 16.0137 103.086 15.735C102.668 15.4437 102.174 15.298 101.604 15.298C101.034 15.298 100.528 15.4437 100.084 15.735C99.641 16.0137 99.299 16.419 99.0583 16.951C98.8176 17.4703 98.7226 18.1037 98.7733 18.851C98.71 19.5477 98.805 20.1557 99.0583 20.675C99.3243 21.1943 99.6916 21.5997 100.16 21.891C100.642 22.1823 101.186 22.328 101.794 22.328C102.415 22.328 102.941 22.1887 103.371 21.91C103.815 21.6313 104.163 21.2703 104.416 20.827L106.164 21.682C105.962 22.1633 105.645 22.6003 105.214 22.993C104.796 23.373 104.29 23.677 103.694 23.905C103.112 24.1203 102.472 24.228 101.775 24.228ZM111.587 24.228C110.89 24.228 110.276 24.1077 109.744 23.867C109.225 23.6137 108.819 23.2717 108.528 22.841C108.237 22.3977 108.091 21.8783 108.091 21.283C108.091 20.7257 108.211 20.2253 108.452 19.782C108.705 19.3387 109.092 18.965 109.611 18.661C110.13 18.357 110.783 18.1417 111.568 18.015L115.14 17.426V19.117L111.986 19.668C111.416 19.7693 110.998 19.953 110.732 20.219C110.466 20.4723 110.333 20.8017 110.333 21.207C110.333 21.5997 110.479 21.9227 110.77 22.176C111.074 22.4167 111.46 22.537 111.929 22.537C112.512 22.537 113.018 22.4103 113.449 22.157C113.892 21.9037 114.234 21.568 114.475 21.15C114.716 20.7193 114.836 20.2443 114.836 19.725V17.084C114.836 16.5773 114.646 16.1657 114.266 15.849C113.899 15.5197 113.405 15.355 112.784 15.355C112.214 15.355 111.714 15.507 111.283 15.811C110.865 16.1023 110.555 16.4823 110.352 16.951L108.566 16.058C108.756 15.5513 109.066 15.108 109.497 14.728C109.928 14.3353 110.428 14.0313 110.998 13.816C111.581 13.6007 112.195 13.493 112.841 13.493C113.652 13.493 114.367 13.645 114.988 13.949C115.621 14.253 116.109 14.6773 116.451 15.222C116.806 15.754 116.983 16.3747 116.983 17.084V24H114.931V22.138L115.368 22.195C115.127 22.613 114.817 22.974 114.437 23.278C114.07 23.582 113.645 23.8163 113.164 23.981C112.695 24.1457 112.17 24.228 111.587 24.228ZM123.754 24.114C122.677 24.114 121.841 23.81 121.246 23.202C120.65 22.594 120.353 21.739 120.353 20.637V15.659H118.548V13.721H118.833C119.314 13.721 119.688 13.5817 119.954 13.303C120.22 13.0243 120.353 12.6443 120.353 12.163V11.365H122.5V13.721H124.837V15.659H122.5V20.542C122.5 20.8967 122.557 21.2007 122.671 21.454C122.785 21.6947 122.968 21.8847 123.222 22.024C123.475 22.1507 123.804 22.214 124.21 22.214C124.311 22.214 124.425 22.2077 124.552 22.195C124.678 22.1823 124.799 22.1697 124.913 22.157V24C124.735 24.0253 124.539 24.0507 124.324 24.076C124.108 24.1013 123.918 24.114 123.754 24.114ZM127.008 24V13.721H129.06V15.944L128.794 15.602C129.009 14.9053 129.402 14.3797 129.972 14.025C130.542 13.6703 131.194 13.493 131.929 13.493C132.752 13.493 133.481 13.7147 134.114 14.158C134.76 14.5887 135.191 15.165 135.406 15.887L134.798 15.944C135.102 15.1207 135.564 14.5063 136.185 14.101C136.818 13.6957 137.54 13.493 138.351 13.493C139.06 13.493 139.7 13.6577 140.27 13.987C140.853 14.3163 141.315 14.7723 141.657 15.355C141.999 15.9377 142.17 16.6027 142.17 17.35V24H140.023V17.939C140.023 17.4197 139.928 16.9827 139.738 16.628C139.561 16.2607 139.307 15.982 138.978 15.792C138.661 15.5893 138.288 15.488 137.857 15.488C137.426 15.488 137.046 15.5893 136.717 15.792C136.388 15.982 136.128 16.2607 135.938 16.628C135.748 16.9953 135.653 17.4323 135.653 17.939V24H133.525V17.939C133.525 17.4197 133.43 16.9827 133.24 16.628C133.063 16.2607 132.809 15.982 132.48 15.792C132.163 15.5893 131.783 15.488 131.34 15.488C130.909 15.488 130.529 15.5893 130.2 15.792C129.871 15.982 129.611 16.2607 129.421 16.628C129.244 16.9953 129.155 17.4323 129.155 17.939V24H127.008ZM149.294 24.228C148.268 24.228 147.356 23.9937 146.558 23.525C145.773 23.0437 145.158 22.3977 144.715 21.587C144.272 20.7637 144.05 19.8453 144.05 18.832C144.05 17.7933 144.272 16.875 144.715 16.077C145.171 15.279 145.779 14.652 146.539 14.196C147.299 13.7273 148.16 13.493 149.123 13.493C149.896 13.493 150.586 13.626 151.194 13.892C151.802 14.158 152.315 14.5253 152.733 14.994C153.151 15.45 153.468 15.9757 153.683 16.571C153.911 17.1663 154.025 17.7997 154.025 18.471C154.025 18.6357 154.019 18.8067 154.006 18.984C153.993 19.1613 153.968 19.326 153.93 19.478H145.741V17.768H152.714L151.688 18.547C151.815 17.9263 151.77 17.3753 151.555 16.894C151.352 16.4 151.036 16.0137 150.605 15.735C150.187 15.4437 149.693 15.298 149.123 15.298C148.553 15.298 148.046 15.4437 147.603 15.735C147.16 16.0137 146.818 16.419 146.577 16.951C146.336 17.4703 146.241 18.1037 146.292 18.851C146.229 19.5477 146.324 20.1557 146.577 20.675C146.843 21.1943 147.21 21.5997 147.679 21.891C148.16 22.1823 148.705 22.328 149.313 22.328C149.934 22.328 150.459 22.1887 150.89 21.91C151.333 21.6313 151.682 21.2703 151.935 20.827L153.683 21.682C153.48 22.1633 153.164 22.6003 152.733 22.993C152.315 23.373 151.808 23.677 151.213 23.905C150.63 24.1203 149.991 24.228 149.294 24.228ZM156.12 24V13.721H158.172V15.735L157.925 15.469C158.179 14.823 158.584 14.3353 159.141 14.006C159.699 13.664 160.345 13.493 161.079 13.493C161.839 13.493 162.511 13.6577 163.093 13.987C163.676 14.3163 164.132 14.7723 164.461 15.355C164.791 15.9377 164.955 16.609 164.955 17.369V24H162.827V17.939C162.827 17.4197 162.732 16.9827 162.542 16.628C162.352 16.2607 162.08 15.982 161.725 15.792C161.383 15.5893 160.991 15.488 160.547 15.488C160.104 15.488 159.705 15.5893 159.35 15.792C159.008 15.982 158.742 16.2607 158.552 16.628C158.362 16.9953 158.267 17.4323 158.267 17.939V24H156.12ZM171.699 24.114C170.622 24.114 169.786 23.81 169.191 23.202C168.596 22.594 168.298 21.739 168.298 20.637V15.659H166.493V13.721H166.778C167.259 13.721 167.633 13.5817 167.899 13.303C168.165 13.0243 168.298 12.6443 168.298 12.163V11.365H170.445V13.721H172.782V15.659H170.445V20.542C170.445 20.8967 170.502 21.2007 170.616 21.454C170.73 21.6947 170.914 21.8847 171.167 22.024C171.42 22.1507 171.75 22.214 172.155 22.214C172.256 22.214 172.37 22.2077 172.497 22.195C172.624 22.1823 172.744 22.1697 172.858 22.157V24C172.681 24.0253 172.484 24.0507 172.269 24.076C172.054 24.1013 171.864 24.114 171.699 24.114Z" fill="#5E2FD3"/>
</svg>
