<svg width="24" height="24" viewBox="0 0 24 24" fill="none" xmlns="http://www.w3.org/2000/svg">
<mask id="mask0_941_34" style="mask-type:alpha" maskUnits="userSpaceOnUse" x="0" y="0" width="24" height="24">
<rect width="24" height="24" fill="#D9D9D9"/>
</mask>
<g mask="url(#mask0_941_34)">
<path d="M11.9996 21.9996C10.7496 21.9996 9.57878 21.7621 8.48711 21.2871C7.39544 20.8121 6.44544 20.1704 5.63711 19.3621C4.82878 18.5538 4.18711 17.6038 3.71211 16.5121C3.23711 15.4204 2.99961 14.2496 2.99961 12.9996C2.99961 11.7496 3.23711 10.5788 3.71211 9.48711C4.18711 8.39544 4.82878 7.44544 5.63711 6.63711C6.44544 5.82878 7.39544 5.18711 8.48711 4.71211C9.57878 4.23711 10.7496 3.99961 11.9996 3.99961C13.2496 3.99961 14.4204 4.23711 15.5121 4.71211C16.6038 5.18711 17.5538 5.82878 18.3621 6.63711C19.1704 7.44544 19.8121 8.39544 20.2871 9.48711C20.7621 10.5788 20.9996 11.7496 20.9996 12.9996C20.9996 14.2496 20.7621 15.4204 20.2871 16.5121C19.8121 17.6038 19.1704 18.5538 18.3621 19.3621C17.5538 20.1704 16.6038 20.8121 15.5121 21.2871C14.4204 21.7621 13.2496 21.9996 11.9996 21.9996ZM14.7996 17.1996L16.1996 15.7996L12.9996 12.5996V7.99961H10.9996V13.3996L14.7996 17.1996ZM5.59961 2.34961L6.99961 3.74961L2.74961 7.99961L1.34961 6.59961L5.59961 2.34961ZM18.3996 2.34961L22.6496 6.59961L21.2496 7.99961L16.9996 3.74961L18.3996 2.34961ZM11.9996 19.9996C13.9496 19.9996 15.6038 19.3204 16.9621 17.9621C18.3204 16.6038 18.9996 14.9496 18.9996 12.9996C18.9996 11.0496 18.3204 9.39544 16.9621 8.03711C15.6038 6.67878 13.9496 5.99961 11.9996 5.99961C10.0496 5.99961 8.39544 6.67878 7.03711 8.03711C5.67878 9.39544 4.99961 11.0496 4.99961 12.9996C4.99961 14.9496 5.67878 16.6038 7.03711 17.9621C8.39544 19.3204 10.0496 19.9996 11.9996 19.9996Z" fill="#5E2FD3"/>
</g>
</svg>
