<svg width="25" height="24" viewBox="0 0 25 24" fill="none" xmlns="http://www.w3.org/2000/svg">
<mask id="mask0_941_344" style="mask-type:alpha" maskUnits="userSpaceOnUse" x="0" y="0" width="25" height="24">
<rect x="0.5" width="24" height="24" fill="#D9D9D9"/>
</mask>
<g mask="url(#mask0_941_344)">
<path d="M12.5 22.5C11.45 22.5 10.5625 22.1375 9.8375 21.4125C9.1125 20.6875 8.75 19.8 8.75 18.75C8.75 17.8833 9.00833 17.1208 9.525 16.4625C10.0417 15.8042 10.7 15.3583 11.5 15.125V13H5.5V9H3V2H10V9H7.5V11H17.5V8.875C16.7 8.64167 16.0417 8.19583 15.525 7.5375C15.0083 6.87917 14.75 6.11667 14.75 5.25C14.75 4.2 15.1125 3.3125 15.8375 2.5875C16.5625 1.8625 17.45 1.5 18.5 1.5C19.55 1.5 20.4375 1.8625 21.1625 2.5875C21.8875 3.3125 22.25 4.2 22.25 5.25C22.25 6.11667 21.9917 6.87917 21.475 7.5375C20.9583 8.19583 20.3 8.64167 19.5 8.875V13H13.5V15.125C14.3 15.3583 14.9583 15.8042 15.475 16.4625C15.9917 17.1208 16.25 17.8833 16.25 18.75C16.25 19.8 15.8875 20.6875 15.1625 21.4125C14.4375 22.1375 13.55 22.5 12.5 22.5ZM18.5 7C18.9833 7 19.3958 6.82917 19.7375 6.4875C20.0792 6.14583 20.25 5.73333 20.25 5.25C20.25 4.76667 20.0792 4.35417 19.7375 4.0125C19.3958 3.67083 18.9833 3.5 18.5 3.5C18.0167 3.5 17.6042 3.67083 17.2625 4.0125C16.9208 4.35417 16.75 4.76667 16.75 5.25C16.75 5.73333 16.9208 6.14583 17.2625 6.4875C17.6042 6.82917 18.0167 7 18.5 7ZM5 7H8V4H5V7ZM12.5 20.5C12.9833 20.5 13.3958 20.3292 13.7375 19.9875C14.0792 19.6458 14.25 19.2333 14.25 18.75C14.25 18.2667 14.0792 17.8542 13.7375 17.5125C13.3958 17.1708 12.9833 17 12.5 17C12.0167 17 11.6042 17.1708 11.2625 17.5125C10.9208 17.8542 10.75 18.2667 10.75 18.75C10.75 19.2333 10.9208 19.6458 11.2625 19.9875C11.6042 20.3292 12.0167 20.5 12.5 20.5Z" fill="#5E2FD3"/>
</g>
</svg>
